<?xml version="1.0" encoding="UTF-8"?>
<!DOCTYPE svg PUBLIC "-//W3C//DTD SVG 1.1//EN"
    "http://www.w3.org/Graphics/SVG/1.1/DTD/svg11.dtd"><svg xmlns="http://www.w3.org/2000/svg" viewBox="0.0 0.0 553.8776249094859 47.111393409815484" height="47.1114" font-size="1" stroke-opacity="1" width="553.8776" xmlns:xlink="http://www.w3.org/1999/xlink" stroke="rgb(0,0,0)" version="1.1"><defs></defs><g><g stroke-linecap="butt" fill="rgb(0,0,0)" stroke-miterlimit="10.0" stroke-width="0.5" fill-opacity="0.0" stroke-opacity="1.0" stroke-linejoin="miter" stroke="rgb(0,0,0)"><path d="M 355.0471,23.5651 h 20.0000 "/></g><g stroke-linecap="butt" fill="rgb(0,0,0)" stroke-miterlimit="10.0" stroke-width="0.0" fill-opacity="1.0" stroke-opacity="1.0" stroke-linejoin="miter" stroke="rgb(0,0,0)"></g><g stroke-linecap="butt" fill="rgb(0,0,0)" stroke-miterlimit="10.0" stroke-width="0.0" fill-opacity="1.0" stroke-opacity="1.0" stroke-linejoin="miter" stroke="rgb(0,0,0)"></g><g stroke-linecap="butt" fill="rgb(0,0,0)" stroke-miterlimit="10.0" stroke-width="0.0" fill-opacity="1.0" stroke-opacity="1.0" stroke-linejoin="miter" stroke="rgb(0,0,0)"><path d="M 380.0471,23.5651 l -5.0000,-2.8868 v 5.7735 Z"/></g><g stroke-linecap="butt" fill="rgb(0,0,0)" stroke-miterlimit="10.0" stroke-width="0.0" fill-opacity="1.0" stroke-opacity="1.0" stroke-linejoin="miter" stroke="rgb(0,0,0)"></g><title>Submission of Connor</title></g><g stroke-linecap="butt" fill="rgb(255,255,255)" stroke-miterlimit="10.0" stroke-width="1.0" fill-opacity="1.0" stroke-opacity="1.0" stroke-linejoin="miter" stroke="rgb(0,0,0)"><path d="M 355.0471,42.3151 l -0.0000,-37.5000 h -228.5192 l -0.0000,37.5000 Z"/></g><g stroke-linecap="butt" fill="rgb(0,0,0)" stroke-miterlimit="10.0" stroke-width="0.0" fill-opacity="1.0" stroke-opacity="1.0" stroke-linejoin="miter" stroke="rgb(0,0,0)"><path d="M 130.8581,29.7737 ZM 137.3208,29.9547 c -3.8921,-0.0000 -5.7929,-2.6466 -5.7929 -5.7929c 0.0000,-1.8881 0.7169,-3.6604 1.9189 -4.7610c 1.0681,-0.9776 2.3534,-1.5387 3.8921 -1.5387c 2.2266,-0.0000 3.0413,0.7241 3.9645 0.8146c 0.1810,0.9957 0.3077,1.8646 0.3983 2.8059c -0.2046,0.1086 -0.3802,0.1629 -0.5974 0.0905c -0.4707,-1.5568 -1.4663,-3.0413 -3.9645 -3.0413c -0.9413,-0.0000 -1.9913,0.5069 -2.8892 1.6112c -0.6608,0.8128 -1.0753,2.1126 -1.0753 3.6749c 0.0000,2.6430 1.6908,5.3946 4.1274 5.3946c 1.6836,-0.0000 2.9146,-0.5612 4.1999 -1.9732c 0.1991,-0.0000 0.3259,0.1086 0.4164 0.2715c -1.2310,1.6112 -2.8421,2.4439 -4.5981 2.4439ZM 142.5525,29.7737 ZM 143.2947,26.0626 c 0.0000,-1.1441 0.3440,-2.1977 1.0011 -2.9689c 0.6626,-0.7784 1.6455,-1.2672 2.8367 -1.2672c 2.7697,-0.0000 3.8016,2.1904 3.8016 4.0731c 0.0000,1.1097 -0.3675,2.2484 -1.1785 3.0413c -0.6173,0.6028 -1.4935,1.0138 -2.6593 1.0138c -2.5706,-0.0000 -3.8016,-2.0456 -3.8016 -3.8921ZM 143.2947,26.0626 ZM 146.8610,22.4602 c -1.6293,-0.0000 -2.0094,1.6112 -2.0094 3.1861c 0.0000,1.3939 0.6155,3.6749 2.4982 3.6749c 0.8508,-0.0000 2.0275,-0.5612 2.0275 -2.8421c 0.0000,-2.6068 -0.9594,-4.0188 -2.5163 -4.0188ZM 151.6763,29.7737 ZM 153.3961,27.5652 v -7.9109 c 0.0000,-1.3577 -0.1086,-1.4120 -1.1586 -1.4844c -0.1086,-0.1086 -0.1448,-0.3983 -0.1086 -0.5431c 0.7241,-0.0543 2.0818,-0.3077 2.5344 -0.4888c 0.1629,-0.0000 0.2353,0.0543 0.2353 0.1810c 0.0000,-0.0000 -0.0724,0.7241 -0.0724 1.9008v 8.3454 c 0.0000,1.5025 0.1991,1.5930 1.3034 1.6474c 0.1086,0.1086 0.1086,0.4888 0.0000 0.5974c -0.5974,-0.0181 -1.2853,-0.0362 -2.0094 -0.0362c -0.7241,-0.0000 -1.3939,0.0181 -2.0275 0.0362c -0.1086,-0.1086 -0.1086,-0.4888 0.0000 -0.5974c 1.1043,-0.0543 1.3034,-0.1448 1.3034 -1.6474ZM 156.4555,29.7737 ZM 158.1752,27.5652 v -7.9109 c 0.0000,-1.3577 -0.1086,-1.4120 -1.1586 -1.4844c -0.1086,-0.1086 -0.1448,-0.3983 -0.1086 -0.5431c 0.7241,-0.0543 2.0818,-0.3077 2.5344 -0.4888c 0.1629,-0.0000 0.2353,0.0543 0.2353 0.1810c 0.0000,-0.0000 -0.0724,0.7241 -0.0724 1.9008v 8.3454 c 0.0000,1.5025 0.1991,1.5930 1.3034 1.6474c 0.1086,0.1086 0.1086,0.4888 0.0000 0.5974c -0.5974,-0.0181 -1.2853,-0.0362 -2.0094 -0.0362c -0.7241,-0.0000 -1.3939,0.0181 -2.0275 0.0362c -0.1086,-0.1086 -0.1086,-0.4888 0.0000 -0.5974c 1.1043,-0.0543 1.3034,-0.1448 1.3034 -1.6474ZM 161.2346,29.7737 ZM 163.4794,24.6687 l 3.2766,-0.0543 c 0.1991,-0.0036 0.2715,-0.0905 0.2715 -0.2534c 0.0000,-1.5206 -0.8146,-1.9008 -1.5025 -1.9008c -0.4345,-0.0000 -1.7017,0.1629 -2.0456 2.2085ZM 163.4794,24.6687 ZM 168.2223,28.0902 c 0.2172,0.0181 0.3259,0.1086 0.3802 0.2896c -0.7241,0.9413 -1.7017,1.5749 -3.0775 1.5749c -1.3034,-0.0000 -2.1542,-0.4345 -2.7697 -1.1586c -0.5974,-0.6879 -0.8508,-1.6655 -0.8508 -2.6792c 0.0000,-2.7516 2.0456,-4.2542 3.6206 -4.2542c 2.5163,-0.0000 3.0594,1.6293 3.0594 3.1499c 0.0000,0.1991 -0.1267,0.3077 -0.3440 0.3077l -4.8154,-0.0362 c 0.0000,1.0500 0.2172,1.8827 0.5793 2.4801c 0.5612,0.9232 1.3215,1.3034 1.9732 1.3034c 1.0500,-0.0000 1.5749,-0.2896 2.2448 -0.9776ZM 169.4533,29.7737 ZM 176.6582,28.1264 c -0.9051,1.4844 -1.8646,1.8284 -2.9508 1.8284c -2.2810,-0.0000 -3.5844,-1.6112 -3.5844 -3.9464c 0.0000,-2.5706 1.9189,-4.1818 3.7111 -4.1818c 1.7379,-0.0000 2.7697,0.7241 2.7697 1.7198c 0.0000,0.5612 -0.5069,0.7965 -0.8870 0.7965c -0.3802,-0.0000 -0.6336,-0.1629 -0.6879 -0.6517c -0.0724,-0.6336 -0.2172,-1.2672 -1.2853 -1.2672c -1.1948,-0.0000 -2.0637,1.1948 -2.0637 3.1861c 0.0000,2.1180 1.1043,3.4576 2.4258 3.4576c 0.7784,-0.0000 1.5568,-0.3983 2.1723 -1.1948c 0.1629,0.0181 0.3077,0.0905 0.3802 0.2534ZM 177.2013,29.7737 ZM 177.9797,22.0076 l 0.8327,-0.0018 c 0.0000,-2.0076 -0.0543,-1.8881 -0.0543 -2.0981c 0.0000,-0.1249 0.1810,-0.1865 0.3983 -0.2480c 0.2263,-0.0634 0.4109,-0.1412 0.6155 -0.2552c 0.1684,-0.0923 0.3222,-0.1629 0.4037 -0.1629c 0.0851,-0.0000 0.1394,0.0434 0.1394 0.1593c 0.0000,-0.0000 -0.0724,0.7241 -0.0724 1.9008v 0.7060 h 2.1723 c 0.0905,-0.0000 0.1448,0.0362 0.1448 0.1086v 0.3621 c 0.0000,0.1629 -0.2534,0.2353 -0.4345 0.2353h -1.8827 v 4.5800 c 0.0000,1.1224 0.1086,1.6655 0.5974 1.6655c 0.4707,-0.0000 1.0138,-0.1448 1.4844 -0.5069c 0.1810,0.0181 0.2896,0.1213 0.3259 0.3077c -0.7060,0.7965 -1.6112,1.1948 -2.4439 1.1948c -0.8327,-0.0000 -1.3939,-0.5069 -1.3939 -1.7922v -5.4490 h -1.0681 c -0.0724,-0.0000 -0.0905,-0.0181 -0.0905 -0.1086v -0.2353 c 0.0000,-0.1448 0.0724,-0.3621 0.3259 -0.3621ZM 187.4475,29.7737 ZM 188.3164,27.2755 c 0.1086,-0.1086 0.4526,-0.1267 0.5612 -0.0181c 0.1086,0.4526 0.3077,1.2491 0.7060 1.6655c 0.1865,0.1937 0.5793,0.4345 1.2853 0.4345c 0.6698,-0.0000 1.5387,-0.3802 1.5387 -1.2672c 0.0000,-0.7784 -0.3440,-1.1586 -1.8465 -1.7741c -1.3939,-0.5793 -1.9913,-1.1405 -1.9913 -2.4620c 0.0000,-1.1586 1.2129,-2.0275 2.5525 -2.0275c 0.9413,-0.0000 1.8103,0.2534 2.3715 0.3440c -0.0181,0.5974 -0.0543,1.2672 -0.1086 1.9189c -0.1086,0.1086 -0.4707,0.1267 -0.5793 0.0181c -0.2353,-1.5387 -1.2853,-1.6836 -1.6836 -1.6836c -0.6155,-0.0000 -1.2672,0.4164 -1.2672 1.1586c 0.0000,0.9957 0.7205,1.2762 1.8103 1.6799c 1.2310,0.4562 2.1180,1.1749 2.1180 2.4113c 0.0000,1.7922 -1.8646,2.2810 -2.8783 2.2810c -0.6698,-0.0000 -1.1586,-0.0724 -1.6474 -0.1991c -0.1267,-0.0362 -0.2353,-0.0362 -0.3621 -0.0362c -0.0905,-0.0000 -0.2715,0.0181 -0.4526 0.0543c 0.0000,-0.7603 -0.0543,-1.6112 -0.1267 -2.4982ZM 194.5076,29.7737 ZM 198.4359,29.9547 c -1.7922,-0.0000 -2.3353,-1.2129 -2.3353 -2.4620v -3.4757 c 0.0000,-1.1767 -0.2534,-1.3758 -1.1224 -1.4482c -0.1086,-0.1086 -0.1086,-0.4888 0.0000 -0.5974c 0.6155,0.0181 1.2672,0.0362 1.8465 0.0362c 0.2715,-0.0000 0.5431,-0.0181 0.6336 -0.0362c 0.0905,-0.0000 0.1448,0.0543 0.1448 0.1086c 0.0000,-0.0000 -0.0724,1.3215 -0.0724 1.8646v 3.2947 c 0.0000,1.6112 0.9051,1.8646 1.4482 1.8646c 0.4526,-0.0000 1.1405,-0.2896 1.8103 -0.8689c 0.2534,-0.2172 0.2896,-0.3621 0.2896 -0.7060v -3.4938 c 0.0000,-1.1948 -0.2353,-1.4120 -1.1224 -1.4663c -0.1086,-0.1086 -0.1086,-0.4888 0.0000 -0.5974c 0.6155,0.0181 1.2672,0.0362 1.8465 0.0362c 0.2715,-0.0000 0.5431,-0.0181 0.6336 -0.0362c 0.0905,-0.0000 0.1448,0.0543 0.1448 0.1086c 0.0000,-0.0000 -0.0724,1.3215 -0.0724 1.8646v 3.4757 c 0.0000,0.8870 0.1629,1.2310 1.3215 1.3215c 0.1086,0.1086 0.1086,0.3802 0.0000 0.4888c -1.1043,0.1267 -1.7379,0.3983 -2.1361 0.7241c -0.1177,0.0453 -0.1991,0.0543 -0.3440 -0.0000c 0.0000,-0.0000 -0.1539,-0.6064 -0.1991 -1.0681c -0.0127,-0.1267 -0.1810,-0.0905 -0.2715 -0.0181c -0.8870,0.7241 -1.7379,1.0862 -2.4439 1.0862ZM 204.1202,29.7737 ZM 207.2701,23.2024 c -0.2335,0.2064 -0.3077,0.3802 -0.3077 0.7603v 4.5257 c 0.3621,0.4526 0.7422,0.8508 1.3034 0.8508c 1.7198,-0.0000 2.5525,-1.5568 2.5525 -3.6206c 0.0000,-1.7560 -0.9051,-3.0956 -2.0094 -3.0956c -0.5250,-0.0000 -1.0681,0.1629 -1.5387 0.5793ZM 207.2701,23.2024 ZM 207.1434,22.6412 c 0.5612,-0.5069 1.2509,-0.8146 2.0275 -0.8146c 1.5749,-0.0000 3.2042,1.3577 3.2042 3.5663c 0.0000,2.8783 -2.1542,4.5619 -4.0007 4.5619c -0.6390,-0.0000 -1.1785,-0.0996 -1.5930 -0.4490c -0.1991,-0.1665 -0.3077,-0.1665 -0.4942 0.0507c -0.1394,0.1611 -0.3186,0.3295 -0.4290 0.4345c -0.2172,-0.0000 -0.3077,-0.0724 -0.3983 -0.2172c 0.0543,-0.2534 0.0724,-0.5793 0.0724 -1.2853v -8.8342 c 0.0000,-1.5206 -0.2172,-1.4301 -1.1586 -1.4844c -0.1086,-0.1086 -0.1448,-0.3983 -0.1086 -0.5431c 0.7241,-0.0543 2.0818,-0.3077 2.5344 -0.4888c 0.1629,-0.0000 0.2353,0.0543 0.2353 0.1810c 0.0000,-0.0000 -0.0724,0.7241 -0.0724 1.9008v 3.3309 c 0.0000,0.1629 0.0670,0.1937 0.1810 0.0905ZM 213.0449,29.7737 ZM 216.1224,23.2929 c 0.0091,0.2172 0.1340,0.0923 0.2172 -0.0000c 0.7549,-0.8436 1.7017,-1.4663 2.7516 -1.4663c 0.9413,-0.0000 1.6383,0.5865 1.8103 1.3287c 0.0362,0.1557 0.1448,0.0652 0.1991 0.0072c 0.9432,-0.9957 2.0601,-1.3360 2.9870 -1.3360c 1.5930,-0.0000 1.8646,1.2672 1.8646 2.8783v 2.8602 c 0.0000,1.4844 0.1629,1.5749 1.1586 1.6474c 0.0905,0.1086 0.0905,0.4888 0.0000 0.5974c -0.5069,-0.0181 -1.1405,-0.0362 -1.8646 -0.0362c -0.7241,-0.0000 -1.3939,0.0181 -1.8465 0.0362c -0.0905,-0.1086 -0.0905,-0.4888 0.0000 -0.5974c 0.9413,-0.0724 1.1224,-0.1629 1.1224 -1.6474v -3.1861 c 0.0000,-1.2129 -0.3983,-1.6112 -1.0862 -1.6112c -0.7060,-0.0000 -1.5206,0.2353 -2.3896 1.1948c 0.0181,0.2172 0.0181,0.4707 0.0181 0.7241v 2.8783 c 0.0000,1.4844 0.1629,1.5749 1.0681 1.6474c 0.0905,0.1086 0.0905,0.4888 0.0000 0.5974c -0.4526,-0.0181 -1.0500,-0.0362 -1.7741 -0.0362c -0.7241,-0.0000 -1.3939,0.0181 -1.8465 0.0362c -0.0905,-0.1086 -0.0905,-0.4888 0.0000 -0.5974c 0.9776,-0.0724 1.1224,-0.1629 1.1224 -1.6474v -3.1499 c 0.0000,-1.2129 -0.5069,-1.6474 -1.1948 -1.6474c -0.5594,-0.0000 -1.2382,0.3675 -1.9551 1.0681c -0.1448,0.1575 -0.3077,0.3802 -0.3077 0.7603v 2.9689 c 0.0000,1.4844 0.1991,1.5568 1.1188 1.6474c 0.1086,0.1086 0.1086,0.4888 0.0000 0.5974c -0.5431,-0.0181 -1.1007,-0.0362 -1.8248 -0.0362c -0.7241,-0.0000 -1.4120,0.0181 -1.9551 0.0362c -0.1086,-0.1086 -0.1086,-0.4888 0.0000 -0.5974c 0.9957,-0.0724 1.2310,-0.1629 1.2310 -1.6474v -3.5301 c 0.0000,-1.0500 -0.1991,-1.1405 -1.1767 -1.2310c -0.0362,-0.1086 -0.0724,-0.3983 -0.0362 -0.5069c 1.2491,-0.1629 1.7198,-0.3259 2.2266 -0.5250c 0.1448,-0.0000 0.1792,0.0615 0.2172 0.1448c 0.0851,0.1865 0.1213,0.8382 0.1448 1.3758ZM 227.3461,29.7737 ZM 228.9754,18.9301 c 0.0000,-0.4345 0.5069,-0.8689 0.9413 -0.8689c 0.4888,-0.0000 0.8689,0.5069 0.8689 0.9413c 0.0000,0.3820 -0.4345,0.8689 -0.9413 0.8689c -0.4345,-0.0000 -0.8689,-0.4707 -0.8689 -0.9413ZM 228.9754,18.9301 ZM 230.6227,27.5652 c 0.0000,1.5025 0.1991,1.5749 1.3034 1.6474c 0.1086,0.1086 0.1086,0.4888 0.0000 0.5974c -0.5974,-0.0181 -1.2853,-0.0362 -2.0094 -0.0362c -0.7241,-0.0000 -1.4301,0.0181 -2.0275 0.0362c -0.1086,-0.1086 -0.1086,-0.4888 0.0000 -0.5974c 1.1043,-0.0905 1.3034,-0.1448 1.3034 -1.6474v -3.5301 c 0.0000,-1.0319 -0.1901,-1.1387 -1.1767 -1.2310c -0.0362,-0.1086 -0.0724,-0.3983 -0.0362 -0.5069c 1.2491,-0.1629 1.9642,-0.3259 2.4801 -0.5250c 0.1448,-0.0000 0.2353,0.0543 0.2353 0.1267c 0.0000,-0.0000 -0.0724,1.1586 -0.0724 2.0583v 3.6079 ZM 232.2520,29.7737 ZM 233.1209,27.2755 c 0.1086,-0.1086 0.4526,-0.1267 0.5612 -0.0181c 0.1086,0.4526 0.3077,1.2491 0.7060 1.6655c 0.1865,0.1937 0.5793,0.4345 1.2853 0.4345c 0.6698,-0.0000 1.5387,-0.3802 1.5387 -1.2672c 0.0000,-0.7784 -0.3440,-1.1586 -1.8465 -1.7741c -1.3939,-0.5793 -1.9913,-1.1405 -1.9913 -2.4620c 0.0000,-1.1586 1.2129,-2.0275 2.5525 -2.0275c 0.9413,-0.0000 1.8103,0.2534 2.3715 0.3440c -0.0181,0.5974 -0.0543,1.2672 -0.1086 1.9189c -0.1086,0.1086 -0.4707,0.1267 -0.5793 0.0181c -0.2353,-1.5387 -1.2853,-1.6836 -1.6836 -1.6836c -0.6155,-0.0000 -1.2672,0.4164 -1.2672 1.1586c 0.0000,0.9957 0.7205,1.2762 1.8103 1.6799c 1.2310,0.4562 2.1180,1.1749 2.1180 2.4113c 0.0000,1.7922 -1.8646,2.2810 -2.8783 2.2810c -0.6698,-0.0000 -1.1586,-0.0724 -1.6474 -0.1991c -0.1267,-0.0362 -0.2353,-0.0362 -0.3621 -0.0362c -0.0905,-0.0000 -0.2715,0.0181 -0.4526 0.0543c 0.0000,-0.7603 -0.0543,-1.6112 -0.1267 -2.4982ZM 239.3121,29.7737 ZM 240.1810,27.2755 c 0.1086,-0.1086 0.4526,-0.1267 0.5612 -0.0181c 0.1086,0.4526 0.3077,1.2491 0.7060 1.6655c 0.1865,0.1937 0.5793,0.4345 1.2853 0.4345c 0.6698,-0.0000 1.5387,-0.3802 1.5387 -1.2672c 0.0000,-0.7784 -0.3440,-1.1586 -1.8465 -1.7741c -1.3939,-0.5793 -1.9913,-1.1405 -1.9913 -2.4620c 0.0000,-1.1586 1.2129,-2.0275 2.5525 -2.0275c 0.9413,-0.0000 1.8103,0.2534 2.3715 0.3440c -0.0181,0.5974 -0.0543,1.2672 -0.1086 1.9189c -0.1086,0.1086 -0.4707,0.1267 -0.5793 0.0181c -0.2353,-1.5387 -1.2853,-1.6836 -1.6836 -1.6836c -0.6155,-0.0000 -1.2672,0.4164 -1.2672 1.1586c 0.0000,0.9957 0.7205,1.2762 1.8103 1.6799c 1.2310,0.4562 2.1180,1.1749 2.1180 2.4113c 0.0000,1.7922 -1.8646,2.2810 -2.8783 2.2810c -0.6698,-0.0000 -1.1586,-0.0724 -1.6474 -0.1991c -0.1267,-0.0362 -0.2353,-0.0362 -0.3621 -0.0362c -0.0905,-0.0000 -0.2715,0.0181 -0.4526 0.0543c 0.0000,-0.7603 -0.0543,-1.6112 -0.1267 -2.4982ZM 246.3722,29.7737 ZM 248.0014,18.9301 c 0.0000,-0.4345 0.5069,-0.8689 0.9413 -0.8689c 0.4888,-0.0000 0.8689,0.5069 0.8689 0.9413c 0.0000,0.3820 -0.4345,0.8689 -0.9413 0.8689c -0.4345,-0.0000 -0.8689,-0.4707 -0.8689 -0.9413ZM 248.0014,18.9301 ZM 249.6488,27.5652 c 0.0000,1.5025 0.1991,1.5749 1.3034 1.6474c 0.1086,0.1086 0.1086,0.4888 0.0000 0.5974c -0.5974,-0.0181 -1.2853,-0.0362 -2.0094 -0.0362c -0.7241,-0.0000 -1.4301,0.0181 -2.0275 0.0362c -0.1086,-0.1086 -0.1086,-0.4888 0.0000 -0.5974c 1.1043,-0.0905 1.3034,-0.1448 1.3034 -1.6474v -3.5301 c 0.0000,-1.0319 -0.1901,-1.1387 -1.1767 -1.2310c -0.0362,-0.1086 -0.0724,-0.3983 -0.0362 -0.5069c 1.2491,-0.1629 1.9642,-0.3259 2.4801 -0.5250c 0.1448,-0.0000 0.2353,0.0543 0.2353 0.1267c 0.0000,-0.0000 -0.0724,1.1586 -0.0724 2.0583v 3.6079 ZM 251.2781,29.7737 ZM 252.0203,26.0626 c 0.0000,-1.1441 0.3440,-2.1977 1.0011 -2.9689c 0.6626,-0.7784 1.6455,-1.2672 2.8367 -1.2672c 2.7697,-0.0000 3.8016,2.1904 3.8016 4.0731c 0.0000,1.1097 -0.3675,2.2484 -1.1785 3.0413c -0.6173,0.6028 -1.4935,1.0138 -2.6593 1.0138c -2.5706,-0.0000 -3.8016,-2.0456 -3.8016 -3.8921ZM 252.0203,26.0626 ZM 255.5865,22.4602 c -1.6293,-0.0000 -2.0094,1.6112 -2.0094 3.1861c 0.0000,1.3939 0.6155,3.6749 2.4982 3.6749c 0.8508,-0.0000 2.0275,-0.5612 2.0275 -2.8421c 0.0000,-2.6068 -0.9594,-4.0188 -2.5163 -4.0188ZM 260.4019,29.7737 ZM 263.7328,23.2929 c 1.0735,-1.2310 2.0818,-1.4663 2.9689 -1.4663c 0.6336,-0.0000 1.1948,0.2172 1.5025 0.6155c 0.4164,0.5612 0.4888,1.4301 0.4888 2.4258v 2.6973 c 0.0000,1.4844 0.1991,1.5568 1.2129 1.6474c 0.0905,0.1086 0.0905,0.4888 0.0000 0.5974c -0.5431,-0.0181 -1.1948,-0.0362 -1.9189 -0.0362c -0.7241,-0.0000 -1.3034,0.0181 -1.8465 0.0362c -0.0905,-0.1086 -0.0905,-0.4888 0.0000 -0.5974c 0.9413,-0.0905 1.1224,-0.1629 1.1224 -1.6474v -2.7516 c 0.0000,-0.5431 -0.0362,-1.0319 -0.2172 -1.3939c -0.2172,-0.4164 -0.5974,-0.6517 -0.9594 -0.6517c -0.7060,-0.0000 -1.5206,0.3983 -2.2085 1.0681c -0.1448,0.1629 -0.3077,0.3802 -0.3077 0.7603v 2.9689 c 0.0000,1.4844 0.1810,1.5568 1.1043 1.6474c 0.1086,0.1086 0.1086,0.4888 0.0000 0.5974c -0.5431,-0.0181 -1.0862,-0.0362 -1.8103 -0.0362c -0.7241,-0.0000 -1.4482,0.0181 -1.9913 0.0362c -0.1086,-0.1086 -0.1086,-0.4888 0.0000 -0.5974c 1.0862,-0.0905 1.2672,-0.1629 1.2672 -1.6474v -3.5301 c 0.0000,-1.0500 -0.1991,-1.1405 -1.1767 -1.2310c -0.0362,-0.1086 -0.0724,-0.3983 -0.0362 -0.5069c 1.2491,-0.1629 1.7198,-0.3259 2.2266 -0.5250c 0.1448,-0.0000 0.1792,0.0615 0.2172 0.1448c 0.0851,0.1865 0.1267,0.8870 0.1448 1.3758c 0.0054,0.1702 0.1068,0.1267 0.2172 -0.0000ZM 274.7393,29.7737 ZM 275.4815,26.0626 c 0.0000,-1.1441 0.3440,-2.1977 1.0011 -2.9689c 0.6626,-0.7784 1.6455,-1.2672 2.8367 -1.2672c 2.7697,-0.0000 3.8016,2.1904 3.8016 4.0731c 0.0000,1.1097 -0.3675,2.2484 -1.1785 3.0413c -0.6173,0.6028 -1.4935,1.0138 -2.6593 1.0138c -2.5706,-0.0000 -3.8016,-2.0456 -3.8016 -3.8921ZM 275.4815,26.0626 ZM 279.0478,22.4602 c -1.6293,-0.0000 -2.0094,1.6112 -2.0094 3.1861c 0.0000,1.3939 0.6155,3.6749 2.4982 3.6749c 0.8508,-0.0000 2.0275,-0.5612 2.0275 -2.8421c 0.0000,-2.6068 -0.9594,-4.0188 -2.5163 -4.0188ZM 283.8631,29.7737 ZM 287.0311,27.5652 c 0.0000,1.5025 0.1086,1.5749 1.5206 1.6474c 0.1086,0.1086 0.1086,0.4888 0.0000 0.5974c -0.6336,-0.0181 -1.5025,-0.0362 -2.2266 -0.0362c -0.7241,-0.0000 -1.3577,0.0181 -1.9913 0.0362c -0.1086,-0.1086 -0.1086,-0.4888 0.0000 -0.5974c 0.9776,-0.0724 1.2672,-0.1448 1.2672 -1.6474v -4.8516 h -1.2491 c -0.0724,-0.0000 -0.0905,-0.0181 -0.0905 -0.1086v -0.2353 c 0.0000,-0.1448 0.0905,-0.3621 0.4164 -0.3621h 0.9232 v -0.7241 c 0.0000,-2.8240 1.6836,-4.1455 3.2042 -4.1455c 0.6879,-0.0000 1.1586,0.0543 1.6293 0.3802c 0.3802,0.2896 0.5793,0.6155 0.5793 0.9232c 0.0000,0.3621 -0.4345,0.7422 -0.7422 0.7422c -0.3802,-0.0000 -0.5793,-0.2534 -0.7241 -0.5793c -0.2534,-0.6336 -0.5431,-0.8508 -1.0862 -0.8508c -0.5974,-0.0000 -1.4301,0.4345 -1.4301 3.2223v 1.0319 h 1.9551 c 0.0905,-0.0000 0.1448,0.0362 0.1448 0.1086v 0.3621 c 0.0000,0.1629 -0.2534,0.2353 -0.4164 0.2353h -1.6836 v 4.8516 ZM 294.0007,29.7737 ZM 300.4634,29.9547 c -3.8921,-0.0000 -5.7929,-2.6466 -5.7929 -5.7929c 0.0000,-1.8881 0.7169,-3.6604 1.9189 -4.7610c 1.0681,-0.9776 2.3534,-1.5387 3.8921 -1.5387c 2.2266,-0.0000 3.0413,0.7241 3.9645 0.8146c 0.1810,0.9957 0.3077,1.8646 0.3983 2.8059c -0.2046,0.1086 -0.3802,0.1629 -0.5974 0.0905c -0.4707,-1.5568 -1.4663,-3.0413 -3.9645 -3.0413c -0.9413,-0.0000 -1.9913,0.5069 -2.8892 1.6112c -0.6608,0.8128 -1.0753,2.1126 -1.0753 3.6749c 0.0000,2.6430 1.6908,5.3946 4.1274 5.3946c 1.6836,-0.0000 2.9146,-0.5612 4.1999 -1.9732c 0.1991,-0.0000 0.3259,0.1086 0.4164 0.2715c -1.2310,1.6112 -2.8421,2.4439 -4.5981 2.4439ZM 305.6951,29.7737 ZM 306.4374,26.0626 c 0.0000,-1.1441 0.3440,-2.1977 1.0011 -2.9689c 0.6626,-0.7784 1.6455,-1.2672 2.8367 -1.2672c 2.7697,-0.0000 3.8016,2.1904 3.8016 4.0731c 0.0000,1.1097 -0.3675,2.2484 -1.1785 3.0413c -0.6173,0.6028 -1.4935,1.0138 -2.6593 1.0138c -2.5706,-0.0000 -3.8016,-2.0456 -3.8016 -3.8921ZM 306.4374,26.0626 ZM 310.0036,22.4602 c -1.6293,-0.0000 -2.0094,1.6112 -2.0094 3.1861c 0.0000,1.3939 0.6155,3.6749 2.4982 3.6749c 0.8508,-0.0000 2.0275,-0.5612 2.0275 -2.8421c 0.0000,-2.6068 -0.9594,-4.0188 -2.5163 -4.0188ZM 314.8190,29.7737 ZM 318.1499,23.2929 c 1.0735,-1.2310 2.0818,-1.4663 2.9689 -1.4663c 0.6336,-0.0000 1.1948,0.2172 1.5025 0.6155c 0.4164,0.5612 0.4888,1.4301 0.4888 2.4258v 2.6973 c 0.0000,1.4844 0.1991,1.5568 1.2129 1.6474c 0.0905,0.1086 0.0905,0.4888 0.0000 0.5974c -0.5431,-0.0181 -1.1948,-0.0362 -1.9189 -0.0362c -0.7241,-0.0000 -1.3034,0.0181 -1.8465 0.0362c -0.0905,-0.1086 -0.0905,-0.4888 0.0000 -0.5974c 0.9413,-0.0905 1.1224,-0.1629 1.1224 -1.6474v -2.7516 c 0.0000,-0.5431 -0.0362,-1.0319 -0.2172 -1.3939c -0.2172,-0.4164 -0.5974,-0.6517 -0.9594 -0.6517c -0.7060,-0.0000 -1.5206,0.3983 -2.2085 1.0681c -0.1448,0.1629 -0.3077,0.3802 -0.3077 0.7603v 2.9689 c 0.0000,1.4844 0.1810,1.5568 1.1043 1.6474c 0.1086,0.1086 0.1086,0.4888 0.0000 0.5974c -0.5431,-0.0181 -1.0862,-0.0362 -1.8103 -0.0362c -0.7241,-0.0000 -1.4482,0.0181 -1.9913 0.0362c -0.1086,-0.1086 -0.1086,-0.4888 0.0000 -0.5974c 1.0862,-0.0905 1.2672,-0.1629 1.2672 -1.6474v -3.5301 c 0.0000,-1.0500 -0.1991,-1.1405 -1.1767 -1.2310c -0.0362,-0.1086 -0.0724,-0.3983 -0.0362 -0.5069c 1.2491,-0.1629 1.7198,-0.3259 2.2266 -0.5250c 0.1448,-0.0000 0.1792,0.0615 0.2172 0.1448c 0.0851,0.1865 0.1267,0.8870 0.1448 1.3758c 0.0054,0.1702 0.1068,0.1267 0.2172 -0.0000ZM 324.6307,29.7737 ZM 327.9616,23.2929 c 1.0735,-1.2310 2.0818,-1.4663 2.9689 -1.4663c 0.6336,-0.0000 1.1948,0.2172 1.5025 0.6155c 0.4164,0.5612 0.4888,1.4301 0.4888 2.4258v 2.6973 c 0.0000,1.4844 0.1991,1.5568 1.2129 1.6474c 0.0905,0.1086 0.0905,0.4888 0.0000 0.5974c -0.5431,-0.0181 -1.1948,-0.0362 -1.9189 -0.0362c -0.7241,-0.0000 -1.3034,0.0181 -1.8465 0.0362c -0.0905,-0.1086 -0.0905,-0.4888 0.0000 -0.5974c 0.9413,-0.0905 1.1224,-0.1629 1.1224 -1.6474v -2.7516 c 0.0000,-0.5431 -0.0362,-1.0319 -0.2172 -1.3939c -0.2172,-0.4164 -0.5974,-0.6517 -0.9594 -0.6517c -0.7060,-0.0000 -1.5206,0.3983 -2.2085 1.0681c -0.1448,0.1629 -0.3077,0.3802 -0.3077 0.7603v 2.9689 c 0.0000,1.4844 0.1810,1.5568 1.1043 1.6474c 0.1086,0.1086 0.1086,0.4888 0.0000 0.5974c -0.5431,-0.0181 -1.0862,-0.0362 -1.8103 -0.0362c -0.7241,-0.0000 -1.4482,0.0181 -1.9913 0.0362c -0.1086,-0.1086 -0.1086,-0.4888 0.0000 -0.5974c 1.0862,-0.0905 1.2672,-0.1629 1.2672 -1.6474v -3.5301 c 0.0000,-1.0500 -0.1991,-1.1405 -1.1767 -1.2310c -0.0362,-0.1086 -0.0724,-0.3983 -0.0362 -0.5069c 1.2491,-0.1629 1.7198,-0.3259 2.2266 -0.5250c 0.1448,-0.0000 0.1792,0.0615 0.2172 0.1448c 0.0851,0.1865 0.1267,0.8870 0.1448 1.3758c 0.0054,0.1702 0.1068,0.1267 0.2172 -0.0000ZM 334.4424,29.7737 ZM 335.1846,26.0626 c 0.0000,-1.1441 0.3440,-2.1977 1.0011 -2.9689c 0.6626,-0.7784 1.6455,-1.2672 2.8367 -1.2672c 2.7697,-0.0000 3.8016,2.1904 3.8016 4.0731c 0.0000,1.1097 -0.3675,2.2484 -1.1785 3.0413c -0.6173,0.6028 -1.4935,1.0138 -2.6593 1.0138c -2.5706,-0.0000 -3.8016,-2.0456 -3.8016 -3.8921ZM 335.1846,26.0626 ZM 338.7509,22.4602 c -1.6293,-0.0000 -2.0094,1.6112 -2.0094 3.1861c 0.0000,1.3939 0.6155,3.6749 2.4982 3.6749c 0.8508,-0.0000 2.0275,-0.5612 2.0275 -2.8421c 0.0000,-2.6068 -0.9594,-4.0188 -2.5163 -4.0188ZM 343.5663,29.7737 ZM 346.7524,23.2929 c 0.0036,0.0905 0.0905,0.2353 0.1991 0.0362c 0.4164,-0.7060 1.1586,-1.5025 2.0094 -1.5025c 0.7603,-0.0000 1.0862,0.5232 1.0862 0.8689c 0.0000,0.4526 -0.4164,0.9051 -0.8508 0.9051c -0.3150,-0.0000 -0.5177,-0.2408 -0.6553 -0.4218c -0.1412,-0.1865 -0.3041,-0.2299 -0.4671 -0.2299c -0.2172,-0.0000 -0.6336,0.5974 -0.8327 0.8870c -0.2172,0.3259 -0.4345,0.7422 -0.4345 1.2129v 2.5163 c 0.0000,1.5025 0.2172,1.5568 1.4844 1.6474c 0.1086,0.1086 0.1086,0.4888 0.0000 0.5974c -0.6336,-0.0181 -1.4663,-0.0362 -2.1904 -0.0362c -0.7241,-0.0000 -1.4301,0.0181 -2.0637 0.0362c -0.1086,-0.1086 -0.1086,-0.4888 0.0000 -0.5974c 1.1224,-0.0724 1.3396,-0.1448 1.3396 -1.6474v -3.5301 c 0.0000,-1.0500 -0.1991,-1.1405 -1.1767 -1.2310c -0.0362,-0.1086 -0.0724,-0.3983 -0.0362 -0.5069c 1.2491,-0.1629 1.7198,-0.3259 2.2266 -0.5250c 0.1448,-0.0000 0.1792,0.0615 0.2172 0.1448c 0.0851,0.1865 0.1140,0.6517 0.1448 1.3758Z"/></g><g><g stroke-linecap="butt" fill="rgb(0,0,0)" stroke-miterlimit="10.0" stroke-width="0.5" fill-opacity="0.0" stroke-opacity="1.0" stroke-linejoin="miter" stroke="rgb(0,0,0)"><path d="M 101.5279,36.0651 h 20.0000 "/></g><g stroke-linecap="butt" fill="rgb(0,0,0)" stroke-miterlimit="10.0" stroke-width="0.0" fill-opacity="1.0" stroke-opacity="1.0" stroke-linejoin="miter" stroke="rgb(0,0,0)"></g><g stroke-linecap="butt" fill="rgb(0,0,0)" stroke-miterlimit="10.0" stroke-width="0.0" fill-opacity="1.0" stroke-opacity="1.0" stroke-linejoin="miter" stroke="rgb(0,0,0)"></g><g stroke-linecap="butt" fill="rgb(0,0,0)" stroke-miterlimit="10.0" stroke-width="0.0" fill-opacity="1.0" stroke-opacity="1.0" stroke-linejoin="miter" stroke="rgb(0,0,0)"><path d="M 126.5279,36.0651 l -5.0000,-2.8868 v 5.7735 Z"/></g><g stroke-linecap="butt" fill="rgb(0,0,0)" stroke-miterlimit="10.0" stroke-width="0.0" fill-opacity="1.0" stroke-opacity="1.0" stroke-linejoin="miter" stroke="rgb(0,0,0)"></g><title>Connor</title></g><g><g stroke-linecap="butt" fill="rgb(0,0,0)" stroke-miterlimit="10.0" stroke-width="0.5" fill-opacity="0.0" stroke-opacity="1.0" stroke-linejoin="miter" stroke="rgb(0,0,0)"><path d="M 101.5279,11.0651 h 20.0000 "/></g><g stroke-linecap="butt" fill="rgb(0,0,0)" stroke-miterlimit="10.0" stroke-width="0.0" fill-opacity="1.0" stroke-opacity="1.0" stroke-linejoin="miter" stroke="rgb(0,0,0)"></g><g stroke-linecap="butt" fill="rgb(0,0,0)" stroke-miterlimit="10.0" stroke-width="0.0" fill-opacity="1.0" stroke-opacity="1.0" stroke-linejoin="miter" stroke="rgb(0,0,0)"></g><g stroke-linecap="butt" fill="rgb(0,0,0)" stroke-miterlimit="10.0" stroke-width="0.0" fill-opacity="1.0" stroke-opacity="1.0" stroke-linejoin="miter" stroke="rgb(0,0,0)"><path d="M 126.5279,11.0651 l -5.0000,-2.8868 v 5.7735 Z"/></g><g stroke-linecap="butt" fill="rgb(0,0,0)" stroke-miterlimit="10.0" stroke-width="0.0" fill-opacity="1.0" stroke-opacity="1.0" stroke-linejoin="miter" stroke="rgb(0,0,0)"></g><title>!Instructions</title></g><g stroke-linecap="butt" fill="rgb(0,0,0)" stroke-miterlimit="10.0" stroke-width="0.0" fill-opacity="1.0" stroke-opacity="1.0" stroke-linejoin="miter" stroke="rgb(0,0,0)"><path d="M 384.5583,29.7737 ZM 391.7017,18.3508 c 0.1883,0.9594 0.2607,1.4663 0.3240 2.3353c -0.1629,0.1267 -0.3983,0.1412 -0.5883 0.1086c -0.3621,-1.1948 -0.9232,-2.3172 -2.6810 -2.3172c -1.0663,-0.0000 -1.9823,1.0138 -1.9823 2.0275c 0.0000,1.5224 1.8085,2.2067 2.8802 2.6086c 1.4917,0.5594 2.9417,1.4030 2.9417 3.3291c 0.0000,1.1513 -0.6608,2.2665 -1.7017 2.9182c -0.6300,0.3928 -1.4102,0.5938 -2.2339 0.5938c -1.6057,-0.0000 -2.1108,-0.4164 -3.2513 -0.4164c -0.2172,-0.8870 -0.2896,-1.3577 -0.3621 -2.7516c 0.1738,-0.0923 0.3657,-0.1267 0.5883 -0.0543c 0.3983,1.8012 1.4862,2.5706 3.1770 2.5706c 1.4446,-0.0000 2.2629,-0.7603 2.2629 -2.2266c 0.0000,-1.7705 -1.3342,-2.2791 -2.4348 -2.6973c -1.5930,-0.6064 -3.1589,-1.4772 -3.1589 -3.3852c 0.0000,-1.9189 1.6112,-3.1318 3.4468 -3.1318c 1.7668,-0.0000 1.7270,0.3440 2.7734 0.4888ZM 393.3382,29.7737 ZM 397.2665,29.9547 c -1.7922,-0.0000 -2.3353,-1.2129 -2.3353 -2.4620v -3.4757 c 0.0000,-1.1767 -0.2534,-1.3758 -1.1224 -1.4482c -0.1086,-0.1086 -0.1086,-0.4888 0.0000 -0.5974c 0.6155,0.0181 1.2672,0.0362 1.8465 0.0362c 0.2715,-0.0000 0.5431,-0.0181 0.6336 -0.0362c 0.0905,-0.0000 0.1448,0.0543 0.1448 0.1086c 0.0000,-0.0000 -0.0724,1.3215 -0.0724 1.8646v 3.2947 c 0.0000,1.6112 0.9051,1.8646 1.4482 1.8646c 0.4526,-0.0000 1.1405,-0.2896 1.8103 -0.8689c 0.2534,-0.2172 0.2896,-0.3621 0.2896 -0.7060v -3.4938 c 0.0000,-1.1948 -0.2353,-1.4120 -1.1224 -1.4663c -0.1086,-0.1086 -0.1086,-0.4888 0.0000 -0.5974c 0.6155,0.0181 1.2672,0.0362 1.8465 0.0362c 0.2715,-0.0000 0.5431,-0.0181 0.6336 -0.0362c 0.0905,-0.0000 0.1448,0.0543 0.1448 0.1086c 0.0000,-0.0000 -0.0724,1.3215 -0.0724 1.8646v 3.4757 c 0.0000,0.8870 0.1629,1.2310 1.3215 1.3215c 0.1086,0.1086 0.1086,0.3802 0.0000 0.4888c -1.1043,0.1267 -1.7379,0.3983 -2.1361 0.7241c -0.1177,0.0453 -0.1991,0.0543 -0.3440 -0.0000c 0.0000,-0.0000 -0.1539,-0.6064 -0.1991 -1.0681c -0.0127,-0.1267 -0.1810,-0.0905 -0.2715 -0.0181c -0.8870,0.7241 -1.7379,1.0862 -2.4439 1.0862ZM 402.9508,29.7737 ZM 406.1007,23.2024 c -0.2335,0.2064 -0.3077,0.3802 -0.3077 0.7603v 4.5257 c 0.3621,0.4526 0.7422,0.8508 1.3034 0.8508c 1.7198,-0.0000 2.5525,-1.5568 2.5525 -3.6206c 0.0000,-1.7560 -0.9051,-3.0956 -2.0094 -3.0956c -0.5250,-0.0000 -1.0681,0.1629 -1.5387 0.5793ZM 406.1007,23.2024 ZM 405.9739,22.6412 c 0.5612,-0.5069 1.2509,-0.8146 2.0275 -0.8146c 1.5749,-0.0000 3.2042,1.3577 3.2042 3.5663c 0.0000,2.8783 -2.1542,4.5619 -4.0007 4.5619c -0.6390,-0.0000 -1.1785,-0.0996 -1.5930 -0.4490c -0.1991,-0.1665 -0.3077,-0.1665 -0.4942 0.0507c -0.1394,0.1611 -0.3186,0.3295 -0.4290 0.4345c -0.2172,-0.0000 -0.3077,-0.0724 -0.3983 -0.2172c 0.0543,-0.2534 0.0724,-0.5793 0.0724 -1.2853v -8.8342 c 0.0000,-1.5206 -0.2172,-1.4301 -1.1586 -1.4844c -0.1086,-0.1086 -0.1448,-0.3983 -0.1086 -0.5431c 0.7241,-0.0543 2.0818,-0.3077 2.5344 -0.4888c 0.1629,-0.0000 0.2353,0.0543 0.2353 0.1810c 0.0000,-0.0000 -0.0724,0.7241 -0.0724 1.9008v 3.3309 c 0.0000,0.1629 0.0670,0.1937 0.1810 0.0905ZM 411.8755,29.7737 ZM 414.9529,23.2929 c 0.0091,0.2172 0.1340,0.0923 0.2172 -0.0000c 0.7549,-0.8436 1.7017,-1.4663 2.7516 -1.4663c 0.9413,-0.0000 1.6383,0.5865 1.8103 1.3287c 0.0362,0.1557 0.1448,0.0652 0.1991 0.0072c 0.9432,-0.9957 2.0601,-1.3360 2.9870 -1.3360c 1.5930,-0.0000 1.8646,1.2672 1.8646 2.8783v 2.8602 c 0.0000,1.4844 0.1629,1.5749 1.1586 1.6474c 0.0905,0.1086 0.0905,0.4888 0.0000 0.5974c -0.5069,-0.0181 -1.1405,-0.0362 -1.8646 -0.0362c -0.7241,-0.0000 -1.3939,0.0181 -1.8465 0.0362c -0.0905,-0.1086 -0.0905,-0.4888 0.0000 -0.5974c 0.9413,-0.0724 1.1224,-0.1629 1.1224 -1.6474v -3.1861 c 0.0000,-1.2129 -0.3983,-1.6112 -1.0862 -1.6112c -0.7060,-0.0000 -1.5206,0.2353 -2.3896 1.1948c 0.0181,0.2172 0.0181,0.4707 0.0181 0.7241v 2.8783 c 0.0000,1.4844 0.1629,1.5749 1.0681 1.6474c 0.0905,0.1086 0.0905,0.4888 0.0000 0.5974c -0.4526,-0.0181 -1.0500,-0.0362 -1.7741 -0.0362c -0.7241,-0.0000 -1.3939,0.0181 -1.8465 0.0362c -0.0905,-0.1086 -0.0905,-0.4888 0.0000 -0.5974c 0.9776,-0.0724 1.1224,-0.1629 1.1224 -1.6474v -3.1499 c 0.0000,-1.2129 -0.5069,-1.6474 -1.1948 -1.6474c -0.5594,-0.0000 -1.2382,0.3675 -1.9551 1.0681c -0.1448,0.1575 -0.3077,0.3802 -0.3077 0.7603v 2.9689 c 0.0000,1.4844 0.1991,1.5568 1.1188 1.6474c 0.1086,0.1086 0.1086,0.4888 0.0000 0.5974c -0.5431,-0.0181 -1.1007,-0.0362 -1.8248 -0.0362c -0.7241,-0.0000 -1.4120,0.0181 -1.9551 0.0362c -0.1086,-0.1086 -0.1086,-0.4888 0.0000 -0.5974c 0.9957,-0.0724 1.2310,-0.1629 1.2310 -1.6474v -3.5301 c 0.0000,-1.0500 -0.1991,-1.1405 -1.1767 -1.2310c -0.0362,-0.1086 -0.0724,-0.3983 -0.0362 -0.5069c 1.2491,-0.1629 1.7198,-0.3259 2.2266 -0.5250c 0.1448,-0.0000 0.1792,0.0615 0.2172 0.1448c 0.0851,0.1865 0.1213,0.8382 0.1448 1.3758ZM 426.1767,29.7737 ZM 427.8059,18.9301 c 0.0000,-0.4345 0.5069,-0.8689 0.9413 -0.8689c 0.4888,-0.0000 0.8689,0.5069 0.8689 0.9413c 0.0000,0.3820 -0.4345,0.8689 -0.9413 0.8689c -0.4345,-0.0000 -0.8689,-0.4707 -0.8689 -0.9413ZM 427.8059,18.9301 ZM 429.4533,27.5652 c 0.0000,1.5025 0.1991,1.5749 1.3034 1.6474c 0.1086,0.1086 0.1086,0.4888 0.0000 0.5974c -0.5974,-0.0181 -1.2853,-0.0362 -2.0094 -0.0362c -0.7241,-0.0000 -1.4301,0.0181 -2.0275 0.0362c -0.1086,-0.1086 -0.1086,-0.4888 0.0000 -0.5974c 1.1043,-0.0905 1.3034,-0.1448 1.3034 -1.6474v -3.5301 c 0.0000,-1.0319 -0.1901,-1.1387 -1.1767 -1.2310c -0.0362,-0.1086 -0.0724,-0.3983 -0.0362 -0.5069c 1.2491,-0.1629 1.9642,-0.3259 2.4801 -0.5250c 0.1448,-0.0000 0.2353,0.0543 0.2353 0.1267c 0.0000,-0.0000 -0.0724,1.1586 -0.0724 2.0583v 3.6079 ZM 431.0825,29.7737 ZM 431.9515,27.2755 c 0.1086,-0.1086 0.4526,-0.1267 0.5612 -0.0181c 0.1086,0.4526 0.3077,1.2491 0.7060 1.6655c 0.1865,0.1937 0.5793,0.4345 1.2853 0.4345c 0.6698,-0.0000 1.5387,-0.3802 1.5387 -1.2672c 0.0000,-0.7784 -0.3440,-1.1586 -1.8465 -1.7741c -1.3939,-0.5793 -1.9913,-1.1405 -1.9913 -2.4620c 0.0000,-1.1586 1.2129,-2.0275 2.5525 -2.0275c 0.9413,-0.0000 1.8103,0.2534 2.3715 0.3440c -0.0181,0.5974 -0.0543,1.2672 -0.1086 1.9189c -0.1086,0.1086 -0.4707,0.1267 -0.5793 0.0181c -0.2353,-1.5387 -1.2853,-1.6836 -1.6836 -1.6836c -0.6155,-0.0000 -1.2672,0.4164 -1.2672 1.1586c 0.0000,0.9957 0.7205,1.2762 1.8103 1.6799c 1.2310,0.4562 2.1180,1.1749 2.1180 2.4113c 0.0000,1.7922 -1.8646,2.2810 -2.8783 2.2810c -0.6698,-0.0000 -1.1586,-0.0724 -1.6474 -0.1991c -0.1267,-0.0362 -0.2353,-0.0362 -0.3621 -0.0362c -0.0905,-0.0000 -0.2715,0.0181 -0.4526 0.0543c 0.0000,-0.7603 -0.0543,-1.6112 -0.1267 -2.4982ZM 438.1427,29.7737 ZM 439.0116,27.2755 c 0.1086,-0.1086 0.4526,-0.1267 0.5612 -0.0181c 0.1086,0.4526 0.3077,1.2491 0.7060 1.6655c 0.1865,0.1937 0.5793,0.4345 1.2853 0.4345c 0.6698,-0.0000 1.5387,-0.3802 1.5387 -1.2672c 0.0000,-0.7784 -0.3440,-1.1586 -1.8465 -1.7741c -1.3939,-0.5793 -1.9913,-1.1405 -1.9913 -2.4620c 0.0000,-1.1586 1.2129,-2.0275 2.5525 -2.0275c 0.9413,-0.0000 1.8103,0.2534 2.3715 0.3440c -0.0181,0.5974 -0.0543,1.2672 -0.1086 1.9189c -0.1086,0.1086 -0.4707,0.1267 -0.5793 0.0181c -0.2353,-1.5387 -1.2853,-1.6836 -1.6836 -1.6836c -0.6155,-0.0000 -1.2672,0.4164 -1.2672 1.1586c 0.0000,0.9957 0.7205,1.2762 1.8103 1.6799c 1.2310,0.4562 2.1180,1.1749 2.1180 2.4113c 0.0000,1.7922 -1.8646,2.2810 -2.8783 2.2810c -0.6698,-0.0000 -1.1586,-0.0724 -1.6474 -0.1991c -0.1267,-0.0362 -0.2353,-0.0362 -0.3621 -0.0362c -0.0905,-0.0000 -0.2715,0.0181 -0.4526 0.0543c 0.0000,-0.7603 -0.0543,-1.6112 -0.1267 -2.4982ZM 445.2028,29.7737 ZM 446.8320,18.9301 c 0.0000,-0.4345 0.5069,-0.8689 0.9413 -0.8689c 0.4888,-0.0000 0.8689,0.5069 0.8689 0.9413c 0.0000,0.3820 -0.4345,0.8689 -0.9413 0.8689c -0.4345,-0.0000 -0.8689,-0.4707 -0.8689 -0.9413ZM 446.8320,18.9301 ZM 448.4794,27.5652 c 0.0000,1.5025 0.1991,1.5749 1.3034 1.6474c 0.1086,0.1086 0.1086,0.4888 0.0000 0.5974c -0.5974,-0.0181 -1.2853,-0.0362 -2.0094 -0.0362c -0.7241,-0.0000 -1.4301,0.0181 -2.0275 0.0362c -0.1086,-0.1086 -0.1086,-0.4888 0.0000 -0.5974c 1.1043,-0.0905 1.3034,-0.1448 1.3034 -1.6474v -3.5301 c 0.0000,-1.0319 -0.1901,-1.1387 -1.1767 -1.2310c -0.0362,-0.1086 -0.0724,-0.3983 -0.0362 -0.5069c 1.2491,-0.1629 1.9642,-0.3259 2.4801 -0.5250c 0.1448,-0.0000 0.2353,0.0543 0.2353 0.1267c 0.0000,-0.0000 -0.0724,1.1586 -0.0724 2.0583v 3.6079 ZM 450.1086,29.7737 ZM 450.8508,26.0626 c 0.0000,-1.1441 0.3440,-2.1977 1.0011 -2.9689c 0.6626,-0.7784 1.6455,-1.2672 2.8367 -1.2672c 2.7697,-0.0000 3.8016,2.1904 3.8016 4.0731c 0.0000,1.1097 -0.3675,2.2484 -1.1785 3.0413c -0.6173,0.6028 -1.4935,1.0138 -2.6593 1.0138c -2.5706,-0.0000 -3.8016,-2.0456 -3.8016 -3.8921ZM 450.8508,26.0626 ZM 454.4171,22.4602 c -1.6293,-0.0000 -2.0094,1.6112 -2.0094 3.1861c 0.0000,1.3939 0.6155,3.6749 2.4982 3.6749c 0.8508,-0.0000 2.0275,-0.5612 2.0275 -2.8421c 0.0000,-2.6068 -0.9594,-4.0188 -2.5163 -4.0188ZM 459.2324,29.7737 ZM 462.5634,23.2929 c 1.0735,-1.2310 2.0818,-1.4663 2.9689 -1.4663c 0.6336,-0.0000 1.1948,0.2172 1.5025 0.6155c 0.4164,0.5612 0.4888,1.4301 0.4888 2.4258v 2.6973 c 0.0000,1.4844 0.1991,1.5568 1.2129 1.6474c 0.0905,0.1086 0.0905,0.4888 0.0000 0.5974c -0.5431,-0.0181 -1.1948,-0.0362 -1.9189 -0.0362c -0.7241,-0.0000 -1.3034,0.0181 -1.8465 0.0362c -0.0905,-0.1086 -0.0905,-0.4888 0.0000 -0.5974c 0.9413,-0.0905 1.1224,-0.1629 1.1224 -1.6474v -2.7516 c 0.0000,-0.5431 -0.0362,-1.0319 -0.2172 -1.3939c -0.2172,-0.4164 -0.5974,-0.6517 -0.9594 -0.6517c -0.7060,-0.0000 -1.5206,0.3983 -2.2085 1.0681c -0.1448,0.1629 -0.3077,0.3802 -0.3077 0.7603v 2.9689 c 0.0000,1.4844 0.1810,1.5568 1.1043 1.6474c 0.1086,0.1086 0.1086,0.4888 0.0000 0.5974c -0.5431,-0.0181 -1.0862,-0.0362 -1.8103 -0.0362c -0.7241,-0.0000 -1.4482,0.0181 -1.9913 0.0362c -0.1086,-0.1086 -0.1086,-0.4888 0.0000 -0.5974c 1.0862,-0.0905 1.2672,-0.1629 1.2672 -1.6474v -3.5301 c 0.0000,-1.0500 -0.1991,-1.1405 -1.1767 -1.2310c -0.0362,-0.1086 -0.0724,-0.3983 -0.0362 -0.5069c 1.2491,-0.1629 1.7198,-0.3259 2.2266 -0.5250c 0.1448,-0.0000 0.1792,0.0615 0.2172 0.1448c 0.0851,0.1865 0.1267,0.8870 0.1448 1.3758c 0.0054,0.1702 0.1068,0.1267 0.2172 -0.0000ZM 473.5699,29.7737 ZM 474.3121,26.0626 c 0.0000,-1.1441 0.3440,-2.1977 1.0011 -2.9689c 0.6626,-0.7784 1.6455,-1.2672 2.8367 -1.2672c 2.7697,-0.0000 3.8016,2.1904 3.8016 4.0731c 0.0000,1.1097 -0.3675,2.2484 -1.1785 3.0413c -0.6173,0.6028 -1.4935,1.0138 -2.6593 1.0138c -2.5706,-0.0000 -3.8016,-2.0456 -3.8016 -3.8921ZM 474.3121,26.0626 ZM 477.8783,22.4602 c -1.6293,-0.0000 -2.0094,1.6112 -2.0094 3.1861c 0.0000,1.3939 0.6155,3.6749 2.4982 3.6749c 0.8508,-0.0000 2.0275,-0.5612 2.0275 -2.8421c 0.0000,-2.6068 -0.9594,-4.0188 -2.5163 -4.0188ZM 482.6937,29.7737 ZM 485.8617,27.5652 c 0.0000,1.5025 0.1086,1.5749 1.5206 1.6474c 0.1086,0.1086 0.1086,0.4888 0.0000 0.5974c -0.6336,-0.0181 -1.5025,-0.0362 -2.2266 -0.0362c -0.7241,-0.0000 -1.3577,0.0181 -1.9913 0.0362c -0.1086,-0.1086 -0.1086,-0.4888 0.0000 -0.5974c 0.9776,-0.0724 1.2672,-0.1448 1.2672 -1.6474v -4.8516 h -1.2491 c -0.0724,-0.0000 -0.0905,-0.0181 -0.0905 -0.1086v -0.2353 c 0.0000,-0.1448 0.0905,-0.3621 0.4164 -0.3621h 0.9232 v -0.7241 c 0.0000,-2.8240 1.6836,-4.1455 3.2042 -4.1455c 0.6879,-0.0000 1.1586,0.0543 1.6293 0.3802c 0.3802,0.2896 0.5793,0.6155 0.5793 0.9232c 0.0000,0.3621 -0.4345,0.7422 -0.7422 0.7422c -0.3802,-0.0000 -0.5793,-0.2534 -0.7241 -0.5793c -0.2534,-0.6336 -0.5431,-0.8508 -1.0862 -0.8508c -0.5974,-0.0000 -1.4301,0.4345 -1.4301 3.2223v 1.0319 h 1.9551 c 0.0905,-0.0000 0.1448,0.0362 0.1448 0.1086v 0.3621 c 0.0000,0.1629 -0.2534,0.2353 -0.4164 0.2353h -1.6836 v 4.8516 ZM 492.8313,29.7737 ZM 499.2940,29.9547 c -3.8921,-0.0000 -5.7929,-2.6466 -5.7929 -5.7929c 0.0000,-1.8881 0.7169,-3.6604 1.9189 -4.7610c 1.0681,-0.9776 2.3534,-1.5387 3.8921 -1.5387c 2.2266,-0.0000 3.0413,0.7241 3.9645 0.8146c 0.1810,0.9957 0.3077,1.8646 0.3983 2.8059c -0.2046,0.1086 -0.3802,0.1629 -0.5974 0.0905c -0.4707,-1.5568 -1.4663,-3.0413 -3.9645 -3.0413c -0.9413,-0.0000 -1.9913,0.5069 -2.8892 1.6112c -0.6608,0.8128 -1.0753,2.1126 -1.0753 3.6749c 0.0000,2.6430 1.6908,5.3946 4.1274 5.3946c 1.6836,-0.0000 2.9146,-0.5612 4.1999 -1.9732c 0.1991,-0.0000 0.3259,0.1086 0.4164 0.2715c -1.2310,1.6112 -2.8421,2.4439 -4.5981 2.4439ZM 504.5257,29.7737 ZM 505.2679,26.0626 c 0.0000,-1.1441 0.3440,-2.1977 1.0011 -2.9689c 0.6626,-0.7784 1.6455,-1.2672 2.8367 -1.2672c 2.7697,-0.0000 3.8016,2.1904 3.8016 4.0731c 0.0000,1.1097 -0.3675,2.2484 -1.1785 3.0413c -0.6173,0.6028 -1.4935,1.0138 -2.6593 1.0138c -2.5706,-0.0000 -3.8016,-2.0456 -3.8016 -3.8921ZM 505.2679,26.0626 ZM 508.8342,22.4602 c -1.6293,-0.0000 -2.0094,1.6112 -2.0094 3.1861c 0.0000,1.3939 0.6155,3.6749 2.4982 3.6749c 0.8508,-0.0000 2.0275,-0.5612 2.0275 -2.8421c 0.0000,-2.6068 -0.9594,-4.0188 -2.5163 -4.0188ZM 513.6495,29.7737 ZM 516.9804,23.2929 c 1.0735,-1.2310 2.0818,-1.4663 2.9689 -1.4663c 0.6336,-0.0000 1.1948,0.2172 1.5025 0.6155c 0.4164,0.5612 0.4888,1.4301 0.4888 2.4258v 2.6973 c 0.0000,1.4844 0.1991,1.5568 1.2129 1.6474c 0.0905,0.1086 0.0905,0.4888 0.0000 0.5974c -0.5431,-0.0181 -1.1948,-0.0362 -1.9189 -0.0362c -0.7241,-0.0000 -1.3034,0.0181 -1.8465 0.0362c -0.0905,-0.1086 -0.0905,-0.4888 0.0000 -0.5974c 0.9413,-0.0905 1.1224,-0.1629 1.1224 -1.6474v -2.7516 c 0.0000,-0.5431 -0.0362,-1.0319 -0.2172 -1.3939c -0.2172,-0.4164 -0.5974,-0.6517 -0.9594 -0.6517c -0.7060,-0.0000 -1.5206,0.3983 -2.2085 1.0681c -0.1448,0.1629 -0.3077,0.3802 -0.3077 0.7603v 2.9689 c 0.0000,1.4844 0.1810,1.5568 1.1043 1.6474c 0.1086,0.1086 0.1086,0.4888 0.0000 0.5974c -0.5431,-0.0181 -1.0862,-0.0362 -1.8103 -0.0362c -0.7241,-0.0000 -1.4482,0.0181 -1.9913 0.0362c -0.1086,-0.1086 -0.1086,-0.4888 0.0000 -0.5974c 1.0862,-0.0905 1.2672,-0.1629 1.2672 -1.6474v -3.5301 c 0.0000,-1.0500 -0.1991,-1.1405 -1.1767 -1.2310c -0.0362,-0.1086 -0.0724,-0.3983 -0.0362 -0.5069c 1.2491,-0.1629 1.7198,-0.3259 2.2266 -0.5250c 0.1448,-0.0000 0.1792,0.0615 0.2172 0.1448c 0.0851,0.1865 0.1267,0.8870 0.1448 1.3758c 0.0054,0.1702 0.1068,0.1267 0.2172 -0.0000ZM 523.4613,29.7737 ZM 526.7922,23.2929 c 1.0735,-1.2310 2.0818,-1.4663 2.9689 -1.4663c 0.6336,-0.0000 1.1948,0.2172 1.5025 0.6155c 0.4164,0.5612 0.4888,1.4301 0.4888 2.4258v 2.6973 c 0.0000,1.4844 0.1991,1.5568 1.2129 1.6474c 0.0905,0.1086 0.0905,0.4888 0.0000 0.5974c -0.5431,-0.0181 -1.1948,-0.0362 -1.9189 -0.0362c -0.7241,-0.0000 -1.3034,0.0181 -1.8465 0.0362c -0.0905,-0.1086 -0.0905,-0.4888 0.0000 -0.5974c 0.9413,-0.0905 1.1224,-0.1629 1.1224 -1.6474v -2.7516 c 0.0000,-0.5431 -0.0362,-1.0319 -0.2172 -1.3939c -0.2172,-0.4164 -0.5974,-0.6517 -0.9594 -0.6517c -0.7060,-0.0000 -1.5206,0.3983 -2.2085 1.0681c -0.1448,0.1629 -0.3077,0.3802 -0.3077 0.7603v 2.9689 c 0.0000,1.4844 0.1810,1.5568 1.1043 1.6474c 0.1086,0.1086 0.1086,0.4888 0.0000 0.5974c -0.5431,-0.0181 -1.0862,-0.0362 -1.8103 -0.0362c -0.7241,-0.0000 -1.4482,0.0181 -1.9913 0.0362c -0.1086,-0.1086 -0.1086,-0.4888 0.0000 -0.5974c 1.0862,-0.0905 1.2672,-0.1629 1.2672 -1.6474v -3.5301 c 0.0000,-1.0500 -0.1991,-1.1405 -1.1767 -1.2310c -0.0362,-0.1086 -0.0724,-0.3983 -0.0362 -0.5069c 1.2491,-0.1629 1.7198,-0.3259 2.2266 -0.5250c 0.1448,-0.0000 0.1792,0.0615 0.2172 0.1448c 0.0851,0.1865 0.1267,0.8870 0.1448 1.3758c 0.0054,0.1702 0.1068,0.1267 0.2172 -0.0000ZM 533.2730,29.7737 ZM 534.0152,26.0626 c 0.0000,-1.1441 0.3440,-2.1977 1.0011 -2.9689c 0.6626,-0.7784 1.6455,-1.2672 2.8367 -1.2672c 2.7697,-0.0000 3.8016,2.1904 3.8016 4.0731c 0.0000,1.1097 -0.3675,2.2484 -1.1785 3.0413c -0.6173,0.6028 -1.4935,1.0138 -2.6593 1.0138c -2.5706,-0.0000 -3.8016,-2.0456 -3.8016 -3.8921ZM 534.0152,26.0626 ZM 537.5815,22.4602 c -1.6293,-0.0000 -2.0094,1.6112 -2.0094 3.1861c 0.0000,1.3939 0.6155,3.6749 2.4982 3.6749c 0.8508,-0.0000 2.0275,-0.5612 2.0275 -2.8421c 0.0000,-2.6068 -0.9594,-4.0188 -2.5163 -4.0188ZM 542.3968,29.7737 ZM 545.5829,23.2929 c 0.0036,0.0905 0.0905,0.2353 0.1991 0.0362c 0.4164,-0.7060 1.1586,-1.5025 2.0094 -1.5025c 0.7603,-0.0000 1.0862,0.5232 1.0862 0.8689c 0.0000,0.4526 -0.4164,0.9051 -0.8508 0.9051c -0.3150,-0.0000 -0.5177,-0.2408 -0.6553 -0.4218c -0.1412,-0.1865 -0.3041,-0.2299 -0.4671 -0.2299c -0.2172,-0.0000 -0.6336,0.5974 -0.8327 0.8870c -0.2172,0.3259 -0.4345,0.7422 -0.4345 1.2129v 2.5163 c 0.0000,1.5025 0.2172,1.5568 1.4844 1.6474c 0.1086,0.1086 0.1086,0.4888 0.0000 0.5974c -0.6336,-0.0181 -1.4663,-0.0362 -2.1904 -0.0362c -0.7241,-0.0000 -1.4301,0.0181 -2.0637 0.0362c -0.1086,-0.1086 -0.1086,-0.4888 0.0000 -0.5974c 1.1224,-0.0724 1.3396,-0.1448 1.3396 -1.6474v -3.5301 c 0.0000,-1.0500 -0.1991,-1.1405 -1.1767 -1.2310c -0.0362,-0.1086 -0.0724,-0.3983 -0.0362 -0.5069c 1.2491,-0.1629 1.7198,-0.3259 2.2266 -0.5250c 0.1448,-0.0000 0.1792,0.0615 0.2172 0.1448c 0.0851,0.1865 0.1140,0.6517 0.1448 1.3758Z"/></g><g stroke-linecap="butt" fill="rgb(0,0,0)" stroke-miterlimit="10.0" stroke-width="0.0" fill-opacity="1.0" stroke-opacity="1.0" stroke-linejoin="miter" stroke="rgb(0,0,0)"><path d="M 40.4815,41.9304 ZM 46.9442,42.1114 c -3.8921,-0.0000 -5.7929,-2.6466 -5.7929 -5.7929c 0.0000,-1.8881 0.7169,-3.6604 1.9189 -4.7610c 1.0681,-0.9776 2.3534,-1.5387 3.8921 -1.5387c 2.2266,-0.0000 3.0413,0.7241 3.9645 0.8146c 0.1810,0.9957 0.3077,1.8646 0.3983 2.8059c -0.2046,0.1086 -0.3802,0.1629 -0.5974 0.0905c -0.4707,-1.5568 -1.4663,-3.0413 -3.9645 -3.0413c -0.9413,-0.0000 -1.9913,0.5069 -2.8892 1.6112c -0.6608,0.8128 -1.0753,2.1126 -1.0753 3.6749c 0.0000,2.6430 1.6908,5.3946 4.1274 5.3946c 1.6836,-0.0000 2.9146,-0.5612 4.1999 -1.9732c 0.1991,-0.0000 0.3259,0.1086 0.4164 0.2715c -1.2310,1.6112 -2.8421,2.4439 -4.5981 2.4439ZM 52.1760,41.9304 ZM 52.9182,38.2193 c 0.0000,-1.1441 0.3440,-2.1977 1.0011 -2.9689c 0.6626,-0.7784 1.6455,-1.2672 2.8367 -1.2672c 2.7697,-0.0000 3.8016,2.1904 3.8016 4.0731c 0.0000,1.1097 -0.3675,2.2484 -1.1785 3.0413c -0.6173,0.6028 -1.4935,1.0138 -2.6593 1.0138c -2.5706,-0.0000 -3.8016,-2.0456 -3.8016 -3.8921ZM 52.9182,38.2193 ZM 56.4844,34.6168 c -1.6293,-0.0000 -2.0094,1.6112 -2.0094 3.1861c 0.0000,1.3939 0.6155,3.6749 2.4982 3.6749c 0.8508,-0.0000 2.0275,-0.5612 2.0275 -2.8421c 0.0000,-2.6068 -0.9594,-4.0188 -2.5163 -4.0188ZM 61.2998,41.9304 ZM 64.6307,35.4496 c 1.0735,-1.2310 2.0818,-1.4663 2.9689 -1.4663c 0.6336,-0.0000 1.1948,0.2172 1.5025 0.6155c 0.4164,0.5612 0.4888,1.4301 0.4888 2.4258v 2.6973 c 0.0000,1.4844 0.1991,1.5568 1.2129 1.6474c 0.0905,0.1086 0.0905,0.4888 0.0000 0.5974c -0.5431,-0.0181 -1.1948,-0.0362 -1.9189 -0.0362c -0.7241,-0.0000 -1.3034,0.0181 -1.8465 0.0362c -0.0905,-0.1086 -0.0905,-0.4888 0.0000 -0.5974c 0.9413,-0.0905 1.1224,-0.1629 1.1224 -1.6474v -2.7516 c 0.0000,-0.5431 -0.0362,-1.0319 -0.2172 -1.3939c -0.2172,-0.4164 -0.5974,-0.6517 -0.9594 -0.6517c -0.7060,-0.0000 -1.5206,0.3983 -2.2085 1.0681c -0.1448,0.1629 -0.3077,0.3802 -0.3077 0.7603v 2.9689 c 0.0000,1.4844 0.1810,1.5568 1.1043 1.6474c 0.1086,0.1086 0.1086,0.4888 0.0000 0.5974c -0.5431,-0.0181 -1.0862,-0.0362 -1.8103 -0.0362c -0.7241,-0.0000 -1.4482,0.0181 -1.9913 0.0362c -0.1086,-0.1086 -0.1086,-0.4888 0.0000 -0.5974c 1.0862,-0.0905 1.2672,-0.1629 1.2672 -1.6474v -3.5301 c 0.0000,-1.0500 -0.1991,-1.1405 -1.1767 -1.2310c -0.0362,-0.1086 -0.0724,-0.3983 -0.0362 -0.5069c 1.2491,-0.1629 1.7198,-0.3259 2.2266 -0.5250c 0.1448,-0.0000 0.1792,0.0615 0.2172 0.1448c 0.0851,0.1865 0.1267,0.8870 0.1448 1.3758c 0.0054,0.1702 0.1068,0.1267 0.2172 -0.0000ZM 71.1115,41.9304 ZM 74.4424,35.4496 c 1.0735,-1.2310 2.0818,-1.4663 2.9689 -1.4663c 0.6336,-0.0000 1.1948,0.2172 1.5025 0.6155c 0.4164,0.5612 0.4888,1.4301 0.4888 2.4258v 2.6973 c 0.0000,1.4844 0.1991,1.5568 1.2129 1.6474c 0.0905,0.1086 0.0905,0.4888 0.0000 0.5974c -0.5431,-0.0181 -1.1948,-0.0362 -1.9189 -0.0362c -0.7241,-0.0000 -1.3034,0.0181 -1.8465 0.0362c -0.0905,-0.1086 -0.0905,-0.4888 0.0000 -0.5974c 0.9413,-0.0905 1.1224,-0.1629 1.1224 -1.6474v -2.7516 c 0.0000,-0.5431 -0.0362,-1.0319 -0.2172 -1.3939c -0.2172,-0.4164 -0.5974,-0.6517 -0.9594 -0.6517c -0.7060,-0.0000 -1.5206,0.3983 -2.2085 1.0681c -0.1448,0.1629 -0.3077,0.3802 -0.3077 0.7603v 2.9689 c 0.0000,1.4844 0.1810,1.5568 1.1043 1.6474c 0.1086,0.1086 0.1086,0.4888 0.0000 0.5974c -0.5431,-0.0181 -1.0862,-0.0362 -1.8103 -0.0362c -0.7241,-0.0000 -1.4482,0.0181 -1.9913 0.0362c -0.1086,-0.1086 -0.1086,-0.4888 0.0000 -0.5974c 1.0862,-0.0905 1.2672,-0.1629 1.2672 -1.6474v -3.5301 c 0.0000,-1.0500 -0.1991,-1.1405 -1.1767 -1.2310c -0.0362,-0.1086 -0.0724,-0.3983 -0.0362 -0.5069c 1.2491,-0.1629 1.7198,-0.3259 2.2266 -0.5250c 0.1448,-0.0000 0.1792,0.0615 0.2172 0.1448c 0.0851,0.1865 0.1267,0.8870 0.1448 1.3758c 0.0054,0.1702 0.1068,0.1267 0.2172 -0.0000ZM 80.9232,41.9304 ZM 81.6655,38.2193 c 0.0000,-1.1441 0.3440,-2.1977 1.0011 -2.9689c 0.6626,-0.7784 1.6455,-1.2672 2.8367 -1.2672c 2.7697,-0.0000 3.8016,2.1904 3.8016 4.0731c 0.0000,1.1097 -0.3675,2.2484 -1.1785 3.0413c -0.6173,0.6028 -1.4935,1.0138 -2.6593 1.0138c -2.5706,-0.0000 -3.8016,-2.0456 -3.8016 -3.8921ZM 81.6655,38.2193 ZM 85.2317,34.6168 c -1.6293,-0.0000 -2.0094,1.6112 -2.0094 3.1861c 0.0000,1.3939 0.6155,3.6749 2.4982 3.6749c 0.8508,-0.0000 2.0275,-0.5612 2.0275 -2.8421c 0.0000,-2.6068 -0.9594,-4.0188 -2.5163 -4.0188ZM 90.0471,41.9304 ZM 93.2332,35.4496 c 0.0036,0.0905 0.0905,0.2353 0.1991 0.0362c 0.4164,-0.7060 1.1586,-1.5025 2.0094 -1.5025c 0.7603,-0.0000 1.0862,0.5232 1.0862 0.8689c 0.0000,0.4526 -0.4164,0.9051 -0.8508 0.9051c -0.3150,-0.0000 -0.5177,-0.2408 -0.6553 -0.4218c -0.1412,-0.1865 -0.3041,-0.2299 -0.4671 -0.2299c -0.2172,-0.0000 -0.6336,0.5974 -0.8327 0.8870c -0.2172,0.3259 -0.4345,0.7422 -0.4345 1.2129v 2.5163 c 0.0000,1.5025 0.2172,1.5568 1.4844 1.6474c 0.1086,0.1086 0.1086,0.4888 0.0000 0.5974c -0.6336,-0.0181 -1.4663,-0.0362 -2.1904 -0.0362c -0.7241,-0.0000 -1.4301,0.0181 -2.0637 0.0362c -0.1086,-0.1086 -0.1086,-0.4888 0.0000 -0.5974c 1.1224,-0.0724 1.3396,-0.1448 1.3396 -1.6474v -3.5301 c 0.0000,-1.0500 -0.1991,-1.1405 -1.1767 -1.2310c -0.0362,-0.1086 -0.0724,-0.3983 -0.0362 -0.5069c 1.2491,-0.1629 1.7198,-0.3259 2.2266 -0.5250c 0.1448,-0.0000 0.1792,0.0615 0.2172 0.1448c 0.0851,0.1865 0.1140,0.6517 0.1448 1.3758Z"/></g><g stroke-linecap="butt" fill="rgb(0,0,0)" stroke-miterlimit="10.0" stroke-width="0.0" fill-opacity="1.0" stroke-opacity="1.0" stroke-linejoin="miter" stroke="rgb(0,0,0)"><path d="M 3.3526,16.9117 ZM 5.9594,5.0000 c 0.4345,-0.0000 0.9594,0.3440 0.9594 1.3215c 0.0000,1.1767 -0.2534,1.9370 -0.4345 3.4938c -0.2353,1.9551 -0.2353,3.0413 -0.2715 3.2947c -0.0181,0.1991 -0.0724,0.3621 -0.2534 0.3621c -0.1810,-0.0000 -0.2353,-0.1267 -0.2534 -0.2353c -0.0362,-0.3802 -0.1448,-2.0094 -0.2896 -3.4214c -0.1629,-1.5930 -0.4164,-2.2266 -0.4164 -3.4938c 0.0000,-0.9776 0.5250,-1.3215 0.9594 -1.3215ZM 5.9594,5.0000 ZM 5.0000,16.1332 c 0.0000,-0.5250 0.4345,-0.9594 0.9594 -0.9594c 0.5250,-0.0000 0.9594,0.4345 0.9594 0.9594c 0.0000,0.5250 -0.4345,0.9594 -0.9594 0.9594c -0.5250,-0.0000 -0.9594,-0.4345 -0.9594 -0.9594ZM 8.5663,16.9117 ZM 12.0239,14.7031 c 0.0000,1.5025 0.3077,1.5930 1.5749 1.6474c 0.1086,0.1086 0.1086,0.4888 0.0000 0.5974c -0.8146,-0.0181 -1.6908,-0.0362 -2.3353 -0.0362c -0.6571,-0.0000 -1.5387,0.0181 -2.3534 0.0362c -0.1086,-0.1086 -0.1086,-0.4888 0.0000 -0.5974c 1.2672,-0.0543 1.5749,-0.1448 1.5749 -1.6474v -7.2592 c 0.0000,-1.5025 -0.3077,-1.5930 -1.5749 -1.6474c -0.1086,-0.1086 -0.1086,-0.4888 0.0000 -0.5974c 0.8508,0.0181 1.7288,0.0362 2.3353 0.0362c 0.6970,-0.0000 1.5568,-0.0181 2.3534 -0.0362c 0.1086,0.1086 0.1086,0.4888 0.0000 0.5974c -1.2672,0.0543 -1.5749,0.1448 -1.5749 1.6474v 7.2592 ZM 13.9428,16.9117 ZM 17.2737,10.4308 c 1.0735,-1.2310 2.0818,-1.4663 2.9689 -1.4663c 0.6336,-0.0000 1.1948,0.2172 1.5025 0.6155c 0.4164,0.5612 0.4888,1.4301 0.4888 2.4258v 2.6973 c 0.0000,1.4844 0.1991,1.5568 1.2129 1.6474c 0.0905,0.1086 0.0905,0.4888 0.0000 0.5974c -0.5431,-0.0181 -1.1948,-0.0362 -1.9189 -0.0362c -0.7241,-0.0000 -1.3034,0.0181 -1.8465 0.0362c -0.0905,-0.1086 -0.0905,-0.4888 0.0000 -0.5974c 0.9413,-0.0905 1.1224,-0.1629 1.1224 -1.6474v -2.7516 c 0.0000,-0.5431 -0.0362,-1.0319 -0.2172 -1.3939c -0.2172,-0.4164 -0.5974,-0.6517 -0.9594 -0.6517c -0.7060,-0.0000 -1.5206,0.3983 -2.2085 1.0681c -0.1448,0.1629 -0.3077,0.3802 -0.3077 0.7603v 2.9689 c 0.0000,1.4844 0.1810,1.5568 1.1043 1.6474c 0.1086,0.1086 0.1086,0.4888 0.0000 0.5974c -0.5431,-0.0181 -1.0862,-0.0362 -1.8103 -0.0362c -0.7241,-0.0000 -1.4482,0.0181 -1.9913 0.0362c -0.1086,-0.1086 -0.1086,-0.4888 0.0000 -0.5974c 1.0862,-0.0905 1.2672,-0.1629 1.2672 -1.6474v -3.5301 c 0.0000,-1.0500 -0.1991,-1.1405 -1.1767 -1.2310c -0.0362,-0.1086 -0.0724,-0.3983 -0.0362 -0.5069c 1.2491,-0.1629 1.7198,-0.3259 2.2266 -0.5250c 0.1448,-0.0000 0.1792,0.0615 0.2172 0.1448c 0.0851,0.1865 0.1267,0.8870 0.1448 1.3758c 0.0054,0.1702 0.1068,0.1267 0.2172 -0.0000ZM 23.7545,16.9117 ZM 24.6235,14.4135 c 0.1086,-0.1086 0.4526,-0.1267 0.5612 -0.0181c 0.1086,0.4526 0.3077,1.2491 0.7060 1.6655c 0.1865,0.1937 0.5793,0.4345 1.2853 0.4345c 0.6698,-0.0000 1.5387,-0.3802 1.5387 -1.2672c 0.0000,-0.7784 -0.3440,-1.1586 -1.8465 -1.7741c -1.3939,-0.5793 -1.9913,-1.1405 -1.9913 -2.4620c 0.0000,-1.1586 1.2129,-2.0275 2.5525 -2.0275c 0.9413,-0.0000 1.8103,0.2534 2.3715 0.3440c -0.0181,0.5974 -0.0543,1.2672 -0.1086 1.9189c -0.1086,0.1086 -0.4707,0.1267 -0.5793 0.0181c -0.2353,-1.5387 -1.2853,-1.6836 -1.6836 -1.6836c -0.6155,-0.0000 -1.2672,0.4164 -1.2672 1.1586c 0.0000,0.9957 0.7205,1.2762 1.8103 1.6799c 1.2310,0.4562 2.1180,1.1749 2.1180 2.4113c 0.0000,1.7922 -1.8646,2.2810 -2.8783 2.2810c -0.6698,-0.0000 -1.1586,-0.0724 -1.6474 -0.1991c -0.1267,-0.0362 -0.2353,-0.0362 -0.3621 -0.0362c -0.0905,-0.0000 -0.2715,0.0181 -0.4526 0.0543c 0.0000,-0.7603 -0.0543,-1.6112 -0.1267 -2.4982ZM 30.8146,16.9117 ZM 31.5930,9.1455 l 0.8327,-0.0018 c 0.0000,-2.0076 -0.0543,-1.8881 -0.0543 -2.0981c 0.0000,-0.1249 0.1810,-0.1865 0.3983 -0.2480c 0.2263,-0.0634 0.4109,-0.1412 0.6155 -0.2552c 0.1684,-0.0923 0.3222,-0.1629 0.4037 -0.1629c 0.0851,-0.0000 0.1394,0.0434 0.1394 0.1593c 0.0000,-0.0000 -0.0724,0.7241 -0.0724 1.9008v 0.7060 h 2.1723 c 0.0905,-0.0000 0.1448,0.0362 0.1448 0.1086v 0.3621 c 0.0000,0.1629 -0.2534,0.2353 -0.4345 0.2353h -1.8827 v 4.5800 c 0.0000,1.1224 0.1086,1.6655 0.5974 1.6655c 0.4707,-0.0000 1.0138,-0.1448 1.4844 -0.5069c 0.1810,0.0181 0.2896,0.1213 0.3259 0.3077c -0.7060,0.7965 -1.6112,1.1948 -2.4439 1.1948c -0.8327,-0.0000 -1.3939,-0.5069 -1.3939 -1.7922v -5.4490 h -1.0681 c -0.0724,-0.0000 -0.0905,-0.0181 -0.0905 -0.1086v -0.2353 c 0.0000,-0.1448 0.0724,-0.3621 0.3259 -0.3621ZM 36.5351,16.9117 ZM 39.7212,10.4308 c 0.0036,0.0905 0.0905,0.2353 0.1991 0.0362c 0.4164,-0.7060 1.1586,-1.5025 2.0094 -1.5025c 0.7603,-0.0000 1.0862,0.5232 1.0862 0.8689c 0.0000,0.4526 -0.4164,0.9051 -0.8508 0.9051c -0.3150,-0.0000 -0.5177,-0.2408 -0.6553 -0.4218c -0.1412,-0.1865 -0.3041,-0.2299 -0.4671 -0.2299c -0.2172,-0.0000 -0.6336,0.5974 -0.8327 0.8870c -0.2172,0.3259 -0.4345,0.7422 -0.4345 1.2129v 2.5163 c 0.0000,1.5025 0.2172,1.5568 1.4844 1.6474c 0.1086,0.1086 0.1086,0.4888 0.0000 0.5974c -0.6336,-0.0181 -1.4663,-0.0362 -2.1904 -0.0362c -0.7241,-0.0000 -1.4301,0.0181 -2.0637 0.0362c -0.1086,-0.1086 -0.1086,-0.4888 0.0000 -0.5974c 1.1224,-0.0724 1.3396,-0.1448 1.3396 -1.6474v -3.5301 c 0.0000,-1.0500 -0.1991,-1.1405 -1.1767 -1.2310c -0.0362,-0.1086 -0.0724,-0.3983 -0.0362 -0.5069c 1.2491,-0.1629 1.7198,-0.3259 2.2266 -0.5250c 0.1448,-0.0000 0.1792,0.0615 0.2172 0.1448c 0.0851,0.1865 0.1140,0.6517 0.1448 1.3758ZM 43.2694,16.9117 ZM 47.1977,17.0927 c -1.7922,-0.0000 -2.3353,-1.2129 -2.3353 -2.4620v -3.4757 c 0.0000,-1.1767 -0.2534,-1.3758 -1.1224 -1.4482c -0.1086,-0.1086 -0.1086,-0.4888 0.0000 -0.5974c 0.6155,0.0181 1.2672,0.0362 1.8465 0.0362c 0.2715,-0.0000 0.5431,-0.0181 0.6336 -0.0362c 0.0905,-0.0000 0.1448,0.0543 0.1448 0.1086c 0.0000,-0.0000 -0.0724,1.3215 -0.0724 1.8646v 3.2947 c 0.0000,1.6112 0.9051,1.8646 1.4482 1.8646c 0.4526,-0.0000 1.1405,-0.2896 1.8103 -0.8689c 0.2534,-0.2172 0.2896,-0.3621 0.2896 -0.7060v -3.4938 c 0.0000,-1.1948 -0.2353,-1.4120 -1.1224 -1.4663c -0.1086,-0.1086 -0.1086,-0.4888 0.0000 -0.5974c 0.6155,0.0181 1.2672,0.0362 1.8465 0.0362c 0.2715,-0.0000 0.5431,-0.0181 0.6336 -0.0362c 0.0905,-0.0000 0.1448,0.0543 0.1448 0.1086c 0.0000,-0.0000 -0.0724,1.3215 -0.0724 1.8646v 3.4757 c 0.0000,0.8870 0.1629,1.2310 1.3215 1.3215c 0.1086,0.1086 0.1086,0.3802 0.0000 0.4888c -1.1043,0.1267 -1.7379,0.3983 -2.1361 0.7241c -0.1177,0.0453 -0.1991,0.0543 -0.3440 -0.0000c 0.0000,-0.0000 -0.1539,-0.6064 -0.1991 -1.0681c -0.0127,-0.1267 -0.1810,-0.0905 -0.2715 -0.0181c -0.8870,0.7241 -1.7379,1.0862 -2.4439 1.0862ZM 52.8820,16.9117 ZM 60.0869,15.2643 c -0.9051,1.4844 -1.8646,1.8284 -2.9508 1.8284c -2.2810,-0.0000 -3.5844,-1.6112 -3.5844 -3.9464c 0.0000,-2.5706 1.9189,-4.1818 3.7111 -4.1818c 1.7379,-0.0000 2.7697,0.7241 2.7697 1.7198c 0.0000,0.5612 -0.5069,0.7965 -0.8870 0.7965c -0.3802,-0.0000 -0.6336,-0.1629 -0.6879 -0.6517c -0.0724,-0.6336 -0.2172,-1.2672 -1.2853 -1.2672c -1.1948,-0.0000 -2.0637,1.1948 -2.0637 3.1861c 0.0000,2.1180 1.1043,3.4576 2.4258 3.4576c 0.7784,-0.0000 1.5568,-0.3983 2.1723 -1.1948c 0.1629,0.0181 0.3077,0.0905 0.3802 0.2534ZM 60.6300,16.9117 ZM 61.4084,9.1455 l 0.8327,-0.0018 c 0.0000,-2.0076 -0.0543,-1.8881 -0.0543 -2.0981c 0.0000,-0.1249 0.1810,-0.1865 0.3983 -0.2480c 0.2263,-0.0634 0.4109,-0.1412 0.6155 -0.2552c 0.1684,-0.0923 0.3222,-0.1629 0.4037 -0.1629c 0.0851,-0.0000 0.1394,0.0434 0.1394 0.1593c 0.0000,-0.0000 -0.0724,0.7241 -0.0724 1.9008v 0.7060 h 2.1723 c 0.0905,-0.0000 0.1448,0.0362 0.1448 0.1086v 0.3621 c 0.0000,0.1629 -0.2534,0.2353 -0.4345 0.2353h -1.8827 v 4.5800 c 0.0000,1.1224 0.1086,1.6655 0.5974 1.6655c 0.4707,-0.0000 1.0138,-0.1448 1.4844 -0.5069c 0.1810,0.0181 0.2896,0.1213 0.3259 0.3077c -0.7060,0.7965 -1.6112,1.1948 -2.4439 1.1948c -0.8327,-0.0000 -1.3939,-0.5069 -1.3939 -1.7922v -5.4490 h -1.0681 c -0.0724,-0.0000 -0.0905,-0.0181 -0.0905 -0.1086v -0.2353 c 0.0000,-0.1448 0.0724,-0.3621 0.3259 -0.3621ZM 66.3505,16.9117 ZM 67.9797,6.0681 c 0.0000,-0.4345 0.5069,-0.8689 0.9413 -0.8689c 0.4888,-0.0000 0.8689,0.5069 0.8689 0.9413c 0.0000,0.3820 -0.4345,0.8689 -0.9413 0.8689c -0.4345,-0.0000 -0.8689,-0.4707 -0.8689 -0.9413ZM 67.9797,6.0681 ZM 69.6271,14.7031 c 0.0000,1.5025 0.1991,1.5749 1.3034 1.6474c 0.1086,0.1086 0.1086,0.4888 0.0000 0.5974c -0.5974,-0.0181 -1.2853,-0.0362 -2.0094 -0.0362c -0.7241,-0.0000 -1.4301,0.0181 -2.0275 0.0362c -0.1086,-0.1086 -0.1086,-0.4888 0.0000 -0.5974c 1.1043,-0.0905 1.3034,-0.1448 1.3034 -1.6474v -3.5301 c 0.0000,-1.0319 -0.1901,-1.1387 -1.1767 -1.2310c -0.0362,-0.1086 -0.0724,-0.3983 -0.0362 -0.5069c 1.2491,-0.1629 1.9642,-0.3259 2.4801 -0.5250c 0.1448,-0.0000 0.2353,0.0543 0.2353 0.1267c 0.0000,-0.0000 -0.0724,1.1586 -0.0724 2.0583v 3.6079 ZM 71.2563,16.9117 ZM 71.9986,13.2006 c 0.0000,-1.1441 0.3440,-2.1977 1.0011 -2.9689c 0.6626,-0.7784 1.6455,-1.2672 2.8367 -1.2672c 2.7697,-0.0000 3.8016,2.1904 3.8016 4.0731c 0.0000,1.1097 -0.3675,2.2484 -1.1785 3.0413c -0.6173,0.6028 -1.4935,1.0138 -2.6593 1.0138c -2.5706,-0.0000 -3.8016,-2.0456 -3.8016 -3.8921ZM 71.9986,13.2006 ZM 75.5648,9.5981 c -1.6293,-0.0000 -2.0094,1.6112 -2.0094 3.1861c 0.0000,1.3939 0.6155,3.6749 2.4982 3.6749c 0.8508,-0.0000 2.0275,-0.5612 2.0275 -2.8421c 0.0000,-2.6068 -0.9594,-4.0188 -2.5163 -4.0188ZM 80.3802,16.9117 ZM 83.7111,10.4308 c 1.0735,-1.2310 2.0818,-1.4663 2.9689 -1.4663c 0.6336,-0.0000 1.1948,0.2172 1.5025 0.6155c 0.4164,0.5612 0.4888,1.4301 0.4888 2.4258v 2.6973 c 0.0000,1.4844 0.1991,1.5568 1.2129 1.6474c 0.0905,0.1086 0.0905,0.4888 0.0000 0.5974c -0.5431,-0.0181 -1.1948,-0.0362 -1.9189 -0.0362c -0.7241,-0.0000 -1.3034,0.0181 -1.8465 0.0362c -0.0905,-0.1086 -0.0905,-0.4888 0.0000 -0.5974c 0.9413,-0.0905 1.1224,-0.1629 1.1224 -1.6474v -2.7516 c 0.0000,-0.5431 -0.0362,-1.0319 -0.2172 -1.3939c -0.2172,-0.4164 -0.5974,-0.6517 -0.9594 -0.6517c -0.7060,-0.0000 -1.5206,0.3983 -2.2085 1.0681c -0.1448,0.1629 -0.3077,0.3802 -0.3077 0.7603v 2.9689 c 0.0000,1.4844 0.1810,1.5568 1.1043 1.6474c 0.1086,0.1086 0.1086,0.4888 0.0000 0.5974c -0.5431,-0.0181 -1.0862,-0.0362 -1.8103 -0.0362c -0.7241,-0.0000 -1.4482,0.0181 -1.9913 0.0362c -0.1086,-0.1086 -0.1086,-0.4888 0.0000 -0.5974c 1.0862,-0.0905 1.2672,-0.1629 1.2672 -1.6474v -3.5301 c 0.0000,-1.0500 -0.1991,-1.1405 -1.1767 -1.2310c -0.0362,-0.1086 -0.0724,-0.3983 -0.0362 -0.5069c 1.2491,-0.1629 1.7198,-0.3259 2.2266 -0.5250c 0.1448,-0.0000 0.1792,0.0615 0.2172 0.1448c 0.0851,0.1865 0.1267,0.8870 0.1448 1.3758c 0.0054,0.1702 0.1068,0.1267 0.2172 -0.0000ZM 90.1919,16.9117 ZM 91.0608,14.4135 c 0.1086,-0.1086 0.4526,-0.1267 0.5612 -0.0181c 0.1086,0.4526 0.3077,1.2491 0.7060 1.6655c 0.1865,0.1937 0.5793,0.4345 1.2853 0.4345c 0.6698,-0.0000 1.5387,-0.3802 1.5387 -1.2672c 0.0000,-0.7784 -0.3440,-1.1586 -1.8465 -1.7741c -1.3939,-0.5793 -1.9913,-1.1405 -1.9913 -2.4620c 0.0000,-1.1586 1.2129,-2.0275 2.5525 -2.0275c 0.9413,-0.0000 1.8103,0.2534 2.3715 0.3440c -0.0181,0.5974 -0.0543,1.2672 -0.1086 1.9189c -0.1086,0.1086 -0.4707,0.1267 -0.5793 0.0181c -0.2353,-1.5387 -1.2853,-1.6836 -1.6836 -1.6836c -0.6155,-0.0000 -1.2672,0.4164 -1.2672 1.1586c 0.0000,0.9957 0.7205,1.2762 1.8103 1.6799c 1.2310,0.4562 2.1180,1.1749 2.1180 2.4113c 0.0000,1.7922 -1.8646,2.2810 -2.8783 2.2810c -0.6698,-0.0000 -1.1586,-0.0724 -1.6474 -0.1991c -0.1267,-0.0362 -0.2353,-0.0362 -0.3621 -0.0362c -0.0905,-0.0000 -0.2715,0.0181 -0.4526 0.0543c 0.0000,-0.7603 -0.0543,-1.6112 -0.1267 -2.4982Z"/></g></svg>