<?xml version="1.0" encoding="UTF-8"?>
<!DOCTYPE svg PUBLIC "-//W3C//DTD SVG 1.1//EN"
    "http://www.w3.org/Graphics/SVG/1.1/DTD/svg11.dtd"><svg xmlns="http://www.w3.org/2000/svg" viewBox="0.0 0.0 1025.948587979725 47.49215684135436" height="47.4922" font-size="1" stroke-opacity="1" width="1025.9486" xmlns:xlink="http://www.w3.org/1999/xlink" stroke="rgb(0,0,0)" version="1.1"><defs></defs><g><g stroke-linecap="butt" fill="rgb(0,0,0)" stroke-miterlimit="10.0" stroke-width="0.5" fill-opacity="0.0" stroke-opacity="1.0" stroke-linejoin="miter" stroke="rgb(0,0,0)"><path d="M 879.9964,23.5651 h 20.0000 "/></g><g stroke-linecap="butt" fill="rgb(0,0,0)" stroke-miterlimit="10.0" stroke-width="0.0" fill-opacity="1.0" stroke-opacity="1.0" stroke-linejoin="miter" stroke="rgb(0,0,0)"></g><g stroke-linecap="butt" fill="rgb(0,0,0)" stroke-miterlimit="10.0" stroke-width="0.0" fill-opacity="1.0" stroke-opacity="1.0" stroke-linejoin="miter" stroke="rgb(0,0,0)"></g><g stroke-linecap="butt" fill="rgb(0,0,0)" stroke-miterlimit="10.0" stroke-width="0.0" fill-opacity="1.0" stroke-opacity="1.0" stroke-linejoin="miter" stroke="rgb(0,0,0)"><path d="M 904.9964,23.5651 l -5.0000,-2.8868 v 5.7735 Z"/></g><g stroke-linecap="butt" fill="rgb(0,0,0)" stroke-miterlimit="10.0" stroke-width="0.0" fill-opacity="1.0" stroke-opacity="1.0" stroke-linejoin="miter" stroke="rgb(0,0,0)"></g><title>Marks released</title></g><g stroke-linecap="butt" fill="rgb(255,255,255)" stroke-miterlimit="10.0" stroke-width="1.0" fill-opacity="1.0" stroke-opacity="1.0" stroke-linejoin="miter" stroke="rgb(0,0,0)"><path d="M 879.9964,34.9734 l -0.0000,-22.8168 h -115.1140 l -0.0000,22.8168 Z"/></g><g stroke-linecap="butt" fill="rgb(0,0,0)" stroke-miterlimit="10.0" stroke-width="0.0" fill-opacity="1.0" stroke-opacity="1.0" stroke-linejoin="miter" stroke="rgb(0,0,0)"><path d="M 769.6560,29.7924 ZM 774.5800,18.6049 c -1.2853,-0.0000 -1.5025,0.6336 -1.5025 1.1586v 4.1455 h 0.8689 c 1.7560,-0.0000 3.0413,-0.5069 3.0413 -2.7697c 0.0000,-2.1361 -1.3034,-2.5344 -2.4077 -2.5344ZM 774.5800,18.6049 ZM 773.0775,27.5839 c 0.0000,1.5025 0.3077,1.5930 1.5749 1.6474c 0.1086,0.1086 0.1086,0.4888 0.0000 0.5974c -0.7965,-0.0181 -1.6546,-0.0362 -2.3353 -0.0362c -0.6970,-0.0000 -1.5387,0.0181 -2.3534 0.0362c -0.1086,-0.1086 -0.1086,-0.4888 0.0000 -0.5974c 1.2672,-0.0543 1.5749,-0.1448 1.5749 -1.6474v -7.2592 c 0.0000,-1.5025 -0.3077,-1.5930 -1.5749 -1.6474c -0.1086,-0.1086 -0.1086,-0.4888 0.0000 -0.5974c 0.8508,0.0181 1.7017,0.0362 2.3353 0.0362c 0.6517,-0.0000 1.4120,-0.1267 2.2629 -0.1267c 1.1405,-0.0000 2.2629,0.0543 3.1318 0.8689c 0.6517,0.6155 0.9594,1.3577 0.9594 2.2629c 0.0000,1.9008 -1.6293,2.8421 -2.4077 3.0956l 2.2810,3.8016 c 0.4707,0.7857 0.9232,1.3939 1.7379 1.3939c 0.0724,0.1448 0.0815,0.3096 0.0181 0.4345c -0.1810,0.0905 -0.4888,0.1267 -0.7603 0.1267c -1.0862,-0.0000 -1.8700,-0.7676 -2.3896 -1.6112l -1.9370,-3.1499 c -0.2589,-0.4218 -0.5974,-0.6879 -2.1180 -0.6879v 3.0594 ZM 780.2824,29.7924 ZM 782.5272,24.6874 l 3.2766,-0.0543 c 0.1991,-0.0036 0.2715,-0.0905 0.2715 -0.2534c 0.0000,-1.5206 -0.8146,-1.9008 -1.5025 -1.9008c -0.4345,-0.0000 -1.7017,0.1629 -2.0456 2.2085ZM 782.5272,24.6874 ZM 787.2701,28.1089 c 0.2172,0.0181 0.3259,0.1086 0.3802 0.2896c -0.7241,0.9413 -1.7017,1.5749 -3.0775 1.5749c -1.3034,-0.0000 -2.1542,-0.4345 -2.7697 -1.1586c -0.5974,-0.6879 -0.8508,-1.6655 -0.8508 -2.6792c 0.0000,-2.7516 2.0456,-4.2542 3.6206 -4.2542c 2.5163,-0.0000 3.0594,1.6293 3.0594 3.1499c 0.0000,0.1991 -0.1267,0.3077 -0.3440 0.3077l -4.8154,-0.0362 c 0.0000,1.0500 0.2172,1.8827 0.5793 2.4801c 0.5612,0.9232 1.3215,1.3034 1.9732 1.3034c 1.0500,-0.0000 1.5749,-0.2896 2.2448 -0.9776ZM 788.3744,29.7924 ZM 790.0941,27.5839 v -7.9109 c 0.0000,-1.3577 -0.1086,-1.4120 -1.1586 -1.4844c -0.1086,-0.1086 -0.1448,-0.3983 -0.1086 -0.5431c 0.7241,-0.0543 2.0818,-0.3077 2.5344 -0.4888c 0.1629,-0.0000 0.2353,0.0543 0.2353 0.1810c 0.0000,-0.0000 -0.0724,0.7241 -0.0724 1.9008v 8.3454 c 0.0000,1.5025 0.1991,1.5930 1.3034 1.6474c 0.1086,0.1086 0.1086,0.4888 0.0000 0.5974c -0.5974,-0.0181 -1.2853,-0.0362 -2.0094 -0.0362c -0.7241,-0.0000 -1.3939,0.0181 -2.0275 0.0362c -0.1086,-0.1086 -0.1086,-0.4888 0.0000 -0.5974c 1.1043,-0.0543 1.3034,-0.1448 1.3034 -1.6474ZM 793.1535,29.7924 ZM 795.3983,24.6874 l 3.2766,-0.0543 c 0.1991,-0.0036 0.2715,-0.0905 0.2715 -0.2534c 0.0000,-1.5206 -0.8146,-1.9008 -1.5025 -1.9008c -0.4345,-0.0000 -1.7017,0.1629 -2.0456 2.2085ZM 795.3983,24.6874 ZM 800.1412,28.1089 c 0.2172,0.0181 0.3259,0.1086 0.3802 0.2896c -0.7241,0.9413 -1.7017,1.5749 -3.0775 1.5749c -1.3034,-0.0000 -2.1542,-0.4345 -2.7697 -1.1586c -0.5974,-0.6879 -0.8508,-1.6655 -0.8508 -2.6792c 0.0000,-2.7516 2.0456,-4.2542 3.6206 -4.2542c 2.5163,-0.0000 3.0594,1.6293 3.0594 3.1499c 0.0000,0.1991 -0.1267,0.3077 -0.3440 0.3077l -4.8154,-0.0362 c 0.0000,1.0500 0.2172,1.8827 0.5793 2.4801c 0.5612,0.9232 1.3215,1.3034 1.9732 1.3034c 1.0500,-0.0000 1.5749,-0.2896 2.2448 -0.9776ZM 801.2455,29.7924 ZM 806.5496,25.5745 l -1.4301,0.3802 c -1.3396,0.3440 -1.7198,1.1767 -1.7198 1.9913c 0.0000,0.5612 0.3983,1.2853 1.3034 1.2853c 0.5069,-0.0000 1.1224,-0.4164 1.5930 -0.7965c 0.1448,-0.1086 0.2534,-0.2353 0.2534 -0.4707v -2.3896 ZM 806.5496,25.5745 ZM 806.5496,28.9235 h -0.0362 l -0.3621,0.2896 c -0.7965,0.6155 -1.3432,0.7603 -1.9732 0.7603c -1.2672,-0.0000 -2.2810,-0.4707 -2.2810 -1.9551c 0.0000,-1.2310 1.2491,-2.1904 2.9870 -2.6249l 1.5568,-0.3802 c 0.0543,-0.0181 0.1086,-0.0905 0.1086 -0.2172c 0.0000,-2.0456 -0.8508,-2.3534 -1.4663 -2.3534c -0.6879,-0.0000 -1.4482,0.1991 -1.4482 0.7603c 0.0000,0.1991 0.0181,0.3077 0.0362 0.3621c 0.0362,0.0724 0.0543,0.1991 0.0543 0.3259c 0.0000,0.2353 -0.3259,0.6155 -0.8508 0.6155c -0.4164,-0.0000 -0.6336,-0.2172 -0.6336 -0.6517c 0.0000,-1.0319 1.5025,-2.0094 2.9870 -2.0094c 1.3215,-0.0000 2.7335,0.4888 2.7335 3.0594v 2.6611 c 0.0000,0.8327 0.0181,1.5387 0.5431 1.5387c 0.2299,-0.0000 0.5340,-0.1774 0.6698 -0.2896c 0.2046,0.1140 0.2770,0.2661 0.3077 0.4888c -0.3747,0.3621 -1.0264,0.6698 -1.7198 0.6698c -0.9124,-0.0000 -1.1043,-0.4888 -1.2129 -1.0500ZM 809.5185,29.7924 ZM 810.3874,27.2942 c 0.1086,-0.1086 0.4526,-0.1267 0.5612 -0.0181c 0.1086,0.4526 0.3077,1.2491 0.7060 1.6655c 0.1865,0.1937 0.5793,0.4345 1.2853 0.4345c 0.6698,-0.0000 1.5387,-0.3802 1.5387 -1.2672c 0.0000,-0.7784 -0.3440,-1.1586 -1.8465 -1.7741c -1.3939,-0.5793 -1.9913,-1.1405 -1.9913 -2.4620c 0.0000,-1.1586 1.2129,-2.0275 2.5525 -2.0275c 0.9413,-0.0000 1.8103,0.2534 2.3715 0.3440c -0.0181,0.5974 -0.0543,1.2672 -0.1086 1.9189c -0.1086,0.1086 -0.4707,0.1267 -0.5793 0.0181c -0.2353,-1.5387 -1.2853,-1.6836 -1.6836 -1.6836c -0.6155,-0.0000 -1.2672,0.4164 -1.2672 1.1586c 0.0000,0.9957 0.7205,1.2762 1.8103 1.6799c 1.2310,0.4562 2.1180,1.1749 2.1180 2.4113c 0.0000,1.7922 -1.8646,2.2810 -2.8783 2.2810c -0.6698,-0.0000 -1.1586,-0.0724 -1.6474 -0.1991c -0.1267,-0.0362 -0.2353,-0.0362 -0.3621 -0.0362c -0.0905,-0.0000 -0.2715,0.0181 -0.4526 0.0543c 0.0000,-0.7603 -0.0543,-1.6112 -0.1267 -2.4982ZM 816.5786,29.7924 ZM 818.8233,24.6874 l 3.2766,-0.0543 c 0.1991,-0.0036 0.2715,-0.0905 0.2715 -0.2534c 0.0000,-1.5206 -0.8146,-1.9008 -1.5025 -1.9008c -0.4345,-0.0000 -1.7017,0.1629 -2.0456 2.2085ZM 818.8233,24.6874 ZM 823.5663,28.1089 c 0.2172,0.0181 0.3259,0.1086 0.3802 0.2896c -0.7241,0.9413 -1.7017,1.5749 -3.0775 1.5749c -1.3034,-0.0000 -2.1542,-0.4345 -2.7697 -1.1586c -0.5974,-0.6879 -0.8508,-1.6655 -0.8508 -2.6792c 0.0000,-2.7516 2.0456,-4.2542 3.6206 -4.2542c 2.5163,-0.0000 3.0594,1.6293 3.0594 3.1499c 0.0000,0.1991 -0.1267,0.3077 -0.3440 0.3077l -4.8154,-0.0362 c 0.0000,1.0500 0.2172,1.8827 0.5793 2.4801c 0.5612,0.9232 1.3215,1.3034 1.9732 1.3034c 1.0500,-0.0000 1.5749,-0.2896 2.2448 -0.9776ZM 829.1962,29.7924 ZM 841.1930,27.6925 l -0.4652,-7.5670 h -0.0362 l -4.0731,9.5764 c -0.0724,0.1448 -0.1448,0.2715 -0.2534 0.2715c -0.1086,-0.0000 -0.2209,-0.1430 -0.2715 -0.2715l -3.7473,-9.3954 h -0.0362 l -0.6879,7.2592 c -0.0978,1.0192 0.0000,1.5749 1.1948 1.6655c 0.1086,0.1086 0.1086,0.4888 0.0000 0.5974c -0.5431,-0.0181 -1.2672,-0.0362 -1.7017 -0.0362c -0.4345,-0.0000 -1.0138,0.0181 -1.5568 0.0362c -0.1086,-0.1086 -0.1086,-0.4888 0.0000 -0.5974c 1.0319,-0.0905 1.2491,-0.5449 1.3559 -1.6293l 0.7259,-7.4584 c 0.1267,-1.3577 0.0181,-1.3939 -1.2310 -1.4663c -0.1086,-0.1086 -0.1086,-0.4888 0.0000 -0.5974l 2.6249,0.0362 l 3.7111,9.1962 c 0.0561,0.1376 0.1086,0.2353 0.1448 0.2353c 0.0362,-0.0000 0.0905,-0.0724 0.1629 -0.2534l 3.8378,-9.1781 l 2.3715,-0.0362 c 0.1086,0.1086 0.1086,0.4888 0.0000 0.5974c -1.2310,0.0724 -1.3215,0.3259 -1.2437 1.3034l 0.5395,7.6213 c 0.1050,1.4989 0.1611,1.5749 1.3921 1.6293c 0.1086,0.1086 0.1086,0.4888 0.0000 0.5974c -0.6010,-0.0181 -1.4301,-0.0362 -1.9732 -0.0362c -0.5431,-0.0000 -1.2672,0.0181 -1.9370 0.0362c -0.1086,-0.1086 -0.1086,-0.4888 0.0000 -0.5974c 1.1767,-0.0543 1.2437,-0.0724 1.1531 -1.5387ZM 844.3845,29.7924 ZM 849.6886,25.5745 l -1.4301,0.3802 c -1.3396,0.3440 -1.7198,1.1767 -1.7198 1.9913c 0.0000,0.5612 0.3983,1.2853 1.3034 1.2853c 0.5069,-0.0000 1.1224,-0.4164 1.5930 -0.7965c 0.1448,-0.1086 0.2534,-0.2353 0.2534 -0.4707v -2.3896 ZM 849.6886,25.5745 ZM 849.6886,28.9235 h -0.0362 l -0.3621,0.2896 c -0.7965,0.6155 -1.3432,0.7603 -1.9732 0.7603c -1.2672,-0.0000 -2.2810,-0.4707 -2.2810 -1.9551c 0.0000,-1.2310 1.2491,-2.1904 2.9870 -2.6249l 1.5568,-0.3802 c 0.0543,-0.0181 0.1086,-0.0905 0.1086 -0.2172c 0.0000,-2.0456 -0.8508,-2.3534 -1.4663 -2.3534c -0.6879,-0.0000 -1.4482,0.1991 -1.4482 0.7603c 0.0000,0.1991 0.0181,0.3077 0.0362 0.3621c 0.0362,0.0724 0.0543,0.1991 0.0543 0.3259c 0.0000,0.2353 -0.3259,0.6155 -0.8508 0.6155c -0.4164,-0.0000 -0.6336,-0.2172 -0.6336 -0.6517c 0.0000,-1.0319 1.5025,-2.0094 2.9870 -2.0094c 1.3215,-0.0000 2.7335,0.4888 2.7335 3.0594v 2.6611 c 0.0000,0.8327 0.0181,1.5387 0.5431 1.5387c 0.2299,-0.0000 0.5340,-0.1774 0.6698 -0.2896c 0.2046,0.1140 0.2770,0.2661 0.3077 0.4888c -0.3747,0.3621 -1.0264,0.6698 -1.7198 0.6698c -0.9124,-0.0000 -1.1043,-0.4888 -1.2129 -1.0500ZM 852.6575,29.7924 ZM 855.8436,23.3116 c 0.0036,0.0905 0.0905,0.2353 0.1991 0.0362c 0.4164,-0.7060 1.1586,-1.5025 2.0094 -1.5025c 0.7603,-0.0000 1.0862,0.5232 1.0862 0.8689c 0.0000,0.4526 -0.4164,0.9051 -0.8508 0.9051c -0.3150,-0.0000 -0.5177,-0.2408 -0.6553 -0.4218c -0.1412,-0.1865 -0.3041,-0.2299 -0.4671 -0.2299c -0.2172,-0.0000 -0.6336,0.5974 -0.8327 0.8870c -0.2172,0.3259 -0.4345,0.7422 -0.4345 1.2129v 2.5163 c 0.0000,1.5025 0.2172,1.5568 1.4844 1.6474c 0.1086,0.1086 0.1086,0.4888 0.0000 0.5974c -0.6336,-0.0181 -1.4663,-0.0362 -2.1904 -0.0362c -0.7241,-0.0000 -1.4301,0.0181 -2.0637 0.0362c -0.1086,-0.1086 -0.1086,-0.4888 0.0000 -0.5974c 1.1224,-0.0724 1.3396,-0.1448 1.3396 -1.6474v -3.5301 c 0.0000,-1.0500 -0.1991,-1.1405 -1.1767 -1.2310c -0.0362,-0.1086 -0.0724,-0.3983 -0.0362 -0.5069c 1.2491,-0.1629 1.7198,-0.3259 2.2266 -0.5250c 0.1448,-0.0000 0.1792,0.0615 0.2172 0.1448c 0.0851,0.1865 0.1140,0.6517 0.1448 1.3758ZM 859.3917,29.7924 ZM 860.9486,27.5839 v -7.9109 c 0.0000,-1.5206 -0.2172,-1.4301 -1.1586 -1.4844c -0.1086,-0.1086 -0.1448,-0.3983 -0.1086 -0.5431c 0.7241,-0.0543 2.0818,-0.3077 2.5344 -0.4888c 0.1629,-0.0000 0.2353,0.0543 0.2353 0.1810c 0.0000,-0.0000 -0.0724,0.7241 -0.0724 1.9008v 6.3143 c 0.3421,-0.0471 0.8291,-0.2607 1.2310 -0.5576c 0.4652,-0.3440 1.0319,-0.9594 1.4482 -1.4844c 0.1684,-0.2118 0.5974,-0.8508 -0.4164 -0.9232c -0.1086,-0.1086 -0.1086,-0.4888 0.0000 -0.5974c 0.4164,0.0181 1.0862,0.0362 1.7741 0.0362c 0.6517,-0.0000 1.1586,-0.0181 1.5749 -0.0362c 0.1086,0.1086 0.1086,0.4888 0.0000 0.5974c -0.7241,0.0724 -1.3577,0.2172 -1.9008 0.7965l -1.5930,1.6474 c -0.0724,0.0724 -0.0724,0.1086 -0.0724 0.1810c 0.0000,0.0905 0.0615,0.1720 0.1267 0.2534l 2.3896,3.0051 c 0.4833,0.6083 0.9413,0.6879 1.5568 0.7603c 0.1086,0.1086 0.1086,0.4888 0.0000 0.5974c -0.3621,-0.0181 -0.9232,-0.0362 -1.4844 -0.0362c -0.3621,-0.0000 -0.7603,0.0181 -1.1224 0.0362c -0.0543,-0.0000 -0.0670,-0.0362 -0.0724 -0.0905c -0.0235,-0.2118 -0.2281,-0.5521 -0.7603 -1.2672l -1.3215,-1.7741 c -0.2154,-0.2896 -0.3802,-0.4526 -0.5793 -0.5883c -0.1756,-0.0615 -0.4308,-0.0887 -0.7784 -0.0978v 1.5731 c 0.0000,1.5025 0.1991,1.5749 0.9413 1.6474c 0.1086,0.1086 0.1086,0.4888 0.0000 0.5974c -0.4164,-0.0181 -1.0138,-0.0362 -1.6474 -0.0362c -0.7241,-0.0000 -1.3396,0.0181 -1.9370 0.0362c -0.1086,-0.1086 -0.1086,-0.4888 0.0000 -0.5974c 1.0138,-0.0724 1.2129,-0.1448 1.2129 -1.6474ZM 868.6604,29.7924 ZM 869.5293,27.2942 c 0.1086,-0.1086 0.4526,-0.1267 0.5612 -0.0181c 0.1086,0.4526 0.3077,1.2491 0.7060 1.6655c 0.1865,0.1937 0.5793,0.4345 1.2853 0.4345c 0.6698,-0.0000 1.5387,-0.3802 1.5387 -1.2672c 0.0000,-0.7784 -0.3440,-1.1586 -1.8465 -1.7741c -1.3939,-0.5793 -1.9913,-1.1405 -1.9913 -2.4620c 0.0000,-1.1586 1.2129,-2.0275 2.5525 -2.0275c 0.9413,-0.0000 1.8103,0.2534 2.3715 0.3440c -0.0181,0.5974 -0.0543,1.2672 -0.1086 1.9189c -0.1086,0.1086 -0.4707,0.1267 -0.5793 0.0181c -0.2353,-1.5387 -1.2853,-1.6836 -1.6836 -1.6836c -0.6155,-0.0000 -1.2672,0.4164 -1.2672 1.1586c 0.0000,0.9957 0.7205,1.2762 1.8103 1.6799c 1.2310,0.4562 2.1180,1.1749 2.1180 2.4113c 0.0000,1.7922 -1.8646,2.2810 -2.8783 2.2810c -0.6698,-0.0000 -1.1586,-0.0724 -1.6474 -0.1991c -0.1267,-0.0362 -0.2353,-0.0362 -0.3621 -0.0362c -0.0905,-0.0000 -0.2715,0.0181 -0.4526 0.0543c 0.0000,-0.7603 -0.0543,-1.6112 -0.1267 -2.4982Z"/></g><g><g stroke-linecap="butt" fill="rgb(0,0,0)" stroke-miterlimit="10.0" stroke-width="0.5" fill-opacity="0.0" stroke-opacity="1.0" stroke-linejoin="miter" stroke="rgb(0,0,0)"><path d="M 739.8823,23.5651 h 20.0000 "/></g><g stroke-linecap="butt" fill="rgb(0,0,0)" stroke-miterlimit="10.0" stroke-width="0.0" fill-opacity="1.0" stroke-opacity="1.0" stroke-linejoin="miter" stroke="rgb(0,0,0)"></g><g stroke-linecap="butt" fill="rgb(0,0,0)" stroke-miterlimit="10.0" stroke-width="0.0" fill-opacity="1.0" stroke-opacity="1.0" stroke-linejoin="miter" stroke="rgb(0,0,0)"></g><g stroke-linecap="butt" fill="rgb(0,0,0)" stroke-miterlimit="10.0" stroke-width="0.0" fill-opacity="1.0" stroke-opacity="1.0" stroke-linejoin="miter" stroke="rgb(0,0,0)"><path d="M 764.8823,23.5651 l -5.0000,-2.8868 v 5.7735 Z"/></g><g stroke-linecap="butt" fill="rgb(0,0,0)" stroke-miterlimit="10.0" stroke-width="0.0" fill-opacity="1.0" stroke-opacity="1.0" stroke-linejoin="miter" stroke="rgb(0,0,0)"></g><title>Marks submitted</title></g><g><g stroke-linecap="butt" fill="rgb(0,0,0)" stroke-miterlimit="10.0" stroke-width="0.5" fill-opacity="0.0" stroke-opacity="1.0" stroke-linejoin="miter" stroke="rgb(0,0,0)"><path d="M 689.8823,23.5651 h 20.0000 "/></g><g stroke-linecap="butt" fill="rgb(0,0,0)" stroke-miterlimit="10.0" stroke-width="0.0" fill-opacity="1.0" stroke-opacity="1.0" stroke-linejoin="miter" stroke="rgb(0,0,0)"></g><g stroke-linecap="butt" fill="rgb(0,0,0)" stroke-miterlimit="10.0" stroke-width="0.0" fill-opacity="1.0" stroke-opacity="1.0" stroke-linejoin="miter" stroke="rgb(0,0,0)"></g><g stroke-linecap="butt" fill="rgb(0,0,0)" stroke-miterlimit="10.0" stroke-width="0.0" fill-opacity="1.0" stroke-opacity="1.0" stroke-linejoin="miter" stroke="rgb(0,0,0)"><path d="M 714.8823,23.5651 l -5.0000,-2.8868 v 5.7735 Z"/></g><g stroke-linecap="butt" fill="rgb(0,0,0)" stroke-miterlimit="10.0" stroke-width="0.0" fill-opacity="1.0" stroke-opacity="1.0" stroke-linejoin="miter" stroke="rgb(0,0,0)"></g><title>Marks submitted</title></g><g stroke-linecap="butt" fill="rgb(255,255,255)" stroke-miterlimit="10.0" stroke-width="1.0" fill-opacity="1.0" stroke-opacity="1.0" stroke-linejoin="miter" stroke="rgb(0,0,0)"><path d="M 689.8823,34.9922 l -0.0000,-22.8542 h -112.0818 l -0.0000,22.8542 Z"/></g><g stroke-linecap="butt" fill="rgb(0,0,0)" stroke-miterlimit="10.0" stroke-width="0.0" fill-opacity="1.0" stroke-opacity="1.0" stroke-linejoin="miter" stroke="rgb(0,0,0)"><path d="M 582.3117,29.7737 ZM 589.4551,18.3508 c 0.1883,0.9594 0.2607,1.4663 0.3240 2.3353c -0.1629,0.1267 -0.3983,0.1412 -0.5883 0.1086c -0.3621,-1.1948 -0.9232,-2.3172 -2.6810 -2.3172c -1.0663,-0.0000 -1.9823,1.0138 -1.9823 2.0275c 0.0000,1.5224 1.8085,2.2067 2.8802 2.6086c 1.4917,0.5594 2.9417,1.4030 2.9417 3.3291c 0.0000,1.1513 -0.6608,2.2665 -1.7017 2.9182c -0.6300,0.3928 -1.4102,0.5938 -2.2339 0.5938c -1.6057,-0.0000 -2.1108,-0.4164 -3.2513 -0.4164c -0.2172,-0.8870 -0.2896,-1.3577 -0.3621 -2.7516c 0.1738,-0.0923 0.3657,-0.1267 0.5883 -0.0543c 0.3983,1.8012 1.4862,2.5706 3.1770 2.5706c 1.4446,-0.0000 2.2629,-0.7603 2.2629 -2.2266c 0.0000,-1.7705 -1.3342,-2.2791 -2.4348 -2.6973c -1.5930,-0.6064 -3.1589,-1.4772 -3.1589 -3.3852c 0.0000,-1.9189 1.6112,-3.1318 3.4468 -3.1318c 1.7668,-0.0000 1.7270,0.3440 2.7734 0.4888ZM 591.0916,29.7737 ZM 595.0199,29.9547 c -1.7922,-0.0000 -2.3353,-1.2129 -2.3353 -2.4620v -3.4757 c 0.0000,-1.1767 -0.2534,-1.3758 -1.1224 -1.4482c -0.1086,-0.1086 -0.1086,-0.4888 0.0000 -0.5974c 0.6155,0.0181 1.2672,0.0362 1.8465 0.0362c 0.2715,-0.0000 0.5431,-0.0181 0.6336 -0.0362c 0.0905,-0.0000 0.1448,0.0543 0.1448 0.1086c 0.0000,-0.0000 -0.0724,1.3215 -0.0724 1.8646v 3.2947 c 0.0000,1.6112 0.9051,1.8646 1.4482 1.8646c 0.4526,-0.0000 1.1405,-0.2896 1.8103 -0.8689c 0.2534,-0.2172 0.2896,-0.3621 0.2896 -0.7060v -3.4938 c 0.0000,-1.1948 -0.2353,-1.4120 -1.1224 -1.4663c -0.1086,-0.1086 -0.1086,-0.4888 0.0000 -0.5974c 0.6155,0.0181 1.2672,0.0362 1.8465 0.0362c 0.2715,-0.0000 0.5431,-0.0181 0.6336 -0.0362c 0.0905,-0.0000 0.1448,0.0543 0.1448 0.1086c 0.0000,-0.0000 -0.0724,1.3215 -0.0724 1.8646v 3.4757 c 0.0000,0.8870 0.1629,1.2310 1.3215 1.3215c 0.1086,0.1086 0.1086,0.3802 0.0000 0.4888c -1.1043,0.1267 -1.7379,0.3983 -2.1361 0.7241c -0.1177,0.0453 -0.1991,0.0543 -0.3440 -0.0000c 0.0000,-0.0000 -0.1539,-0.6064 -0.1991 -1.0681c -0.0127,-0.1267 -0.1810,-0.0905 -0.2715 -0.0181c -0.8870,0.7241 -1.7379,1.0862 -2.4439 1.0862ZM 600.7042,29.7737 ZM 603.8541,23.2024 c -0.2335,0.2064 -0.3077,0.3802 -0.3077 0.7603v 4.5257 c 0.3621,0.4526 0.7422,0.8508 1.3034 0.8508c 1.7198,-0.0000 2.5525,-1.5568 2.5525 -3.6206c 0.0000,-1.7560 -0.9051,-3.0956 -2.0094 -3.0956c -0.5250,-0.0000 -1.0681,0.1629 -1.5387 0.5793ZM 603.8541,23.2024 ZM 603.7274,22.6412 c 0.5612,-0.5069 1.2509,-0.8146 2.0275 -0.8146c 1.5749,-0.0000 3.2042,1.3577 3.2042 3.5663c 0.0000,2.8783 -2.1542,4.5619 -4.0007 4.5619c -0.6390,-0.0000 -1.1785,-0.0996 -1.5930 -0.4490c -0.1991,-0.1665 -0.3077,-0.1665 -0.4942 0.0507c -0.1394,0.1611 -0.3186,0.3295 -0.4290 0.4345c -0.2172,-0.0000 -0.3077,-0.0724 -0.3983 -0.2172c 0.0543,-0.2534 0.0724,-0.5793 0.0724 -1.2853v -8.8342 c 0.0000,-1.5206 -0.2172,-1.4301 -1.1586 -1.4844c -0.1086,-0.1086 -0.1448,-0.3983 -0.1086 -0.5431c 0.7241,-0.0543 2.0818,-0.3077 2.5344 -0.4888c 0.1629,-0.0000 0.2353,0.0543 0.2353 0.1810c 0.0000,-0.0000 -0.0724,0.7241 -0.0724 1.9008v 3.3309 c 0.0000,0.1629 0.0670,0.1937 0.1810 0.0905ZM 609.6289,29.7737 ZM 612.7064,23.2929 c 0.0091,0.2172 0.1340,0.0923 0.2172 -0.0000c 0.7549,-0.8436 1.7017,-1.4663 2.7516 -1.4663c 0.9413,-0.0000 1.6383,0.5865 1.8103 1.3287c 0.0362,0.1557 0.1448,0.0652 0.1991 0.0072c 0.9432,-0.9957 2.0601,-1.3360 2.9870 -1.3360c 1.5930,-0.0000 1.8646,1.2672 1.8646 2.8783v 2.8602 c 0.0000,1.4844 0.1629,1.5749 1.1586 1.6474c 0.0905,0.1086 0.0905,0.4888 0.0000 0.5974c -0.5069,-0.0181 -1.1405,-0.0362 -1.8646 -0.0362c -0.7241,-0.0000 -1.3939,0.0181 -1.8465 0.0362c -0.0905,-0.1086 -0.0905,-0.4888 0.0000 -0.5974c 0.9413,-0.0724 1.1224,-0.1629 1.1224 -1.6474v -3.1861 c 0.0000,-1.2129 -0.3983,-1.6112 -1.0862 -1.6112c -0.7060,-0.0000 -1.5206,0.2353 -2.3896 1.1948c 0.0181,0.2172 0.0181,0.4707 0.0181 0.7241v 2.8783 c 0.0000,1.4844 0.1629,1.5749 1.0681 1.6474c 0.0905,0.1086 0.0905,0.4888 0.0000 0.5974c -0.4526,-0.0181 -1.0500,-0.0362 -1.7741 -0.0362c -0.7241,-0.0000 -1.3939,0.0181 -1.8465 0.0362c -0.0905,-0.1086 -0.0905,-0.4888 0.0000 -0.5974c 0.9776,-0.0724 1.1224,-0.1629 1.1224 -1.6474v -3.1499 c 0.0000,-1.2129 -0.5069,-1.6474 -1.1948 -1.6474c -0.5594,-0.0000 -1.2382,0.3675 -1.9551 1.0681c -0.1448,0.1575 -0.3077,0.3802 -0.3077 0.7603v 2.9689 c 0.0000,1.4844 0.1991,1.5568 1.1188 1.6474c 0.1086,0.1086 0.1086,0.4888 0.0000 0.5974c -0.5431,-0.0181 -1.1007,-0.0362 -1.8248 -0.0362c -0.7241,-0.0000 -1.4120,0.0181 -1.9551 0.0362c -0.1086,-0.1086 -0.1086,-0.4888 0.0000 -0.5974c 0.9957,-0.0724 1.2310,-0.1629 1.2310 -1.6474v -3.5301 c 0.0000,-1.0500 -0.1991,-1.1405 -1.1767 -1.2310c -0.0362,-0.1086 -0.0724,-0.3983 -0.0362 -0.5069c 1.2491,-0.1629 1.7198,-0.3259 2.2266 -0.5250c 0.1448,-0.0000 0.1792,0.0615 0.2172 0.1448c 0.0851,0.1865 0.1213,0.8382 0.1448 1.3758ZM 623.9301,29.7737 ZM 625.5594,18.9301 c 0.0000,-0.4345 0.5069,-0.8689 0.9413 -0.8689c 0.4888,-0.0000 0.8689,0.5069 0.8689 0.9413c 0.0000,0.3820 -0.4345,0.8689 -0.9413 0.8689c -0.4345,-0.0000 -0.8689,-0.4707 -0.8689 -0.9413ZM 625.5594,18.9301 ZM 627.2067,27.5652 c 0.0000,1.5025 0.1991,1.5749 1.3034 1.6474c 0.1086,0.1086 0.1086,0.4888 0.0000 0.5974c -0.5974,-0.0181 -1.2853,-0.0362 -2.0094 -0.0362c -0.7241,-0.0000 -1.4301,0.0181 -2.0275 0.0362c -0.1086,-0.1086 -0.1086,-0.4888 0.0000 -0.5974c 1.1043,-0.0905 1.3034,-0.1448 1.3034 -1.6474v -3.5301 c 0.0000,-1.0319 -0.1901,-1.1387 -1.1767 -1.2310c -0.0362,-0.1086 -0.0724,-0.3983 -0.0362 -0.5069c 1.2491,-0.1629 1.9642,-0.3259 2.4801 -0.5250c 0.1448,-0.0000 0.2353,0.0543 0.2353 0.1267c 0.0000,-0.0000 -0.0724,1.1586 -0.0724 2.0583v 3.6079 ZM 628.8360,29.7737 ZM 629.6144,22.0076 l 0.8327,-0.0018 c 0.0000,-2.0076 -0.0543,-1.8881 -0.0543 -2.0981c 0.0000,-0.1249 0.1810,-0.1865 0.3983 -0.2480c 0.2263,-0.0634 0.4109,-0.1412 0.6155 -0.2552c 0.1684,-0.0923 0.3222,-0.1629 0.4037 -0.1629c 0.0851,-0.0000 0.1394,0.0434 0.1394 0.1593c 0.0000,-0.0000 -0.0724,0.7241 -0.0724 1.9008v 0.7060 h 2.1723 c 0.0905,-0.0000 0.1448,0.0362 0.1448 0.1086v 0.3621 c 0.0000,0.1629 -0.2534,0.2353 -0.4345 0.2353h -1.8827 v 4.5800 c 0.0000,1.1224 0.1086,1.6655 0.5974 1.6655c 0.4707,-0.0000 1.0138,-0.1448 1.4844 -0.5069c 0.1810,0.0181 0.2896,0.1213 0.3259 0.3077c -0.7060,0.7965 -1.6112,1.1948 -2.4439 1.1948c -0.8327,-0.0000 -1.3939,-0.5069 -1.3939 -1.7922v -5.4490 h -1.0681 c -0.0724,-0.0000 -0.0905,-0.0181 -0.0905 -0.1086v -0.2353 c 0.0000,-0.1448 0.0724,-0.3621 0.3259 -0.3621ZM 639.0822,29.7737 ZM 651.0789,27.6738 l -0.4652,-7.5670 h -0.0362 l -4.0731,9.5764 c -0.0724,0.1448 -0.1448,0.2715 -0.2534 0.2715c -0.1086,-0.0000 -0.2209,-0.1430 -0.2715 -0.2715l -3.7473,-9.3954 h -0.0362 l -0.6879,7.2592 c -0.0978,1.0192 0.0000,1.5749 1.1948 1.6655c 0.1086,0.1086 0.1086,0.4888 0.0000 0.5974c -0.5431,-0.0181 -1.2672,-0.0362 -1.7017 -0.0362c -0.4345,-0.0000 -1.0138,0.0181 -1.5568 0.0362c -0.1086,-0.1086 -0.1086,-0.4888 0.0000 -0.5974c 1.0319,-0.0905 1.2491,-0.5449 1.3559 -1.6293l 0.7259,-7.4584 c 0.1267,-1.3577 0.0181,-1.3939 -1.2310 -1.4663c -0.1086,-0.1086 -0.1086,-0.4888 0.0000 -0.5974l 2.6249,0.0362 l 3.7111,9.1962 c 0.0561,0.1376 0.1086,0.2353 0.1448 0.2353c 0.0362,-0.0000 0.0905,-0.0724 0.1629 -0.2534l 3.8378,-9.1781 l 2.3715,-0.0362 c 0.1086,0.1086 0.1086,0.4888 0.0000 0.5974c -1.2310,0.0724 -1.3215,0.3259 -1.2437 1.3034l 0.5395,7.6213 c 0.1050,1.4989 0.1611,1.5749 1.3921 1.6293c 0.1086,0.1086 0.1086,0.4888 0.0000 0.5974c -0.6010,-0.0181 -1.4301,-0.0362 -1.9732 -0.0362c -0.5431,-0.0000 -1.2672,0.0181 -1.9370 0.0362c -0.1086,-0.1086 -0.1086,-0.4888 0.0000 -0.5974c 1.1767,-0.0543 1.2437,-0.0724 1.1531 -1.5387ZM 654.2705,29.7737 ZM 659.5746,25.5558 l -1.4301,0.3802 c -1.3396,0.3440 -1.7198,1.1767 -1.7198 1.9913c 0.0000,0.5612 0.3983,1.2853 1.3034 1.2853c 0.5069,-0.0000 1.1224,-0.4164 1.5930 -0.7965c 0.1448,-0.1086 0.2534,-0.2353 0.2534 -0.4707v -2.3896 ZM 659.5746,25.5558 ZM 659.5746,28.9048 h -0.0362 l -0.3621,0.2896 c -0.7965,0.6155 -1.3432,0.7603 -1.9732 0.7603c -1.2672,-0.0000 -2.2810,-0.4707 -2.2810 -1.9551c 0.0000,-1.2310 1.2491,-2.1904 2.9870 -2.6249l 1.5568,-0.3802 c 0.0543,-0.0181 0.1086,-0.0905 0.1086 -0.2172c 0.0000,-2.0456 -0.8508,-2.3534 -1.4663 -2.3534c -0.6879,-0.0000 -1.4482,0.1991 -1.4482 0.7603c 0.0000,0.1991 0.0181,0.3077 0.0362 0.3621c 0.0362,0.0724 0.0543,0.1991 0.0543 0.3259c 0.0000,0.2353 -0.3259,0.6155 -0.8508 0.6155c -0.4164,-0.0000 -0.6336,-0.2172 -0.6336 -0.6517c 0.0000,-1.0319 1.5025,-2.0094 2.9870 -2.0094c 1.3215,-0.0000 2.7335,0.4888 2.7335 3.0594v 2.6611 c 0.0000,0.8327 0.0181,1.5387 0.5431 1.5387c 0.2299,-0.0000 0.5340,-0.1774 0.6698 -0.2896c 0.2046,0.1140 0.2770,0.2661 0.3077 0.4888c -0.3747,0.3621 -1.0264,0.6698 -1.7198 0.6698c -0.9124,-0.0000 -1.1043,-0.4888 -1.2129 -1.0500ZM 662.5434,29.7737 ZM 665.7295,23.2929 c 0.0036,0.0905 0.0905,0.2353 0.1991 0.0362c 0.4164,-0.7060 1.1586,-1.5025 2.0094 -1.5025c 0.7603,-0.0000 1.0862,0.5232 1.0862 0.8689c 0.0000,0.4526 -0.4164,0.9051 -0.8508 0.9051c -0.3150,-0.0000 -0.5177,-0.2408 -0.6553 -0.4218c -0.1412,-0.1865 -0.3041,-0.2299 -0.4671 -0.2299c -0.2172,-0.0000 -0.6336,0.5974 -0.8327 0.8870c -0.2172,0.3259 -0.4345,0.7422 -0.4345 1.2129v 2.5163 c 0.0000,1.5025 0.2172,1.5568 1.4844 1.6474c 0.1086,0.1086 0.1086,0.4888 0.0000 0.5974c -0.6336,-0.0181 -1.4663,-0.0362 -2.1904 -0.0362c -0.7241,-0.0000 -1.4301,0.0181 -2.0637 0.0362c -0.1086,-0.1086 -0.1086,-0.4888 0.0000 -0.5974c 1.1224,-0.0724 1.3396,-0.1448 1.3396 -1.6474v -3.5301 c 0.0000,-1.0500 -0.1991,-1.1405 -1.1767 -1.2310c -0.0362,-0.1086 -0.0724,-0.3983 -0.0362 -0.5069c 1.2491,-0.1629 1.7198,-0.3259 2.2266 -0.5250c 0.1448,-0.0000 0.1792,0.0615 0.2172 0.1448c 0.0851,0.1865 0.1140,0.6517 0.1448 1.3758ZM 669.2777,29.7737 ZM 670.8345,27.5652 v -7.9109 c 0.0000,-1.5206 -0.2172,-1.4301 -1.1586 -1.4844c -0.1086,-0.1086 -0.1448,-0.3983 -0.1086 -0.5431c 0.7241,-0.0543 2.0818,-0.3077 2.5344 -0.4888c 0.1629,-0.0000 0.2353,0.0543 0.2353 0.1810c 0.0000,-0.0000 -0.0724,0.7241 -0.0724 1.9008v 6.3143 c 0.3421,-0.0471 0.8291,-0.2607 1.2310 -0.5576c 0.4652,-0.3440 1.0319,-0.9594 1.4482 -1.4844c 0.1684,-0.2118 0.5974,-0.8508 -0.4164 -0.9232c -0.1086,-0.1086 -0.1086,-0.4888 0.0000 -0.5974c 0.4164,0.0181 1.0862,0.0362 1.7741 0.0362c 0.6517,-0.0000 1.1586,-0.0181 1.5749 -0.0362c 0.1086,0.1086 0.1086,0.4888 0.0000 0.5974c -0.7241,0.0724 -1.3577,0.2172 -1.9008 0.7965l -1.5930,1.6474 c -0.0724,0.0724 -0.0724,0.1086 -0.0724 0.1810c 0.0000,0.0905 0.0615,0.1720 0.1267 0.2534l 2.3896,3.0051 c 0.4833,0.6083 0.9413,0.6879 1.5568 0.7603c 0.1086,0.1086 0.1086,0.4888 0.0000 0.5974c -0.3621,-0.0181 -0.9232,-0.0362 -1.4844 -0.0362c -0.3621,-0.0000 -0.7603,0.0181 -1.1224 0.0362c -0.0543,-0.0000 -0.0670,-0.0362 -0.0724 -0.0905c -0.0235,-0.2118 -0.2281,-0.5521 -0.7603 -1.2672l -1.3215,-1.7741 c -0.2154,-0.2896 -0.3802,-0.4526 -0.5793 -0.5883c -0.1756,-0.0615 -0.4308,-0.0887 -0.7784 -0.0978v 1.5731 c 0.0000,1.5025 0.1991,1.5749 0.9413 1.6474c 0.1086,0.1086 0.1086,0.4888 0.0000 0.5974c -0.4164,-0.0181 -1.0138,-0.0362 -1.6474 -0.0362c -0.7241,-0.0000 -1.3396,0.0181 -1.9370 0.0362c -0.1086,-0.1086 -0.1086,-0.4888 0.0000 -0.5974c 1.0138,-0.0724 1.2129,-0.1448 1.2129 -1.6474ZM 678.5463,29.7737 ZM 679.4153,27.2755 c 0.1086,-0.1086 0.4526,-0.1267 0.5612 -0.0181c 0.1086,0.4526 0.3077,1.2491 0.7060 1.6655c 0.1865,0.1937 0.5793,0.4345 1.2853 0.4345c 0.6698,-0.0000 1.5387,-0.3802 1.5387 -1.2672c 0.0000,-0.7784 -0.3440,-1.1586 -1.8465 -1.7741c -1.3939,-0.5793 -1.9913,-1.1405 -1.9913 -2.4620c 0.0000,-1.1586 1.2129,-2.0275 2.5525 -2.0275c 0.9413,-0.0000 1.8103,0.2534 2.3715 0.3440c -0.0181,0.5974 -0.0543,1.2672 -0.1086 1.9189c -0.1086,0.1086 -0.4707,0.1267 -0.5793 0.0181c -0.2353,-1.5387 -1.2853,-1.6836 -1.6836 -1.6836c -0.6155,-0.0000 -1.2672,0.4164 -1.2672 1.1586c 0.0000,0.9957 0.7205,1.2762 1.8103 1.6799c 1.2310,0.4562 2.1180,1.1749 2.1180 2.4113c 0.0000,1.7922 -1.8646,2.2810 -2.8783 2.2810c -0.6698,-0.0000 -1.1586,-0.0724 -1.6474 -0.1991c -0.1267,-0.0362 -0.2353,-0.0362 -0.3621 -0.0362c -0.0905,-0.0000 -0.2715,0.0181 -0.4526 0.0543c 0.0000,-0.7603 -0.0543,-1.6112 -0.1267 -2.4982Z"/></g><g><g stroke-linecap="butt" fill="rgb(0,0,0)" stroke-miterlimit="10.0" stroke-width="0.5" fill-opacity="0.0" stroke-opacity="1.0" stroke-linejoin="miter" stroke="rgb(0,0,0)"><path d="M 552.8005,23.5651 h 20.0000 "/></g><g stroke-linecap="butt" fill="rgb(0,0,0)" stroke-miterlimit="10.0" stroke-width="0.0" fill-opacity="1.0" stroke-opacity="1.0" stroke-linejoin="miter" stroke="rgb(0,0,0)"></g><g stroke-linecap="butt" fill="rgb(0,0,0)" stroke-miterlimit="10.0" stroke-width="0.0" fill-opacity="1.0" stroke-opacity="1.0" stroke-linejoin="miter" stroke="rgb(0,0,0)"></g><g stroke-linecap="butt" fill="rgb(0,0,0)" stroke-miterlimit="10.0" stroke-width="0.0" fill-opacity="1.0" stroke-opacity="1.0" stroke-linejoin="miter" stroke="rgb(0,0,0)"><path d="M 577.8005,23.5651 l -5.0000,-2.8868 v 5.7735 Z"/></g><g stroke-linecap="butt" fill="rgb(0,0,0)" stroke-miterlimit="10.0" stroke-width="0.0" fill-opacity="1.0" stroke-opacity="1.0" stroke-linejoin="miter" stroke="rgb(0,0,0)"></g><title>Marks</title></g><g><g stroke-linecap="butt" fill="rgb(0,0,0)" stroke-miterlimit="10.0" stroke-width="0.5" fill-opacity="0.0" stroke-opacity="1.0" stroke-linejoin="miter" stroke="rgb(0,0,0)"><path d="M 714.8823,23.5651 h 25.0000 "/></g><g stroke-linecap="butt" fill="rgb(0,0,0)" stroke-miterlimit="10.0" stroke-width="0.0" fill-opacity="1.0" stroke-opacity="1.0" stroke-linejoin="miter" stroke="rgb(0,0,0)"></g><g stroke-linecap="butt" fill="rgb(0,0,0)" stroke-miterlimit="10.0" stroke-width="0.0" fill-opacity="1.0" stroke-opacity="1.0" stroke-linejoin="miter" stroke="rgb(0,0,0)"></g><g stroke-linecap="butt" fill="rgb(0,0,0)" stroke-miterlimit="10.0" stroke-width="0.0" fill-opacity="1.0" stroke-opacity="1.0" stroke-linejoin="miter" stroke="rgb(0,0,0)"></g><g stroke-linecap="butt" fill="rgb(0,0,0)" stroke-miterlimit="10.0" stroke-width="0.0" fill-opacity="1.0" stroke-opacity="1.0" stroke-linejoin="miter" stroke="rgb(0,0,0)"></g><title>Marks submitted</title></g><g><g stroke-linecap="butt" fill="rgb(0,0,0)" stroke-miterlimit="10.0" stroke-width="0.5" fill-opacity="0.0" stroke-opacity="1.0" stroke-linejoin="miter" stroke="rgb(0,0,0)"><path d="M 502.8005,23.5651 h 20.0000 "/></g><g stroke-linecap="butt" fill="rgb(0,0,0)" stroke-miterlimit="10.0" stroke-width="0.0" fill-opacity="1.0" stroke-opacity="1.0" stroke-linejoin="miter" stroke="rgb(0,0,0)"></g><g stroke-linecap="butt" fill="rgb(0,0,0)" stroke-miterlimit="10.0" stroke-width="0.0" fill-opacity="1.0" stroke-opacity="1.0" stroke-linejoin="miter" stroke="rgb(0,0,0)"></g><g stroke-linecap="butt" fill="rgb(0,0,0)" stroke-miterlimit="10.0" stroke-width="0.0" fill-opacity="1.0" stroke-opacity="1.0" stroke-linejoin="miter" stroke="rgb(0,0,0)"><path d="M 527.8005,23.5651 l -5.0000,-2.8868 v 5.7735 Z"/></g><g stroke-linecap="butt" fill="rgb(0,0,0)" stroke-miterlimit="10.0" stroke-width="0.0" fill-opacity="1.0" stroke-opacity="1.0" stroke-linejoin="miter" stroke="rgb(0,0,0)"></g><title>Marks</title></g><g stroke-linecap="butt" fill="rgb(255,255,255)" stroke-miterlimit="10.0" stroke-width="1.0" fill-opacity="1.0" stroke-opacity="1.0" stroke-linejoin="miter" stroke="rgb(0,0,0)"><path d="M 502.8005,34.9922 l -0.0000,-22.8542 h -144.5311 l -0.0000,22.8542 Z"/></g><g stroke-linecap="butt" fill="rgb(0,0,0)" stroke-miterlimit="10.0" stroke-width="0.0" fill-opacity="1.0" stroke-opacity="1.0" stroke-linejoin="miter" stroke="rgb(0,0,0)"><path d="M 362.9888,29.7737 ZM 374.9855,27.6738 l -0.4652,-7.5670 h -0.0362 l -4.0731,9.5764 c -0.0724,0.1448 -0.1448,0.2715 -0.2534 0.2715c -0.1086,-0.0000 -0.2209,-0.1430 -0.2715 -0.2715l -3.7473,-9.3954 h -0.0362 l -0.6879,7.2592 c -0.0978,1.0192 0.0000,1.5749 1.1948 1.6655c 0.1086,0.1086 0.1086,0.4888 0.0000 0.5974c -0.5431,-0.0181 -1.2672,-0.0362 -1.7017 -0.0362c -0.4345,-0.0000 -1.0138,0.0181 -1.5568 0.0362c -0.1086,-0.1086 -0.1086,-0.4888 0.0000 -0.5974c 1.0319,-0.0905 1.2491,-0.5449 1.3559 -1.6293l 0.7259,-7.4584 c 0.1267,-1.3577 0.0181,-1.3939 -1.2310 -1.4663c -0.1086,-0.1086 -0.1086,-0.4888 0.0000 -0.5974l 2.6249,0.0362 l 3.7111,9.1962 c 0.0561,0.1376 0.1086,0.2353 0.1448 0.2353c 0.0362,-0.0000 0.0905,-0.0724 0.1629 -0.2534l 3.8378,-9.1781 l 2.3715,-0.0362 c 0.1086,0.1086 0.1086,0.4888 0.0000 0.5974c -1.2310,0.0724 -1.3215,0.3259 -1.2437 1.3034l 0.5395,7.6213 c 0.1050,1.4989 0.1611,1.5749 1.3921 1.6293c 0.1086,0.1086 0.1086,0.4888 0.0000 0.5974c -0.6010,-0.0181 -1.4301,-0.0362 -1.9732 -0.0362c -0.5431,-0.0000 -1.2672,0.0181 -1.9370 0.0362c -0.1086,-0.1086 -0.1086,-0.4888 0.0000 -0.5974c 1.1767,-0.0543 1.2437,-0.0724 1.1531 -1.5387ZM 378.1770,29.7737 ZM 383.4812,25.5558 l -1.4301,0.3802 c -1.3396,0.3440 -1.7198,1.1767 -1.7198 1.9913c 0.0000,0.5612 0.3983,1.2853 1.3034 1.2853c 0.5069,-0.0000 1.1224,-0.4164 1.5930 -0.7965c 0.1448,-0.1086 0.2534,-0.2353 0.2534 -0.4707v -2.3896 ZM 383.4812,25.5558 ZM 383.4812,28.9048 h -0.0362 l -0.3621,0.2896 c -0.7965,0.6155 -1.3432,0.7603 -1.9732 0.7603c -1.2672,-0.0000 -2.2810,-0.4707 -2.2810 -1.9551c 0.0000,-1.2310 1.2491,-2.1904 2.9870 -2.6249l 1.5568,-0.3802 c 0.0543,-0.0181 0.1086,-0.0905 0.1086 -0.2172c 0.0000,-2.0456 -0.8508,-2.3534 -1.4663 -2.3534c -0.6879,-0.0000 -1.4482,0.1991 -1.4482 0.7603c 0.0000,0.1991 0.0181,0.3077 0.0362 0.3621c 0.0362,0.0724 0.0543,0.1991 0.0543 0.3259c 0.0000,0.2353 -0.3259,0.6155 -0.8508 0.6155c -0.4164,-0.0000 -0.6336,-0.2172 -0.6336 -0.6517c 0.0000,-1.0319 1.5025,-2.0094 2.9870 -2.0094c 1.3215,-0.0000 2.7335,0.4888 2.7335 3.0594v 2.6611 c 0.0000,0.8327 0.0181,1.5387 0.5431 1.5387c 0.2299,-0.0000 0.5340,-0.1774 0.6698 -0.2896c 0.2046,0.1140 0.2770,0.2661 0.3077 0.4888c -0.3747,0.3621 -1.0264,0.6698 -1.7198 0.6698c -0.9124,-0.0000 -1.1043,-0.4888 -1.2129 -1.0500ZM 386.4500,29.7737 ZM 389.6361,23.2929 c 0.0036,0.0905 0.0905,0.2353 0.1991 0.0362c 0.4164,-0.7060 1.1586,-1.5025 2.0094 -1.5025c 0.7603,-0.0000 1.0862,0.5232 1.0862 0.8689c 0.0000,0.4526 -0.4164,0.9051 -0.8508 0.9051c -0.3150,-0.0000 -0.5177,-0.2408 -0.6553 -0.4218c -0.1412,-0.1865 -0.3041,-0.2299 -0.4671 -0.2299c -0.2172,-0.0000 -0.6336,0.5974 -0.8327 0.8870c -0.2172,0.3259 -0.4345,0.7422 -0.4345 1.2129v 2.5163 c 0.0000,1.5025 0.2172,1.5568 1.4844 1.6474c 0.1086,0.1086 0.1086,0.4888 0.0000 0.5974c -0.6336,-0.0181 -1.4663,-0.0362 -2.1904 -0.0362c -0.7241,-0.0000 -1.4301,0.0181 -2.0637 0.0362c -0.1086,-0.1086 -0.1086,-0.4888 0.0000 -0.5974c 1.1224,-0.0724 1.3396,-0.1448 1.3396 -1.6474v -3.5301 c 0.0000,-1.0500 -0.1991,-1.1405 -1.1767 -1.2310c -0.0362,-0.1086 -0.0724,-0.3983 -0.0362 -0.5069c 1.2491,-0.1629 1.7198,-0.3259 2.2266 -0.5250c 0.1448,-0.0000 0.1792,0.0615 0.2172 0.1448c 0.0851,0.1865 0.1140,0.6517 0.1448 1.3758ZM 393.1843,29.7737 ZM 394.7411,27.5652 v -7.9109 c 0.0000,-1.5206 -0.2172,-1.4301 -1.1586 -1.4844c -0.1086,-0.1086 -0.1448,-0.3983 -0.1086 -0.5431c 0.7241,-0.0543 2.0818,-0.3077 2.5344 -0.4888c 0.1629,-0.0000 0.2353,0.0543 0.2353 0.1810c 0.0000,-0.0000 -0.0724,0.7241 -0.0724 1.9008v 6.3143 c 0.3421,-0.0471 0.8291,-0.2607 1.2310 -0.5576c 0.4652,-0.3440 1.0319,-0.9594 1.4482 -1.4844c 0.1684,-0.2118 0.5974,-0.8508 -0.4164 -0.9232c -0.1086,-0.1086 -0.1086,-0.4888 0.0000 -0.5974c 0.4164,0.0181 1.0862,0.0362 1.7741 0.0362c 0.6517,-0.0000 1.1586,-0.0181 1.5749 -0.0362c 0.1086,0.1086 0.1086,0.4888 0.0000 0.5974c -0.7241,0.0724 -1.3577,0.2172 -1.9008 0.7965l -1.5930,1.6474 c -0.0724,0.0724 -0.0724,0.1086 -0.0724 0.1810c 0.0000,0.0905 0.0615,0.1720 0.1267 0.2534l 2.3896,3.0051 c 0.4833,0.6083 0.9413,0.6879 1.5568 0.7603c 0.1086,0.1086 0.1086,0.4888 0.0000 0.5974c -0.3621,-0.0181 -0.9232,-0.0362 -1.4844 -0.0362c -0.3621,-0.0000 -0.7603,0.0181 -1.1224 0.0362c -0.0543,-0.0000 -0.0670,-0.0362 -0.0724 -0.0905c -0.0235,-0.2118 -0.2281,-0.5521 -0.7603 -1.2672l -1.3215,-1.7741 c -0.2154,-0.2896 -0.3802,-0.4526 -0.5793 -0.5883c -0.1756,-0.0615 -0.4308,-0.0887 -0.7784 -0.0978v 1.5731 c 0.0000,1.5025 0.1991,1.5749 0.9413 1.6474c 0.1086,0.1086 0.1086,0.4888 0.0000 0.5974c -0.4164,-0.0181 -1.0138,-0.0362 -1.6474 -0.0362c -0.7241,-0.0000 -1.3396,0.0181 -1.9370 0.0362c -0.1086,-0.1086 -0.1086,-0.4888 0.0000 -0.5974c 1.0138,-0.0724 1.2129,-0.1448 1.2129 -1.6474ZM 406.9786,29.7737 ZM 414.1220,18.3508 c 0.1883,0.9594 0.2607,1.4663 0.3240 2.3353c -0.1629,0.1267 -0.3983,0.1412 -0.5883 0.1086c -0.3621,-1.1948 -0.9232,-2.3172 -2.6810 -2.3172c -1.0663,-0.0000 -1.9823,1.0138 -1.9823 2.0275c 0.0000,1.5224 1.8085,2.2067 2.8802 2.6086c 1.4917,0.5594 2.9417,1.4030 2.9417 3.3291c 0.0000,1.1513 -0.6608,2.2665 -1.7017 2.9182c -0.6300,0.3928 -1.4102,0.5938 -2.2339 0.5938c -1.6057,-0.0000 -2.1108,-0.4164 -3.2513 -0.4164c -0.2172,-0.8870 -0.2896,-1.3577 -0.3621 -2.7516c 0.1738,-0.0923 0.3657,-0.1267 0.5883 -0.0543c 0.3983,1.8012 1.4862,2.5706 3.1770 2.5706c 1.4446,-0.0000 2.2629,-0.7603 2.2629 -2.2266c 0.0000,-1.7705 -1.3342,-2.2791 -2.4348 -2.6973c -1.5930,-0.6064 -3.1589,-1.4772 -3.1589 -3.3852c 0.0000,-1.9189 1.6112,-3.1318 3.4468 -3.1318c 1.7668,-0.0000 1.7270,0.3440 2.7734 0.4888ZM 415.7585,29.7737 ZM 419.6868,29.9547 c -1.7922,-0.0000 -2.3353,-1.2129 -2.3353 -2.4620v -3.4757 c 0.0000,-1.1767 -0.2534,-1.3758 -1.1224 -1.4482c -0.1086,-0.1086 -0.1086,-0.4888 0.0000 -0.5974c 0.6155,0.0181 1.2672,0.0362 1.8465 0.0362c 0.2715,-0.0000 0.5431,-0.0181 0.6336 -0.0362c 0.0905,-0.0000 0.1448,0.0543 0.1448 0.1086c 0.0000,-0.0000 -0.0724,1.3215 -0.0724 1.8646v 3.2947 c 0.0000,1.6112 0.9051,1.8646 1.4482 1.8646c 0.4526,-0.0000 1.1405,-0.2896 1.8103 -0.8689c 0.2534,-0.2172 0.2896,-0.3621 0.2896 -0.7060v -3.4938 c 0.0000,-1.1948 -0.2353,-1.4120 -1.1224 -1.4663c -0.1086,-0.1086 -0.1086,-0.4888 0.0000 -0.5974c 0.6155,0.0181 1.2672,0.0362 1.8465 0.0362c 0.2715,-0.0000 0.5431,-0.0181 0.6336 -0.0362c 0.0905,-0.0000 0.1448,0.0543 0.1448 0.1086c 0.0000,-0.0000 -0.0724,1.3215 -0.0724 1.8646v 3.4757 c 0.0000,0.8870 0.1629,1.2310 1.3215 1.3215c 0.1086,0.1086 0.1086,0.3802 0.0000 0.4888c -1.1043,0.1267 -1.7379,0.3983 -2.1361 0.7241c -0.1177,0.0453 -0.1991,0.0543 -0.3440 -0.0000c 0.0000,-0.0000 -0.1539,-0.6064 -0.1991 -1.0681c -0.0127,-0.1267 -0.1810,-0.0905 -0.2715 -0.0181c -0.8870,0.7241 -1.7379,1.0862 -2.4439 1.0862ZM 425.3711,29.7737 ZM 428.5210,23.2024 c -0.2335,0.2064 -0.3077,0.3802 -0.3077 0.7603v 4.5257 c 0.3621,0.4526 0.7422,0.8508 1.3034 0.8508c 1.7198,-0.0000 2.5525,-1.5568 2.5525 -3.6206c 0.0000,-1.7560 -0.9051,-3.0956 -2.0094 -3.0956c -0.5250,-0.0000 -1.0681,0.1629 -1.5387 0.5793ZM 428.5210,23.2024 ZM 428.3943,22.6412 c 0.5612,-0.5069 1.2509,-0.8146 2.0275 -0.8146c 1.5749,-0.0000 3.2042,1.3577 3.2042 3.5663c 0.0000,2.8783 -2.1542,4.5619 -4.0007 4.5619c -0.6390,-0.0000 -1.1785,-0.0996 -1.5930 -0.4490c -0.1991,-0.1665 -0.3077,-0.1665 -0.4942 0.0507c -0.1394,0.1611 -0.3186,0.3295 -0.4290 0.4345c -0.2172,-0.0000 -0.3077,-0.0724 -0.3983 -0.2172c 0.0543,-0.2534 0.0724,-0.5793 0.0724 -1.2853v -8.8342 c 0.0000,-1.5206 -0.2172,-1.4301 -1.1586 -1.4844c -0.1086,-0.1086 -0.1448,-0.3983 -0.1086 -0.5431c 0.7241,-0.0543 2.0818,-0.3077 2.5344 -0.4888c 0.1629,-0.0000 0.2353,0.0543 0.2353 0.1810c 0.0000,-0.0000 -0.0724,0.7241 -0.0724 1.9008v 3.3309 c 0.0000,0.1629 0.0670,0.1937 0.1810 0.0905ZM 434.2958,29.7737 ZM 437.3733,23.2929 c 0.0091,0.2172 0.1340,0.0923 0.2172 -0.0000c 0.7549,-0.8436 1.7017,-1.4663 2.7516 -1.4663c 0.9413,-0.0000 1.6383,0.5865 1.8103 1.3287c 0.0362,0.1557 0.1448,0.0652 0.1991 0.0072c 0.9432,-0.9957 2.0601,-1.3360 2.9870 -1.3360c 1.5930,-0.0000 1.8646,1.2672 1.8646 2.8783v 2.8602 c 0.0000,1.4844 0.1629,1.5749 1.1586 1.6474c 0.0905,0.1086 0.0905,0.4888 0.0000 0.5974c -0.5069,-0.0181 -1.1405,-0.0362 -1.8646 -0.0362c -0.7241,-0.0000 -1.3939,0.0181 -1.8465 0.0362c -0.0905,-0.1086 -0.0905,-0.4888 0.0000 -0.5974c 0.9413,-0.0724 1.1224,-0.1629 1.1224 -1.6474v -3.1861 c 0.0000,-1.2129 -0.3983,-1.6112 -1.0862 -1.6112c -0.7060,-0.0000 -1.5206,0.2353 -2.3896 1.1948c 0.0181,0.2172 0.0181,0.4707 0.0181 0.7241v 2.8783 c 0.0000,1.4844 0.1629,1.5749 1.0681 1.6474c 0.0905,0.1086 0.0905,0.4888 0.0000 0.5974c -0.4526,-0.0181 -1.0500,-0.0362 -1.7741 -0.0362c -0.7241,-0.0000 -1.3939,0.0181 -1.8465 0.0362c -0.0905,-0.1086 -0.0905,-0.4888 0.0000 -0.5974c 0.9776,-0.0724 1.1224,-0.1629 1.1224 -1.6474v -3.1499 c 0.0000,-1.2129 -0.5069,-1.6474 -1.1948 -1.6474c -0.5594,-0.0000 -1.2382,0.3675 -1.9551 1.0681c -0.1448,0.1575 -0.3077,0.3802 -0.3077 0.7603v 2.9689 c 0.0000,1.4844 0.1991,1.5568 1.1188 1.6474c 0.1086,0.1086 0.1086,0.4888 0.0000 0.5974c -0.5431,-0.0181 -1.1007,-0.0362 -1.8248 -0.0362c -0.7241,-0.0000 -1.4120,0.0181 -1.9551 0.0362c -0.1086,-0.1086 -0.1086,-0.4888 0.0000 -0.5974c 0.9957,-0.0724 1.2310,-0.1629 1.2310 -1.6474v -3.5301 c 0.0000,-1.0500 -0.1991,-1.1405 -1.1767 -1.2310c -0.0362,-0.1086 -0.0724,-0.3983 -0.0362 -0.5069c 1.2491,-0.1629 1.7198,-0.3259 2.2266 -0.5250c 0.1448,-0.0000 0.1792,0.0615 0.2172 0.1448c 0.0851,0.1865 0.1213,0.8382 0.1448 1.3758ZM 448.5970,29.7737 ZM 450.2263,18.9301 c 0.0000,-0.4345 0.5069,-0.8689 0.9413 -0.8689c 0.4888,-0.0000 0.8689,0.5069 0.8689 0.9413c 0.0000,0.3820 -0.4345,0.8689 -0.9413 0.8689c -0.4345,-0.0000 -0.8689,-0.4707 -0.8689 -0.9413ZM 450.2263,18.9301 ZM 451.8736,27.5652 c 0.0000,1.5025 0.1991,1.5749 1.3034 1.6474c 0.1086,0.1086 0.1086,0.4888 0.0000 0.5974c -0.5974,-0.0181 -1.2853,-0.0362 -2.0094 -0.0362c -0.7241,-0.0000 -1.4301,0.0181 -2.0275 0.0362c -0.1086,-0.1086 -0.1086,-0.4888 0.0000 -0.5974c 1.1043,-0.0905 1.3034,-0.1448 1.3034 -1.6474v -3.5301 c 0.0000,-1.0319 -0.1901,-1.1387 -1.1767 -1.2310c -0.0362,-0.1086 -0.0724,-0.3983 -0.0362 -0.5069c 1.2491,-0.1629 1.9642,-0.3259 2.4801 -0.5250c 0.1448,-0.0000 0.2353,0.0543 0.2353 0.1267c 0.0000,-0.0000 -0.0724,1.1586 -0.0724 2.0583v 3.6079 ZM 453.5029,29.7737 ZM 454.3718,27.2755 c 0.1086,-0.1086 0.4526,-0.1267 0.5612 -0.0181c 0.1086,0.4526 0.3077,1.2491 0.7060 1.6655c 0.1865,0.1937 0.5793,0.4345 1.2853 0.4345c 0.6698,-0.0000 1.5387,-0.3802 1.5387 -1.2672c 0.0000,-0.7784 -0.3440,-1.1586 -1.8465 -1.7741c -1.3939,-0.5793 -1.9913,-1.1405 -1.9913 -2.4620c 0.0000,-1.1586 1.2129,-2.0275 2.5525 -2.0275c 0.9413,-0.0000 1.8103,0.2534 2.3715 0.3440c -0.0181,0.5974 -0.0543,1.2672 -0.1086 1.9189c -0.1086,0.1086 -0.4707,0.1267 -0.5793 0.0181c -0.2353,-1.5387 -1.2853,-1.6836 -1.6836 -1.6836c -0.6155,-0.0000 -1.2672,0.4164 -1.2672 1.1586c 0.0000,0.9957 0.7205,1.2762 1.8103 1.6799c 1.2310,0.4562 2.1180,1.1749 2.1180 2.4113c 0.0000,1.7922 -1.8646,2.2810 -2.8783 2.2810c -0.6698,-0.0000 -1.1586,-0.0724 -1.6474 -0.1991c -0.1267,-0.0362 -0.2353,-0.0362 -0.3621 -0.0362c -0.0905,-0.0000 -0.2715,0.0181 -0.4526 0.0543c 0.0000,-0.7603 -0.0543,-1.6112 -0.1267 -2.4982ZM 460.5630,29.7737 ZM 461.4319,27.2755 c 0.1086,-0.1086 0.4526,-0.1267 0.5612 -0.0181c 0.1086,0.4526 0.3077,1.2491 0.7060 1.6655c 0.1865,0.1937 0.5793,0.4345 1.2853 0.4345c 0.6698,-0.0000 1.5387,-0.3802 1.5387 -1.2672c 0.0000,-0.7784 -0.3440,-1.1586 -1.8465 -1.7741c -1.3939,-0.5793 -1.9913,-1.1405 -1.9913 -2.4620c 0.0000,-1.1586 1.2129,-2.0275 2.5525 -2.0275c 0.9413,-0.0000 1.8103,0.2534 2.3715 0.3440c -0.0181,0.5974 -0.0543,1.2672 -0.1086 1.9189c -0.1086,0.1086 -0.4707,0.1267 -0.5793 0.0181c -0.2353,-1.5387 -1.2853,-1.6836 -1.6836 -1.6836c -0.6155,-0.0000 -1.2672,0.4164 -1.2672 1.1586c 0.0000,0.9957 0.7205,1.2762 1.8103 1.6799c 1.2310,0.4562 2.1180,1.1749 2.1180 2.4113c 0.0000,1.7922 -1.8646,2.2810 -2.8783 2.2810c -0.6698,-0.0000 -1.1586,-0.0724 -1.6474 -0.1991c -0.1267,-0.0362 -0.2353,-0.0362 -0.3621 -0.0362c -0.0905,-0.0000 -0.2715,0.0181 -0.4526 0.0543c 0.0000,-0.7603 -0.0543,-1.6112 -0.1267 -2.4982ZM 467.6231,29.7737 ZM 469.2524,18.9301 c 0.0000,-0.4345 0.5069,-0.8689 0.9413 -0.8689c 0.4888,-0.0000 0.8689,0.5069 0.8689 0.9413c 0.0000,0.3820 -0.4345,0.8689 -0.9413 0.8689c -0.4345,-0.0000 -0.8689,-0.4707 -0.8689 -0.9413ZM 469.2524,18.9301 ZM 470.8997,27.5652 c 0.0000,1.5025 0.1991,1.5749 1.3034 1.6474c 0.1086,0.1086 0.1086,0.4888 0.0000 0.5974c -0.5974,-0.0181 -1.2853,-0.0362 -2.0094 -0.0362c -0.7241,-0.0000 -1.4301,0.0181 -2.0275 0.0362c -0.1086,-0.1086 -0.1086,-0.4888 0.0000 -0.5974c 1.1043,-0.0905 1.3034,-0.1448 1.3034 -1.6474v -3.5301 c 0.0000,-1.0319 -0.1901,-1.1387 -1.1767 -1.2310c -0.0362,-0.1086 -0.0724,-0.3983 -0.0362 -0.5069c 1.2491,-0.1629 1.9642,-0.3259 2.4801 -0.5250c 0.1448,-0.0000 0.2353,0.0543 0.2353 0.1267c 0.0000,-0.0000 -0.0724,1.1586 -0.0724 2.0583v 3.6079 ZM 472.5290,29.7737 ZM 473.2712,26.0626 c 0.0000,-1.1441 0.3440,-2.1977 1.0011 -2.9689c 0.6626,-0.7784 1.6455,-1.2672 2.8367 -1.2672c 2.7697,-0.0000 3.8016,2.1904 3.8016 4.0731c 0.0000,1.1097 -0.3675,2.2484 -1.1785 3.0413c -0.6173,0.6028 -1.4935,1.0138 -2.6593 1.0138c -2.5706,-0.0000 -3.8016,-2.0456 -3.8016 -3.8921ZM 473.2712,26.0626 ZM 476.8374,22.4602 c -1.6293,-0.0000 -2.0094,1.6112 -2.0094 3.1861c 0.0000,1.3939 0.6155,3.6749 2.4982 3.6749c 0.8508,-0.0000 2.0275,-0.5612 2.0275 -2.8421c 0.0000,-2.6068 -0.9594,-4.0188 -2.5163 -4.0188ZM 481.6528,29.7737 ZM 484.9837,23.2929 c 1.0735,-1.2310 2.0818,-1.4663 2.9689 -1.4663c 0.6336,-0.0000 1.1948,0.2172 1.5025 0.6155c 0.4164,0.5612 0.4888,1.4301 0.4888 2.4258v 2.6973 c 0.0000,1.4844 0.1991,1.5568 1.2129 1.6474c 0.0905,0.1086 0.0905,0.4888 0.0000 0.5974c -0.5431,-0.0181 -1.1948,-0.0362 -1.9189 -0.0362c -0.7241,-0.0000 -1.3034,0.0181 -1.8465 0.0362c -0.0905,-0.1086 -0.0905,-0.4888 0.0000 -0.5974c 0.9413,-0.0905 1.1224,-0.1629 1.1224 -1.6474v -2.7516 c 0.0000,-0.5431 -0.0362,-1.0319 -0.2172 -1.3939c -0.2172,-0.4164 -0.5974,-0.6517 -0.9594 -0.6517c -0.7060,-0.0000 -1.5206,0.3983 -2.2085 1.0681c -0.1448,0.1629 -0.3077,0.3802 -0.3077 0.7603v 2.9689 c 0.0000,1.4844 0.1810,1.5568 1.1043 1.6474c 0.1086,0.1086 0.1086,0.4888 0.0000 0.5974c -0.5431,-0.0181 -1.0862,-0.0362 -1.8103 -0.0362c -0.7241,-0.0000 -1.4482,0.0181 -1.9913 0.0362c -0.1086,-0.1086 -0.1086,-0.4888 0.0000 -0.5974c 1.0862,-0.0905 1.2672,-0.1629 1.2672 -1.6474v -3.5301 c 0.0000,-1.0500 -0.1991,-1.1405 -1.1767 -1.2310c -0.0362,-0.1086 -0.0724,-0.3983 -0.0362 -0.5069c 1.2491,-0.1629 1.7198,-0.3259 2.2266 -0.5250c 0.1448,-0.0000 0.1792,0.0615 0.2172 0.1448c 0.0851,0.1865 0.1267,0.8870 0.1448 1.3758c 0.0054,0.1702 0.1068,0.1267 0.2172 -0.0000ZM 491.4645,29.7737 ZM 492.3335,27.2755 c 0.1086,-0.1086 0.4526,-0.1267 0.5612 -0.0181c 0.1086,0.4526 0.3077,1.2491 0.7060 1.6655c 0.1865,0.1937 0.5793,0.4345 1.2853 0.4345c 0.6698,-0.0000 1.5387,-0.3802 1.5387 -1.2672c 0.0000,-0.7784 -0.3440,-1.1586 -1.8465 -1.7741c -1.3939,-0.5793 -1.9913,-1.1405 -1.9913 -2.4620c 0.0000,-1.1586 1.2129,-2.0275 2.5525 -2.0275c 0.9413,-0.0000 1.8103,0.2534 2.3715 0.3440c -0.0181,0.5974 -0.0543,1.2672 -0.1086 1.9189c -0.1086,0.1086 -0.4707,0.1267 -0.5793 0.0181c -0.2353,-1.5387 -1.2853,-1.6836 -1.6836 -1.6836c -0.6155,-0.0000 -1.2672,0.4164 -1.2672 1.1586c 0.0000,0.9957 0.7205,1.2762 1.8103 1.6799c 1.2310,0.4562 2.1180,1.1749 2.1180 2.4113c 0.0000,1.7922 -1.8646,2.2810 -2.8783 2.2810c -0.6698,-0.0000 -1.1586,-0.0724 -1.6474 -0.1991c -0.1267,-0.0362 -0.2353,-0.0362 -0.3621 -0.0362c -0.0905,-0.0000 -0.2715,0.0181 -0.4526 0.0543c 0.0000,-0.7603 -0.0543,-1.6112 -0.1267 -2.4982Z"/></g><g><g stroke-linecap="butt" fill="rgb(0,0,0)" stroke-miterlimit="10.0" stroke-width="0.5" fill-opacity="0.0" stroke-opacity="1.0" stroke-linejoin="miter" stroke="rgb(0,0,0)"><path d="M 333.2694,23.5651 h 20.0000 "/></g><g stroke-linecap="butt" fill="rgb(0,0,0)" stroke-miterlimit="10.0" stroke-width="0.0" fill-opacity="1.0" stroke-opacity="1.0" stroke-linejoin="miter" stroke="rgb(0,0,0)"></g><g stroke-linecap="butt" fill="rgb(0,0,0)" stroke-miterlimit="10.0" stroke-width="0.0" fill-opacity="1.0" stroke-opacity="1.0" stroke-linejoin="miter" stroke="rgb(0,0,0)"></g><g stroke-linecap="butt" fill="rgb(0,0,0)" stroke-miterlimit="10.0" stroke-width="0.0" fill-opacity="1.0" stroke-opacity="1.0" stroke-linejoin="miter" stroke="rgb(0,0,0)"><path d="M 358.2694,23.5651 l -5.0000,-2.8868 v 5.7735 Z"/></g><g stroke-linecap="butt" fill="rgb(0,0,0)" stroke-miterlimit="10.0" stroke-width="0.0" fill-opacity="1.0" stroke-opacity="1.0" stroke-linejoin="miter" stroke="rgb(0,0,0)"></g><title>Submissions</title></g><g><g stroke-linecap="butt" fill="rgb(0,0,0)" stroke-miterlimit="10.0" stroke-width="0.5" fill-opacity="0.0" stroke-opacity="1.0" stroke-linejoin="miter" stroke="rgb(0,0,0)"><path d="M 527.8005,23.5651 h 25.0000 "/></g><g stroke-linecap="butt" fill="rgb(0,0,0)" stroke-miterlimit="10.0" stroke-width="0.0" fill-opacity="1.0" stroke-opacity="1.0" stroke-linejoin="miter" stroke="rgb(0,0,0)"></g><g stroke-linecap="butt" fill="rgb(0,0,0)" stroke-miterlimit="10.0" stroke-width="0.0" fill-opacity="1.0" stroke-opacity="1.0" stroke-linejoin="miter" stroke="rgb(0,0,0)"></g><g stroke-linecap="butt" fill="rgb(0,0,0)" stroke-miterlimit="10.0" stroke-width="0.0" fill-opacity="1.0" stroke-opacity="1.0" stroke-linejoin="miter" stroke="rgb(0,0,0)"></g><g stroke-linecap="butt" fill="rgb(0,0,0)" stroke-miterlimit="10.0" stroke-width="0.0" fill-opacity="1.0" stroke-opacity="1.0" stroke-linejoin="miter" stroke="rgb(0,0,0)"></g><title>Marks</title></g><g><g stroke-linecap="butt" fill="rgb(0,0,0)" stroke-miterlimit="10.0" stroke-width="0.5" fill-opacity="0.0" stroke-opacity="1.0" stroke-linejoin="miter" stroke="rgb(0,0,0)"><path d="M 283.2694,23.5651 h 20.0000 "/></g><g stroke-linecap="butt" fill="rgb(0,0,0)" stroke-miterlimit="10.0" stroke-width="0.0" fill-opacity="1.0" stroke-opacity="1.0" stroke-linejoin="miter" stroke="rgb(0,0,0)"></g><g stroke-linecap="butt" fill="rgb(0,0,0)" stroke-miterlimit="10.0" stroke-width="0.0" fill-opacity="1.0" stroke-opacity="1.0" stroke-linejoin="miter" stroke="rgb(0,0,0)"></g><g stroke-linecap="butt" fill="rgb(0,0,0)" stroke-miterlimit="10.0" stroke-width="0.0" fill-opacity="1.0" stroke-opacity="1.0" stroke-linejoin="miter" stroke="rgb(0,0,0)"><path d="M 308.2694,23.5651 l -5.0000,-2.8868 v 5.7735 Z"/></g><g stroke-linecap="butt" fill="rgb(0,0,0)" stroke-miterlimit="10.0" stroke-width="0.0" fill-opacity="1.0" stroke-opacity="1.0" stroke-linejoin="miter" stroke="rgb(0,0,0)"></g><title>Submissions</title></g><g stroke-linecap="butt" fill="rgb(255,255,255)" stroke-miterlimit="10.0" stroke-width="1.0" fill-opacity="1.0" stroke-opacity="1.0" stroke-linejoin="miter" stroke="rgb(0,0,0)"><path d="M 283.2694,42.3151 l -0.0000,-37.5000 h -156.7415 l -0.0000,37.5000 Z"/></g><g stroke-linecap="butt" fill="rgb(0,0,0)" stroke-miterlimit="10.0" stroke-width="0.0" fill-opacity="1.0" stroke-opacity="1.0" stroke-linejoin="miter" stroke="rgb(0,0,0)"><path d="M 130.8581,29.7737 ZM 137.3208,29.9547 c -3.8921,-0.0000 -5.7929,-2.6466 -5.7929 -5.7929c 0.0000,-1.8881 0.7169,-3.6604 1.9189 -4.7610c 1.0681,-0.9776 2.3534,-1.5387 3.8921 -1.5387c 2.2266,-0.0000 3.0413,0.7241 3.9645 0.8146c 0.1810,0.9957 0.3077,1.8646 0.3983 2.8059c -0.2046,0.1086 -0.3802,0.1629 -0.5974 0.0905c -0.4707,-1.5568 -1.4663,-3.0413 -3.9645 -3.0413c -0.9413,-0.0000 -1.9913,0.5069 -2.8892 1.6112c -0.6608,0.8128 -1.0753,2.1126 -1.0753 3.6749c 0.0000,2.6430 1.6908,5.3946 4.1274 5.3946c 1.6836,-0.0000 2.9146,-0.5612 4.1999 -1.9732c 0.1991,-0.0000 0.3259,0.1086 0.4164 0.2715c -1.2310,1.6112 -2.8421,2.4439 -4.5981 2.4439ZM 142.5525,29.7737 ZM 143.2947,26.0626 c 0.0000,-1.1441 0.3440,-2.1977 1.0011 -2.9689c 0.6626,-0.7784 1.6455,-1.2672 2.8367 -1.2672c 2.7697,-0.0000 3.8016,2.1904 3.8016 4.0731c 0.0000,1.1097 -0.3675,2.2484 -1.1785 3.0413c -0.6173,0.6028 -1.4935,1.0138 -2.6593 1.0138c -2.5706,-0.0000 -3.8016,-2.0456 -3.8016 -3.8921ZM 143.2947,26.0626 ZM 146.8610,22.4602 c -1.6293,-0.0000 -2.0094,1.6112 -2.0094 3.1861c 0.0000,1.3939 0.6155,3.6749 2.4982 3.6749c 0.8508,-0.0000 2.0275,-0.5612 2.0275 -2.8421c 0.0000,-2.6068 -0.9594,-4.0188 -2.5163 -4.0188ZM 151.6763,29.7737 ZM 153.3961,27.5652 v -7.9109 c 0.0000,-1.3577 -0.1086,-1.4120 -1.1586 -1.4844c -0.1086,-0.1086 -0.1448,-0.3983 -0.1086 -0.5431c 0.7241,-0.0543 2.0818,-0.3077 2.5344 -0.4888c 0.1629,-0.0000 0.2353,0.0543 0.2353 0.1810c 0.0000,-0.0000 -0.0724,0.7241 -0.0724 1.9008v 8.3454 c 0.0000,1.5025 0.1991,1.5930 1.3034 1.6474c 0.1086,0.1086 0.1086,0.4888 0.0000 0.5974c -0.5974,-0.0181 -1.2853,-0.0362 -2.0094 -0.0362c -0.7241,-0.0000 -1.3939,0.0181 -2.0275 0.0362c -0.1086,-0.1086 -0.1086,-0.4888 0.0000 -0.5974c 1.1043,-0.0543 1.3034,-0.1448 1.3034 -1.6474ZM 156.4555,29.7737 ZM 158.1752,27.5652 v -7.9109 c 0.0000,-1.3577 -0.1086,-1.4120 -1.1586 -1.4844c -0.1086,-0.1086 -0.1448,-0.3983 -0.1086 -0.5431c 0.7241,-0.0543 2.0818,-0.3077 2.5344 -0.4888c 0.1629,-0.0000 0.2353,0.0543 0.2353 0.1810c 0.0000,-0.0000 -0.0724,0.7241 -0.0724 1.9008v 8.3454 c 0.0000,1.5025 0.1991,1.5930 1.3034 1.6474c 0.1086,0.1086 0.1086,0.4888 0.0000 0.5974c -0.5974,-0.0181 -1.2853,-0.0362 -2.0094 -0.0362c -0.7241,-0.0000 -1.3939,0.0181 -2.0275 0.0362c -0.1086,-0.1086 -0.1086,-0.4888 0.0000 -0.5974c 1.1043,-0.0543 1.3034,-0.1448 1.3034 -1.6474ZM 161.2346,29.7737 ZM 163.4794,24.6687 l 3.2766,-0.0543 c 0.1991,-0.0036 0.2715,-0.0905 0.2715 -0.2534c 0.0000,-1.5206 -0.8146,-1.9008 -1.5025 -1.9008c -0.4345,-0.0000 -1.7017,0.1629 -2.0456 2.2085ZM 163.4794,24.6687 ZM 168.2223,28.0902 c 0.2172,0.0181 0.3259,0.1086 0.3802 0.2896c -0.7241,0.9413 -1.7017,1.5749 -3.0775 1.5749c -1.3034,-0.0000 -2.1542,-0.4345 -2.7697 -1.1586c -0.5974,-0.6879 -0.8508,-1.6655 -0.8508 -2.6792c 0.0000,-2.7516 2.0456,-4.2542 3.6206 -4.2542c 2.5163,-0.0000 3.0594,1.6293 3.0594 3.1499c 0.0000,0.1991 -0.1267,0.3077 -0.3440 0.3077l -4.8154,-0.0362 c 0.0000,1.0500 0.2172,1.8827 0.5793 2.4801c 0.5612,0.9232 1.3215,1.3034 1.9732 1.3034c 1.0500,-0.0000 1.5749,-0.2896 2.2448 -0.9776ZM 169.4533,29.7737 ZM 176.6582,28.1264 c -0.9051,1.4844 -1.8646,1.8284 -2.9508 1.8284c -2.2810,-0.0000 -3.5844,-1.6112 -3.5844 -3.9464c 0.0000,-2.5706 1.9189,-4.1818 3.7111 -4.1818c 1.7379,-0.0000 2.7697,0.7241 2.7697 1.7198c 0.0000,0.5612 -0.5069,0.7965 -0.8870 0.7965c -0.3802,-0.0000 -0.6336,-0.1629 -0.6879 -0.6517c -0.0724,-0.6336 -0.2172,-1.2672 -1.2853 -1.2672c -1.1948,-0.0000 -2.0637,1.1948 -2.0637 3.1861c 0.0000,2.1180 1.1043,3.4576 2.4258 3.4576c 0.7784,-0.0000 1.5568,-0.3983 2.1723 -1.1948c 0.1629,0.0181 0.3077,0.0905 0.3802 0.2534ZM 177.2013,29.7737 ZM 177.9797,22.0076 l 0.8327,-0.0018 c 0.0000,-2.0076 -0.0543,-1.8881 -0.0543 -2.0981c 0.0000,-0.1249 0.1810,-0.1865 0.3983 -0.2480c 0.2263,-0.0634 0.4109,-0.1412 0.6155 -0.2552c 0.1684,-0.0923 0.3222,-0.1629 0.4037 -0.1629c 0.0851,-0.0000 0.1394,0.0434 0.1394 0.1593c 0.0000,-0.0000 -0.0724,0.7241 -0.0724 1.9008v 0.7060 h 2.1723 c 0.0905,-0.0000 0.1448,0.0362 0.1448 0.1086v 0.3621 c 0.0000,0.1629 -0.2534,0.2353 -0.4345 0.2353h -1.8827 v 4.5800 c 0.0000,1.1224 0.1086,1.6655 0.5974 1.6655c 0.4707,-0.0000 1.0138,-0.1448 1.4844 -0.5069c 0.1810,0.0181 0.2896,0.1213 0.3259 0.3077c -0.7060,0.7965 -1.6112,1.1948 -2.4439 1.1948c -0.8327,-0.0000 -1.3939,-0.5069 -1.3939 -1.7922v -5.4490 h -1.0681 c -0.0724,-0.0000 -0.0905,-0.0181 -0.0905 -0.1086v -0.2353 c 0.0000,-0.1448 0.0724,-0.3621 0.3259 -0.3621ZM 187.4475,29.7737 ZM 194.5909,18.3508 c 0.1883,0.9594 0.2607,1.4663 0.3240 2.3353c -0.1629,0.1267 -0.3983,0.1412 -0.5883 0.1086c -0.3621,-1.1948 -0.9232,-2.3172 -2.6810 -2.3172c -1.0663,-0.0000 -1.9823,1.0138 -1.9823 2.0275c 0.0000,1.5224 1.8085,2.2067 2.8802 2.6086c 1.4917,0.5594 2.9417,1.4030 2.9417 3.3291c 0.0000,1.1513 -0.6608,2.2665 -1.7017 2.9182c -0.6300,0.3928 -1.4102,0.5938 -2.2339 0.5938c -1.6057,-0.0000 -2.1108,-0.4164 -3.2513 -0.4164c -0.2172,-0.8870 -0.2896,-1.3577 -0.3621 -2.7516c 0.1738,-0.0923 0.3657,-0.1267 0.5883 -0.0543c 0.3983,1.8012 1.4862,2.5706 3.1770 2.5706c 1.4446,-0.0000 2.2629,-0.7603 2.2629 -2.2266c 0.0000,-1.7705 -1.3342,-2.2791 -2.4348 -2.6973c -1.5930,-0.6064 -3.1589,-1.4772 -3.1589 -3.3852c 0.0000,-1.9189 1.6112,-3.1318 3.4468 -3.1318c 1.7668,-0.0000 1.7270,0.3440 2.7734 0.4888ZM 196.2274,29.7737 ZM 200.1557,29.9547 c -1.7922,-0.0000 -2.3353,-1.2129 -2.3353 -2.4620v -3.4757 c 0.0000,-1.1767 -0.2534,-1.3758 -1.1224 -1.4482c -0.1086,-0.1086 -0.1086,-0.4888 0.0000 -0.5974c 0.6155,0.0181 1.2672,0.0362 1.8465 0.0362c 0.2715,-0.0000 0.5431,-0.0181 0.6336 -0.0362c 0.0905,-0.0000 0.1448,0.0543 0.1448 0.1086c 0.0000,-0.0000 -0.0724,1.3215 -0.0724 1.8646v 3.2947 c 0.0000,1.6112 0.9051,1.8646 1.4482 1.8646c 0.4526,-0.0000 1.1405,-0.2896 1.8103 -0.8689c 0.2534,-0.2172 0.2896,-0.3621 0.2896 -0.7060v -3.4938 c 0.0000,-1.1948 -0.2353,-1.4120 -1.1224 -1.4663c -0.1086,-0.1086 -0.1086,-0.4888 0.0000 -0.5974c 0.6155,0.0181 1.2672,0.0362 1.8465 0.0362c 0.2715,-0.0000 0.5431,-0.0181 0.6336 -0.0362c 0.0905,-0.0000 0.1448,0.0543 0.1448 0.1086c 0.0000,-0.0000 -0.0724,1.3215 -0.0724 1.8646v 3.4757 c 0.0000,0.8870 0.1629,1.2310 1.3215 1.3215c 0.1086,0.1086 0.1086,0.3802 0.0000 0.4888c -1.1043,0.1267 -1.7379,0.3983 -2.1361 0.7241c -0.1177,0.0453 -0.1991,0.0543 -0.3440 -0.0000c 0.0000,-0.0000 -0.1539,-0.6064 -0.1991 -1.0681c -0.0127,-0.1267 -0.1810,-0.0905 -0.2715 -0.0181c -0.8870,0.7241 -1.7379,1.0862 -2.4439 1.0862ZM 205.8400,29.7737 ZM 208.9899,23.2024 c -0.2335,0.2064 -0.3077,0.3802 -0.3077 0.7603v 4.5257 c 0.3621,0.4526 0.7422,0.8508 1.3034 0.8508c 1.7198,-0.0000 2.5525,-1.5568 2.5525 -3.6206c 0.0000,-1.7560 -0.9051,-3.0956 -2.0094 -3.0956c -0.5250,-0.0000 -1.0681,0.1629 -1.5387 0.5793ZM 208.9899,23.2024 ZM 208.8631,22.6412 c 0.5612,-0.5069 1.2509,-0.8146 2.0275 -0.8146c 1.5749,-0.0000 3.2042,1.3577 3.2042 3.5663c 0.0000,2.8783 -2.1542,4.5619 -4.0007 4.5619c -0.6390,-0.0000 -1.1785,-0.0996 -1.5930 -0.4490c -0.1991,-0.1665 -0.3077,-0.1665 -0.4942 0.0507c -0.1394,0.1611 -0.3186,0.3295 -0.4290 0.4345c -0.2172,-0.0000 -0.3077,-0.0724 -0.3983 -0.2172c 0.0543,-0.2534 0.0724,-0.5793 0.0724 -1.2853v -8.8342 c 0.0000,-1.5206 -0.2172,-1.4301 -1.1586 -1.4844c -0.1086,-0.1086 -0.1448,-0.3983 -0.1086 -0.5431c 0.7241,-0.0543 2.0818,-0.3077 2.5344 -0.4888c 0.1629,-0.0000 0.2353,0.0543 0.2353 0.1810c 0.0000,-0.0000 -0.0724,0.7241 -0.0724 1.9008v 3.3309 c 0.0000,0.1629 0.0670,0.1937 0.1810 0.0905ZM 214.7647,29.7737 ZM 217.8421,23.2929 c 0.0091,0.2172 0.1340,0.0923 0.2172 -0.0000c 0.7549,-0.8436 1.7017,-1.4663 2.7516 -1.4663c 0.9413,-0.0000 1.6383,0.5865 1.8103 1.3287c 0.0362,0.1557 0.1448,0.0652 0.1991 0.0072c 0.9432,-0.9957 2.0601,-1.3360 2.9870 -1.3360c 1.5930,-0.0000 1.8646,1.2672 1.8646 2.8783v 2.8602 c 0.0000,1.4844 0.1629,1.5749 1.1586 1.6474c 0.0905,0.1086 0.0905,0.4888 0.0000 0.5974c -0.5069,-0.0181 -1.1405,-0.0362 -1.8646 -0.0362c -0.7241,-0.0000 -1.3939,0.0181 -1.8465 0.0362c -0.0905,-0.1086 -0.0905,-0.4888 0.0000 -0.5974c 0.9413,-0.0724 1.1224,-0.1629 1.1224 -1.6474v -3.1861 c 0.0000,-1.2129 -0.3983,-1.6112 -1.0862 -1.6112c -0.7060,-0.0000 -1.5206,0.2353 -2.3896 1.1948c 0.0181,0.2172 0.0181,0.4707 0.0181 0.7241v 2.8783 c 0.0000,1.4844 0.1629,1.5749 1.0681 1.6474c 0.0905,0.1086 0.0905,0.4888 0.0000 0.5974c -0.4526,-0.0181 -1.0500,-0.0362 -1.7741 -0.0362c -0.7241,-0.0000 -1.3939,0.0181 -1.8465 0.0362c -0.0905,-0.1086 -0.0905,-0.4888 0.0000 -0.5974c 0.9776,-0.0724 1.1224,-0.1629 1.1224 -1.6474v -3.1499 c 0.0000,-1.2129 -0.5069,-1.6474 -1.1948 -1.6474c -0.5594,-0.0000 -1.2382,0.3675 -1.9551 1.0681c -0.1448,0.1575 -0.3077,0.3802 -0.3077 0.7603v 2.9689 c 0.0000,1.4844 0.1991,1.5568 1.1188 1.6474c 0.1086,0.1086 0.1086,0.4888 0.0000 0.5974c -0.5431,-0.0181 -1.1007,-0.0362 -1.8248 -0.0362c -0.7241,-0.0000 -1.4120,0.0181 -1.9551 0.0362c -0.1086,-0.1086 -0.1086,-0.4888 0.0000 -0.5974c 0.9957,-0.0724 1.2310,-0.1629 1.2310 -1.6474v -3.5301 c 0.0000,-1.0500 -0.1991,-1.1405 -1.1767 -1.2310c -0.0362,-0.1086 -0.0724,-0.3983 -0.0362 -0.5069c 1.2491,-0.1629 1.7198,-0.3259 2.2266 -0.5250c 0.1448,-0.0000 0.1792,0.0615 0.2172 0.1448c 0.0851,0.1865 0.1213,0.8382 0.1448 1.3758ZM 229.0659,29.7737 ZM 230.6951,18.9301 c 0.0000,-0.4345 0.5069,-0.8689 0.9413 -0.8689c 0.4888,-0.0000 0.8689,0.5069 0.8689 0.9413c 0.0000,0.3820 -0.4345,0.8689 -0.9413 0.8689c -0.4345,-0.0000 -0.8689,-0.4707 -0.8689 -0.9413ZM 230.6951,18.9301 ZM 232.3425,27.5652 c 0.0000,1.5025 0.1991,1.5749 1.3034 1.6474c 0.1086,0.1086 0.1086,0.4888 0.0000 0.5974c -0.5974,-0.0181 -1.2853,-0.0362 -2.0094 -0.0362c -0.7241,-0.0000 -1.4301,0.0181 -2.0275 0.0362c -0.1086,-0.1086 -0.1086,-0.4888 0.0000 -0.5974c 1.1043,-0.0905 1.3034,-0.1448 1.3034 -1.6474v -3.5301 c 0.0000,-1.0319 -0.1901,-1.1387 -1.1767 -1.2310c -0.0362,-0.1086 -0.0724,-0.3983 -0.0362 -0.5069c 1.2491,-0.1629 1.9642,-0.3259 2.4801 -0.5250c 0.1448,-0.0000 0.2353,0.0543 0.2353 0.1267c 0.0000,-0.0000 -0.0724,1.1586 -0.0724 2.0583v 3.6079 ZM 233.9718,29.7737 ZM 234.8407,27.2755 c 0.1086,-0.1086 0.4526,-0.1267 0.5612 -0.0181c 0.1086,0.4526 0.3077,1.2491 0.7060 1.6655c 0.1865,0.1937 0.5793,0.4345 1.2853 0.4345c 0.6698,-0.0000 1.5387,-0.3802 1.5387 -1.2672c 0.0000,-0.7784 -0.3440,-1.1586 -1.8465 -1.7741c -1.3939,-0.5793 -1.9913,-1.1405 -1.9913 -2.4620c 0.0000,-1.1586 1.2129,-2.0275 2.5525 -2.0275c 0.9413,-0.0000 1.8103,0.2534 2.3715 0.3440c -0.0181,0.5974 -0.0543,1.2672 -0.1086 1.9189c -0.1086,0.1086 -0.4707,0.1267 -0.5793 0.0181c -0.2353,-1.5387 -1.2853,-1.6836 -1.6836 -1.6836c -0.6155,-0.0000 -1.2672,0.4164 -1.2672 1.1586c 0.0000,0.9957 0.7205,1.2762 1.8103 1.6799c 1.2310,0.4562 2.1180,1.1749 2.1180 2.4113c 0.0000,1.7922 -1.8646,2.2810 -2.8783 2.2810c -0.6698,-0.0000 -1.1586,-0.0724 -1.6474 -0.1991c -0.1267,-0.0362 -0.2353,-0.0362 -0.3621 -0.0362c -0.0905,-0.0000 -0.2715,0.0181 -0.4526 0.0543c 0.0000,-0.7603 -0.0543,-1.6112 -0.1267 -2.4982ZM 241.0319,29.7737 ZM 241.9008,27.2755 c 0.1086,-0.1086 0.4526,-0.1267 0.5612 -0.0181c 0.1086,0.4526 0.3077,1.2491 0.7060 1.6655c 0.1865,0.1937 0.5793,0.4345 1.2853 0.4345c 0.6698,-0.0000 1.5387,-0.3802 1.5387 -1.2672c 0.0000,-0.7784 -0.3440,-1.1586 -1.8465 -1.7741c -1.3939,-0.5793 -1.9913,-1.1405 -1.9913 -2.4620c 0.0000,-1.1586 1.2129,-2.0275 2.5525 -2.0275c 0.9413,-0.0000 1.8103,0.2534 2.3715 0.3440c -0.0181,0.5974 -0.0543,1.2672 -0.1086 1.9189c -0.1086,0.1086 -0.4707,0.1267 -0.5793 0.0181c -0.2353,-1.5387 -1.2853,-1.6836 -1.6836 -1.6836c -0.6155,-0.0000 -1.2672,0.4164 -1.2672 1.1586c 0.0000,0.9957 0.7205,1.2762 1.8103 1.6799c 1.2310,0.4562 2.1180,1.1749 2.1180 2.4113c 0.0000,1.7922 -1.8646,2.2810 -2.8783 2.2810c -0.6698,-0.0000 -1.1586,-0.0724 -1.6474 -0.1991c -0.1267,-0.0362 -0.2353,-0.0362 -0.3621 -0.0362c -0.0905,-0.0000 -0.2715,0.0181 -0.4526 0.0543c 0.0000,-0.7603 -0.0543,-1.6112 -0.1267 -2.4982ZM 248.0920,29.7737 ZM 249.7212,18.9301 c 0.0000,-0.4345 0.5069,-0.8689 0.9413 -0.8689c 0.4888,-0.0000 0.8689,0.5069 0.8689 0.9413c 0.0000,0.3820 -0.4345,0.8689 -0.9413 0.8689c -0.4345,-0.0000 -0.8689,-0.4707 -0.8689 -0.9413ZM 249.7212,18.9301 ZM 251.3686,27.5652 c 0.0000,1.5025 0.1991,1.5749 1.3034 1.6474c 0.1086,0.1086 0.1086,0.4888 0.0000 0.5974c -0.5974,-0.0181 -1.2853,-0.0362 -2.0094 -0.0362c -0.7241,-0.0000 -1.4301,0.0181 -2.0275 0.0362c -0.1086,-0.1086 -0.1086,-0.4888 0.0000 -0.5974c 1.1043,-0.0905 1.3034,-0.1448 1.3034 -1.6474v -3.5301 c 0.0000,-1.0319 -0.1901,-1.1387 -1.1767 -1.2310c -0.0362,-0.1086 -0.0724,-0.3983 -0.0362 -0.5069c 1.2491,-0.1629 1.9642,-0.3259 2.4801 -0.5250c 0.1448,-0.0000 0.2353,0.0543 0.2353 0.1267c 0.0000,-0.0000 -0.0724,1.1586 -0.0724 2.0583v 3.6079 ZM 252.9978,29.7737 ZM 253.7400,26.0626 c 0.0000,-1.1441 0.3440,-2.1977 1.0011 -2.9689c 0.6626,-0.7784 1.6455,-1.2672 2.8367 -1.2672c 2.7697,-0.0000 3.8016,2.1904 3.8016 4.0731c 0.0000,1.1097 -0.3675,2.2484 -1.1785 3.0413c -0.6173,0.6028 -1.4935,1.0138 -2.6593 1.0138c -2.5706,-0.0000 -3.8016,-2.0456 -3.8016 -3.8921ZM 253.7400,26.0626 ZM 257.3063,22.4602 c -1.6293,-0.0000 -2.0094,1.6112 -2.0094 3.1861c 0.0000,1.3939 0.6155,3.6749 2.4982 3.6749c 0.8508,-0.0000 2.0275,-0.5612 2.0275 -2.8421c 0.0000,-2.6068 -0.9594,-4.0188 -2.5163 -4.0188ZM 262.1217,29.7737 ZM 265.4526,23.2929 c 1.0735,-1.2310 2.0818,-1.4663 2.9689 -1.4663c 0.6336,-0.0000 1.1948,0.2172 1.5025 0.6155c 0.4164,0.5612 0.4888,1.4301 0.4888 2.4258v 2.6973 c 0.0000,1.4844 0.1991,1.5568 1.2129 1.6474c 0.0905,0.1086 0.0905,0.4888 0.0000 0.5974c -0.5431,-0.0181 -1.1948,-0.0362 -1.9189 -0.0362c -0.7241,-0.0000 -1.3034,0.0181 -1.8465 0.0362c -0.0905,-0.1086 -0.0905,-0.4888 0.0000 -0.5974c 0.9413,-0.0905 1.1224,-0.1629 1.1224 -1.6474v -2.7516 c 0.0000,-0.5431 -0.0362,-1.0319 -0.2172 -1.3939c -0.2172,-0.4164 -0.5974,-0.6517 -0.9594 -0.6517c -0.7060,-0.0000 -1.5206,0.3983 -2.2085 1.0681c -0.1448,0.1629 -0.3077,0.3802 -0.3077 0.7603v 2.9689 c 0.0000,1.4844 0.1810,1.5568 1.1043 1.6474c 0.1086,0.1086 0.1086,0.4888 0.0000 0.5974c -0.5431,-0.0181 -1.0862,-0.0362 -1.8103 -0.0362c -0.7241,-0.0000 -1.4482,0.0181 -1.9913 0.0362c -0.1086,-0.1086 -0.1086,-0.4888 0.0000 -0.5974c 1.0862,-0.0905 1.2672,-0.1629 1.2672 -1.6474v -3.5301 c 0.0000,-1.0500 -0.1991,-1.1405 -1.1767 -1.2310c -0.0362,-0.1086 -0.0724,-0.3983 -0.0362 -0.5069c 1.2491,-0.1629 1.7198,-0.3259 2.2266 -0.5250c 0.1448,-0.0000 0.1792,0.0615 0.2172 0.1448c 0.0851,0.1865 0.1267,0.8870 0.1448 1.3758c 0.0054,0.1702 0.1068,0.1267 0.2172 -0.0000ZM 271.9334,29.7737 ZM 272.8023,27.2755 c 0.1086,-0.1086 0.4526,-0.1267 0.5612 -0.0181c 0.1086,0.4526 0.3077,1.2491 0.7060 1.6655c 0.1865,0.1937 0.5793,0.4345 1.2853 0.4345c 0.6698,-0.0000 1.5387,-0.3802 1.5387 -1.2672c 0.0000,-0.7784 -0.3440,-1.1586 -1.8465 -1.7741c -1.3939,-0.5793 -1.9913,-1.1405 -1.9913 -2.4620c 0.0000,-1.1586 1.2129,-2.0275 2.5525 -2.0275c 0.9413,-0.0000 1.8103,0.2534 2.3715 0.3440c -0.0181,0.5974 -0.0543,1.2672 -0.1086 1.9189c -0.1086,0.1086 -0.4707,0.1267 -0.5793 0.0181c -0.2353,-1.5387 -1.2853,-1.6836 -1.6836 -1.6836c -0.6155,-0.0000 -1.2672,0.4164 -1.2672 1.1586c 0.0000,0.9957 0.7205,1.2762 1.8103 1.6799c 1.2310,0.4562 2.1180,1.1749 2.1180 2.4113c 0.0000,1.7922 -1.8646,2.2810 -2.8783 2.2810c -0.6698,-0.0000 -1.1586,-0.0724 -1.6474 -0.1991c -0.1267,-0.0362 -0.2353,-0.0362 -0.3621 -0.0362c -0.0905,-0.0000 -0.2715,0.0181 -0.4526 0.0543c 0.0000,-0.7603 -0.0543,-1.6112 -0.1267 -2.4982Z"/></g><g><g stroke-linecap="butt" fill="rgb(0,0,0)" stroke-miterlimit="10.0" stroke-width="0.5" fill-opacity="0.0" stroke-opacity="1.0" stroke-linejoin="miter" stroke="rgb(0,0,0)"><path d="M 101.5279,36.0651 h 20.0000 "/></g><g stroke-linecap="butt" fill="rgb(0,0,0)" stroke-miterlimit="10.0" stroke-width="0.0" fill-opacity="1.0" stroke-opacity="1.0" stroke-linejoin="miter" stroke="rgb(0,0,0)"></g><g stroke-linecap="butt" fill="rgb(0,0,0)" stroke-miterlimit="10.0" stroke-width="0.0" fill-opacity="1.0" stroke-opacity="1.0" stroke-linejoin="miter" stroke="rgb(0,0,0)"></g><g stroke-linecap="butt" fill="rgb(0,0,0)" stroke-miterlimit="10.0" stroke-width="0.0" fill-opacity="1.0" stroke-opacity="1.0" stroke-linejoin="miter" stroke="rgb(0,0,0)"><path d="M 126.5279,36.0651 l -5.0000,-2.8868 v 5.7735 Z"/></g><g stroke-linecap="butt" fill="rgb(0,0,0)" stroke-miterlimit="10.0" stroke-width="0.0" fill-opacity="1.0" stroke-opacity="1.0" stroke-linejoin="miter" stroke="rgb(0,0,0)"></g><title>Students</title></g><g><g stroke-linecap="butt" fill="rgb(0,0,0)" stroke-miterlimit="10.0" stroke-width="0.5" fill-opacity="0.0" stroke-opacity="1.0" stroke-linejoin="miter" stroke="rgb(0,0,0)"><path d="M 101.5279,11.0651 h 20.0000 "/></g><g stroke-linecap="butt" fill="rgb(0,0,0)" stroke-miterlimit="10.0" stroke-width="0.0" fill-opacity="1.0" stroke-opacity="1.0" stroke-linejoin="miter" stroke="rgb(0,0,0)"></g><g stroke-linecap="butt" fill="rgb(0,0,0)" stroke-miterlimit="10.0" stroke-width="0.0" fill-opacity="1.0" stroke-opacity="1.0" stroke-linejoin="miter" stroke="rgb(0,0,0)"></g><g stroke-linecap="butt" fill="rgb(0,0,0)" stroke-miterlimit="10.0" stroke-width="0.0" fill-opacity="1.0" stroke-opacity="1.0" stroke-linejoin="miter" stroke="rgb(0,0,0)"><path d="M 126.5279,11.0651 l -5.0000,-2.8868 v 5.7735 Z"/></g><g stroke-linecap="butt" fill="rgb(0,0,0)" stroke-miterlimit="10.0" stroke-width="0.0" fill-opacity="1.0" stroke-opacity="1.0" stroke-linejoin="miter" stroke="rgb(0,0,0)"></g><title>!Instructions</title></g><g><g stroke-linecap="butt" fill="rgb(0,0,0)" stroke-miterlimit="10.0" stroke-width="0.5" fill-opacity="0.0" stroke-opacity="1.0" stroke-linejoin="miter" stroke="rgb(0,0,0)"><path d="M 308.2694,23.5651 h 25.0000 "/></g><g stroke-linecap="butt" fill="rgb(0,0,0)" stroke-miterlimit="10.0" stroke-width="0.0" fill-opacity="1.0" stroke-opacity="1.0" stroke-linejoin="miter" stroke="rgb(0,0,0)"></g><g stroke-linecap="butt" fill="rgb(0,0,0)" stroke-miterlimit="10.0" stroke-width="0.0" fill-opacity="1.0" stroke-opacity="1.0" stroke-linejoin="miter" stroke="rgb(0,0,0)"></g><g stroke-linecap="butt" fill="rgb(0,0,0)" stroke-miterlimit="10.0" stroke-width="0.0" fill-opacity="1.0" stroke-opacity="1.0" stroke-linejoin="miter" stroke="rgb(0,0,0)"></g><g stroke-linecap="butt" fill="rgb(0,0,0)" stroke-miterlimit="10.0" stroke-width="0.0" fill-opacity="1.0" stroke-opacity="1.0" stroke-linejoin="miter" stroke="rgb(0,0,0)"></g><title>Submissions</title></g><g stroke-linecap="butt" fill="rgb(0,0,0)" stroke-miterlimit="10.0" stroke-width="0.0" fill-opacity="1.0" stroke-opacity="1.0" stroke-linejoin="miter" stroke="rgb(0,0,0)"><path d="M 909.7158,29.7737 ZM 921.7125,27.6738 l -0.4652,-7.5670 h -0.0362 l -4.0731,9.5764 c -0.0724,0.1448 -0.1448,0.2715 -0.2534 0.2715c -0.1086,-0.0000 -0.2209,-0.1430 -0.2715 -0.2715l -3.7473,-9.3954 h -0.0362 l -0.6879,7.2592 c -0.0978,1.0192 0.0000,1.5749 1.1948 1.6655c 0.1086,0.1086 0.1086,0.4888 0.0000 0.5974c -0.5431,-0.0181 -1.2672,-0.0362 -1.7017 -0.0362c -0.4345,-0.0000 -1.0138,0.0181 -1.5568 0.0362c -0.1086,-0.1086 -0.1086,-0.4888 0.0000 -0.5974c 1.0319,-0.0905 1.2491,-0.5449 1.3559 -1.6293l 0.7259,-7.4584 c 0.1267,-1.3577 0.0181,-1.3939 -1.2310 -1.4663c -0.1086,-0.1086 -0.1086,-0.4888 0.0000 -0.5974l 2.6249,0.0362 l 3.7111,9.1962 c 0.0561,0.1376 0.1086,0.2353 0.1448 0.2353c 0.0362,-0.0000 0.0905,-0.0724 0.1629 -0.2534l 3.8378,-9.1781 l 2.3715,-0.0362 c 0.1086,0.1086 0.1086,0.4888 0.0000 0.5974c -1.2310,0.0724 -1.3215,0.3259 -1.2437 1.3034l 0.5395,7.6213 c 0.1050,1.4989 0.1611,1.5749 1.3921 1.6293c 0.1086,0.1086 0.1086,0.4888 0.0000 0.5974c -0.6010,-0.0181 -1.4301,-0.0362 -1.9732 -0.0362c -0.5431,-0.0000 -1.2672,0.0181 -1.9370 0.0362c -0.1086,-0.1086 -0.1086,-0.4888 0.0000 -0.5974c 1.1767,-0.0543 1.2437,-0.0724 1.1531 -1.5387ZM 924.9041,29.7737 ZM 930.2082,25.5558 l -1.4301,0.3802 c -1.3396,0.3440 -1.7198,1.1767 -1.7198 1.9913c 0.0000,0.5612 0.3983,1.2853 1.3034 1.2853c 0.5069,-0.0000 1.1224,-0.4164 1.5930 -0.7965c 0.1448,-0.1086 0.2534,-0.2353 0.2534 -0.4707v -2.3896 ZM 930.2082,25.5558 ZM 930.2082,28.9048 h -0.0362 l -0.3621,0.2896 c -0.7965,0.6155 -1.3432,0.7603 -1.9732 0.7603c -1.2672,-0.0000 -2.2810,-0.4707 -2.2810 -1.9551c 0.0000,-1.2310 1.2491,-2.1904 2.9870 -2.6249l 1.5568,-0.3802 c 0.0543,-0.0181 0.1086,-0.0905 0.1086 -0.2172c 0.0000,-2.0456 -0.8508,-2.3534 -1.4663 -2.3534c -0.6879,-0.0000 -1.4482,0.1991 -1.4482 0.7603c 0.0000,0.1991 0.0181,0.3077 0.0362 0.3621c 0.0362,0.0724 0.0543,0.1991 0.0543 0.3259c 0.0000,0.2353 -0.3259,0.6155 -0.8508 0.6155c -0.4164,-0.0000 -0.6336,-0.2172 -0.6336 -0.6517c 0.0000,-1.0319 1.5025,-2.0094 2.9870 -2.0094c 1.3215,-0.0000 2.7335,0.4888 2.7335 3.0594v 2.6611 c 0.0000,0.8327 0.0181,1.5387 0.5431 1.5387c 0.2299,-0.0000 0.5340,-0.1774 0.6698 -0.2896c 0.2046,0.1140 0.2770,0.2661 0.3077 0.4888c -0.3747,0.3621 -1.0264,0.6698 -1.7198 0.6698c -0.9124,-0.0000 -1.1043,-0.4888 -1.2129 -1.0500ZM 933.1770,29.7737 ZM 936.3631,23.2929 c 0.0036,0.0905 0.0905,0.2353 0.1991 0.0362c 0.4164,-0.7060 1.1586,-1.5025 2.0094 -1.5025c 0.7603,-0.0000 1.0862,0.5232 1.0862 0.8689c 0.0000,0.4526 -0.4164,0.9051 -0.8508 0.9051c -0.3150,-0.0000 -0.5177,-0.2408 -0.6553 -0.4218c -0.1412,-0.1865 -0.3041,-0.2299 -0.4671 -0.2299c -0.2172,-0.0000 -0.6336,0.5974 -0.8327 0.8870c -0.2172,0.3259 -0.4345,0.7422 -0.4345 1.2129v 2.5163 c 0.0000,1.5025 0.2172,1.5568 1.4844 1.6474c 0.1086,0.1086 0.1086,0.4888 0.0000 0.5974c -0.6336,-0.0181 -1.4663,-0.0362 -2.1904 -0.0362c -0.7241,-0.0000 -1.4301,0.0181 -2.0637 0.0362c -0.1086,-0.1086 -0.1086,-0.4888 0.0000 -0.5974c 1.1224,-0.0724 1.3396,-0.1448 1.3396 -1.6474v -3.5301 c 0.0000,-1.0500 -0.1991,-1.1405 -1.1767 -1.2310c -0.0362,-0.1086 -0.0724,-0.3983 -0.0362 -0.5069c 1.2491,-0.1629 1.7198,-0.3259 2.2266 -0.5250c 0.1448,-0.0000 0.1792,0.0615 0.2172 0.1448c 0.0851,0.1865 0.1140,0.6517 0.1448 1.3758ZM 939.9113,29.7737 ZM 941.4681,27.5652 v -7.9109 c 0.0000,-1.5206 -0.2172,-1.4301 -1.1586 -1.4844c -0.1086,-0.1086 -0.1448,-0.3983 -0.1086 -0.5431c 0.7241,-0.0543 2.0818,-0.3077 2.5344 -0.4888c 0.1629,-0.0000 0.2353,0.0543 0.2353 0.1810c 0.0000,-0.0000 -0.0724,0.7241 -0.0724 1.9008v 6.3143 c 0.3421,-0.0471 0.8291,-0.2607 1.2310 -0.5576c 0.4652,-0.3440 1.0319,-0.9594 1.4482 -1.4844c 0.1684,-0.2118 0.5974,-0.8508 -0.4164 -0.9232c -0.1086,-0.1086 -0.1086,-0.4888 0.0000 -0.5974c 0.4164,0.0181 1.0862,0.0362 1.7741 0.0362c 0.6517,-0.0000 1.1586,-0.0181 1.5749 -0.0362c 0.1086,0.1086 0.1086,0.4888 0.0000 0.5974c -0.7241,0.0724 -1.3577,0.2172 -1.9008 0.7965l -1.5930,1.6474 c -0.0724,0.0724 -0.0724,0.1086 -0.0724 0.1810c 0.0000,0.0905 0.0615,0.1720 0.1267 0.2534l 2.3896,3.0051 c 0.4833,0.6083 0.9413,0.6879 1.5568 0.7603c 0.1086,0.1086 0.1086,0.4888 0.0000 0.5974c -0.3621,-0.0181 -0.9232,-0.0362 -1.4844 -0.0362c -0.3621,-0.0000 -0.7603,0.0181 -1.1224 0.0362c -0.0543,-0.0000 -0.0670,-0.0362 -0.0724 -0.0905c -0.0235,-0.2118 -0.2281,-0.5521 -0.7603 -1.2672l -1.3215,-1.7741 c -0.2154,-0.2896 -0.3802,-0.4526 -0.5793 -0.5883c -0.1756,-0.0615 -0.4308,-0.0887 -0.7784 -0.0978v 1.5731 c 0.0000,1.5025 0.1991,1.5749 0.9413 1.6474c 0.1086,0.1086 0.1086,0.4888 0.0000 0.5974c -0.4164,-0.0181 -1.0138,-0.0362 -1.6474 -0.0362c -0.7241,-0.0000 -1.3396,0.0181 -1.9370 0.0362c -0.1086,-0.1086 -0.1086,-0.4888 0.0000 -0.5974c 1.0138,-0.0724 1.2129,-0.1448 1.2129 -1.6474ZM 949.1799,29.7737 ZM 950.0489,27.2755 c 0.1086,-0.1086 0.4526,-0.1267 0.5612 -0.0181c 0.1086,0.4526 0.3077,1.2491 0.7060 1.6655c 0.1865,0.1937 0.5793,0.4345 1.2853 0.4345c 0.6698,-0.0000 1.5387,-0.3802 1.5387 -1.2672c 0.0000,-0.7784 -0.3440,-1.1586 -1.8465 -1.7741c -1.3939,-0.5793 -1.9913,-1.1405 -1.9913 -2.4620c 0.0000,-1.1586 1.2129,-2.0275 2.5525 -2.0275c 0.9413,-0.0000 1.8103,0.2534 2.3715 0.3440c -0.0181,0.5974 -0.0543,1.2672 -0.1086 1.9189c -0.1086,0.1086 -0.4707,0.1267 -0.5793 0.0181c -0.2353,-1.5387 -1.2853,-1.6836 -1.6836 -1.6836c -0.6155,-0.0000 -1.2672,0.4164 -1.2672 1.1586c 0.0000,0.9957 0.7205,1.2762 1.8103 1.6799c 1.2310,0.4562 2.1180,1.1749 2.1180 2.4113c 0.0000,1.7922 -1.8646,2.2810 -2.8783 2.2810c -0.6698,-0.0000 -1.1586,-0.0724 -1.6474 -0.1991c -0.1267,-0.0362 -0.2353,-0.0362 -0.3621 -0.0362c -0.0905,-0.0000 -0.2715,0.0181 -0.4526 0.0543c 0.0000,-0.7603 -0.0543,-1.6112 -0.1267 -2.4982ZM 960.7657,29.7737 ZM 963.9518,23.2929 c 0.0036,0.0905 0.0905,0.2353 0.1991 0.0362c 0.4164,-0.7060 1.1586,-1.5025 2.0094 -1.5025c 0.7603,-0.0000 1.0862,0.5232 1.0862 0.8689c 0.0000,0.4526 -0.4164,0.9051 -0.8508 0.9051c -0.3150,-0.0000 -0.5177,-0.2408 -0.6553 -0.4218c -0.1412,-0.1865 -0.3041,-0.2299 -0.4671 -0.2299c -0.2172,-0.0000 -0.6336,0.5974 -0.8327 0.8870c -0.2172,0.3259 -0.4345,0.7422 -0.4345 1.2129v 2.5163 c 0.0000,1.5025 0.2172,1.5568 1.4844 1.6474c 0.1086,0.1086 0.1086,0.4888 0.0000 0.5974c -0.6336,-0.0181 -1.4663,-0.0362 -2.1904 -0.0362c -0.7241,-0.0000 -1.4301,0.0181 -2.0637 0.0362c -0.1086,-0.1086 -0.1086,-0.4888 0.0000 -0.5974c 1.1224,-0.0724 1.3396,-0.1448 1.3396 -1.6474v -3.5301 c 0.0000,-1.0500 -0.1991,-1.1405 -1.1767 -1.2310c -0.0362,-0.1086 -0.0724,-0.3983 -0.0362 -0.5069c 1.2491,-0.1629 1.7198,-0.3259 2.2266 -0.5250c 0.1448,-0.0000 0.1792,0.0615 0.2172 0.1448c 0.0851,0.1865 0.1140,0.6517 0.1448 1.3758ZM 967.3552,29.7737 ZM 969.5999,24.6687 l 3.2766,-0.0543 c 0.1991,-0.0036 0.2715,-0.0905 0.2715 -0.2534c 0.0000,-1.5206 -0.8146,-1.9008 -1.5025 -1.9008c -0.4345,-0.0000 -1.7017,0.1629 -2.0456 2.2085ZM 969.5999,24.6687 ZM 974.3429,28.0902 c 0.2172,0.0181 0.3259,0.1086 0.3802 0.2896c -0.7241,0.9413 -1.7017,1.5749 -3.0775 1.5749c -1.3034,-0.0000 -2.1542,-0.4345 -2.7697 -1.1586c -0.5974,-0.6879 -0.8508,-1.6655 -0.8508 -2.6792c 0.0000,-2.7516 2.0456,-4.2542 3.6206 -4.2542c 2.5163,-0.0000 3.0594,1.6293 3.0594 3.1499c 0.0000,0.1991 -0.1267,0.3077 -0.3440 0.3077l -4.8154,-0.0362 c 0.0000,1.0500 0.2172,1.8827 0.5793 2.4801c 0.5612,0.9232 1.3215,1.3034 1.9732 1.3034c 1.0500,-0.0000 1.5749,-0.2896 2.2448 -0.9776ZM 975.4471,29.7737 ZM 977.1669,27.5652 v -7.9109 c 0.0000,-1.3577 -0.1086,-1.4120 -1.1586 -1.4844c -0.1086,-0.1086 -0.1448,-0.3983 -0.1086 -0.5431c 0.7241,-0.0543 2.0818,-0.3077 2.5344 -0.4888c 0.1629,-0.0000 0.2353,0.0543 0.2353 0.1810c 0.0000,-0.0000 -0.0724,0.7241 -0.0724 1.9008v 8.3454 c 0.0000,1.5025 0.1991,1.5930 1.3034 1.6474c 0.1086,0.1086 0.1086,0.4888 0.0000 0.5974c -0.5974,-0.0181 -1.2853,-0.0362 -2.0094 -0.0362c -0.7241,-0.0000 -1.3939,0.0181 -2.0275 0.0362c -0.1086,-0.1086 -0.1086,-0.4888 0.0000 -0.5974c 1.1043,-0.0543 1.3034,-0.1448 1.3034 -1.6474ZM 980.2263,29.7737 ZM 982.4710,24.6687 l 3.2766,-0.0543 c 0.1991,-0.0036 0.2715,-0.0905 0.2715 -0.2534c 0.0000,-1.5206 -0.8146,-1.9008 -1.5025 -1.9008c -0.4345,-0.0000 -1.7017,0.1629 -2.0456 2.2085ZM 982.4710,24.6687 ZM 987.2140,28.0902 c 0.2172,0.0181 0.3259,0.1086 0.3802 0.2896c -0.7241,0.9413 -1.7017,1.5749 -3.0775 1.5749c -1.3034,-0.0000 -2.1542,-0.4345 -2.7697 -1.1586c -0.5974,-0.6879 -0.8508,-1.6655 -0.8508 -2.6792c 0.0000,-2.7516 2.0456,-4.2542 3.6206 -4.2542c 2.5163,-0.0000 3.0594,1.6293 3.0594 3.1499c 0.0000,0.1991 -0.1267,0.3077 -0.3440 0.3077l -4.8154,-0.0362 c 0.0000,1.0500 0.2172,1.8827 0.5793 2.4801c 0.5612,0.9232 1.3215,1.3034 1.9732 1.3034c 1.0500,-0.0000 1.5749,-0.2896 2.2448 -0.9776ZM 988.3182,29.7737 ZM 993.6224,25.5558 l -1.4301,0.3802 c -1.3396,0.3440 -1.7198,1.1767 -1.7198 1.9913c 0.0000,0.5612 0.3983,1.2853 1.3034 1.2853c 0.5069,-0.0000 1.1224,-0.4164 1.5930 -0.7965c 0.1448,-0.1086 0.2534,-0.2353 0.2534 -0.4707v -2.3896 ZM 993.6224,25.5558 ZM 993.6224,28.9048 h -0.0362 l -0.3621,0.2896 c -0.7965,0.6155 -1.3432,0.7603 -1.9732 0.7603c -1.2672,-0.0000 -2.2810,-0.4707 -2.2810 -1.9551c 0.0000,-1.2310 1.2491,-2.1904 2.9870 -2.6249l 1.5568,-0.3802 c 0.0543,-0.0181 0.1086,-0.0905 0.1086 -0.2172c 0.0000,-2.0456 -0.8508,-2.3534 -1.4663 -2.3534c -0.6879,-0.0000 -1.4482,0.1991 -1.4482 0.7603c 0.0000,0.1991 0.0181,0.3077 0.0362 0.3621c 0.0362,0.0724 0.0543,0.1991 0.0543 0.3259c 0.0000,0.2353 -0.3259,0.6155 -0.8508 0.6155c -0.4164,-0.0000 -0.6336,-0.2172 -0.6336 -0.6517c 0.0000,-1.0319 1.5025,-2.0094 2.9870 -2.0094c 1.3215,-0.0000 2.7335,0.4888 2.7335 3.0594v 2.6611 c 0.0000,0.8327 0.0181,1.5387 0.5431 1.5387c 0.2299,-0.0000 0.5340,-0.1774 0.6698 -0.2896c 0.2046,0.1140 0.2770,0.2661 0.3077 0.4888c -0.3747,0.3621 -1.0264,0.6698 -1.7198 0.6698c -0.9124,-0.0000 -1.1043,-0.4888 -1.2129 -1.0500ZM 996.5912,29.7737 ZM 997.4602,27.2755 c 0.1086,-0.1086 0.4526,-0.1267 0.5612 -0.0181c 0.1086,0.4526 0.3077,1.2491 0.7060 1.6655c 0.1865,0.1937 0.5793,0.4345 1.2853 0.4345c 0.6698,-0.0000 1.5387,-0.3802 1.5387 -1.2672c 0.0000,-0.7784 -0.3440,-1.1586 -1.8465 -1.7741c -1.3939,-0.5793 -1.9913,-1.1405 -1.9913 -2.4620c 0.0000,-1.1586 1.2129,-2.0275 2.5525 -2.0275c 0.9413,-0.0000 1.8103,0.2534 2.3715 0.3440c -0.0181,0.5974 -0.0543,1.2672 -0.1086 1.9189c -0.1086,0.1086 -0.4707,0.1267 -0.5793 0.0181c -0.2353,-1.5387 -1.2853,-1.6836 -1.6836 -1.6836c -0.6155,-0.0000 -1.2672,0.4164 -1.2672 1.1586c 0.0000,0.9957 0.7205,1.2762 1.8103 1.6799c 1.2310,0.4562 2.1180,1.1749 2.1180 2.4113c 0.0000,1.7922 -1.8646,2.2810 -2.8783 2.2810c -0.6698,-0.0000 -1.1586,-0.0724 -1.6474 -0.1991c -0.1267,-0.0362 -0.2353,-0.0362 -0.3621 -0.0362c -0.0905,-0.0000 -0.2715,0.0181 -0.4526 0.0543c 0.0000,-0.7603 -0.0543,-1.6112 -0.1267 -2.4982ZM 1003.6513,29.7737 ZM 1005.8961,24.6687 l 3.2766,-0.0543 c 0.1991,-0.0036 0.2715,-0.0905 0.2715 -0.2534c 0.0000,-1.5206 -0.8146,-1.9008 -1.5025 -1.9008c -0.4345,-0.0000 -1.7017,0.1629 -2.0456 2.2085ZM 1005.8961,24.6687 ZM 1010.6390,28.0902 c 0.2172,0.0181 0.3259,0.1086 0.3802 0.2896c -0.7241,0.9413 -1.7017,1.5749 -3.0775 1.5749c -1.3034,-0.0000 -2.1542,-0.4345 -2.7697 -1.1586c -0.5974,-0.6879 -0.8508,-1.6655 -0.8508 -2.6792c 0.0000,-2.7516 2.0456,-4.2542 3.6206 -4.2542c 2.5163,-0.0000 3.0594,1.6293 3.0594 3.1499c 0.0000,0.1991 -0.1267,0.3077 -0.3440 0.3077l -4.8154,-0.0362 c 0.0000,1.0500 0.2172,1.8827 0.5793 2.4801c 0.5612,0.9232 1.3215,1.3034 1.9732 1.3034c 1.0500,-0.0000 1.5749,-0.2896 2.2448 -0.9776ZM 1011.8700,29.7737 ZM 1018.1155,27.5290 v -3.4395 c 0.0000,-0.5612 -0.0543,-0.6879 -0.3077 -0.9776c -0.3621,-0.4164 -0.8146,-0.6517 -1.4663 -0.6517c -0.3621,-0.0000 -1.1224,0.0543 -1.6836 0.9051c -0.2715,0.3802 -0.5250,1.1043 -0.5250 2.4077c 0.0000,2.2629 1.0138,3.3309 1.9913 3.3309c 0.4526,-0.0000 1.0319,-0.2896 1.7017 -0.8689c 0.2552,-0.2209 0.2896,-0.3621 0.2896 -0.7060ZM 1018.1155,27.5290 ZM 1017.9164,28.8631 c -0.8870,0.7295 -1.5568,1.0916 -2.2629 1.0916c -1.9551,-0.0000 -3.0775,-1.6293 -3.0775 -3.8559c 0.0000,-1.3396 0.4707,-2.4077 1.2491 -3.1861c 0.7241,-0.6879 1.5206,-1.0862 2.7154 -1.0862c 0.5974,-0.0000 1.3396,0.3077 1.4120 0.3077c 0.1267,-0.0000 0.1629,-0.0362 0.1629 -0.1629v -2.3172 c 0.0000,-1.5206 -0.2172,-1.4301 -1.1586 -1.4844c -0.1086,-0.1086 -0.1448,-0.3983 -0.1086 -0.5431c 0.7241,-0.0543 2.0818,-0.3077 2.5344 -0.4888c 0.1629,-0.0000 0.2353,0.0543 0.2353 0.1810c 0.0000,-0.0000 -0.0724,0.7241 -0.0724 1.9008v 8.2006 c 0.0000,0.8870 0.1629,1.2310 1.3215 1.3215c 0.1086,0.1086 0.1086,0.3802 0.0000 0.4888c -1.1043,0.1267 -1.7379,0.3983 -2.1361 0.7241c -0.1086,0.0453 -0.1991,0.0543 -0.3440 -0.0000c 0.0000,-0.0000 -0.1539,-0.6245 -0.1991 -1.0681c -0.0127,-0.1267 -0.1846,-0.0941 -0.2715 -0.0235Z"/></g><g stroke-linecap="butt" fill="rgb(0,0,0)" stroke-miterlimit="10.0" stroke-width="0.0" fill-opacity="1.0" stroke-opacity="1.0" stroke-linejoin="miter" stroke="rgb(0,0,0)"><path d="M 33.2947,42.2737 ZM 40.4381,30.8508 c 0.1883,0.9594 0.2607,1.4663 0.3240 2.3353c -0.1629,0.1267 -0.3983,0.1412 -0.5883 0.1086c -0.3621,-1.1948 -0.9232,-2.3172 -2.6810 -2.3172c -1.0663,-0.0000 -1.9823,1.0138 -1.9823 2.0275c 0.0000,1.5224 1.8085,2.2067 2.8802 2.6086c 1.4917,0.5594 2.9417,1.4030 2.9417 3.3291c 0.0000,1.1513 -0.6608,2.2665 -1.7017 2.9182c -0.6300,0.3928 -1.4102,0.5938 -2.2339 0.5938c -1.6057,-0.0000 -2.1108,-0.4164 -3.2513 -0.4164c -0.2172,-0.8870 -0.2896,-1.3577 -0.3621 -2.7516c 0.1738,-0.0923 0.3657,-0.1267 0.5883 -0.0543c 0.3983,1.8012 1.4862,2.5706 3.1770 2.5706c 1.4446,-0.0000 2.2629,-0.7603 2.2629 -2.2266c 0.0000,-1.7705 -1.3342,-2.2791 -2.4348 -2.6973c -1.5930,-0.6064 -3.1589,-1.4772 -3.1589 -3.3852c 0.0000,-1.9189 1.6112,-3.1318 3.4468 -3.1318c 1.7668,-0.0000 1.7270,0.3440 2.7734 0.4888ZM 42.0746,42.2737 ZM 42.8530,34.5076 l 0.8327,-0.0018 c 0.0000,-2.0076 -0.0543,-1.8881 -0.0543 -2.0981c 0.0000,-0.1249 0.1810,-0.1865 0.3983 -0.2480c 0.2263,-0.0634 0.4109,-0.1412 0.6155 -0.2552c 0.1684,-0.0923 0.3222,-0.1629 0.4037 -0.1629c 0.0851,-0.0000 0.1394,0.0434 0.1394 0.1593c 0.0000,-0.0000 -0.0724,0.7241 -0.0724 1.9008v 0.7060 h 2.1723 c 0.0905,-0.0000 0.1448,0.0362 0.1448 0.1086v 0.3621 c 0.0000,0.1629 -0.2534,0.2353 -0.4345 0.2353h -1.8827 v 4.5800 c 0.0000,1.1224 0.1086,1.6655 0.5974 1.6655c 0.4707,-0.0000 1.0138,-0.1448 1.4844 -0.5069c 0.1810,0.0181 0.2896,0.1213 0.3259 0.3077c -0.7060,0.7965 -1.6112,1.1948 -2.4439 1.1948c -0.8327,-0.0000 -1.3939,-0.5069 -1.3939 -1.7922v -5.4490 h -1.0681 c -0.0724,-0.0000 -0.0905,-0.0181 -0.0905 -0.1086v -0.2353 c 0.0000,-0.1448 0.0724,-0.3621 0.3259 -0.3621ZM 47.7951,42.2737 ZM 51.7234,42.4547 c -1.7922,-0.0000 -2.3353,-1.2129 -2.3353 -2.4620v -3.4757 c 0.0000,-1.1767 -0.2534,-1.3758 -1.1224 -1.4482c -0.1086,-0.1086 -0.1086,-0.4888 0.0000 -0.5974c 0.6155,0.0181 1.2672,0.0362 1.8465 0.0362c 0.2715,-0.0000 0.5431,-0.0181 0.6336 -0.0362c 0.0905,-0.0000 0.1448,0.0543 0.1448 0.1086c 0.0000,-0.0000 -0.0724,1.3215 -0.0724 1.8646v 3.2947 c 0.0000,1.6112 0.9051,1.8646 1.4482 1.8646c 0.4526,-0.0000 1.1405,-0.2896 1.8103 -0.8689c 0.2534,-0.2172 0.2896,-0.3621 0.2896 -0.7060v -3.4938 c 0.0000,-1.1948 -0.2353,-1.4120 -1.1224 -1.4663c -0.1086,-0.1086 -0.1086,-0.4888 0.0000 -0.5974c 0.6155,0.0181 1.2672,0.0362 1.8465 0.0362c 0.2715,-0.0000 0.5431,-0.0181 0.6336 -0.0362c 0.0905,-0.0000 0.1448,0.0543 0.1448 0.1086c 0.0000,-0.0000 -0.0724,1.3215 -0.0724 1.8646v 3.4757 c 0.0000,0.8870 0.1629,1.2310 1.3215 1.3215c 0.1086,0.1086 0.1086,0.3802 0.0000 0.4888c -1.1043,0.1267 -1.7379,0.3983 -2.1361 0.7241c -0.1177,0.0453 -0.1991,0.0543 -0.3440 -0.0000c 0.0000,-0.0000 -0.1539,-0.6064 -0.1991 -1.0681c -0.0127,-0.1267 -0.1810,-0.0905 -0.2715 -0.0181c -0.8870,0.7241 -1.7379,1.0862 -2.4439 1.0862ZM 57.4077,42.2737 ZM 63.6531,40.0290 v -3.4395 c 0.0000,-0.5612 -0.0543,-0.6879 -0.3077 -0.9776c -0.3621,-0.4164 -0.8146,-0.6517 -1.4663 -0.6517c -0.3621,-0.0000 -1.1224,0.0543 -1.6836 0.9051c -0.2715,0.3802 -0.5250,1.1043 -0.5250 2.4077c 0.0000,2.2629 1.0138,3.3309 1.9913 3.3309c 0.4526,-0.0000 1.0319,-0.2896 1.7017 -0.8689c 0.2552,-0.2209 0.2896,-0.3621 0.2896 -0.7060ZM 63.6531,40.0290 ZM 63.4540,41.3631 c -0.8870,0.7295 -1.5568,1.0916 -2.2629 1.0916c -1.9551,-0.0000 -3.0775,-1.6293 -3.0775 -3.8559c 0.0000,-1.3396 0.4707,-2.4077 1.2491 -3.1861c 0.7241,-0.6879 1.5206,-1.0862 2.7154 -1.0862c 0.5974,-0.0000 1.3396,0.3077 1.4120 0.3077c 0.1267,-0.0000 0.1629,-0.0362 0.1629 -0.1629v -2.3172 c 0.0000,-1.5206 -0.2172,-1.4301 -1.1586 -1.4844c -0.1086,-0.1086 -0.1448,-0.3983 -0.1086 -0.5431c 0.7241,-0.0543 2.0818,-0.3077 2.5344 -0.4888c 0.1629,-0.0000 0.2353,0.0543 0.2353 0.1810c 0.0000,-0.0000 -0.0724,0.7241 -0.0724 1.9008v 8.2006 c 0.0000,0.8870 0.1629,1.2310 1.3215 1.3215c 0.1086,0.1086 0.1086,0.3802 0.0000 0.4888c -1.1043,0.1267 -1.7379,0.3983 -2.1361 0.7241c -0.1086,0.0453 -0.1991,0.0543 -0.3440 -0.0000c 0.0000,-0.0000 -0.1539,-0.6245 -0.1991 -1.0681c -0.0127,-0.1267 -0.1846,-0.0941 -0.2715 -0.0235ZM 66.5677,42.2737 ZM 68.8125,37.1687 l 3.2766,-0.0543 c 0.1991,-0.0036 0.2715,-0.0905 0.2715 -0.2534c 0.0000,-1.5206 -0.8146,-1.9008 -1.5025 -1.9008c -0.4345,-0.0000 -1.7017,0.1629 -2.0456 2.2085ZM 68.8125,37.1687 ZM 73.5554,40.5902 c 0.2172,0.0181 0.3259,0.1086 0.3802 0.2896c -0.7241,0.9413 -1.7017,1.5749 -3.0775 1.5749c -1.3034,-0.0000 -2.1542,-0.4345 -2.7697 -1.1586c -0.5974,-0.6879 -0.8508,-1.6655 -0.8508 -2.6792c 0.0000,-2.7516 2.0456,-4.2542 3.6206 -4.2542c 2.5163,-0.0000 3.0594,1.6293 3.0594 3.1499c 0.0000,0.1991 -0.1267,0.3077 -0.3440 0.3077l -4.8154,-0.0362 c 0.0000,1.0500 0.2172,1.8827 0.5793 2.4801c 0.5612,0.9232 1.3215,1.3034 1.9732 1.3034c 1.0500,-0.0000 1.5749,-0.2896 2.2448 -0.9776ZM 74.6597,42.2737 ZM 77.9906,35.7929 c 1.0735,-1.2310 2.0818,-1.4663 2.9689 -1.4663c 0.6336,-0.0000 1.1948,0.2172 1.5025 0.6155c 0.4164,0.5612 0.4888,1.4301 0.4888 2.4258v 2.6973 c 0.0000,1.4844 0.1991,1.5568 1.2129 1.6474c 0.0905,0.1086 0.0905,0.4888 0.0000 0.5974c -0.5431,-0.0181 -1.1948,-0.0362 -1.9189 -0.0362c -0.7241,-0.0000 -1.3034,0.0181 -1.8465 0.0362c -0.0905,-0.1086 -0.0905,-0.4888 0.0000 -0.5974c 0.9413,-0.0905 1.1224,-0.1629 1.1224 -1.6474v -2.7516 c 0.0000,-0.5431 -0.0362,-1.0319 -0.2172 -1.3939c -0.2172,-0.4164 -0.5974,-0.6517 -0.9594 -0.6517c -0.7060,-0.0000 -1.5206,0.3983 -2.2085 1.0681c -0.1448,0.1629 -0.3077,0.3802 -0.3077 0.7603v 2.9689 c 0.0000,1.4844 0.1810,1.5568 1.1043 1.6474c 0.1086,0.1086 0.1086,0.4888 0.0000 0.5974c -0.5431,-0.0181 -1.0862,-0.0362 -1.8103 -0.0362c -0.7241,-0.0000 -1.4482,0.0181 -1.9913 0.0362c -0.1086,-0.1086 -0.1086,-0.4888 0.0000 -0.5974c 1.0862,-0.0905 1.2672,-0.1629 1.2672 -1.6474v -3.5301 c 0.0000,-1.0500 -0.1991,-1.1405 -1.1767 -1.2310c -0.0362,-0.1086 -0.0724,-0.3983 -0.0362 -0.5069c 1.2491,-0.1629 1.7198,-0.3259 2.2266 -0.5250c 0.1448,-0.0000 0.1792,0.0615 0.2172 0.1448c 0.0851,0.1865 0.1267,0.8870 0.1448 1.3758c 0.0054,0.1702 0.1068,0.1267 0.2172 -0.0000ZM 84.4714,42.2737 ZM 85.2498,34.5076 l 0.8327,-0.0018 c 0.0000,-2.0076 -0.0543,-1.8881 -0.0543 -2.0981c 0.0000,-0.1249 0.1810,-0.1865 0.3983 -0.2480c 0.2263,-0.0634 0.4109,-0.1412 0.6155 -0.2552c 0.1684,-0.0923 0.3222,-0.1629 0.4037 -0.1629c 0.0851,-0.0000 0.1394,0.0434 0.1394 0.1593c 0.0000,-0.0000 -0.0724,0.7241 -0.0724 1.9008v 0.7060 h 2.1723 c 0.0905,-0.0000 0.1448,0.0362 0.1448 0.1086v 0.3621 c 0.0000,0.1629 -0.2534,0.2353 -0.4345 0.2353h -1.8827 v 4.5800 c 0.0000,1.1224 0.1086,1.6655 0.5974 1.6655c 0.4707,-0.0000 1.0138,-0.1448 1.4844 -0.5069c 0.1810,0.0181 0.2896,0.1213 0.3259 0.3077c -0.7060,0.7965 -1.6112,1.1948 -2.4439 1.1948c -0.8327,-0.0000 -1.3939,-0.5069 -1.3939 -1.7922v -5.4490 h -1.0681 c -0.0724,-0.0000 -0.0905,-0.0181 -0.0905 -0.1086v -0.2353 c 0.0000,-0.1448 0.0724,-0.3621 0.3259 -0.3621ZM 90.1919,42.2737 ZM 91.0608,39.7755 c 0.1086,-0.1086 0.4526,-0.1267 0.5612 -0.0181c 0.1086,0.4526 0.3077,1.2491 0.7060 1.6655c 0.1865,0.1937 0.5793,0.4345 1.2853 0.4345c 0.6698,-0.0000 1.5387,-0.3802 1.5387 -1.2672c 0.0000,-0.7784 -0.3440,-1.1586 -1.8465 -1.7741c -1.3939,-0.5793 -1.9913,-1.1405 -1.9913 -2.4620c 0.0000,-1.1586 1.2129,-2.0275 2.5525 -2.0275c 0.9413,-0.0000 1.8103,0.2534 2.3715 0.3440c -0.0181,0.5974 -0.0543,1.2672 -0.1086 1.9189c -0.1086,0.1086 -0.4707,0.1267 -0.5793 0.0181c -0.2353,-1.5387 -1.2853,-1.6836 -1.6836 -1.6836c -0.6155,-0.0000 -1.2672,0.4164 -1.2672 1.1586c 0.0000,0.9957 0.7205,1.2762 1.8103 1.6799c 1.2310,0.4562 2.1180,1.1749 2.1180 2.4113c 0.0000,1.7922 -1.8646,2.2810 -2.8783 2.2810c -0.6698,-0.0000 -1.1586,-0.0724 -1.6474 -0.1991c -0.1267,-0.0362 -0.2353,-0.0362 -0.3621 -0.0362c -0.0905,-0.0000 -0.2715,0.0181 -0.4526 0.0543c 0.0000,-0.7603 -0.0543,-1.6112 -0.1267 -2.4982Z"/></g><g stroke-linecap="butt" fill="rgb(0,0,0)" stroke-miterlimit="10.0" stroke-width="0.0" fill-opacity="1.0" stroke-opacity="1.0" stroke-linejoin="miter" stroke="rgb(0,0,0)"><path d="M 3.3526,16.9117 ZM 5.9594,5.0000 c 0.4345,-0.0000 0.9594,0.3440 0.9594 1.3215c 0.0000,1.1767 -0.2534,1.9370 -0.4345 3.4938c -0.2353,1.9551 -0.2353,3.0413 -0.2715 3.2947c -0.0181,0.1991 -0.0724,0.3621 -0.2534 0.3621c -0.1810,-0.0000 -0.2353,-0.1267 -0.2534 -0.2353c -0.0362,-0.3802 -0.1448,-2.0094 -0.2896 -3.4214c -0.1629,-1.5930 -0.4164,-2.2266 -0.4164 -3.4938c 0.0000,-0.9776 0.5250,-1.3215 0.9594 -1.3215ZM 5.9594,5.0000 ZM 5.0000,16.1332 c 0.0000,-0.5250 0.4345,-0.9594 0.9594 -0.9594c 0.5250,-0.0000 0.9594,0.4345 0.9594 0.9594c 0.0000,0.5250 -0.4345,0.9594 -0.9594 0.9594c -0.5250,-0.0000 -0.9594,-0.4345 -0.9594 -0.9594ZM 8.5663,16.9117 ZM 12.0239,14.7031 c 0.0000,1.5025 0.3077,1.5930 1.5749 1.6474c 0.1086,0.1086 0.1086,0.4888 0.0000 0.5974c -0.8146,-0.0181 -1.6908,-0.0362 -2.3353 -0.0362c -0.6571,-0.0000 -1.5387,0.0181 -2.3534 0.0362c -0.1086,-0.1086 -0.1086,-0.4888 0.0000 -0.5974c 1.2672,-0.0543 1.5749,-0.1448 1.5749 -1.6474v -7.2592 c 0.0000,-1.5025 -0.3077,-1.5930 -1.5749 -1.6474c -0.1086,-0.1086 -0.1086,-0.4888 0.0000 -0.5974c 0.8508,0.0181 1.7288,0.0362 2.3353 0.0362c 0.6970,-0.0000 1.5568,-0.0181 2.3534 -0.0362c 0.1086,0.1086 0.1086,0.4888 0.0000 0.5974c -1.2672,0.0543 -1.5749,0.1448 -1.5749 1.6474v 7.2592 ZM 13.9428,16.9117 ZM 17.2737,10.4308 c 1.0735,-1.2310 2.0818,-1.4663 2.9689 -1.4663c 0.6336,-0.0000 1.1948,0.2172 1.5025 0.6155c 0.4164,0.5612 0.4888,1.4301 0.4888 2.4258v 2.6973 c 0.0000,1.4844 0.1991,1.5568 1.2129 1.6474c 0.0905,0.1086 0.0905,0.4888 0.0000 0.5974c -0.5431,-0.0181 -1.1948,-0.0362 -1.9189 -0.0362c -0.7241,-0.0000 -1.3034,0.0181 -1.8465 0.0362c -0.0905,-0.1086 -0.0905,-0.4888 0.0000 -0.5974c 0.9413,-0.0905 1.1224,-0.1629 1.1224 -1.6474v -2.7516 c 0.0000,-0.5431 -0.0362,-1.0319 -0.2172 -1.3939c -0.2172,-0.4164 -0.5974,-0.6517 -0.9594 -0.6517c -0.7060,-0.0000 -1.5206,0.3983 -2.2085 1.0681c -0.1448,0.1629 -0.3077,0.3802 -0.3077 0.7603v 2.9689 c 0.0000,1.4844 0.1810,1.5568 1.1043 1.6474c 0.1086,0.1086 0.1086,0.4888 0.0000 0.5974c -0.5431,-0.0181 -1.0862,-0.0362 -1.8103 -0.0362c -0.7241,-0.0000 -1.4482,0.0181 -1.9913 0.0362c -0.1086,-0.1086 -0.1086,-0.4888 0.0000 -0.5974c 1.0862,-0.0905 1.2672,-0.1629 1.2672 -1.6474v -3.5301 c 0.0000,-1.0500 -0.1991,-1.1405 -1.1767 -1.2310c -0.0362,-0.1086 -0.0724,-0.3983 -0.0362 -0.5069c 1.2491,-0.1629 1.7198,-0.3259 2.2266 -0.5250c 0.1448,-0.0000 0.1792,0.0615 0.2172 0.1448c 0.0851,0.1865 0.1267,0.8870 0.1448 1.3758c 0.0054,0.1702 0.1068,0.1267 0.2172 -0.0000ZM 23.7545,16.9117 ZM 24.6235,14.4135 c 0.1086,-0.1086 0.4526,-0.1267 0.5612 -0.0181c 0.1086,0.4526 0.3077,1.2491 0.7060 1.6655c 0.1865,0.1937 0.5793,0.4345 1.2853 0.4345c 0.6698,-0.0000 1.5387,-0.3802 1.5387 -1.2672c 0.0000,-0.7784 -0.3440,-1.1586 -1.8465 -1.7741c -1.3939,-0.5793 -1.9913,-1.1405 -1.9913 -2.4620c 0.0000,-1.1586 1.2129,-2.0275 2.5525 -2.0275c 0.9413,-0.0000 1.8103,0.2534 2.3715 0.3440c -0.0181,0.5974 -0.0543,1.2672 -0.1086 1.9189c -0.1086,0.1086 -0.4707,0.1267 -0.5793 0.0181c -0.2353,-1.5387 -1.2853,-1.6836 -1.6836 -1.6836c -0.6155,-0.0000 -1.2672,0.4164 -1.2672 1.1586c 0.0000,0.9957 0.7205,1.2762 1.8103 1.6799c 1.2310,0.4562 2.1180,1.1749 2.1180 2.4113c 0.0000,1.7922 -1.8646,2.2810 -2.8783 2.2810c -0.6698,-0.0000 -1.1586,-0.0724 -1.6474 -0.1991c -0.1267,-0.0362 -0.2353,-0.0362 -0.3621 -0.0362c -0.0905,-0.0000 -0.2715,0.0181 -0.4526 0.0543c 0.0000,-0.7603 -0.0543,-1.6112 -0.1267 -2.4982ZM 30.8146,16.9117 ZM 31.5930,9.1455 l 0.8327,-0.0018 c 0.0000,-2.0076 -0.0543,-1.8881 -0.0543 -2.0981c 0.0000,-0.1249 0.1810,-0.1865 0.3983 -0.2480c 0.2263,-0.0634 0.4109,-0.1412 0.6155 -0.2552c 0.1684,-0.0923 0.3222,-0.1629 0.4037 -0.1629c 0.0851,-0.0000 0.1394,0.0434 0.1394 0.1593c 0.0000,-0.0000 -0.0724,0.7241 -0.0724 1.9008v 0.7060 h 2.1723 c 0.0905,-0.0000 0.1448,0.0362 0.1448 0.1086v 0.3621 c 0.0000,0.1629 -0.2534,0.2353 -0.4345 0.2353h -1.8827 v 4.5800 c 0.0000,1.1224 0.1086,1.6655 0.5974 1.6655c 0.4707,-0.0000 1.0138,-0.1448 1.4844 -0.5069c 0.1810,0.0181 0.2896,0.1213 0.3259 0.3077c -0.7060,0.7965 -1.6112,1.1948 -2.4439 1.1948c -0.8327,-0.0000 -1.3939,-0.5069 -1.3939 -1.7922v -5.4490 h -1.0681 c -0.0724,-0.0000 -0.0905,-0.0181 -0.0905 -0.1086v -0.2353 c 0.0000,-0.1448 0.0724,-0.3621 0.3259 -0.3621ZM 36.5351,16.9117 ZM 39.7212,10.4308 c 0.0036,0.0905 0.0905,0.2353 0.1991 0.0362c 0.4164,-0.7060 1.1586,-1.5025 2.0094 -1.5025c 0.7603,-0.0000 1.0862,0.5232 1.0862 0.8689c 0.0000,0.4526 -0.4164,0.9051 -0.8508 0.9051c -0.3150,-0.0000 -0.5177,-0.2408 -0.6553 -0.4218c -0.1412,-0.1865 -0.3041,-0.2299 -0.4671 -0.2299c -0.2172,-0.0000 -0.6336,0.5974 -0.8327 0.8870c -0.2172,0.3259 -0.4345,0.7422 -0.4345 1.2129v 2.5163 c 0.0000,1.5025 0.2172,1.5568 1.4844 1.6474c 0.1086,0.1086 0.1086,0.4888 0.0000 0.5974c -0.6336,-0.0181 -1.4663,-0.0362 -2.1904 -0.0362c -0.7241,-0.0000 -1.4301,0.0181 -2.0637 0.0362c -0.1086,-0.1086 -0.1086,-0.4888 0.0000 -0.5974c 1.1224,-0.0724 1.3396,-0.1448 1.3396 -1.6474v -3.5301 c 0.0000,-1.0500 -0.1991,-1.1405 -1.1767 -1.2310c -0.0362,-0.1086 -0.0724,-0.3983 -0.0362 -0.5069c 1.2491,-0.1629 1.7198,-0.3259 2.2266 -0.5250c 0.1448,-0.0000 0.1792,0.0615 0.2172 0.1448c 0.0851,0.1865 0.1140,0.6517 0.1448 1.3758ZM 43.2694,16.9117 ZM 47.1977,17.0927 c -1.7922,-0.0000 -2.3353,-1.2129 -2.3353 -2.4620v -3.4757 c 0.0000,-1.1767 -0.2534,-1.3758 -1.1224 -1.4482c -0.1086,-0.1086 -0.1086,-0.4888 0.0000 -0.5974c 0.6155,0.0181 1.2672,0.0362 1.8465 0.0362c 0.2715,-0.0000 0.5431,-0.0181 0.6336 -0.0362c 0.0905,-0.0000 0.1448,0.0543 0.1448 0.1086c 0.0000,-0.0000 -0.0724,1.3215 -0.0724 1.8646v 3.2947 c 0.0000,1.6112 0.9051,1.8646 1.4482 1.8646c 0.4526,-0.0000 1.1405,-0.2896 1.8103 -0.8689c 0.2534,-0.2172 0.2896,-0.3621 0.2896 -0.7060v -3.4938 c 0.0000,-1.1948 -0.2353,-1.4120 -1.1224 -1.4663c -0.1086,-0.1086 -0.1086,-0.4888 0.0000 -0.5974c 0.6155,0.0181 1.2672,0.0362 1.8465 0.0362c 0.2715,-0.0000 0.5431,-0.0181 0.6336 -0.0362c 0.0905,-0.0000 0.1448,0.0543 0.1448 0.1086c 0.0000,-0.0000 -0.0724,1.3215 -0.0724 1.8646v 3.4757 c 0.0000,0.8870 0.1629,1.2310 1.3215 1.3215c 0.1086,0.1086 0.1086,0.3802 0.0000 0.4888c -1.1043,0.1267 -1.7379,0.3983 -2.1361 0.7241c -0.1177,0.0453 -0.1991,0.0543 -0.3440 -0.0000c 0.0000,-0.0000 -0.1539,-0.6064 -0.1991 -1.0681c -0.0127,-0.1267 -0.1810,-0.0905 -0.2715 -0.0181c -0.8870,0.7241 -1.7379,1.0862 -2.4439 1.0862ZM 52.8820,16.9117 ZM 60.0869,15.2643 c -0.9051,1.4844 -1.8646,1.8284 -2.9508 1.8284c -2.2810,-0.0000 -3.5844,-1.6112 -3.5844 -3.9464c 0.0000,-2.5706 1.9189,-4.1818 3.7111 -4.1818c 1.7379,-0.0000 2.7697,0.7241 2.7697 1.7198c 0.0000,0.5612 -0.5069,0.7965 -0.8870 0.7965c -0.3802,-0.0000 -0.6336,-0.1629 -0.6879 -0.6517c -0.0724,-0.6336 -0.2172,-1.2672 -1.2853 -1.2672c -1.1948,-0.0000 -2.0637,1.1948 -2.0637 3.1861c 0.0000,2.1180 1.1043,3.4576 2.4258 3.4576c 0.7784,-0.0000 1.5568,-0.3983 2.1723 -1.1948c 0.1629,0.0181 0.3077,0.0905 0.3802 0.2534ZM 60.6300,16.9117 ZM 61.4084,9.1455 l 0.8327,-0.0018 c 0.0000,-2.0076 -0.0543,-1.8881 -0.0543 -2.0981c 0.0000,-0.1249 0.1810,-0.1865 0.3983 -0.2480c 0.2263,-0.0634 0.4109,-0.1412 0.6155 -0.2552c 0.1684,-0.0923 0.3222,-0.1629 0.4037 -0.1629c 0.0851,-0.0000 0.1394,0.0434 0.1394 0.1593c 0.0000,-0.0000 -0.0724,0.7241 -0.0724 1.9008v 0.7060 h 2.1723 c 0.0905,-0.0000 0.1448,0.0362 0.1448 0.1086v 0.3621 c 0.0000,0.1629 -0.2534,0.2353 -0.4345 0.2353h -1.8827 v 4.5800 c 0.0000,1.1224 0.1086,1.6655 0.5974 1.6655c 0.4707,-0.0000 1.0138,-0.1448 1.4844 -0.5069c 0.1810,0.0181 0.2896,0.1213 0.3259 0.3077c -0.7060,0.7965 -1.6112,1.1948 -2.4439 1.1948c -0.8327,-0.0000 -1.3939,-0.5069 -1.3939 -1.7922v -5.4490 h -1.0681 c -0.0724,-0.0000 -0.0905,-0.0181 -0.0905 -0.1086v -0.2353 c 0.0000,-0.1448 0.0724,-0.3621 0.3259 -0.3621ZM 66.3505,16.9117 ZM 67.9797,6.0681 c 0.0000,-0.4345 0.5069,-0.8689 0.9413 -0.8689c 0.4888,-0.0000 0.8689,0.5069 0.8689 0.9413c 0.0000,0.3820 -0.4345,0.8689 -0.9413 0.8689c -0.4345,-0.0000 -0.8689,-0.4707 -0.8689 -0.9413ZM 67.9797,6.0681 ZM 69.6271,14.7031 c 0.0000,1.5025 0.1991,1.5749 1.3034 1.6474c 0.1086,0.1086 0.1086,0.4888 0.0000 0.5974c -0.5974,-0.0181 -1.2853,-0.0362 -2.0094 -0.0362c -0.7241,-0.0000 -1.4301,0.0181 -2.0275 0.0362c -0.1086,-0.1086 -0.1086,-0.4888 0.0000 -0.5974c 1.1043,-0.0905 1.3034,-0.1448 1.3034 -1.6474v -3.5301 c 0.0000,-1.0319 -0.1901,-1.1387 -1.1767 -1.2310c -0.0362,-0.1086 -0.0724,-0.3983 -0.0362 -0.5069c 1.2491,-0.1629 1.9642,-0.3259 2.4801 -0.5250c 0.1448,-0.0000 0.2353,0.0543 0.2353 0.1267c 0.0000,-0.0000 -0.0724,1.1586 -0.0724 2.0583v 3.6079 ZM 71.2563,16.9117 ZM 71.9986,13.2006 c 0.0000,-1.1441 0.3440,-2.1977 1.0011 -2.9689c 0.6626,-0.7784 1.6455,-1.2672 2.8367 -1.2672c 2.7697,-0.0000 3.8016,2.1904 3.8016 4.0731c 0.0000,1.1097 -0.3675,2.2484 -1.1785 3.0413c -0.6173,0.6028 -1.4935,1.0138 -2.6593 1.0138c -2.5706,-0.0000 -3.8016,-2.0456 -3.8016 -3.8921ZM 71.9986,13.2006 ZM 75.5648,9.5981 c -1.6293,-0.0000 -2.0094,1.6112 -2.0094 3.1861c 0.0000,1.3939 0.6155,3.6749 2.4982 3.6749c 0.8508,-0.0000 2.0275,-0.5612 2.0275 -2.8421c 0.0000,-2.6068 -0.9594,-4.0188 -2.5163 -4.0188ZM 80.3802,16.9117 ZM 83.7111,10.4308 c 1.0735,-1.2310 2.0818,-1.4663 2.9689 -1.4663c 0.6336,-0.0000 1.1948,0.2172 1.5025 0.6155c 0.4164,0.5612 0.4888,1.4301 0.4888 2.4258v 2.6973 c 0.0000,1.4844 0.1991,1.5568 1.2129 1.6474c 0.0905,0.1086 0.0905,0.4888 0.0000 0.5974c -0.5431,-0.0181 -1.1948,-0.0362 -1.9189 -0.0362c -0.7241,-0.0000 -1.3034,0.0181 -1.8465 0.0362c -0.0905,-0.1086 -0.0905,-0.4888 0.0000 -0.5974c 0.9413,-0.0905 1.1224,-0.1629 1.1224 -1.6474v -2.7516 c 0.0000,-0.5431 -0.0362,-1.0319 -0.2172 -1.3939c -0.2172,-0.4164 -0.5974,-0.6517 -0.9594 -0.6517c -0.7060,-0.0000 -1.5206,0.3983 -2.2085 1.0681c -0.1448,0.1629 -0.3077,0.3802 -0.3077 0.7603v 2.9689 c 0.0000,1.4844 0.1810,1.5568 1.1043 1.6474c 0.1086,0.1086 0.1086,0.4888 0.0000 0.5974c -0.5431,-0.0181 -1.0862,-0.0362 -1.8103 -0.0362c -0.7241,-0.0000 -1.4482,0.0181 -1.9913 0.0362c -0.1086,-0.1086 -0.1086,-0.4888 0.0000 -0.5974c 1.0862,-0.0905 1.2672,-0.1629 1.2672 -1.6474v -3.5301 c 0.0000,-1.0500 -0.1991,-1.1405 -1.1767 -1.2310c -0.0362,-0.1086 -0.0724,-0.3983 -0.0362 -0.5069c 1.2491,-0.1629 1.7198,-0.3259 2.2266 -0.5250c 0.1448,-0.0000 0.1792,0.0615 0.2172 0.1448c 0.0851,0.1865 0.1267,0.8870 0.1448 1.3758c 0.0054,0.1702 0.1068,0.1267 0.2172 -0.0000ZM 90.1919,16.9117 ZM 91.0608,14.4135 c 0.1086,-0.1086 0.4526,-0.1267 0.5612 -0.0181c 0.1086,0.4526 0.3077,1.2491 0.7060 1.6655c 0.1865,0.1937 0.5793,0.4345 1.2853 0.4345c 0.6698,-0.0000 1.5387,-0.3802 1.5387 -1.2672c 0.0000,-0.7784 -0.3440,-1.1586 -1.8465 -1.7741c -1.3939,-0.5793 -1.9913,-1.1405 -1.9913 -2.4620c 0.0000,-1.1586 1.2129,-2.0275 2.5525 -2.0275c 0.9413,-0.0000 1.8103,0.2534 2.3715 0.3440c -0.0181,0.5974 -0.0543,1.2672 -0.1086 1.9189c -0.1086,0.1086 -0.4707,0.1267 -0.5793 0.0181c -0.2353,-1.5387 -1.2853,-1.6836 -1.6836 -1.6836c -0.6155,-0.0000 -1.2672,0.4164 -1.2672 1.1586c 0.0000,0.9957 0.7205,1.2762 1.8103 1.6799c 1.2310,0.4562 2.1180,1.1749 2.1180 2.4113c 0.0000,1.7922 -1.8646,2.2810 -2.8783 2.2810c -0.6698,-0.0000 -1.1586,-0.0724 -1.6474 -0.1991c -0.1267,-0.0362 -0.2353,-0.0362 -0.3621 -0.0362c -0.0905,-0.0000 -0.2715,0.0181 -0.4526 0.0543c 0.0000,-0.7603 -0.0543,-1.6112 -0.1267 -2.4982Z"/></g></svg>