<?xml version="1.0" encoding="UTF-8"?>
<!DOCTYPE svg PUBLIC "-//W3C//DTD SVG 1.1//EN"
    "http://www.w3.org/Graphics/SVG/1.1/DTD/svg11.dtd"><svg xmlns="http://www.w3.org/2000/svg" viewBox="0.0 0.0 420.05249818971765 22.85421332216536" height="22.8542" font-size="1" stroke-opacity="1" width="420.0525" xmlns:xlink="http://www.w3.org/1999/xlink" stroke="rgb(0,0,0)" version="1.1"><defs></defs><g><g stroke-linecap="butt" fill="rgb(0,0,0)" stroke-miterlimit="10.0" stroke-width="0.5" fill-opacity="0.0" stroke-opacity="1.0" stroke-linejoin="miter" stroke="rgb(0,0,0)"><path d="M 274.1003,11.4271 h 20.0000 "/></g><g stroke-linecap="butt" fill="rgb(0,0,0)" stroke-miterlimit="10.0" stroke-width="0.0" fill-opacity="1.0" stroke-opacity="1.0" stroke-linejoin="miter" stroke="rgb(0,0,0)"></g><g stroke-linecap="butt" fill="rgb(0,0,0)" stroke-miterlimit="10.0" stroke-width="0.0" fill-opacity="1.0" stroke-opacity="1.0" stroke-linejoin="miter" stroke="rgb(0,0,0)"></g><g stroke-linecap="butt" fill="rgb(0,0,0)" stroke-miterlimit="10.0" stroke-width="0.0" fill-opacity="1.0" stroke-opacity="1.0" stroke-linejoin="miter" stroke="rgb(0,0,0)"><path d="M 299.1003,11.4271 l -5.0000,-2.8868 v 5.7735 Z"/></g><g stroke-linecap="butt" fill="rgb(0,0,0)" stroke-miterlimit="10.0" stroke-width="0.0" fill-opacity="1.0" stroke-opacity="1.0" stroke-linejoin="miter" stroke="rgb(0,0,0)"></g><title>Marks released</title></g><g stroke-linecap="butt" fill="rgb(255,255,255)" stroke-miterlimit="10.0" stroke-width="1.0" fill-opacity="1.0" stroke-opacity="1.0" stroke-linejoin="miter" stroke="rgb(0,0,0)"><path d="M 274.1003,22.8355 l -0.0000,-22.8168 h -115.1140 l -0.0000,22.8168 Z"/></g><g stroke-linecap="butt" fill="rgb(0,0,0)" stroke-miterlimit="10.0" stroke-width="0.0" fill-opacity="1.0" stroke-opacity="1.0" stroke-linejoin="miter" stroke="rgb(0,0,0)"><path d="M 163.7600,17.6545 ZM 168.6839,6.4669 c -1.2853,-0.0000 -1.5025,0.6336 -1.5025 1.1586v 4.1455 h 0.8689 c 1.7560,-0.0000 3.0413,-0.5069 3.0413 -2.7697c 0.0000,-2.1361 -1.3034,-2.5344 -2.4077 -2.5344ZM 168.6839,6.4669 ZM 167.1814,15.4459 c 0.0000,1.5025 0.3077,1.5930 1.5749 1.6474c 0.1086,0.1086 0.1086,0.4888 0.0000 0.5974c -0.7965,-0.0181 -1.6546,-0.0362 -2.3353 -0.0362c -0.6970,-0.0000 -1.5387,0.0181 -2.3534 0.0362c -0.1086,-0.1086 -0.1086,-0.4888 0.0000 -0.5974c 1.2672,-0.0543 1.5749,-0.1448 1.5749 -1.6474v -7.2592 c 0.0000,-1.5025 -0.3077,-1.5930 -1.5749 -1.6474c -0.1086,-0.1086 -0.1086,-0.4888 0.0000 -0.5974c 0.8508,0.0181 1.7017,0.0362 2.3353 0.0362c 0.6517,-0.0000 1.4120,-0.1267 2.2629 -0.1267c 1.1405,-0.0000 2.2629,0.0543 3.1318 0.8689c 0.6517,0.6155 0.9594,1.3577 0.9594 2.2629c 0.0000,1.9008 -1.6293,2.8421 -2.4077 3.0956l 2.2810,3.8016 c 0.4707,0.7857 0.9232,1.3939 1.7379 1.3939c 0.0724,0.1448 0.0815,0.3096 0.0181 0.4345c -0.1810,0.0905 -0.4888,0.1267 -0.7603 0.1267c -1.0862,-0.0000 -1.8700,-0.7676 -2.3896 -1.6112l -1.9370,-3.1499 c -0.2589,-0.4218 -0.5974,-0.6879 -2.1180 -0.6879v 3.0594 ZM 174.3863,17.6545 ZM 176.6311,12.5495 l 3.2766,-0.0543 c 0.1991,-0.0036 0.2715,-0.0905 0.2715 -0.2534c 0.0000,-1.5206 -0.8146,-1.9008 -1.5025 -1.9008c -0.4345,-0.0000 -1.7017,0.1629 -2.0456 2.2085ZM 176.6311,12.5495 ZM 181.3740,15.9709 c 0.2172,0.0181 0.3259,0.1086 0.3802 0.2896c -0.7241,0.9413 -1.7017,1.5749 -3.0775 1.5749c -1.3034,-0.0000 -2.1542,-0.4345 -2.7697 -1.1586c -0.5974,-0.6879 -0.8508,-1.6655 -0.8508 -2.6792c 0.0000,-2.7516 2.0456,-4.2542 3.6206 -4.2542c 2.5163,-0.0000 3.0594,1.6293 3.0594 3.1499c 0.0000,0.1991 -0.1267,0.3077 -0.3440 0.3077l -4.8154,-0.0362 c 0.0000,1.0500 0.2172,1.8827 0.5793 2.4801c 0.5612,0.9232 1.3215,1.3034 1.9732 1.3034c 1.0500,-0.0000 1.5749,-0.2896 2.2448 -0.9776ZM 182.4783,17.6545 ZM 184.1980,15.4459 v -7.9109 c 0.0000,-1.3577 -0.1086,-1.4120 -1.1586 -1.4844c -0.1086,-0.1086 -0.1448,-0.3983 -0.1086 -0.5431c 0.7241,-0.0543 2.0818,-0.3077 2.5344 -0.4888c 0.1629,-0.0000 0.2353,0.0543 0.2353 0.1810c 0.0000,-0.0000 -0.0724,0.7241 -0.0724 1.9008v 8.3454 c 0.0000,1.5025 0.1991,1.5930 1.3034 1.6474c 0.1086,0.1086 0.1086,0.4888 0.0000 0.5974c -0.5974,-0.0181 -1.2853,-0.0362 -2.0094 -0.0362c -0.7241,-0.0000 -1.3939,0.0181 -2.0275 0.0362c -0.1086,-0.1086 -0.1086,-0.4888 0.0000 -0.5974c 1.1043,-0.0543 1.3034,-0.1448 1.3034 -1.6474ZM 187.2574,17.6545 ZM 189.5022,12.5495 l 3.2766,-0.0543 c 0.1991,-0.0036 0.2715,-0.0905 0.2715 -0.2534c 0.0000,-1.5206 -0.8146,-1.9008 -1.5025 -1.9008c -0.4345,-0.0000 -1.7017,0.1629 -2.0456 2.2085ZM 189.5022,12.5495 ZM 194.2451,15.9709 c 0.2172,0.0181 0.3259,0.1086 0.3802 0.2896c -0.7241,0.9413 -1.7017,1.5749 -3.0775 1.5749c -1.3034,-0.0000 -2.1542,-0.4345 -2.7697 -1.1586c -0.5974,-0.6879 -0.8508,-1.6655 -0.8508 -2.6792c 0.0000,-2.7516 2.0456,-4.2542 3.6206 -4.2542c 2.5163,-0.0000 3.0594,1.6293 3.0594 3.1499c 0.0000,0.1991 -0.1267,0.3077 -0.3440 0.3077l -4.8154,-0.0362 c 0.0000,1.0500 0.2172,1.8827 0.5793 2.4801c 0.5612,0.9232 1.3215,1.3034 1.9732 1.3034c 1.0500,-0.0000 1.5749,-0.2896 2.2448 -0.9776ZM 195.3494,17.6545 ZM 200.6535,13.4365 l -1.4301,0.3802 c -1.3396,0.3440 -1.7198,1.1767 -1.7198 1.9913c 0.0000,0.5612 0.3983,1.2853 1.3034 1.2853c 0.5069,-0.0000 1.1224,-0.4164 1.5930 -0.7965c 0.1448,-0.1086 0.2534,-0.2353 0.2534 -0.4707v -2.3896 ZM 200.6535,13.4365 ZM 200.6535,16.7855 h -0.0362 l -0.3621,0.2896 c -0.7965,0.6155 -1.3432,0.7603 -1.9732 0.7603c -1.2672,-0.0000 -2.2810,-0.4707 -2.2810 -1.9551c 0.0000,-1.2310 1.2491,-2.1904 2.9870 -2.6249l 1.5568,-0.3802 c 0.0543,-0.0181 0.1086,-0.0905 0.1086 -0.2172c 0.0000,-2.0456 -0.8508,-2.3534 -1.4663 -2.3534c -0.6879,-0.0000 -1.4482,0.1991 -1.4482 0.7603c 0.0000,0.1991 0.0181,0.3077 0.0362 0.3621c 0.0362,0.0724 0.0543,0.1991 0.0543 0.3259c 0.0000,0.2353 -0.3259,0.6155 -0.8508 0.6155c -0.4164,-0.0000 -0.6336,-0.2172 -0.6336 -0.6517c 0.0000,-1.0319 1.5025,-2.0094 2.9870 -2.0094c 1.3215,-0.0000 2.7335,0.4888 2.7335 3.0594v 2.6611 c 0.0000,0.8327 0.0181,1.5387 0.5431 1.5387c 0.2299,-0.0000 0.5340,-0.1774 0.6698 -0.2896c 0.2046,0.1140 0.2770,0.2661 0.3077 0.4888c -0.3747,0.3621 -1.0264,0.6698 -1.7198 0.6698c -0.9124,-0.0000 -1.1043,-0.4888 -1.2129 -1.0500ZM 203.6224,17.6545 ZM 204.4913,15.1563 c 0.1086,-0.1086 0.4526,-0.1267 0.5612 -0.0181c 0.1086,0.4526 0.3077,1.2491 0.7060 1.6655c 0.1865,0.1937 0.5793,0.4345 1.2853 0.4345c 0.6698,-0.0000 1.5387,-0.3802 1.5387 -1.2672c 0.0000,-0.7784 -0.3440,-1.1586 -1.8465 -1.7741c -1.3939,-0.5793 -1.9913,-1.1405 -1.9913 -2.4620c 0.0000,-1.1586 1.2129,-2.0275 2.5525 -2.0275c 0.9413,-0.0000 1.8103,0.2534 2.3715 0.3440c -0.0181,0.5974 -0.0543,1.2672 -0.1086 1.9189c -0.1086,0.1086 -0.4707,0.1267 -0.5793 0.0181c -0.2353,-1.5387 -1.2853,-1.6836 -1.6836 -1.6836c -0.6155,-0.0000 -1.2672,0.4164 -1.2672 1.1586c 0.0000,0.9957 0.7205,1.2762 1.8103 1.6799c 1.2310,0.4562 2.1180,1.1749 2.1180 2.4113c 0.0000,1.7922 -1.8646,2.2810 -2.8783 2.2810c -0.6698,-0.0000 -1.1586,-0.0724 -1.6474 -0.1991c -0.1267,-0.0362 -0.2353,-0.0362 -0.3621 -0.0362c -0.0905,-0.0000 -0.2715,0.0181 -0.4526 0.0543c 0.0000,-0.7603 -0.0543,-1.6112 -0.1267 -2.4982ZM 210.6825,17.6545 ZM 212.9272,12.5495 l 3.2766,-0.0543 c 0.1991,-0.0036 0.2715,-0.0905 0.2715 -0.2534c 0.0000,-1.5206 -0.8146,-1.9008 -1.5025 -1.9008c -0.4345,-0.0000 -1.7017,0.1629 -2.0456 2.2085ZM 212.9272,12.5495 ZM 217.6702,15.9709 c 0.2172,0.0181 0.3259,0.1086 0.3802 0.2896c -0.7241,0.9413 -1.7017,1.5749 -3.0775 1.5749c -1.3034,-0.0000 -2.1542,-0.4345 -2.7697 -1.1586c -0.5974,-0.6879 -0.8508,-1.6655 -0.8508 -2.6792c 0.0000,-2.7516 2.0456,-4.2542 3.6206 -4.2542c 2.5163,-0.0000 3.0594,1.6293 3.0594 3.1499c 0.0000,0.1991 -0.1267,0.3077 -0.3440 0.3077l -4.8154,-0.0362 c 0.0000,1.0500 0.2172,1.8827 0.5793 2.4801c 0.5612,0.9232 1.3215,1.3034 1.9732 1.3034c 1.0500,-0.0000 1.5749,-0.2896 2.2448 -0.9776ZM 223.3001,17.6545 ZM 235.2969,15.5546 l -0.4652,-7.5670 h -0.0362 l -4.0731,9.5764 c -0.0724,0.1448 -0.1448,0.2715 -0.2534 0.2715c -0.1086,-0.0000 -0.2209,-0.1430 -0.2715 -0.2715l -3.7473,-9.3954 h -0.0362 l -0.6879,7.2592 c -0.0978,1.0192 0.0000,1.5749 1.1948 1.6655c 0.1086,0.1086 0.1086,0.4888 0.0000 0.5974c -0.5431,-0.0181 -1.2672,-0.0362 -1.7017 -0.0362c -0.4345,-0.0000 -1.0138,0.0181 -1.5568 0.0362c -0.1086,-0.1086 -0.1086,-0.4888 0.0000 -0.5974c 1.0319,-0.0905 1.2491,-0.5449 1.3559 -1.6293l 0.7259,-7.4584 c 0.1267,-1.3577 0.0181,-1.3939 -1.2310 -1.4663c -0.1086,-0.1086 -0.1086,-0.4888 0.0000 -0.5974l 2.6249,0.0362 l 3.7111,9.1962 c 0.0561,0.1376 0.1086,0.2353 0.1448 0.2353c 0.0362,-0.0000 0.0905,-0.0724 0.1629 -0.2534l 3.8378,-9.1781 l 2.3715,-0.0362 c 0.1086,0.1086 0.1086,0.4888 0.0000 0.5974c -1.2310,0.0724 -1.3215,0.3259 -1.2437 1.3034l 0.5395,7.6213 c 0.1050,1.4989 0.1611,1.5749 1.3921 1.6293c 0.1086,0.1086 0.1086,0.4888 0.0000 0.5974c -0.6010,-0.0181 -1.4301,-0.0362 -1.9732 -0.0362c -0.5431,-0.0000 -1.2672,0.0181 -1.9370 0.0362c -0.1086,-0.1086 -0.1086,-0.4888 0.0000 -0.5974c 1.1767,-0.0543 1.2437,-0.0724 1.1531 -1.5387ZM 238.4884,17.6545 ZM 243.7925,13.4365 l -1.4301,0.3802 c -1.3396,0.3440 -1.7198,1.1767 -1.7198 1.9913c 0.0000,0.5612 0.3983,1.2853 1.3034 1.2853c 0.5069,-0.0000 1.1224,-0.4164 1.5930 -0.7965c 0.1448,-0.1086 0.2534,-0.2353 0.2534 -0.4707v -2.3896 ZM 243.7925,13.4365 ZM 243.7925,16.7855 h -0.0362 l -0.3621,0.2896 c -0.7965,0.6155 -1.3432,0.7603 -1.9732 0.7603c -1.2672,-0.0000 -2.2810,-0.4707 -2.2810 -1.9551c 0.0000,-1.2310 1.2491,-2.1904 2.9870 -2.6249l 1.5568,-0.3802 c 0.0543,-0.0181 0.1086,-0.0905 0.1086 -0.2172c 0.0000,-2.0456 -0.8508,-2.3534 -1.4663 -2.3534c -0.6879,-0.0000 -1.4482,0.1991 -1.4482 0.7603c 0.0000,0.1991 0.0181,0.3077 0.0362 0.3621c 0.0362,0.0724 0.0543,0.1991 0.0543 0.3259c 0.0000,0.2353 -0.3259,0.6155 -0.8508 0.6155c -0.4164,-0.0000 -0.6336,-0.2172 -0.6336 -0.6517c 0.0000,-1.0319 1.5025,-2.0094 2.9870 -2.0094c 1.3215,-0.0000 2.7335,0.4888 2.7335 3.0594v 2.6611 c 0.0000,0.8327 0.0181,1.5387 0.5431 1.5387c 0.2299,-0.0000 0.5340,-0.1774 0.6698 -0.2896c 0.2046,0.1140 0.2770,0.2661 0.3077 0.4888c -0.3747,0.3621 -1.0264,0.6698 -1.7198 0.6698c -0.9124,-0.0000 -1.1043,-0.4888 -1.2129 -1.0500ZM 246.7614,17.6545 ZM 249.9475,11.1737 c 0.0036,0.0905 0.0905,0.2353 0.1991 0.0362c 0.4164,-0.7060 1.1586,-1.5025 2.0094 -1.5025c 0.7603,-0.0000 1.0862,0.5232 1.0862 0.8689c 0.0000,0.4526 -0.4164,0.9051 -0.8508 0.9051c -0.3150,-0.0000 -0.5177,-0.2408 -0.6553 -0.4218c -0.1412,-0.1865 -0.3041,-0.2299 -0.4671 -0.2299c -0.2172,-0.0000 -0.6336,0.5974 -0.8327 0.8870c -0.2172,0.3259 -0.4345,0.7422 -0.4345 1.2129v 2.5163 c 0.0000,1.5025 0.2172,1.5568 1.4844 1.6474c 0.1086,0.1086 0.1086,0.4888 0.0000 0.5974c -0.6336,-0.0181 -1.4663,-0.0362 -2.1904 -0.0362c -0.7241,-0.0000 -1.4301,0.0181 -2.0637 0.0362c -0.1086,-0.1086 -0.1086,-0.4888 0.0000 -0.5974c 1.1224,-0.0724 1.3396,-0.1448 1.3396 -1.6474v -3.5301 c 0.0000,-1.0500 -0.1991,-1.1405 -1.1767 -1.2310c -0.0362,-0.1086 -0.0724,-0.3983 -0.0362 -0.5069c 1.2491,-0.1629 1.7198,-0.3259 2.2266 -0.5250c 0.1448,-0.0000 0.1792,0.0615 0.2172 0.1448c 0.0851,0.1865 0.1140,0.6517 0.1448 1.3758ZM 253.4957,17.6545 ZM 255.0525,15.4459 v -7.9109 c 0.0000,-1.5206 -0.2172,-1.4301 -1.1586 -1.4844c -0.1086,-0.1086 -0.1448,-0.3983 -0.1086 -0.5431c 0.7241,-0.0543 2.0818,-0.3077 2.5344 -0.4888c 0.1629,-0.0000 0.2353,0.0543 0.2353 0.1810c 0.0000,-0.0000 -0.0724,0.7241 -0.0724 1.9008v 6.3143 c 0.3421,-0.0471 0.8291,-0.2607 1.2310 -0.5576c 0.4652,-0.3440 1.0319,-0.9594 1.4482 -1.4844c 0.1684,-0.2118 0.5974,-0.8508 -0.4164 -0.9232c -0.1086,-0.1086 -0.1086,-0.4888 0.0000 -0.5974c 0.4164,0.0181 1.0862,0.0362 1.7741 0.0362c 0.6517,-0.0000 1.1586,-0.0181 1.5749 -0.0362c 0.1086,0.1086 0.1086,0.4888 0.0000 0.5974c -0.7241,0.0724 -1.3577,0.2172 -1.9008 0.7965l -1.5930,1.6474 c -0.0724,0.0724 -0.0724,0.1086 -0.0724 0.1810c 0.0000,0.0905 0.0615,0.1720 0.1267 0.2534l 2.3896,3.0051 c 0.4833,0.6083 0.9413,0.6879 1.5568 0.7603c 0.1086,0.1086 0.1086,0.4888 0.0000 0.5974c -0.3621,-0.0181 -0.9232,-0.0362 -1.4844 -0.0362c -0.3621,-0.0000 -0.7603,0.0181 -1.1224 0.0362c -0.0543,-0.0000 -0.0670,-0.0362 -0.0724 -0.0905c -0.0235,-0.2118 -0.2281,-0.5521 -0.7603 -1.2672l -1.3215,-1.7741 c -0.2154,-0.2896 -0.3802,-0.4526 -0.5793 -0.5883c -0.1756,-0.0615 -0.4308,-0.0887 -0.7784 -0.0978v 1.5731 c 0.0000,1.5025 0.1991,1.5749 0.9413 1.6474c 0.1086,0.1086 0.1086,0.4888 0.0000 0.5974c -0.4164,-0.0181 -1.0138,-0.0362 -1.6474 -0.0362c -0.7241,-0.0000 -1.3396,0.0181 -1.9370 0.0362c -0.1086,-0.1086 -0.1086,-0.4888 0.0000 -0.5974c 1.0138,-0.0724 1.2129,-0.1448 1.2129 -1.6474ZM 262.7643,17.6545 ZM 263.6332,15.1563 c 0.1086,-0.1086 0.4526,-0.1267 0.5612 -0.0181c 0.1086,0.4526 0.3077,1.2491 0.7060 1.6655c 0.1865,0.1937 0.5793,0.4345 1.2853 0.4345c 0.6698,-0.0000 1.5387,-0.3802 1.5387 -1.2672c 0.0000,-0.7784 -0.3440,-1.1586 -1.8465 -1.7741c -1.3939,-0.5793 -1.9913,-1.1405 -1.9913 -2.4620c 0.0000,-1.1586 1.2129,-2.0275 2.5525 -2.0275c 0.9413,-0.0000 1.8103,0.2534 2.3715 0.3440c -0.0181,0.5974 -0.0543,1.2672 -0.1086 1.9189c -0.1086,0.1086 -0.4707,0.1267 -0.5793 0.0181c -0.2353,-1.5387 -1.2853,-1.6836 -1.6836 -1.6836c -0.6155,-0.0000 -1.2672,0.4164 -1.2672 1.1586c 0.0000,0.9957 0.7205,1.2762 1.8103 1.6799c 1.2310,0.4562 2.1180,1.1749 2.1180 2.4113c 0.0000,1.7922 -1.8646,2.2810 -2.8783 2.2810c -0.6698,-0.0000 -1.1586,-0.0724 -1.6474 -0.1991c -0.1267,-0.0362 -0.2353,-0.0362 -0.3621 -0.0362c -0.0905,-0.0000 -0.2715,0.0181 -0.4526 0.0543c 0.0000,-0.7603 -0.0543,-1.6112 -0.1267 -2.4982Z"/></g><g><g stroke-linecap="butt" fill="rgb(0,0,0)" stroke-miterlimit="10.0" stroke-width="0.5" fill-opacity="0.0" stroke-opacity="1.0" stroke-linejoin="miter" stroke="rgb(0,0,0)"><path d="M 133.9862,11.4271 h 20.0000 "/></g><g stroke-linecap="butt" fill="rgb(0,0,0)" stroke-miterlimit="10.0" stroke-width="0.0" fill-opacity="1.0" stroke-opacity="1.0" stroke-linejoin="miter" stroke="rgb(0,0,0)"></g><g stroke-linecap="butt" fill="rgb(0,0,0)" stroke-miterlimit="10.0" stroke-width="0.0" fill-opacity="1.0" stroke-opacity="1.0" stroke-linejoin="miter" stroke="rgb(0,0,0)"></g><g stroke-linecap="butt" fill="rgb(0,0,0)" stroke-miterlimit="10.0" stroke-width="0.0" fill-opacity="1.0" stroke-opacity="1.0" stroke-linejoin="miter" stroke="rgb(0,0,0)"><path d="M 158.9862,11.4271 l -5.0000,-2.8868 v 5.7735 Z"/></g><g stroke-linecap="butt" fill="rgb(0,0,0)" stroke-miterlimit="10.0" stroke-width="0.0" fill-opacity="1.0" stroke-opacity="1.0" stroke-linejoin="miter" stroke="rgb(0,0,0)"></g><title>Marks submitted</title></g><g stroke-linecap="butt" fill="rgb(0,0,0)" stroke-miterlimit="10.0" stroke-width="0.0" fill-opacity="1.0" stroke-opacity="1.0" stroke-linejoin="miter" stroke="rgb(0,0,0)"><path d="M 303.8197,17.6358 ZM 315.8164,15.5358 l -0.4652,-7.5670 h -0.0362 l -4.0731,9.5764 c -0.0724,0.1448 -0.1448,0.2715 -0.2534 0.2715c -0.1086,-0.0000 -0.2209,-0.1430 -0.2715 -0.2715l -3.7473,-9.3954 h -0.0362 l -0.6879,7.2592 c -0.0978,1.0192 0.0000,1.5749 1.1948 1.6655c 0.1086,0.1086 0.1086,0.4888 0.0000 0.5974c -0.5431,-0.0181 -1.2672,-0.0362 -1.7017 -0.0362c -0.4345,-0.0000 -1.0138,0.0181 -1.5568 0.0362c -0.1086,-0.1086 -0.1086,-0.4888 0.0000 -0.5974c 1.0319,-0.0905 1.2491,-0.5449 1.3559 -1.6293l 0.7259,-7.4584 c 0.1267,-1.3577 0.0181,-1.3939 -1.2310 -1.4663c -0.1086,-0.1086 -0.1086,-0.4888 0.0000 -0.5974l 2.6249,0.0362 l 3.7111,9.1962 c 0.0561,0.1376 0.1086,0.2353 0.1448 0.2353c 0.0362,-0.0000 0.0905,-0.0724 0.1629 -0.2534l 3.8378,-9.1781 l 2.3715,-0.0362 c 0.1086,0.1086 0.1086,0.4888 0.0000 0.5974c -1.2310,0.0724 -1.3215,0.3259 -1.2437 1.3034l 0.5395,7.6213 c 0.1050,1.4989 0.1611,1.5749 1.3921 1.6293c 0.1086,0.1086 0.1086,0.4888 0.0000 0.5974c -0.6010,-0.0181 -1.4301,-0.0362 -1.9732 -0.0362c -0.5431,-0.0000 -1.2672,0.0181 -1.9370 0.0362c -0.1086,-0.1086 -0.1086,-0.4888 0.0000 -0.5974c 1.1767,-0.0543 1.2437,-0.0724 1.1531 -1.5387ZM 319.0080,17.6358 ZM 324.3121,13.4178 l -1.4301,0.3802 c -1.3396,0.3440 -1.7198,1.1767 -1.7198 1.9913c 0.0000,0.5612 0.3983,1.2853 1.3034 1.2853c 0.5069,-0.0000 1.1224,-0.4164 1.5930 -0.7965c 0.1448,-0.1086 0.2534,-0.2353 0.2534 -0.4707v -2.3896 ZM 324.3121,13.4178 ZM 324.3121,16.7668 h -0.0362 l -0.3621,0.2896 c -0.7965,0.6155 -1.3432,0.7603 -1.9732 0.7603c -1.2672,-0.0000 -2.2810,-0.4707 -2.2810 -1.9551c 0.0000,-1.2310 1.2491,-2.1904 2.9870 -2.6249l 1.5568,-0.3802 c 0.0543,-0.0181 0.1086,-0.0905 0.1086 -0.2172c 0.0000,-2.0456 -0.8508,-2.3534 -1.4663 -2.3534c -0.6879,-0.0000 -1.4482,0.1991 -1.4482 0.7603c 0.0000,0.1991 0.0181,0.3077 0.0362 0.3621c 0.0362,0.0724 0.0543,0.1991 0.0543 0.3259c 0.0000,0.2353 -0.3259,0.6155 -0.8508 0.6155c -0.4164,-0.0000 -0.6336,-0.2172 -0.6336 -0.6517c 0.0000,-1.0319 1.5025,-2.0094 2.9870 -2.0094c 1.3215,-0.0000 2.7335,0.4888 2.7335 3.0594v 2.6611 c 0.0000,0.8327 0.0181,1.5387 0.5431 1.5387c 0.2299,-0.0000 0.5340,-0.1774 0.6698 -0.2896c 0.2046,0.1140 0.2770,0.2661 0.3077 0.4888c -0.3747,0.3621 -1.0264,0.6698 -1.7198 0.6698c -0.9124,-0.0000 -1.1043,-0.4888 -1.2129 -1.0500ZM 327.2810,17.6358 ZM 330.4671,11.1550 c 0.0036,0.0905 0.0905,0.2353 0.1991 0.0362c 0.4164,-0.7060 1.1586,-1.5025 2.0094 -1.5025c 0.7603,-0.0000 1.0862,0.5232 1.0862 0.8689c 0.0000,0.4526 -0.4164,0.9051 -0.8508 0.9051c -0.3150,-0.0000 -0.5177,-0.2408 -0.6553 -0.4218c -0.1412,-0.1865 -0.3041,-0.2299 -0.4671 -0.2299c -0.2172,-0.0000 -0.6336,0.5974 -0.8327 0.8870c -0.2172,0.3259 -0.4345,0.7422 -0.4345 1.2129v 2.5163 c 0.0000,1.5025 0.2172,1.5568 1.4844 1.6474c 0.1086,0.1086 0.1086,0.4888 0.0000 0.5974c -0.6336,-0.0181 -1.4663,-0.0362 -2.1904 -0.0362c -0.7241,-0.0000 -1.4301,0.0181 -2.0637 0.0362c -0.1086,-0.1086 -0.1086,-0.4888 0.0000 -0.5974c 1.1224,-0.0724 1.3396,-0.1448 1.3396 -1.6474v -3.5301 c 0.0000,-1.0500 -0.1991,-1.1405 -1.1767 -1.2310c -0.0362,-0.1086 -0.0724,-0.3983 -0.0362 -0.5069c 1.2491,-0.1629 1.7198,-0.3259 2.2266 -0.5250c 0.1448,-0.0000 0.1792,0.0615 0.2172 0.1448c 0.0851,0.1865 0.1140,0.6517 0.1448 1.3758ZM 334.0152,17.6358 ZM 335.5720,15.4272 v -7.9109 c 0.0000,-1.5206 -0.2172,-1.4301 -1.1586 -1.4844c -0.1086,-0.1086 -0.1448,-0.3983 -0.1086 -0.5431c 0.7241,-0.0543 2.0818,-0.3077 2.5344 -0.4888c 0.1629,-0.0000 0.2353,0.0543 0.2353 0.1810c 0.0000,-0.0000 -0.0724,0.7241 -0.0724 1.9008v 6.3143 c 0.3421,-0.0471 0.8291,-0.2607 1.2310 -0.5576c 0.4652,-0.3440 1.0319,-0.9594 1.4482 -1.4844c 0.1684,-0.2118 0.5974,-0.8508 -0.4164 -0.9232c -0.1086,-0.1086 -0.1086,-0.4888 0.0000 -0.5974c 0.4164,0.0181 1.0862,0.0362 1.7741 0.0362c 0.6517,-0.0000 1.1586,-0.0181 1.5749 -0.0362c 0.1086,0.1086 0.1086,0.4888 0.0000 0.5974c -0.7241,0.0724 -1.3577,0.2172 -1.9008 0.7965l -1.5930,1.6474 c -0.0724,0.0724 -0.0724,0.1086 -0.0724 0.1810c 0.0000,0.0905 0.0615,0.1720 0.1267 0.2534l 2.3896,3.0051 c 0.4833,0.6083 0.9413,0.6879 1.5568 0.7603c 0.1086,0.1086 0.1086,0.4888 0.0000 0.5974c -0.3621,-0.0181 -0.9232,-0.0362 -1.4844 -0.0362c -0.3621,-0.0000 -0.7603,0.0181 -1.1224 0.0362c -0.0543,-0.0000 -0.0670,-0.0362 -0.0724 -0.0905c -0.0235,-0.2118 -0.2281,-0.5521 -0.7603 -1.2672l -1.3215,-1.7741 c -0.2154,-0.2896 -0.3802,-0.4526 -0.5793 -0.5883c -0.1756,-0.0615 -0.4308,-0.0887 -0.7784 -0.0978v 1.5731 c 0.0000,1.5025 0.1991,1.5749 0.9413 1.6474c 0.1086,0.1086 0.1086,0.4888 0.0000 0.5974c -0.4164,-0.0181 -1.0138,-0.0362 -1.6474 -0.0362c -0.7241,-0.0000 -1.3396,0.0181 -1.9370 0.0362c -0.1086,-0.1086 -0.1086,-0.4888 0.0000 -0.5974c 1.0138,-0.0724 1.2129,-0.1448 1.2129 -1.6474ZM 343.2839,17.6358 ZM 344.1528,15.1376 c 0.1086,-0.1086 0.4526,-0.1267 0.5612 -0.0181c 0.1086,0.4526 0.3077,1.2491 0.7060 1.6655c 0.1865,0.1937 0.5793,0.4345 1.2853 0.4345c 0.6698,-0.0000 1.5387,-0.3802 1.5387 -1.2672c 0.0000,-0.7784 -0.3440,-1.1586 -1.8465 -1.7741c -1.3939,-0.5793 -1.9913,-1.1405 -1.9913 -2.4620c 0.0000,-1.1586 1.2129,-2.0275 2.5525 -2.0275c 0.9413,-0.0000 1.8103,0.2534 2.3715 0.3440c -0.0181,0.5974 -0.0543,1.2672 -0.1086 1.9189c -0.1086,0.1086 -0.4707,0.1267 -0.5793 0.0181c -0.2353,-1.5387 -1.2853,-1.6836 -1.6836 -1.6836c -0.6155,-0.0000 -1.2672,0.4164 -1.2672 1.1586c 0.0000,0.9957 0.7205,1.2762 1.8103 1.6799c 1.2310,0.4562 2.1180,1.1749 2.1180 2.4113c 0.0000,1.7922 -1.8646,2.2810 -2.8783 2.2810c -0.6698,-0.0000 -1.1586,-0.0724 -1.6474 -0.1991c -0.1267,-0.0362 -0.2353,-0.0362 -0.3621 -0.0362c -0.0905,-0.0000 -0.2715,0.0181 -0.4526 0.0543c 0.0000,-0.7603 -0.0543,-1.6112 -0.1267 -2.4982ZM 354.8697,17.6358 ZM 358.0558,11.1550 c 0.0036,0.0905 0.0905,0.2353 0.1991 0.0362c 0.4164,-0.7060 1.1586,-1.5025 2.0094 -1.5025c 0.7603,-0.0000 1.0862,0.5232 1.0862 0.8689c 0.0000,0.4526 -0.4164,0.9051 -0.8508 0.9051c -0.3150,-0.0000 -0.5177,-0.2408 -0.6553 -0.4218c -0.1412,-0.1865 -0.3041,-0.2299 -0.4671 -0.2299c -0.2172,-0.0000 -0.6336,0.5974 -0.8327 0.8870c -0.2172,0.3259 -0.4345,0.7422 -0.4345 1.2129v 2.5163 c 0.0000,1.5025 0.2172,1.5568 1.4844 1.6474c 0.1086,0.1086 0.1086,0.4888 0.0000 0.5974c -0.6336,-0.0181 -1.4663,-0.0362 -2.1904 -0.0362c -0.7241,-0.0000 -1.4301,0.0181 -2.0637 0.0362c -0.1086,-0.1086 -0.1086,-0.4888 0.0000 -0.5974c 1.1224,-0.0724 1.3396,-0.1448 1.3396 -1.6474v -3.5301 c 0.0000,-1.0500 -0.1991,-1.1405 -1.1767 -1.2310c -0.0362,-0.1086 -0.0724,-0.3983 -0.0362 -0.5069c 1.2491,-0.1629 1.7198,-0.3259 2.2266 -0.5250c 0.1448,-0.0000 0.1792,0.0615 0.2172 0.1448c 0.0851,0.1865 0.1140,0.6517 0.1448 1.3758ZM 361.4591,17.6358 ZM 363.7038,12.5308 l 3.2766,-0.0543 c 0.1991,-0.0036 0.2715,-0.0905 0.2715 -0.2534c 0.0000,-1.5206 -0.8146,-1.9008 -1.5025 -1.9008c -0.4345,-0.0000 -1.7017,0.1629 -2.0456 2.2085ZM 363.7038,12.5308 ZM 368.4468,15.9522 c 0.2172,0.0181 0.3259,0.1086 0.3802 0.2896c -0.7241,0.9413 -1.7017,1.5749 -3.0775 1.5749c -1.3034,-0.0000 -2.1542,-0.4345 -2.7697 -1.1586c -0.5974,-0.6879 -0.8508,-1.6655 -0.8508 -2.6792c 0.0000,-2.7516 2.0456,-4.2542 3.6206 -4.2542c 2.5163,-0.0000 3.0594,1.6293 3.0594 3.1499c 0.0000,0.1991 -0.1267,0.3077 -0.3440 0.3077l -4.8154,-0.0362 c 0.0000,1.0500 0.2172,1.8827 0.5793 2.4801c 0.5612,0.9232 1.3215,1.3034 1.9732 1.3034c 1.0500,-0.0000 1.5749,-0.2896 2.2448 -0.9776ZM 369.5510,17.6358 ZM 371.2708,15.4272 v -7.9109 c 0.0000,-1.3577 -0.1086,-1.4120 -1.1586 -1.4844c -0.1086,-0.1086 -0.1448,-0.3983 -0.1086 -0.5431c 0.7241,-0.0543 2.0818,-0.3077 2.5344 -0.4888c 0.1629,-0.0000 0.2353,0.0543 0.2353 0.1810c 0.0000,-0.0000 -0.0724,0.7241 -0.0724 1.9008v 8.3454 c 0.0000,1.5025 0.1991,1.5930 1.3034 1.6474c 0.1086,0.1086 0.1086,0.4888 0.0000 0.5974c -0.5974,-0.0181 -1.2853,-0.0362 -2.0094 -0.0362c -0.7241,-0.0000 -1.3939,0.0181 -2.0275 0.0362c -0.1086,-0.1086 -0.1086,-0.4888 0.0000 -0.5974c 1.1043,-0.0543 1.3034,-0.1448 1.3034 -1.6474ZM 374.3302,17.6358 ZM 376.5749,12.5308 l 3.2766,-0.0543 c 0.1991,-0.0036 0.2715,-0.0905 0.2715 -0.2534c 0.0000,-1.5206 -0.8146,-1.9008 -1.5025 -1.9008c -0.4345,-0.0000 -1.7017,0.1629 -2.0456 2.2085ZM 376.5749,12.5308 ZM 381.3179,15.9522 c 0.2172,0.0181 0.3259,0.1086 0.3802 0.2896c -0.7241,0.9413 -1.7017,1.5749 -3.0775 1.5749c -1.3034,-0.0000 -2.1542,-0.4345 -2.7697 -1.1586c -0.5974,-0.6879 -0.8508,-1.6655 -0.8508 -2.6792c 0.0000,-2.7516 2.0456,-4.2542 3.6206 -4.2542c 2.5163,-0.0000 3.0594,1.6293 3.0594 3.1499c 0.0000,0.1991 -0.1267,0.3077 -0.3440 0.3077l -4.8154,-0.0362 c 0.0000,1.0500 0.2172,1.8827 0.5793 2.4801c 0.5612,0.9232 1.3215,1.3034 1.9732 1.3034c 1.0500,-0.0000 1.5749,-0.2896 2.2448 -0.9776ZM 382.4222,17.6358 ZM 387.7263,13.4178 l -1.4301,0.3802 c -1.3396,0.3440 -1.7198,1.1767 -1.7198 1.9913c 0.0000,0.5612 0.3983,1.2853 1.3034 1.2853c 0.5069,-0.0000 1.1224,-0.4164 1.5930 -0.7965c 0.1448,-0.1086 0.2534,-0.2353 0.2534 -0.4707v -2.3896 ZM 387.7263,13.4178 ZM 387.7263,16.7668 h -0.0362 l -0.3621,0.2896 c -0.7965,0.6155 -1.3432,0.7603 -1.9732 0.7603c -1.2672,-0.0000 -2.2810,-0.4707 -2.2810 -1.9551c 0.0000,-1.2310 1.2491,-2.1904 2.9870 -2.6249l 1.5568,-0.3802 c 0.0543,-0.0181 0.1086,-0.0905 0.1086 -0.2172c 0.0000,-2.0456 -0.8508,-2.3534 -1.4663 -2.3534c -0.6879,-0.0000 -1.4482,0.1991 -1.4482 0.7603c 0.0000,0.1991 0.0181,0.3077 0.0362 0.3621c 0.0362,0.0724 0.0543,0.1991 0.0543 0.3259c 0.0000,0.2353 -0.3259,0.6155 -0.8508 0.6155c -0.4164,-0.0000 -0.6336,-0.2172 -0.6336 -0.6517c 0.0000,-1.0319 1.5025,-2.0094 2.9870 -2.0094c 1.3215,-0.0000 2.7335,0.4888 2.7335 3.0594v 2.6611 c 0.0000,0.8327 0.0181,1.5387 0.5431 1.5387c 0.2299,-0.0000 0.5340,-0.1774 0.6698 -0.2896c 0.2046,0.1140 0.2770,0.2661 0.3077 0.4888c -0.3747,0.3621 -1.0264,0.6698 -1.7198 0.6698c -0.9124,-0.0000 -1.1043,-0.4888 -1.2129 -1.0500ZM 390.6951,17.6358 ZM 391.5641,15.1376 c 0.1086,-0.1086 0.4526,-0.1267 0.5612 -0.0181c 0.1086,0.4526 0.3077,1.2491 0.7060 1.6655c 0.1865,0.1937 0.5793,0.4345 1.2853 0.4345c 0.6698,-0.0000 1.5387,-0.3802 1.5387 -1.2672c 0.0000,-0.7784 -0.3440,-1.1586 -1.8465 -1.7741c -1.3939,-0.5793 -1.9913,-1.1405 -1.9913 -2.4620c 0.0000,-1.1586 1.2129,-2.0275 2.5525 -2.0275c 0.9413,-0.0000 1.8103,0.2534 2.3715 0.3440c -0.0181,0.5974 -0.0543,1.2672 -0.1086 1.9189c -0.1086,0.1086 -0.4707,0.1267 -0.5793 0.0181c -0.2353,-1.5387 -1.2853,-1.6836 -1.6836 -1.6836c -0.6155,-0.0000 -1.2672,0.4164 -1.2672 1.1586c 0.0000,0.9957 0.7205,1.2762 1.8103 1.6799c 1.2310,0.4562 2.1180,1.1749 2.1180 2.4113c 0.0000,1.7922 -1.8646,2.2810 -2.8783 2.2810c -0.6698,-0.0000 -1.1586,-0.0724 -1.6474 -0.1991c -0.1267,-0.0362 -0.2353,-0.0362 -0.3621 -0.0362c -0.0905,-0.0000 -0.2715,0.0181 -0.4526 0.0543c 0.0000,-0.7603 -0.0543,-1.6112 -0.1267 -2.4982ZM 397.7552,17.6358 ZM 400.0000,12.5308 l 3.2766,-0.0543 c 0.1991,-0.0036 0.2715,-0.0905 0.2715 -0.2534c 0.0000,-1.5206 -0.8146,-1.9008 -1.5025 -1.9008c -0.4345,-0.0000 -1.7017,0.1629 -2.0456 2.2085ZM 400.0000,12.5308 ZM 404.7429,15.9522 c 0.2172,0.0181 0.3259,0.1086 0.3802 0.2896c -0.7241,0.9413 -1.7017,1.5749 -3.0775 1.5749c -1.3034,-0.0000 -2.1542,-0.4345 -2.7697 -1.1586c -0.5974,-0.6879 -0.8508,-1.6655 -0.8508 -2.6792c 0.0000,-2.7516 2.0456,-4.2542 3.6206 -4.2542c 2.5163,-0.0000 3.0594,1.6293 3.0594 3.1499c 0.0000,0.1991 -0.1267,0.3077 -0.3440 0.3077l -4.8154,-0.0362 c 0.0000,1.0500 0.2172,1.8827 0.5793 2.4801c 0.5612,0.9232 1.3215,1.3034 1.9732 1.3034c 1.0500,-0.0000 1.5749,-0.2896 2.2448 -0.9776ZM 405.9739,17.6358 ZM 412.2194,15.3910 v -3.4395 c 0.0000,-0.5612 -0.0543,-0.6879 -0.3077 -0.9776c -0.3621,-0.4164 -0.8146,-0.6517 -1.4663 -0.6517c -0.3621,-0.0000 -1.1224,0.0543 -1.6836 0.9051c -0.2715,0.3802 -0.5250,1.1043 -0.5250 2.4077c 0.0000,2.2629 1.0138,3.3309 1.9913 3.3309c 0.4526,-0.0000 1.0319,-0.2896 1.7017 -0.8689c 0.2552,-0.2209 0.2896,-0.3621 0.2896 -0.7060ZM 412.2194,15.3910 ZM 412.0203,16.7252 c -0.8870,0.7295 -1.5568,1.0916 -2.2629 1.0916c -1.9551,-0.0000 -3.0775,-1.6293 -3.0775 -3.8559c 0.0000,-1.3396 0.4707,-2.4077 1.2491 -3.1861c 0.7241,-0.6879 1.5206,-1.0862 2.7154 -1.0862c 0.5974,-0.0000 1.3396,0.3077 1.4120 0.3077c 0.1267,-0.0000 0.1629,-0.0362 0.1629 -0.1629v -2.3172 c 0.0000,-1.5206 -0.2172,-1.4301 -1.1586 -1.4844c -0.1086,-0.1086 -0.1448,-0.3983 -0.1086 -0.5431c 0.7241,-0.0543 2.0818,-0.3077 2.5344 -0.4888c 0.1629,-0.0000 0.2353,0.0543 0.2353 0.1810c 0.0000,-0.0000 -0.0724,0.7241 -0.0724 1.9008v 8.2006 c 0.0000,0.8870 0.1629,1.2310 1.3215 1.3215c 0.1086,0.1086 0.1086,0.3802 0.0000 0.4888c -1.1043,0.1267 -1.7379,0.3983 -2.1361 0.7241c -0.1086,0.0453 -0.1991,0.0543 -0.3440 -0.0000c 0.0000,-0.0000 -0.1539,-0.6245 -0.1991 -1.0681c -0.0127,-0.1267 -0.1846,-0.0941 -0.2715 -0.0235Z"/></g><g stroke-linecap="butt" fill="rgb(0,0,0)" stroke-miterlimit="10.0" stroke-width="0.0" fill-opacity="1.0" stroke-opacity="1.0" stroke-linejoin="miter" stroke="rgb(0,0,0)"><path d="M 4.7194,17.6358 ZM 16.7161,15.5358 l -0.4652,-7.5670 h -0.0362 l -4.0731,9.5764 c -0.0724,0.1448 -0.1448,0.2715 -0.2534 0.2715c -0.1086,-0.0000 -0.2209,-0.1430 -0.2715 -0.2715l -3.7473,-9.3954 h -0.0362 l -0.6879,7.2592 c -0.0978,1.0192 0.0000,1.5749 1.1948 1.6655c 0.1086,0.1086 0.1086,0.4888 0.0000 0.5974c -0.5431,-0.0181 -1.2672,-0.0362 -1.7017 -0.0362c -0.4345,-0.0000 -1.0138,0.0181 -1.5568 0.0362c -0.1086,-0.1086 -0.1086,-0.4888 0.0000 -0.5974c 1.0319,-0.0905 1.2491,-0.5449 1.3559 -1.6293l 0.7259,-7.4584 c 0.1267,-1.3577 0.0181,-1.3939 -1.2310 -1.4663c -0.1086,-0.1086 -0.1086,-0.4888 0.0000 -0.5974l 2.6249,0.0362 l 3.7111,9.1962 c 0.0561,0.1376 0.1086,0.2353 0.1448 0.2353c 0.0362,-0.0000 0.0905,-0.0724 0.1629 -0.2534l 3.8378,-9.1781 l 2.3715,-0.0362 c 0.1086,0.1086 0.1086,0.4888 0.0000 0.5974c -1.2310,0.0724 -1.3215,0.3259 -1.2437 1.3034l 0.5395,7.6213 c 0.1050,1.4989 0.1611,1.5749 1.3921 1.6293c 0.1086,0.1086 0.1086,0.4888 0.0000 0.5974c -0.6010,-0.0181 -1.4301,-0.0362 -1.9732 -0.0362c -0.5431,-0.0000 -1.2672,0.0181 -1.9370 0.0362c -0.1086,-0.1086 -0.1086,-0.4888 0.0000 -0.5974c 1.1767,-0.0543 1.2437,-0.0724 1.1531 -1.5387ZM 19.9077,17.6358 ZM 25.2118,13.4178 l -1.4301,0.3802 c -1.3396,0.3440 -1.7198,1.1767 -1.7198 1.9913c 0.0000,0.5612 0.3983,1.2853 1.3034 1.2853c 0.5069,-0.0000 1.1224,-0.4164 1.5930 -0.7965c 0.1448,-0.1086 0.2534,-0.2353 0.2534 -0.4707v -2.3896 ZM 25.2118,13.4178 ZM 25.2118,16.7668 h -0.0362 l -0.3621,0.2896 c -0.7965,0.6155 -1.3432,0.7603 -1.9732 0.7603c -1.2672,-0.0000 -2.2810,-0.4707 -2.2810 -1.9551c 0.0000,-1.2310 1.2491,-2.1904 2.9870 -2.6249l 1.5568,-0.3802 c 0.0543,-0.0181 0.1086,-0.0905 0.1086 -0.2172c 0.0000,-2.0456 -0.8508,-2.3534 -1.4663 -2.3534c -0.6879,-0.0000 -1.4482,0.1991 -1.4482 0.7603c 0.0000,0.1991 0.0181,0.3077 0.0362 0.3621c 0.0362,0.0724 0.0543,0.1991 0.0543 0.3259c 0.0000,0.2353 -0.3259,0.6155 -0.8508 0.6155c -0.4164,-0.0000 -0.6336,-0.2172 -0.6336 -0.6517c 0.0000,-1.0319 1.5025,-2.0094 2.9870 -2.0094c 1.3215,-0.0000 2.7335,0.4888 2.7335 3.0594v 2.6611 c 0.0000,0.8327 0.0181,1.5387 0.5431 1.5387c 0.2299,-0.0000 0.5340,-0.1774 0.6698 -0.2896c 0.2046,0.1140 0.2770,0.2661 0.3077 0.4888c -0.3747,0.3621 -1.0264,0.6698 -1.7198 0.6698c -0.9124,-0.0000 -1.1043,-0.4888 -1.2129 -1.0500ZM 28.1807,17.6358 ZM 31.3668,11.1550 c 0.0036,0.0905 0.0905,0.2353 0.1991 0.0362c 0.4164,-0.7060 1.1586,-1.5025 2.0094 -1.5025c 0.7603,-0.0000 1.0862,0.5232 1.0862 0.8689c 0.0000,0.4526 -0.4164,0.9051 -0.8508 0.9051c -0.3150,-0.0000 -0.5177,-0.2408 -0.6553 -0.4218c -0.1412,-0.1865 -0.3041,-0.2299 -0.4671 -0.2299c -0.2172,-0.0000 -0.6336,0.5974 -0.8327 0.8870c -0.2172,0.3259 -0.4345,0.7422 -0.4345 1.2129v 2.5163 c 0.0000,1.5025 0.2172,1.5568 1.4844 1.6474c 0.1086,0.1086 0.1086,0.4888 0.0000 0.5974c -0.6336,-0.0181 -1.4663,-0.0362 -2.1904 -0.0362c -0.7241,-0.0000 -1.4301,0.0181 -2.0637 0.0362c -0.1086,-0.1086 -0.1086,-0.4888 0.0000 -0.5974c 1.1224,-0.0724 1.3396,-0.1448 1.3396 -1.6474v -3.5301 c 0.0000,-1.0500 -0.1991,-1.1405 -1.1767 -1.2310c -0.0362,-0.1086 -0.0724,-0.3983 -0.0362 -0.5069c 1.2491,-0.1629 1.7198,-0.3259 2.2266 -0.5250c 0.1448,-0.0000 0.1792,0.0615 0.2172 0.1448c 0.0851,0.1865 0.1140,0.6517 0.1448 1.3758ZM 34.9149,17.6358 ZM 36.4718,15.4272 v -7.9109 c 0.0000,-1.5206 -0.2172,-1.4301 -1.1586 -1.4844c -0.1086,-0.1086 -0.1448,-0.3983 -0.1086 -0.5431c 0.7241,-0.0543 2.0818,-0.3077 2.5344 -0.4888c 0.1629,-0.0000 0.2353,0.0543 0.2353 0.1810c 0.0000,-0.0000 -0.0724,0.7241 -0.0724 1.9008v 6.3143 c 0.3421,-0.0471 0.8291,-0.2607 1.2310 -0.5576c 0.4652,-0.3440 1.0319,-0.9594 1.4482 -1.4844c 0.1684,-0.2118 0.5974,-0.8508 -0.4164 -0.9232c -0.1086,-0.1086 -0.1086,-0.4888 0.0000 -0.5974c 0.4164,0.0181 1.0862,0.0362 1.7741 0.0362c 0.6517,-0.0000 1.1586,-0.0181 1.5749 -0.0362c 0.1086,0.1086 0.1086,0.4888 0.0000 0.5974c -0.7241,0.0724 -1.3577,0.2172 -1.9008 0.7965l -1.5930,1.6474 c -0.0724,0.0724 -0.0724,0.1086 -0.0724 0.1810c 0.0000,0.0905 0.0615,0.1720 0.1267 0.2534l 2.3896,3.0051 c 0.4833,0.6083 0.9413,0.6879 1.5568 0.7603c 0.1086,0.1086 0.1086,0.4888 0.0000 0.5974c -0.3621,-0.0181 -0.9232,-0.0362 -1.4844 -0.0362c -0.3621,-0.0000 -0.7603,0.0181 -1.1224 0.0362c -0.0543,-0.0000 -0.0670,-0.0362 -0.0724 -0.0905c -0.0235,-0.2118 -0.2281,-0.5521 -0.7603 -1.2672l -1.3215,-1.7741 c -0.2154,-0.2896 -0.3802,-0.4526 -0.5793 -0.5883c -0.1756,-0.0615 -0.4308,-0.0887 -0.7784 -0.0978v 1.5731 c 0.0000,1.5025 0.1991,1.5749 0.9413 1.6474c 0.1086,0.1086 0.1086,0.4888 0.0000 0.5974c -0.4164,-0.0181 -1.0138,-0.0362 -1.6474 -0.0362c -0.7241,-0.0000 -1.3396,0.0181 -1.9370 0.0362c -0.1086,-0.1086 -0.1086,-0.4888 0.0000 -0.5974c 1.0138,-0.0724 1.2129,-0.1448 1.2129 -1.6474ZM 44.1836,17.6358 ZM 45.0525,15.1376 c 0.1086,-0.1086 0.4526,-0.1267 0.5612 -0.0181c 0.1086,0.4526 0.3077,1.2491 0.7060 1.6655c 0.1865,0.1937 0.5793,0.4345 1.2853 0.4345c 0.6698,-0.0000 1.5387,-0.3802 1.5387 -1.2672c 0.0000,-0.7784 -0.3440,-1.1586 -1.8465 -1.7741c -1.3939,-0.5793 -1.9913,-1.1405 -1.9913 -2.4620c 0.0000,-1.1586 1.2129,-2.0275 2.5525 -2.0275c 0.9413,-0.0000 1.8103,0.2534 2.3715 0.3440c -0.0181,0.5974 -0.0543,1.2672 -0.1086 1.9189c -0.1086,0.1086 -0.4707,0.1267 -0.5793 0.0181c -0.2353,-1.5387 -1.2853,-1.6836 -1.6836 -1.6836c -0.6155,-0.0000 -1.2672,0.4164 -1.2672 1.1586c 0.0000,0.9957 0.7205,1.2762 1.8103 1.6799c 1.2310,0.4562 2.1180,1.1749 2.1180 2.4113c 0.0000,1.7922 -1.8646,2.2810 -2.8783 2.2810c -0.6698,-0.0000 -1.1586,-0.0724 -1.6474 -0.1991c -0.1267,-0.0362 -0.2353,-0.0362 -0.3621 -0.0362c -0.0905,-0.0000 -0.2715,0.0181 -0.4526 0.0543c 0.0000,-0.7603 -0.0543,-1.6112 -0.1267 -2.4982ZM 55.7694,17.6358 ZM 56.6383,15.1376 c 0.1086,-0.1086 0.4526,-0.1267 0.5612 -0.0181c 0.1086,0.4526 0.3077,1.2491 0.7060 1.6655c 0.1865,0.1937 0.5793,0.4345 1.2853 0.4345c 0.6698,-0.0000 1.5387,-0.3802 1.5387 -1.2672c 0.0000,-0.7784 -0.3440,-1.1586 -1.8465 -1.7741c -1.3939,-0.5793 -1.9913,-1.1405 -1.9913 -2.4620c 0.0000,-1.1586 1.2129,-2.0275 2.5525 -2.0275c 0.9413,-0.0000 1.8103,0.2534 2.3715 0.3440c -0.0181,0.5974 -0.0543,1.2672 -0.1086 1.9189c -0.1086,0.1086 -0.4707,0.1267 -0.5793 0.0181c -0.2353,-1.5387 -1.2853,-1.6836 -1.6836 -1.6836c -0.6155,-0.0000 -1.2672,0.4164 -1.2672 1.1586c 0.0000,0.9957 0.7205,1.2762 1.8103 1.6799c 1.2310,0.4562 2.1180,1.1749 2.1180 2.4113c 0.0000,1.7922 -1.8646,2.2810 -2.8783 2.2810c -0.6698,-0.0000 -1.1586,-0.0724 -1.6474 -0.1991c -0.1267,-0.0362 -0.2353,-0.0362 -0.3621 -0.0362c -0.0905,-0.0000 -0.2715,0.0181 -0.4526 0.0543c 0.0000,-0.7603 -0.0543,-1.6112 -0.1267 -2.4982ZM 62.8295,17.6358 ZM 66.7578,17.8168 c -1.7922,-0.0000 -2.3353,-1.2129 -2.3353 -2.4620v -3.4757 c 0.0000,-1.1767 -0.2534,-1.3758 -1.1224 -1.4482c -0.1086,-0.1086 -0.1086,-0.4888 0.0000 -0.5974c 0.6155,0.0181 1.2672,0.0362 1.8465 0.0362c 0.2715,-0.0000 0.5431,-0.0181 0.6336 -0.0362c 0.0905,-0.0000 0.1448,0.0543 0.1448 0.1086c 0.0000,-0.0000 -0.0724,1.3215 -0.0724 1.8646v 3.2947 c 0.0000,1.6112 0.9051,1.8646 1.4482 1.8646c 0.4526,-0.0000 1.1405,-0.2896 1.8103 -0.8689c 0.2534,-0.2172 0.2896,-0.3621 0.2896 -0.7060v -3.4938 c 0.0000,-1.1948 -0.2353,-1.4120 -1.1224 -1.4663c -0.1086,-0.1086 -0.1086,-0.4888 0.0000 -0.5974c 0.6155,0.0181 1.2672,0.0362 1.8465 0.0362c 0.2715,-0.0000 0.5431,-0.0181 0.6336 -0.0362c 0.0905,-0.0000 0.1448,0.0543 0.1448 0.1086c 0.0000,-0.0000 -0.0724,1.3215 -0.0724 1.8646v 3.4757 c 0.0000,0.8870 0.1629,1.2310 1.3215 1.3215c 0.1086,0.1086 0.1086,0.3802 0.0000 0.4888c -1.1043,0.1267 -1.7379,0.3983 -2.1361 0.7241c -0.1177,0.0453 -0.1991,0.0543 -0.3440 -0.0000c 0.0000,-0.0000 -0.1539,-0.6064 -0.1991 -1.0681c -0.0127,-0.1267 -0.1810,-0.0905 -0.2715 -0.0181c -0.8870,0.7241 -1.7379,1.0862 -2.4439 1.0862ZM 72.4421,17.6358 ZM 75.5920,11.0644 c -0.2335,0.2064 -0.3077,0.3802 -0.3077 0.7603v 4.5257 c 0.3621,0.4526 0.7422,0.8508 1.3034 0.8508c 1.7198,-0.0000 2.5525,-1.5568 2.5525 -3.6206c 0.0000,-1.7560 -0.9051,-3.0956 -2.0094 -3.0956c -0.5250,-0.0000 -1.0681,0.1629 -1.5387 0.5793ZM 75.5920,11.0644 ZM 75.4652,10.5033 c 0.5612,-0.5069 1.2509,-0.8146 2.0275 -0.8146c 1.5749,-0.0000 3.2042,1.3577 3.2042 3.5663c 0.0000,2.8783 -2.1542,4.5619 -4.0007 4.5619c -0.6390,-0.0000 -1.1785,-0.0996 -1.5930 -0.4490c -0.1991,-0.1665 -0.3077,-0.1665 -0.4942 0.0507c -0.1394,0.1611 -0.3186,0.3295 -0.4290 0.4345c -0.2172,-0.0000 -0.3077,-0.0724 -0.3983 -0.2172c 0.0543,-0.2534 0.0724,-0.5793 0.0724 -1.2853v -8.8342 c 0.0000,-1.5206 -0.2172,-1.4301 -1.1586 -1.4844c -0.1086,-0.1086 -0.1448,-0.3983 -0.1086 -0.5431c 0.7241,-0.0543 2.0818,-0.3077 2.5344 -0.4888c 0.1629,-0.0000 0.2353,0.0543 0.2353 0.1810c 0.0000,-0.0000 -0.0724,0.7241 -0.0724 1.9008v 3.3309 c 0.0000,0.1629 0.0670,0.1937 0.1810 0.0905ZM 81.3668,17.6358 ZM 84.4442,11.1550 c 0.0091,0.2172 0.1340,0.0923 0.2172 -0.0000c 0.7549,-0.8436 1.7017,-1.4663 2.7516 -1.4663c 0.9413,-0.0000 1.6383,0.5865 1.8103 1.3287c 0.0362,0.1557 0.1448,0.0652 0.1991 0.0072c 0.9432,-0.9957 2.0601,-1.3360 2.9870 -1.3360c 1.5930,-0.0000 1.8646,1.2672 1.8646 2.8783v 2.8602 c 0.0000,1.4844 0.1629,1.5749 1.1586 1.6474c 0.0905,0.1086 0.0905,0.4888 0.0000 0.5974c -0.5069,-0.0181 -1.1405,-0.0362 -1.8646 -0.0362c -0.7241,-0.0000 -1.3939,0.0181 -1.8465 0.0362c -0.0905,-0.1086 -0.0905,-0.4888 0.0000 -0.5974c 0.9413,-0.0724 1.1224,-0.1629 1.1224 -1.6474v -3.1861 c 0.0000,-1.2129 -0.3983,-1.6112 -1.0862 -1.6112c -0.7060,-0.0000 -1.5206,0.2353 -2.3896 1.1948c 0.0181,0.2172 0.0181,0.4707 0.0181 0.7241v 2.8783 c 0.0000,1.4844 0.1629,1.5749 1.0681 1.6474c 0.0905,0.1086 0.0905,0.4888 0.0000 0.5974c -0.4526,-0.0181 -1.0500,-0.0362 -1.7741 -0.0362c -0.7241,-0.0000 -1.3939,0.0181 -1.8465 0.0362c -0.0905,-0.1086 -0.0905,-0.4888 0.0000 -0.5974c 0.9776,-0.0724 1.1224,-0.1629 1.1224 -1.6474v -3.1499 c 0.0000,-1.2129 -0.5069,-1.6474 -1.1948 -1.6474c -0.5594,-0.0000 -1.2382,0.3675 -1.9551 1.0681c -0.1448,0.1575 -0.3077,0.3802 -0.3077 0.7603v 2.9689 c 0.0000,1.4844 0.1991,1.5568 1.1188 1.6474c 0.1086,0.1086 0.1086,0.4888 0.0000 0.5974c -0.5431,-0.0181 -1.1007,-0.0362 -1.8248 -0.0362c -0.7241,-0.0000 -1.4120,0.0181 -1.9551 0.0362c -0.1086,-0.1086 -0.1086,-0.4888 0.0000 -0.5974c 0.9957,-0.0724 1.2310,-0.1629 1.2310 -1.6474v -3.5301 c 0.0000,-1.0500 -0.1991,-1.1405 -1.1767 -1.2310c -0.0362,-0.1086 -0.0724,-0.3983 -0.0362 -0.5069c 1.2491,-0.1629 1.7198,-0.3259 2.2266 -0.5250c 0.1448,-0.0000 0.1792,0.0615 0.2172 0.1448c 0.0851,0.1865 0.1213,0.8382 0.1448 1.3758ZM 95.6680,17.6358 ZM 97.2972,6.7922 c 0.0000,-0.4345 0.5069,-0.8689 0.9413 -0.8689c 0.4888,-0.0000 0.8689,0.5069 0.8689 0.9413c 0.0000,0.3820 -0.4345,0.8689 -0.9413 0.8689c -0.4345,-0.0000 -0.8689,-0.4707 -0.8689 -0.9413ZM 97.2972,6.7922 ZM 98.9446,15.4272 c 0.0000,1.5025 0.1991,1.5749 1.3034 1.6474c 0.1086,0.1086 0.1086,0.4888 0.0000 0.5974c -0.5974,-0.0181 -1.2853,-0.0362 -2.0094 -0.0362c -0.7241,-0.0000 -1.4301,0.0181 -2.0275 0.0362c -0.1086,-0.1086 -0.1086,-0.4888 0.0000 -0.5974c 1.1043,-0.0905 1.3034,-0.1448 1.3034 -1.6474v -3.5301 c 0.0000,-1.0319 -0.1901,-1.1387 -1.1767 -1.2310c -0.0362,-0.1086 -0.0724,-0.3983 -0.0362 -0.5069c 1.2491,-0.1629 1.9642,-0.3259 2.4801 -0.5250c 0.1448,-0.0000 0.2353,0.0543 0.2353 0.1267c 0.0000,-0.0000 -0.0724,1.1586 -0.0724 2.0583v 3.6079 ZM 100.5739,17.6358 ZM 102.2031,10.5757 h -1.0681 c -0.0724,-0.0000 -0.0905,-0.0181 -0.0905 -0.1086v -0.2353 c 0.0000,-0.1448 0.0724,-0.3621 0.3259 -0.3621l 0.8327,-0.0018 c 0.0000,-1.5007 0.0018,-1.4862 -0.0362 -1.8990c -0.0109,-0.1267 0.1448,-0.1629 0.2534 -0.2299l 1.0500,-0.4761 c 0.1629,-0.0000 0.2353,0.0543 0.2353 0.1810c 0.0000,-0.0000 -0.0724,0.7241 -0.0724 1.9008v 0.5250 c 1.9098,-0.0000 3.0558,0.0018 3.8197 -0.0018c 0.0000,-1.5007 0.0018,-1.6673 -0.0362 -2.0800c -0.0109,-0.1267 0.1448,-0.1629 0.2534 -0.2299l 1.0500,-0.4761 c 0.1629,-0.0000 0.2353,0.0543 0.2353 0.1810c 0.0000,-0.0000 -0.0724,0.7241 -0.0724 1.9008v 0.7060 h 2.1723 c 0.0905,-0.0000 0.1448,0.0362 0.1448 0.1086v 0.3621 c 0.0000,0.1629 -0.2534,0.2353 -0.4345 0.2353h -1.8827 v 4.5800 c 0.0000,1.1224 0.1086,1.6655 0.5974 1.6655c 0.4707,-0.0000 1.0138,-0.1448 1.4844 -0.5069c 0.1810,0.0181 0.2896,0.1213 0.3259 0.3077c -0.7060,0.7965 -1.6112,1.1948 -2.4439 1.1948c -0.8327,-0.0000 -1.3939,-0.5069 -1.3939 -1.7922v -5.4490 h -3.8197 v 4.5800 c 0.0000,1.1224 0.1086,1.6655 0.5974 1.6655c 0.5069,-0.0000 1.0138,-0.2715 1.2853 -0.5069c 0.1629,0.0181 0.2408,0.0978 0.2896 0.2715c -0.4707,0.7060 -1.3034,1.2310 -2.2085 1.2310c -0.8508,-0.0000 -1.3939,-0.5069 -1.3939 -1.7922v -5.4490 ZM 111.6890,17.6358 ZM 113.9337,12.5308 l 3.2766,-0.0543 c 0.1991,-0.0036 0.2715,-0.0905 0.2715 -0.2534c 0.0000,-1.5206 -0.8146,-1.9008 -1.5025 -1.9008c -0.4345,-0.0000 -1.7017,0.1629 -2.0456 2.2085ZM 113.9337,12.5308 ZM 118.6767,15.9522 c 0.2172,0.0181 0.3259,0.1086 0.3802 0.2896c -0.7241,0.9413 -1.7017,1.5749 -3.0775 1.5749c -1.3034,-0.0000 -2.1542,-0.4345 -2.7697 -1.1586c -0.5974,-0.6879 -0.8508,-1.6655 -0.8508 -2.6792c 0.0000,-2.7516 2.0456,-4.2542 3.6206 -4.2542c 2.5163,-0.0000 3.0594,1.6293 3.0594 3.1499c 0.0000,0.1991 -0.1267,0.3077 -0.3440 0.3077l -4.8154,-0.0362 c 0.0000,1.0500 0.2172,1.8827 0.5793 2.4801c 0.5612,0.9232 1.3215,1.3034 1.9732 1.3034c 1.0500,-0.0000 1.5749,-0.2896 2.2448 -0.9776ZM 119.9077,17.6358 ZM 126.1531,15.3910 v -3.4395 c 0.0000,-0.5612 -0.0543,-0.6879 -0.3077 -0.9776c -0.3621,-0.4164 -0.8146,-0.6517 -1.4663 -0.6517c -0.3621,-0.0000 -1.1224,0.0543 -1.6836 0.9051c -0.2715,0.3802 -0.5250,1.1043 -0.5250 2.4077c 0.0000,2.2629 1.0138,3.3309 1.9913 3.3309c 0.4526,-0.0000 1.0319,-0.2896 1.7017 -0.8689c 0.2552,-0.2209 0.2896,-0.3621 0.2896 -0.7060ZM 126.1531,15.3910 ZM 125.9540,16.7252 c -0.8870,0.7295 -1.5568,1.0916 -2.2629 1.0916c -1.9551,-0.0000 -3.0775,-1.6293 -3.0775 -3.8559c 0.0000,-1.3396 0.4707,-2.4077 1.2491 -3.1861c 0.7241,-0.6879 1.5206,-1.0862 2.7154 -1.0862c 0.5974,-0.0000 1.3396,0.3077 1.4120 0.3077c 0.1267,-0.0000 0.1629,-0.0362 0.1629 -0.1629v -2.3172 c 0.0000,-1.5206 -0.2172,-1.4301 -1.1586 -1.4844c -0.1086,-0.1086 -0.1448,-0.3983 -0.1086 -0.5431c 0.7241,-0.0543 2.0818,-0.3077 2.5344 -0.4888c 0.1629,-0.0000 0.2353,0.0543 0.2353 0.1810c 0.0000,-0.0000 -0.0724,0.7241 -0.0724 1.9008v 8.2006 c 0.0000,0.8870 0.1629,1.2310 1.3215 1.3215c 0.1086,0.1086 0.1086,0.3802 0.0000 0.4888c -1.1043,0.1267 -1.7379,0.3983 -2.1361 0.7241c -0.1086,0.0453 -0.1991,0.0543 -0.3440 -0.0000c 0.0000,-0.0000 -0.1539,-0.6245 -0.1991 -1.0681c -0.0127,-0.1267 -0.1846,-0.0941 -0.2715 -0.0235Z"/></g></svg>