<?xml version="1.0" encoding="UTF-8"?>
<!DOCTYPE svg PUBLIC "-//W3C//DTD SVG 1.1//EN"
    "http://www.w3.org/Graphics/SVG/1.1/DTD/svg11.dtd"><svg xmlns="http://www.w3.org/2000/svg" viewBox="0.0 0.0 175.56480811006517 72.45021723388848" height="72.4502" font-size="1" stroke-opacity="1" width="175.5648" xmlns:xlink="http://www.w3.org/1999/xlink" stroke="rgb(0,0,0)" version="1.1"><defs></defs><g stroke-linecap="butt" fill="rgb(0,0,0)" stroke-miterlimit="10.0" stroke-width="0.5" fill-opacity="0.0" stroke-opacity="1.0" stroke-linejoin="miter" stroke="rgb(0,0,0)"><path d="M 105.4281,37.6539 c 0.0000,13.1168 -10.6332,23.7500 -23.7500 23.7500"/></g><g><g stroke-linecap="butt" fill="rgb(0,0,0)" stroke-miterlimit="10.0" stroke-width="0.5" fill-opacity="0.0" stroke-opacity="1.0" stroke-linejoin="miter" stroke="rgb(0,0,0)"><path d="M 56.6781,61.4039 h 20.0000 "/></g><g stroke-linecap="butt" fill="rgb(0,0,0)" stroke-miterlimit="10.0" stroke-width="0.0" fill-opacity="1.0" stroke-opacity="1.0" stroke-linejoin="miter" stroke="rgb(0,0,0)"></g><g stroke-linecap="butt" fill="rgb(0,0,0)" stroke-miterlimit="10.0" stroke-width="0.0" fill-opacity="1.0" stroke-opacity="1.0" stroke-linejoin="miter" stroke="rgb(0,0,0)"></g><g stroke-linecap="butt" fill="rgb(0,0,0)" stroke-miterlimit="10.0" stroke-width="0.0" fill-opacity="1.0" stroke-opacity="1.0" stroke-linejoin="miter" stroke="rgb(0,0,0)"><path d="M 81.6781,61.4039 l -5.0000,-2.8868 v 5.7735 Z"/></g><g stroke-linecap="butt" fill="rgb(0,0,0)" stroke-miterlimit="10.0" stroke-width="0.0" fill-opacity="1.0" stroke-opacity="1.0" stroke-linejoin="miter" stroke="rgb(0,0,0)"></g><title>I → O</title></g><g><g stroke-linecap="butt" fill="rgb(0,0,0)" stroke-miterlimit="10.0" stroke-width="0.5" fill-opacity="0.0" stroke-opacity="1.0" stroke-linejoin="miter" stroke="rgb(0,0,0)"><path d="M 129.1781,18.8269 h 20.0000 "/></g><g stroke-linecap="butt" fill="rgb(0,0,0)" stroke-miterlimit="10.0" stroke-width="0.0" fill-opacity="1.0" stroke-opacity="1.0" stroke-linejoin="miter" stroke="rgb(0,0,0)"></g><g stroke-linecap="butt" fill="rgb(0,0,0)" stroke-miterlimit="10.0" stroke-width="0.0" fill-opacity="1.0" stroke-opacity="1.0" stroke-linejoin="miter" stroke="rgb(0,0,0)"></g><g stroke-linecap="butt" fill="rgb(0,0,0)" stroke-miterlimit="10.0" stroke-width="0.0" fill-opacity="1.0" stroke-opacity="1.0" stroke-linejoin="miter" stroke="rgb(0,0,0)"><path d="M 154.1781,18.8269 l -5.0000,-2.8868 v 5.7735 Z"/></g><g stroke-linecap="butt" fill="rgb(0,0,0)" stroke-miterlimit="10.0" stroke-width="0.0" fill-opacity="1.0" stroke-opacity="1.0" stroke-linejoin="miter" stroke="rgb(0,0,0)"></g><title>O</title></g><g stroke-linecap="butt" fill="rgb(255,255,255)" stroke-miterlimit="10.0" stroke-width="1.0" fill-opacity="1.0" stroke-opacity="1.0" stroke-linejoin="miter" stroke="rgb(0,0,0)"><path d="M 129.1781,37.6539 l -0.0000,-37.6539 h -47.5000 l -0.0000,37.6539 Z"/></g><g stroke-linecap="butt" fill="rgb(0,0,0)" stroke-miterlimit="10.0" stroke-width="0.5" fill-opacity="0.0" stroke-opacity="1.0" stroke-linejoin="miter" stroke="rgb(0,0,0)"><path d="M 111.6781,37.6539 c -1.1693,-8.1012 4.4501,-15.6164 12.5513 -16.7857"/></g><g stroke-linecap="butt" fill="rgb(0,0,0)" stroke-miterlimit="10.0" stroke-width="0.0" fill-opacity="1.0" stroke-opacity="1.0" stroke-linejoin="miter" stroke="rgb(0,0,0)"></g><g stroke-linecap="butt" fill="rgb(0,0,0)" stroke-miterlimit="10.0" stroke-width="0.0" fill-opacity="1.0" stroke-opacity="1.0" stroke-linejoin="miter" stroke="rgb(0,0,0)"></g><g stroke-linecap="butt" fill="rgb(0,0,0)" stroke-miterlimit="10.0" stroke-width="0.0" fill-opacity="1.0" stroke-opacity="1.0" stroke-linejoin="miter" stroke="rgb(0,0,0)"><path d="M 129.1781,20.1539 l -5.3611,-2.1429 l 0.8248,5.7143 Z"/></g><g stroke-linecap="butt" fill="rgb(0,0,0)" stroke-miterlimit="10.0" stroke-width="0.0" fill-opacity="1.0" stroke-opacity="1.0" stroke-linejoin="miter" stroke="rgb(0,0,0)"></g><g stroke-linecap="butt" fill="rgb(0,0,0)" stroke-miterlimit="10.0" stroke-width="0.5" fill-opacity="0.0" stroke-opacity="1.0" stroke-linejoin="miter" stroke="rgb(0,0,0)"><path d="M 81.6781,20.1539 c 8.1012,-1.1693 15.6164,4.4501 16.7857 12.5513"/></g><g stroke-linecap="butt" fill="rgb(0,0,0)" stroke-miterlimit="10.0" stroke-width="0.0" fill-opacity="1.0" stroke-opacity="1.0" stroke-linejoin="miter" stroke="rgb(0,0,0)"></g><g stroke-linecap="butt" fill="rgb(0,0,0)" stroke-miterlimit="10.0" stroke-width="0.0" fill-opacity="1.0" stroke-opacity="1.0" stroke-linejoin="miter" stroke="rgb(0,0,0)"></g><g stroke-linecap="butt" fill="rgb(0,0,0)" stroke-miterlimit="10.0" stroke-width="0.0" fill-opacity="1.0" stroke-opacity="1.0" stroke-linejoin="miter" stroke="rgb(0,0,0)"><path d="M 99.1781,37.6539 l 2.1429,-5.3611 l -5.7143,0.8248 Z"/></g><g stroke-linecap="butt" fill="rgb(0,0,0)" stroke-miterlimit="10.0" stroke-width="0.0" fill-opacity="1.0" stroke-opacity="1.0" stroke-linejoin="miter" stroke="rgb(0,0,0)"></g><g stroke-linecap="butt" fill="rgb(0,0,0)" stroke-miterlimit="10.0" stroke-width="0.0" fill-opacity="1.0" stroke-opacity="1.0" stroke-linejoin="miter" stroke="rgb(0,0,0)"><path d="M 88.4092,11.9768 ZM 91.9800,8.1345 h 2.4031 l -1.2762,-3.6930 h -0.0815 l -1.3876,3.5124 c -0.0516,0.1398 0.0434,0.1806 0.3421 0.1806ZM 91.9800,8.1345 ZM 90.5137,10.9042 c -0.2118,0.5580 0.4263,0.6164 0.9368 0.6517c 0.0815,0.0815 0.0815,0.3666 0.0000 0.4480c -0.5024,-0.0136 -1.1812,-0.0272 -1.7379 -0.0272c -0.4114,-0.0000 -0.8554,0.0136 -1.2084 0.0272c -0.0815,-0.0815 -0.0815,-0.3666 0.0000 -0.4480c 0.5906,-0.0407 1.0047,-0.1222 1.3577 -0.9640l 3.0820,-7.2773 c 0.1765,-0.0000 0.5431,-0.1493 0.7467 -0.2715l 2.7969,7.7661 c 0.2362,0.6544 0.6951,0.6992 1.2219 0.7467c 0.0815,0.0815 0.0815,0.3666 0.0000 0.4480c -0.4752,-0.0136 -0.9911,-0.0272 -1.5478 -0.0272c -0.5295,-0.0000 -1.2762,0.0136 -1.7786 0.0272c -0.0815,-0.0815 -0.0815,-0.3666 0.0000 -0.4480c 0.6463,-0.0462 1.1649,-0.0883 1.0047 -0.5567l -0.7875,-2.2945 h -2.8648 c -0.3259,-0.0000 -0.4073,0.0543 -0.4752 0.2308ZM 97.8453,11.9768 ZM 100.2213,7.4828 c -0.1575,0.1942 -0.2172,0.3123 -0.2172 0.5974v 2.4710 c 0.0000,0.4901 0.0530,0.5689 0.3259 0.8133c 0.2444,0.2186 0.7196,0.2865 0.9640 0.2865c 1.5206,-0.0000 1.9144,-1.3849 1.9144 -2.4982c 0.0000,-1.5342 -0.7467,-2.5118 -1.6157 -2.5118c -0.3965,-0.0000 -1.0183,0.4073 -1.3713 0.8418ZM 100.2213,7.4828 ZM 99.9633,6.9804 c 0.0068,0.1303 0.0733,0.1398 0.1493 0.0543c 0.5363,-0.6042 1.2287,-1.0183 1.8601 -1.0183c 1.3849,-0.0000 2.4031,1.3306 2.4031 2.7697c 0.0000,1.0997 -0.3666,1.9415 -1.0047 2.5661c -0.5567,0.5295 -1.2355,0.7603 -1.9958 0.7603c -0.4290,-0.0000 -0.8486,-0.0760 -1.1812 -0.2104c -0.1385,-0.0570 -0.1901,-0.0747 -0.1901 0.1018v 1.4663 c 0.0000,1.1269 0.1493,1.1812 1.1133 1.2355c 0.0815,0.0815 0.0815,0.3666 0.0000 0.4480c -0.4480,-0.0136 -1.0997,-0.0272 -1.6428 -0.0272c -0.5431,-0.0000 -1.0454,0.0136 -1.5206 0.0272c -0.0815,-0.0815 -0.0815,-0.3666 0.0000 -0.4480c 0.8282,-0.0407 0.9776,-0.1086 0.9776 -1.2355v -5.7974 c 0.0000,-0.7875 -0.1493,-0.8554 -0.8825 -0.9232c -0.0272,-0.0815 -0.0543,-0.2987 -0.0272 -0.3802c 0.9368,-0.1222 1.2898,-0.2444 1.6700 -0.3937c 0.1086,-0.0000 0.1344,0.0462 0.1629 0.1086c 0.0638,0.1398 0.0883,0.4888 0.1086 0.8961ZM 104.8918,11.9768 ZM 107.2678,7.4828 c -0.1575,0.1942 -0.2172,0.3123 -0.2172 0.5974v 2.4710 c 0.0000,0.4901 0.0530,0.5689 0.3259 0.8133c 0.2444,0.2186 0.7196,0.2865 0.9640 0.2865c 1.5206,-0.0000 1.9144,-1.3849 1.9144 -2.4982c 0.0000,-1.5342 -0.7467,-2.5118 -1.6157 -2.5118c -0.3965,-0.0000 -1.0183,0.4073 -1.3713 0.8418ZM 107.2678,7.4828 ZM 107.0099,6.9804 c 0.0068,0.1303 0.0733,0.1398 0.1493 0.0543c 0.5363,-0.6042 1.2287,-1.0183 1.8601 -1.0183c 1.3849,-0.0000 2.4031,1.3306 2.4031 2.7697c 0.0000,1.0997 -0.3666,1.9415 -1.0047 2.5661c -0.5567,0.5295 -1.2355,0.7603 -1.9958 0.7603c -0.4290,-0.0000 -0.8486,-0.0760 -1.1812 -0.2104c -0.1385,-0.0570 -0.1901,-0.0747 -0.1901 0.1018v 1.4663 c 0.0000,1.1269 0.1493,1.1812 1.1133 1.2355c 0.0815,0.0815 0.0815,0.3666 0.0000 0.4480c -0.4480,-0.0136 -1.0997,-0.0272 -1.6428 -0.0272c -0.5431,-0.0000 -1.0454,0.0136 -1.5206 0.0272c -0.0815,-0.0815 -0.0815,-0.3666 0.0000 -0.4480c 0.8282,-0.0407 0.9776,-0.1086 0.9776 -1.2355v -5.7974 c 0.0000,-0.7875 -0.1493,-0.8554 -0.8825 -0.9232c -0.0272,-0.0815 -0.0543,-0.2987 -0.0272 -0.3802c 0.9368,-0.1222 1.2898,-0.2444 1.6700 -0.3937c 0.1086,-0.0000 0.1344,0.0462 0.1629 0.1086c 0.0638,0.1398 0.0883,0.4888 0.1086 0.8961ZM 111.9384,11.9768 ZM 113.2282,10.3204 v -5.9332 c 0.0000,-1.0183 -0.0815,-1.0590 -0.8689 -1.1133c -0.0815,-0.0815 -0.1086,-0.2987 -0.0815 -0.4073c 0.5431,-0.0407 1.5614,-0.2308 1.9008 -0.3666c 0.1222,-0.0000 0.1765,0.0407 0.1765 0.1358c 0.0000,-0.0000 -0.0543,0.5431 -0.0543 1.4256v 6.2591 c 0.0000,1.1269 0.1493,1.1948 0.9776 1.2355c 0.0815,0.0815 0.0815,0.3666 0.0000 0.4480c -0.4480,-0.0136 -0.9640,-0.0272 -1.5071 -0.0272c -0.5431,-0.0000 -1.0454,0.0136 -1.5206 0.0272c -0.0815,-0.0815 -0.0815,-0.3666 0.0000 -0.4480c 0.8282,-0.0407 0.9776,-0.1086 0.9776 -1.2355ZM 115.5227,11.9768 ZM 118.2925,14.1492 c -0.4888,0.8689 -1.0319,0.9776 -1.3170 0.9776c -0.3666,-0.0000 -0.6381,-0.2172 -0.6381 -0.5024c 0.0000,-0.1765 0.2037,-0.5838 0.5974 -0.5838c 0.1493,-0.0000 0.2037,0.0407 0.3937 0.0407c 0.3394,-0.0000 0.5295,-0.1222 0.6789 -0.3937c 0.2037,-0.4209 0.3679,-0.7956 0.5295 -1.2491c 0.1358,-0.3802 -0.0720,-1.0033 -0.1901 -1.2762l -1.5356,-3.5708 c -0.3557,-0.8282 -0.5322,-0.9504 -1.0712 -1.0183c -0.0815,-0.0815 -0.0815,-0.3666 0.0000 -0.4480c 0.2715,0.0136 0.6381,0.0272 1.0997 0.0272c 0.4888,-0.0000 1.0319,-0.0136 1.5342 -0.0272c 0.0815,0.0815 0.0815,0.3666 0.0000 0.4480c -0.7603,0.0584 -0.6897,0.3096 -0.4453 0.8825l 1.2043,2.8240 c 0.1154,0.2688 0.2295,0.2322 0.3245 0.0136l 1.3469,-3.1092 c 0.2172,-0.4888 -0.2227,-0.5702 -0.6517 -0.6110c -0.0815,-0.0815 -0.0815,-0.3666 0.0000 -0.4480c 0.4073,0.0136 0.8282,0.0272 1.2355 0.0272c 0.3802,-0.0000 0.6924,-0.0136 0.9640 -0.0272c 0.0815,0.0815 0.0815,0.3666 0.0000 0.4480c -0.6381,0.0774 -0.8323,0.2946 -1.0997 0.8689c -0.7087,1.5261 -1.3170,2.9191 -2.4031 5.5395c -0.1670,0.4019 -0.3449,0.7902 -0.5567 1.1676Z"/></g><g><g stroke-linecap="butt" fill="rgb(0,0,0)" stroke-miterlimit="10.0" stroke-width="0.5" fill-opacity="0.0" stroke-opacity="1.0" stroke-linejoin="miter" stroke="rgb(0,0,0)"><path d="M 56.6781,18.8269 h 20.0000 "/></g><g stroke-linecap="butt" fill="rgb(0,0,0)" stroke-miterlimit="10.0" stroke-width="0.0" fill-opacity="1.0" stroke-opacity="1.0" stroke-linejoin="miter" stroke="rgb(0,0,0)"></g><g stroke-linecap="butt" fill="rgb(0,0,0)" stroke-miterlimit="10.0" stroke-width="0.0" fill-opacity="1.0" stroke-opacity="1.0" stroke-linejoin="miter" stroke="rgb(0,0,0)"></g><g stroke-linecap="butt" fill="rgb(0,0,0)" stroke-miterlimit="10.0" stroke-width="0.0" fill-opacity="1.0" stroke-opacity="1.0" stroke-linejoin="miter" stroke="rgb(0,0,0)"><path d="M 81.6781,18.8269 l -5.0000,-2.8868 v 5.7735 Z"/></g><g stroke-linecap="butt" fill="rgb(0,0,0)" stroke-miterlimit="10.0" stroke-width="0.0" fill-opacity="1.0" stroke-opacity="1.0" stroke-linejoin="miter" stroke="rgb(0,0,0)"></g><title>I</title></g><g stroke-linecap="butt" fill="rgb(0,0,0)" stroke-miterlimit="10.0" stroke-width="0.0" fill-opacity="1.0" stroke-opacity="1.0" stroke-linejoin="miter" stroke="rgb(0,0,0)"><path d="M 158.5083,24.6923 ZM 164.5004,13.4323 c -1.7922,-0.0000 -3.5844,1.5387 -3.5844 5.3403c 0.0000,3.4757 2.0818,5.4490 4.2904 5.4490c 2.0637,-0.0000 3.6206,-1.9008 3.6206 -5.1412c 0.0000,-3.6568 -1.9370,-5.6481 -4.3266 -5.6481ZM 164.5004,13.4323 ZM 170.5648,18.7364 c 0.0000,1.5206 -0.3983,2.8295 -1.1188 3.8559c -0.9938,1.4175 -2.5959,2.2810 -4.6017 2.2810c -3.0775,-0.0000 -5.6662,-2.2266 -5.6662 -5.7929c 0.0000,-3.5101 2.0510,-6.2998 5.5576 -6.2998c 3.2404,-0.0000 5.8291,2.2085 5.8291 5.9558Z"/></g><g stroke-linecap="butt" fill="rgb(0,0,0)" stroke-miterlimit="10.0" stroke-width="0.0" fill-opacity="1.0" stroke-opacity="1.0" stroke-linejoin="miter" stroke="rgb(0,0,0)"><path d="M 4.7375,67.2692 ZM 8.1951,65.0606 c 0.0000,1.5025 0.3077,1.5930 1.5749 1.6474c 0.1086,0.1086 0.1086,0.4888 0.0000 0.5974c -0.8146,-0.0181 -1.6908,-0.0362 -2.3353 -0.0362c -0.6571,-0.0000 -1.5387,0.0181 -2.3534 0.0362c -0.1086,-0.1086 -0.1086,-0.4888 0.0000 -0.5974c 1.2672,-0.0543 1.5749,-0.1448 1.5749 -1.6474v -7.2592 c 0.0000,-1.5025 -0.3077,-1.5930 -1.5749 -1.6474c -0.1086,-0.1086 -0.1086,-0.4888 0.0000 -0.5974c 0.8508,0.0181 1.7288,0.0362 2.3353 0.0362c 0.6970,-0.0000 1.5568,-0.0181 2.3534 -0.0362c 0.1086,0.1086 0.1086,0.4888 0.0000 0.5974c -1.2672,0.0543 -1.5749,0.1448 -1.5749 1.6474v 7.2592 ZM 14.6398,67.2692 ZM 30.1358,65.7848 h -0.6879 c 0.5431,-1.3034 1.4301,-2.2810 2.0094 -2.8421h -15.7495 v -0.9413 h 15.7495 c -0.5974,-0.4888 -1.3396,-1.3215 -2.0456 -2.8421h 0.7241 c 0.0000,0.0181 1.9551,2.3353 3.9102 3.1318v 0.4164 c -0.8870,0.3077 -2.3534,1.3215 -3.9102 3.0775ZM 39.6217,67.2692 ZM 45.6137,56.0092 c -1.7922,-0.0000 -3.5844,1.5387 -3.5844 5.3403c 0.0000,3.4757 2.0818,5.4490 4.2904 5.4490c 2.0637,-0.0000 3.6206,-1.9008 3.6206 -5.1412c 0.0000,-3.6568 -1.9370,-5.6481 -4.3266 -5.6481ZM 45.6137,56.0092 ZM 51.6781,61.3134 c 0.0000,1.5206 -0.3983,2.8295 -1.1188 3.8559c -0.9938,1.4175 -2.5959,2.2810 -4.6017 2.2810c -3.0775,-0.0000 -5.6662,-2.2266 -5.6662 -5.7929c 0.0000,-3.5101 2.0510,-6.2998 5.5576 -6.2998c 3.2404,-0.0000 5.8291,2.2085 5.8291 5.9558Z"/></g><g stroke-linecap="butt" fill="rgb(0,0,0)" stroke-miterlimit="10.0" stroke-width="0.0" fill-opacity="1.0" stroke-opacity="1.0" stroke-linejoin="miter" stroke="rgb(0,0,0)"><path d="M 46.5641,24.6651 ZM 50.0217,22.4566 c 0.0000,1.5025 0.3077,1.5930 1.5749 1.6474c 0.1086,0.1086 0.1086,0.4888 0.0000 0.5974c -0.8146,-0.0181 -1.6908,-0.0362 -2.3353 -0.0362c -0.6571,-0.0000 -1.5387,0.0181 -2.3534 0.0362c -0.1086,-0.1086 -0.1086,-0.4888 0.0000 -0.5974c 1.2672,-0.0543 1.5749,-0.1448 1.5749 -1.6474v -7.2592 c 0.0000,-1.5025 -0.3077,-1.5930 -1.5749 -1.6474c -0.1086,-0.1086 -0.1086,-0.4888 0.0000 -0.5974c 0.8508,0.0181 1.7288,0.0362 2.3353 0.0362c 0.6970,-0.0000 1.5568,-0.0181 2.3534 -0.0362c 0.1086,0.1086 0.1086,0.4888 0.0000 0.5974c -1.2672,0.0543 -1.5749,0.1448 -1.5749 1.6474v 7.2592 Z"/></g></svg>