<?xml version="1.0" encoding="UTF-8"?>
<!DOCTYPE svg PUBLIC "-//W3C//DTD SVG 1.1//EN"
    "http://www.w3.org/Graphics/SVG/1.1/DTD/svg11.dtd"><svg xmlns="http://www.w3.org/2000/svg" viewBox="0.0 0.0 115.74402606806662 109.42070963070239" height="109.4207" font-size="1" stroke-opacity="1" width="115.7440" xmlns:xlink="http://www.w3.org/1999/xlink" stroke="rgb(0,0,0)" version="1.1"><defs></defs><g><g stroke-linecap="butt" fill="rgb(0,0,0)" stroke-miterlimit="10.0" stroke-width="0.5" fill-opacity="0.0" stroke-opacity="1.0" stroke-linejoin="miter" stroke="rgb(0,0,0)"><path d="M 69.0949,85.8744 h 20.0000 "/></g><g stroke-linecap="butt" fill="rgb(0,0,0)" stroke-miterlimit="10.0" stroke-width="0.0" fill-opacity="1.0" stroke-opacity="1.0" stroke-linejoin="miter" stroke="rgb(0,0,0)"></g><g stroke-linecap="butt" fill="rgb(0,0,0)" stroke-miterlimit="10.0" stroke-width="0.0" fill-opacity="1.0" stroke-opacity="1.0" stroke-linejoin="miter" stroke="rgb(0,0,0)"></g><g stroke-linecap="butt" fill="rgb(0,0,0)" stroke-miterlimit="10.0" stroke-width="0.0" fill-opacity="1.0" stroke-opacity="1.0" stroke-linejoin="miter" stroke="rgb(0,0,0)"><path d="M 94.0949,85.8744 l -5.0000,-2.8868 v 5.7735 Z"/></g><g stroke-linecap="butt" fill="rgb(0,0,0)" stroke-miterlimit="10.0" stroke-width="0.0" fill-opacity="1.0" stroke-opacity="1.0" stroke-linejoin="miter" stroke="rgb(0,0,0)"></g><title>D</title></g><g stroke-linecap="butt" fill="rgb(255,255,255)" stroke-miterlimit="10.0" stroke-width="1.0" fill-opacity="1.0" stroke-opacity="1.0" stroke-linejoin="miter" stroke="rgb(0,0,0)"><path d="M 69.0949,104.6244 l -0.0000,-37.5000 h -21.6582 l -0.0000,37.5000 Z"/></g><g stroke-linecap="butt" fill="rgb(0,0,0)" stroke-miterlimit="10.0" stroke-width="0.0" fill-opacity="1.0" stroke-opacity="1.0" stroke-linejoin="miter" stroke="rgb(0,0,0)"><path d="M 51.7668,89.9385 ZM 57.7589,78.6785 c -1.7922,-0.0000 -3.5844,1.5387 -3.5844 5.3403c 0.0000,3.4757 2.0818,5.4490 4.2904 5.4490c 2.0637,-0.0000 3.6206,-1.9008 3.6206 -5.1412c 0.0000,-3.6568 -1.9370,-5.6481 -4.3266 -5.6481ZM 57.7589,78.6785 ZM 63.8233,83.9826 c 0.0000,1.5206 -0.3983,2.8295 -1.1188 3.8559c -0.8092,1.1531 -2.0221,1.9406 -3.5282 2.1941c -0.5902,0.1665 -1.4772,0.5431 -2.3751 1.2002c 0.1303,-0.0181 0.2516,-0.0272 0.3602 -0.0272c 1.0463,-0.0000 1.9533,0.3928 2.7969 0.7983c 0.7694,0.3693 1.4971,0.6861 2.2538 0.6861c 0.5250,-0.0000 1.1767,-0.1810 1.5749 -0.6698l 0.3077,0.2172 c -0.7060,1.0138 -1.4663,1.4844 -2.6068 1.4844c -1.2781,-0.0000 -2.1977,-0.4888 -3.0413 -0.9703c -0.7042,-0.4019 -1.3668,-0.7495 -2.1361 -0.7495c -0.1376,-0.0000 -0.3838,0.0597 -0.6390 0.2299c -0.2390,0.2552 -0.4689,0.5340 -0.6825 0.8382l -0.7060,-0.3621 c 0.0869,-0.1503 0.1955,-0.2896 0.3186 -0.4182c 0.6499,-0.7802 1.6582,-1.6365 2.7607 -2.2140c -2.7408,-0.3277 -4.9258,-2.4728 -4.9258 -5.7495c 0.0000,-3.5101 2.0510,-6.2998 5.5576 -6.2998c 3.2404,-0.0000 5.8291,2.2085 5.8291 5.9558Z"/></g><g><g stroke-linecap="butt" fill="rgb(0,0,0)" stroke-miterlimit="10.0" stroke-width="0.5" fill-opacity="0.0" stroke-opacity="1.0" stroke-linejoin="miter" stroke="rgb(0,0,0)"><path d="M 22.4366,98.3744 h 20.0000 "/></g><g stroke-linecap="butt" fill="rgb(0,0,0)" stroke-miterlimit="10.0" stroke-width="0.0" fill-opacity="1.0" stroke-opacity="1.0" stroke-linejoin="miter" stroke="rgb(0,0,0)"></g><g stroke-linecap="butt" fill="rgb(0,0,0)" stroke-miterlimit="10.0" stroke-width="0.0" fill-opacity="1.0" stroke-opacity="1.0" stroke-linejoin="miter" stroke="rgb(0,0,0)"></g><g stroke-linecap="butt" fill="rgb(0,0,0)" stroke-miterlimit="10.0" stroke-width="0.0" fill-opacity="1.0" stroke-opacity="1.0" stroke-linejoin="miter" stroke="rgb(0,0,0)"><path d="M 47.4366,98.3744 l -5.0000,-2.8868 v 5.7735 Z"/></g><g stroke-linecap="butt" fill="rgb(0,0,0)" stroke-miterlimit="10.0" stroke-width="0.0" fill-opacity="1.0" stroke-opacity="1.0" stroke-linejoin="miter" stroke="rgb(0,0,0)"></g><title>C</title></g><g><g stroke-linecap="butt" fill="rgb(0,0,0)" stroke-miterlimit="10.0" stroke-width="0.5" fill-opacity="0.0" stroke-opacity="1.0" stroke-linejoin="miter" stroke="rgb(0,0,0)"><path d="M 22.4366,73.3744 h 20.0000 "/></g><g stroke-linecap="butt" fill="rgb(0,0,0)" stroke-miterlimit="10.0" stroke-width="0.0" fill-opacity="1.0" stroke-opacity="1.0" stroke-linejoin="miter" stroke="rgb(0,0,0)"></g><g stroke-linecap="butt" fill="rgb(0,0,0)" stroke-miterlimit="10.0" stroke-width="0.0" fill-opacity="1.0" stroke-opacity="1.0" stroke-linejoin="miter" stroke="rgb(0,0,0)"></g><g stroke-linecap="butt" fill="rgb(0,0,0)" stroke-miterlimit="10.0" stroke-width="0.0" fill-opacity="1.0" stroke-opacity="1.0" stroke-linejoin="miter" stroke="rgb(0,0,0)"><path d="M 47.4366,73.3744 l -5.0000,-2.8868 v 5.7735 Z"/></g><g stroke-linecap="butt" fill="rgb(0,0,0)" stroke-miterlimit="10.0" stroke-width="0.0" fill-opacity="1.0" stroke-opacity="1.0" stroke-linejoin="miter" stroke="rgb(0,0,0)"></g><title>B</title></g><g><g stroke-linecap="butt" fill="rgb(0,0,0)" stroke-miterlimit="10.0" stroke-width="0.5" fill-opacity="0.0" stroke-opacity="1.0" stroke-linejoin="miter" stroke="rgb(0,0,0)"><path d="M 22.4366,23.3744 h 1.3532 "/></g><g stroke-linecap="butt" fill="rgb(0,0,0)" stroke-miterlimit="10.0" stroke-width="0.0" fill-opacity="1.0" stroke-opacity="1.0" stroke-linejoin="miter" stroke="rgb(0,0,0)"></g><g stroke-linecap="butt" fill="rgb(0,0,0)" stroke-miterlimit="10.0" stroke-width="0.0" fill-opacity="1.0" stroke-opacity="1.0" stroke-linejoin="miter" stroke="rgb(0,0,0)"></g><g stroke-linecap="butt" fill="rgb(0,0,0)" stroke-miterlimit="10.0" stroke-width="0.0" fill-opacity="1.0" stroke-opacity="1.0" stroke-linejoin="miter" stroke="rgb(0,0,0)"></g><g stroke-linecap="butt" fill="rgb(0,0,0)" stroke-miterlimit="10.0" stroke-width="0.0" fill-opacity="1.0" stroke-opacity="1.0" stroke-linejoin="miter" stroke="rgb(0,0,0)"></g><title>A</title></g><g><g stroke-linecap="butt" fill="rgb(0,0,0)" stroke-miterlimit="10.0" stroke-width="0.5" fill-opacity="0.0" stroke-opacity="1.0" stroke-linejoin="miter" stroke="rgb(0,0,0)"><path d="M 92.7417,10.8744 h 1.3532 "/></g><g stroke-linecap="butt" fill="rgb(0,0,0)" stroke-miterlimit="10.0" stroke-width="0.0" fill-opacity="1.0" stroke-opacity="1.0" stroke-linejoin="miter" stroke="rgb(0,0,0)"></g><g stroke-linecap="butt" fill="rgb(0,0,0)" stroke-miterlimit="10.0" stroke-width="0.0" fill-opacity="1.0" stroke-opacity="1.0" stroke-linejoin="miter" stroke="rgb(0,0,0)"></g><g stroke-linecap="butt" fill="rgb(0,0,0)" stroke-miterlimit="10.0" stroke-width="0.0" fill-opacity="1.0" stroke-opacity="1.0" stroke-linejoin="miter" stroke="rgb(0,0,0)"></g><g stroke-linecap="butt" fill="rgb(0,0,0)" stroke-miterlimit="10.0" stroke-width="0.0" fill-opacity="1.0" stroke-opacity="1.0" stroke-linejoin="miter" stroke="rgb(0,0,0)"></g><title>B</title></g><g><g stroke-linecap="butt" fill="rgb(0,0,0)" stroke-miterlimit="10.0" stroke-width="0.5" fill-opacity="0.0" stroke-opacity="1.0" stroke-linejoin="miter" stroke="rgb(0,0,0)"><path d="M 92.7417,35.8744 h 1.3532 "/></g><g stroke-linecap="butt" fill="rgb(0,0,0)" stroke-miterlimit="10.0" stroke-width="0.0" fill-opacity="1.0" stroke-opacity="1.0" stroke-linejoin="miter" stroke="rgb(0,0,0)"></g><g stroke-linecap="butt" fill="rgb(0,0,0)" stroke-miterlimit="10.0" stroke-width="0.0" fill-opacity="1.0" stroke-opacity="1.0" stroke-linejoin="miter" stroke="rgb(0,0,0)"></g><g stroke-linecap="butt" fill="rgb(0,0,0)" stroke-miterlimit="10.0" stroke-width="0.0" fill-opacity="1.0" stroke-opacity="1.0" stroke-linejoin="miter" stroke="rgb(0,0,0)"></g><g stroke-linecap="butt" fill="rgb(0,0,0)" stroke-miterlimit="10.0" stroke-width="0.0" fill-opacity="1.0" stroke-opacity="1.0" stroke-linejoin="miter" stroke="rgb(0,0,0)"></g><title>C</title></g><g><g stroke-linecap="butt" fill="rgb(0,0,0)" stroke-miterlimit="10.0" stroke-width="0.5" fill-opacity="0.0" stroke-opacity="1.0" stroke-linejoin="miter" stroke="rgb(0,0,0)"><path d="M 67.7417,35.8744 h 20.0000 "/></g><g stroke-linecap="butt" fill="rgb(0,0,0)" stroke-miterlimit="10.0" stroke-width="0.0" fill-opacity="1.0" stroke-opacity="1.0" stroke-linejoin="miter" stroke="rgb(0,0,0)"></g><g stroke-linecap="butt" fill="rgb(0,0,0)" stroke-miterlimit="10.0" stroke-width="0.0" fill-opacity="1.0" stroke-opacity="1.0" stroke-linejoin="miter" stroke="rgb(0,0,0)"></g><g stroke-linecap="butt" fill="rgb(0,0,0)" stroke-miterlimit="10.0" stroke-width="0.0" fill-opacity="1.0" stroke-opacity="1.0" stroke-linejoin="miter" stroke="rgb(0,0,0)"><path d="M 92.7417,35.8744 l -5.0000,-2.8868 v 5.7735 Z"/></g><g stroke-linecap="butt" fill="rgb(0,0,0)" stroke-miterlimit="10.0" stroke-width="0.0" fill-opacity="1.0" stroke-opacity="1.0" stroke-linejoin="miter" stroke="rgb(0,0,0)"></g><title>C</title></g><g><g stroke-linecap="butt" fill="rgb(0,0,0)" stroke-miterlimit="10.0" stroke-width="0.5" fill-opacity="0.0" stroke-opacity="1.0" stroke-linejoin="miter" stroke="rgb(0,0,0)"><path d="M 67.7417,10.8744 h 20.0000 "/></g><g stroke-linecap="butt" fill="rgb(0,0,0)" stroke-miterlimit="10.0" stroke-width="0.0" fill-opacity="1.0" stroke-opacity="1.0" stroke-linejoin="miter" stroke="rgb(0,0,0)"></g><g stroke-linecap="butt" fill="rgb(0,0,0)" stroke-miterlimit="10.0" stroke-width="0.0" fill-opacity="1.0" stroke-opacity="1.0" stroke-linejoin="miter" stroke="rgb(0,0,0)"></g><g stroke-linecap="butt" fill="rgb(0,0,0)" stroke-miterlimit="10.0" stroke-width="0.0" fill-opacity="1.0" stroke-opacity="1.0" stroke-linejoin="miter" stroke="rgb(0,0,0)"><path d="M 92.7417,10.8744 l -5.0000,-2.8868 v 5.7735 Z"/></g><g stroke-linecap="butt" fill="rgb(0,0,0)" stroke-miterlimit="10.0" stroke-width="0.0" fill-opacity="1.0" stroke-opacity="1.0" stroke-linejoin="miter" stroke="rgb(0,0,0)"></g><title>B</title></g><g stroke-linecap="butt" fill="rgb(255,255,255)" stroke-miterlimit="10.0" stroke-width="1.0" fill-opacity="1.0" stroke-opacity="1.0" stroke-linejoin="miter" stroke="rgb(0,0,0)"><path d="M 67.7417,42.1244 l -0.0000,-37.5000 h -18.9518 l -0.0000,37.5000 Z"/></g><g stroke-linecap="butt" fill="rgb(0,0,0)" stroke-miterlimit="10.0" stroke-width="0.0" fill-opacity="1.0" stroke-opacity="1.0" stroke-linejoin="miter" stroke="rgb(0,0,0)"><path d="M 53.5635,29.2578 ZM 56.9850,19.2288 v 4.2180 c 0.1991,0.0543 0.9232,0.0905 1.3758 0.0905c 1.7560,-0.0000 2.6973,-0.7965 2.6973 -2.7516c 0.0000,-2.2991 -1.2491,-2.7154 -2.4982 -2.7154c -1.3034,-0.0000 -1.5749,0.6336 -1.5749 1.1586ZM 56.9850,19.2288 ZM 55.4462,19.7900 c 0.0000,-1.5025 -0.3077,-1.5930 -1.5749 -1.6474c -0.1086,-0.1086 -0.1086,-0.4888 0.0000 -0.5974c 0.7241,0.0181 1.6709,0.0362 2.3353 0.0362c 0.7241,-0.0000 1.7867,-0.1267 2.4801 -0.1267c 3.3490,-0.0000 4.0550,1.9370 4.0550 3.0051c 0.0000,1.5387 -0.9957,3.6930 -4.2904 3.6930c -0.6336,-0.0000 -1.0681,-0.0543 -1.4663 -0.1810v 3.0775 c 0.0000,1.5025 0.4345,1.5749 1.8465 1.6474c 0.1086,0.1086 0.1086,0.4888 0.0000 0.5974c -0.9051,-0.0181 -1.9660,-0.0362 -2.6068 -0.0362c -0.6463,-0.0000 -1.5387,0.0181 -2.3534 0.0362c -0.1086,-0.1086 -0.1086,-0.4888 0.0000 -0.5974c 1.2672,-0.0543 1.5749,-0.1448 1.5749 -1.6474v -7.2592 Z"/></g><g><g stroke-linecap="butt" fill="rgb(0,0,0)" stroke-miterlimit="10.0" stroke-width="0.5" fill-opacity="0.0" stroke-opacity="1.0" stroke-linejoin="miter" stroke="rgb(0,0,0)"><path d="M 23.7898,23.3744 h 20.0000 "/></g><g stroke-linecap="butt" fill="rgb(0,0,0)" stroke-miterlimit="10.0" stroke-width="0.0" fill-opacity="1.0" stroke-opacity="1.0" stroke-linejoin="miter" stroke="rgb(0,0,0)"></g><g stroke-linecap="butt" fill="rgb(0,0,0)" stroke-miterlimit="10.0" stroke-width="0.0" fill-opacity="1.0" stroke-opacity="1.0" stroke-linejoin="miter" stroke="rgb(0,0,0)"></g><g stroke-linecap="butt" fill="rgb(0,0,0)" stroke-miterlimit="10.0" stroke-width="0.0" fill-opacity="1.0" stroke-opacity="1.0" stroke-linejoin="miter" stroke="rgb(0,0,0)"><path d="M 48.7898,23.3744 l -5.0000,-2.8868 v 5.7735 Z"/></g><g stroke-linecap="butt" fill="rgb(0,0,0)" stroke-miterlimit="10.0" stroke-width="0.0" fill-opacity="1.0" stroke-opacity="1.0" stroke-linejoin="miter" stroke="rgb(0,0,0)"></g><title>A</title></g><g stroke-linecap="butt" fill="rgb(0,0,0)" stroke-miterlimit="10.0" stroke-width="0.0" fill-opacity="1.0" stroke-opacity="1.0" stroke-linejoin="miter" stroke="rgb(0,0,0)"><path d="M 98.8324,91.7125 ZM 102.2900,90.1919 c 0.0000,0.5793 0.1991,0.9413 1.9732 0.9413c 2.5525,-0.0000 4.7429,-0.9051 4.7429 -4.5619c 0.0000,-2.7878 -1.2853,-5.9558 -5.1955 -5.9558c -0.8870,-0.0000 -1.5206,0.2534 -1.5206 0.8870v 8.6894 ZM 102.2900,90.1919 ZM 101.5116,80.0362 c 0.7060,-0.0000 1.7017,-0.0362 2.9870 -0.0362c 3.4757,-0.0000 6.2455,2.7697 6.2455 6.1369c 0.0000,4.4533 -3.3671,5.6119 -5.9196 5.6119c -1.8646,-0.0000 -2.6249,-0.0362 -3.2947 -0.0362c -0.6825,-0.0000 -1.6474,0.0181 -2.3534 0.0362c -0.1086,-0.1086 -0.1086,-0.4888 0.0000 -0.5974c 1.2672,-0.0543 1.5749,-0.1448 1.5749 -1.6474v -7.2592 c 0.0000,-1.5025 -0.3077,-1.5930 -1.5749 -1.6474c -0.1086,-0.1086 -0.1086,-0.4888 0.0000 -0.5974c 0.7241,0.0181 1.6890,0.0362 2.3353 0.0362Z"/></g><g stroke-linecap="butt" fill="rgb(0,0,0)" stroke-miterlimit="10.0" stroke-width="0.0" fill-opacity="1.0" stroke-opacity="1.0" stroke-linejoin="miter" stroke="rgb(0,0,0)"><path d="M 98.4251,41.7397 ZM 104.8878,41.9207 c -3.8921,-0.0000 -5.7929,-2.6466 -5.7929 -5.7929c 0.0000,-1.8881 0.7169,-3.6604 1.9189 -4.7610c 1.0681,-0.9776 2.3534,-1.5387 3.8921 -1.5387c 2.2266,-0.0000 3.0413,0.7241 3.9645 0.8146c 0.1810,0.9957 0.3077,1.8646 0.3983 2.8059c -0.2046,0.1086 -0.3802,0.1629 -0.5974 0.0905c -0.4707,-1.5568 -1.4663,-3.0413 -3.9645 -3.0413c -0.9413,-0.0000 -1.9913,0.5069 -2.8892 1.6112c -0.6608,0.8128 -1.0753,2.1126 -1.0753 3.6749c 0.0000,2.6430 1.6908,5.3946 4.1274 5.3946c 1.6836,-0.0000 2.9146,-0.5612 4.1999 -1.9732c 0.1991,-0.0000 0.3259,0.1086 0.4164 0.2715c -1.2310,1.6112 -2.8421,2.4439 -4.5981 2.4439Z"/></g><g stroke-linecap="butt" fill="rgb(0,0,0)" stroke-miterlimit="10.0" stroke-width="0.0" fill-opacity="1.0" stroke-opacity="1.0" stroke-linejoin="miter" stroke="rgb(0,0,0)"><path d="M 98.8324,16.7125 ZM 102.2900,6.7560 v 3.3309 h 1.3396 c 1.5025,-0.0000 2.5706,-0.5431 2.5706 -2.0818c 0.0000,-1.8465 -1.3215,-2.3896 -2.3353 -2.3896c -1.5749,-0.0000 -1.5749,0.1810 -1.5749 1.1405ZM 102.2900,6.7560 ZM 102.2900,10.7024 v 3.8740 c 0.0000,1.1043 0.2353,1.5749 1.5025 1.5749c 2.7516,-0.0000 3.2585,-1.1043 3.2585 -2.4258c 0.0000,-1.6293 -1.0319,-3.0232 -3.5119 -3.0232h -1.2491 ZM 102.2900,10.7024 ZM 101.5116,5.0362 c 0.6517,-0.0000 1.6293,-0.0362 2.2629 -0.0362c 3.3671,-0.0000 3.8921,1.5749 3.8921 2.7878c 0.0000,0.9830 -0.8128,1.9117 -1.7198 2.3715v 0.0362 c 1.5749,0.4526 2.7878,1.4482 2.7878 3.1861c 0.0000,1.5568 -0.9594,3.3671 -4.5619 3.3671c -1.5206,-0.0000 -1.9967,-0.0362 -2.6430 -0.0362c -0.6716,-0.0000 -1.6474,0.0181 -2.3534 0.0362c -0.1086,-0.1086 -0.1086,-0.4888 0.0000 -0.5974c 1.2672,-0.0543 1.5749,-0.1448 1.5749 -1.6474v -7.2592 c 0.0000,-1.5025 -0.3077,-1.5930 -1.5749 -1.6474c -0.1086,-0.1086 -0.1086,-0.4888 0.0000 -0.5974c 0.7060,0.0181 1.6890,0.0362 2.3353 0.0362Z"/></g><g stroke-linecap="butt" fill="rgb(0,0,0)" stroke-miterlimit="10.0" stroke-width="0.0" fill-opacity="1.0" stroke-opacity="1.0" stroke-linejoin="miter" stroke="rgb(0,0,0)"><path d="M 6.3758,104.2397 ZM 12.8385,104.4207 c -3.8921,-0.0000 -5.7929,-2.6466 -5.7929 -5.7929c 0.0000,-1.8881 0.7169,-3.6604 1.9189 -4.7610c 1.0681,-0.9776 2.3534,-1.5387 3.8921 -1.5387c 2.2266,-0.0000 3.0413,0.7241 3.9645 0.8146c 0.1810,0.9957 0.3077,1.8646 0.3983 2.8059c -0.2046,0.1086 -0.3802,0.1629 -0.5974 0.0905c -0.4707,-1.5568 -1.4663,-3.0413 -3.9645 -3.0413c -0.9413,-0.0000 -1.9913,0.5069 -2.8892 1.6112c -0.6608,0.8128 -1.0753,2.1126 -1.0753 3.6749c 0.0000,2.6430 1.6908,5.3946 4.1274 5.3946c 1.6836,-0.0000 2.9146,-0.5612 4.1999 -1.9732c 0.1991,-0.0000 0.3259,0.1086 0.4164 0.2715c -1.2310,1.6112 -2.8421,2.4439 -4.5981 2.4439Z"/></g><g stroke-linecap="butt" fill="rgb(0,0,0)" stroke-miterlimit="10.0" stroke-width="0.0" fill-opacity="1.0" stroke-opacity="1.0" stroke-linejoin="miter" stroke="rgb(0,0,0)"><path d="M 7.5344,79.2125 ZM 10.9920,69.2560 v 3.3309 h 1.3396 c 1.5025,-0.0000 2.5706,-0.5431 2.5706 -2.0818c 0.0000,-1.8465 -1.3215,-2.3896 -2.3353 -2.3896c -1.5749,-0.0000 -1.5749,0.1810 -1.5749 1.1405ZM 10.9920,69.2560 ZM 10.9920,73.2024 v 3.8740 c 0.0000,1.1043 0.2353,1.5749 1.5025 1.5749c 2.7516,-0.0000 3.2585,-1.1043 3.2585 -2.4258c 0.0000,-1.6293 -1.0319,-3.0232 -3.5119 -3.0232h -1.2491 ZM 10.9920,73.2024 ZM 10.2136,67.5362 c 0.6517,-0.0000 1.6293,-0.0362 2.2629 -0.0362c 3.3671,-0.0000 3.8921,1.5749 3.8921 2.7878c 0.0000,0.9830 -0.8128,1.9117 -1.7198 2.3715v 0.0362 c 1.5749,0.4526 2.7878,1.4482 2.7878 3.1861c 0.0000,1.5568 -0.9594,3.3671 -4.5619 3.3671c -1.5206,-0.0000 -1.9967,-0.0362 -2.6430 -0.0362c -0.6716,-0.0000 -1.6474,0.0181 -2.3534 0.0362c -0.1086,-0.1086 -0.1086,-0.4888 0.0000 -0.5974c 1.2672,-0.0543 1.5749,-0.1448 1.5749 -1.6474v -7.2592 c 0.0000,-1.5025 -0.3077,-1.5930 -1.5749 -1.6474c -0.1086,-0.1086 -0.1086,-0.4888 0.0000 -0.5974c 0.7060,0.0181 1.6890,0.0362 2.3353 0.0362Z"/></g><g stroke-linecap="butt" fill="rgb(0,0,0)" stroke-miterlimit="10.0" stroke-width="0.0" fill-opacity="1.0" stroke-opacity="1.0" stroke-linejoin="miter" stroke="rgb(0,0,0)"><path d="M 4.9547,29.3121 ZM 9.7158,24.1890 h 3.2042 l -1.7017,-4.9240 h -0.1086 l -1.8501,4.6832 c -0.0688,0.1865 0.0579,0.2408 0.4562 0.2408ZM 9.7158,24.1890 ZM 7.7607,27.8820 c -0.2824,0.7440 0.5684,0.8219 1.2491 0.8689c 0.1086,0.1086 0.1086,0.4888 0.0000 0.5974c -0.6698,-0.0181 -1.5749,-0.0362 -2.3172 -0.0362c -0.5485,-0.0000 -1.1405,0.0181 -1.6112 0.0362c -0.1086,-0.1086 -0.1086,-0.4888 0.0000 -0.5974c 0.7875,-0.0543 1.3396,-0.1629 1.8103 -1.2853l 4.1093,-9.7031 c 0.2353,-0.0000 0.7241,-0.1991 0.9957 -0.3621l 3.7292,10.3548 c 0.3150,0.8726 0.9269,0.9323 1.6293 0.9957c 0.1086,0.1086 0.1086,0.4888 0.0000 0.5974c -0.6336,-0.0181 -1.3215,-0.0362 -2.0637 -0.0362c -0.7060,-0.0000 -1.7017,0.0181 -2.3715 0.0362c -0.1086,-0.1086 -0.1086,-0.4888 0.0000 -0.5974c 0.8617,-0.0615 1.5532,-0.1177 1.3396 -0.7422l -1.0500,-3.0594 h -3.8197 c -0.4345,-0.0000 -0.5431,0.0724 -0.6336 0.3077Z"/></g></svg>