<?xml version="1.0" encoding="UTF-8"?>
<!DOCTYPE svg PUBLIC "-//W3C//DTD SVG 1.1//EN"
    "http://www.w3.org/Graphics/SVG/1.1/DTD/svg11.dtd"><svg xmlns="http://www.w3.org/2000/svg" viewBox="0.0 0.0 243.2533393341532 49.22881969587255" height="49.2288" font-size="1" stroke-opacity="1" width="243.2533" xmlns:xlink="http://www.w3.org/1999/xlink" stroke="rgb(0,0,0)" version="1.1"><defs></defs><g><g stroke-linecap="butt" fill="rgb(0,0,0)" stroke-miterlimit="10.0" stroke-width="0.5" fill-opacity="0.0" stroke-opacity="1.0" stroke-linejoin="miter" stroke="rgb(0,0,0)"><path d="M 166.7074,35.9739 h 20.0000 "/></g><g stroke-linecap="butt" fill="rgb(0,0,0)" stroke-miterlimit="10.0" stroke-width="0.0" fill-opacity="1.0" stroke-opacity="1.0" stroke-linejoin="miter" stroke="rgb(0,0,0)"></g><g stroke-linecap="butt" fill="rgb(0,0,0)" stroke-miterlimit="10.0" stroke-width="0.0" fill-opacity="1.0" stroke-opacity="1.0" stroke-linejoin="miter" stroke="rgb(0,0,0)"></g><g stroke-linecap="butt" fill="rgb(0,0,0)" stroke-miterlimit="10.0" stroke-width="0.0" fill-opacity="1.0" stroke-opacity="1.0" stroke-linejoin="miter" stroke="rgb(0,0,0)"><path d="M 191.7074,35.9739 l -5.0000,-2.8868 v 5.7735 Z"/></g><g stroke-linecap="butt" fill="rgb(0,0,0)" stroke-miterlimit="10.0" stroke-width="0.0" fill-opacity="1.0" stroke-opacity="1.0" stroke-linejoin="miter" stroke="rgb(0,0,0)"></g><title>X ⊕ Y</title></g><g stroke-linecap="butt" fill="rgb(255,255,255)" stroke-miterlimit="10.0" stroke-width="1.0" fill-opacity="1.0" stroke-opacity="1.0" stroke-linejoin="miter" stroke="rgb(0,0,0)"><path d="M 166.7074,35.9739 l -8.8388,-8.8388 l -8.8388,8.8388 l 8.8388,8.8388 Z"/></g><g><g stroke-linecap="butt" fill="rgb(0,0,0)" stroke-miterlimit="10.0" stroke-width="0.5" fill-opacity="0.0" stroke-opacity="1.0" stroke-linejoin="miter" stroke="rgb(0,0,0)"><path d="M 124.0297,35.9739 h 20.0000 "/></g><g stroke-linecap="butt" fill="rgb(0,0,0)" stroke-miterlimit="10.0" stroke-width="0.0" fill-opacity="1.0" stroke-opacity="1.0" stroke-linejoin="miter" stroke="rgb(0,0,0)"></g><g stroke-linecap="butt" fill="rgb(0,0,0)" stroke-miterlimit="10.0" stroke-width="0.0" fill-opacity="1.0" stroke-opacity="1.0" stroke-linejoin="miter" stroke="rgb(0,0,0)"></g><g stroke-linecap="butt" fill="rgb(0,0,0)" stroke-miterlimit="10.0" stroke-width="0.0" fill-opacity="1.0" stroke-opacity="1.0" stroke-linejoin="miter" stroke="rgb(0,0,0)"><path d="M 149.0297,35.9739 l -5.0000,-2.8868 v 5.7735 Z"/></g><g stroke-linecap="butt" fill="rgb(0,0,0)" stroke-miterlimit="10.0" stroke-width="0.0" fill-opacity="1.0" stroke-opacity="1.0" stroke-linejoin="miter" stroke="rgb(0,0,0)"></g><title>(A ∙ X) ⊕ (A ∙ Y)</title></g><g><g stroke-linecap="butt" fill="rgb(0,0,0)" stroke-miterlimit="10.0" stroke-width="0.5" fill-opacity="0.0" stroke-opacity="1.0" stroke-linejoin="miter" stroke="rgb(0,0,0)"><path d="M 166.7074,10.9739 h 20.0000 "/></g><g stroke-linecap="butt" fill="rgb(0,0,0)" stroke-miterlimit="10.0" stroke-width="0.0" fill-opacity="1.0" stroke-opacity="1.0" stroke-linejoin="miter" stroke="rgb(0,0,0)"></g><g stroke-linecap="butt" fill="rgb(0,0,0)" stroke-miterlimit="10.0" stroke-width="0.0" fill-opacity="1.0" stroke-opacity="1.0" stroke-linejoin="miter" stroke="rgb(0,0,0)"></g><g stroke-linecap="butt" fill="rgb(0,0,0)" stroke-miterlimit="10.0" stroke-width="0.0" fill-opacity="1.0" stroke-opacity="1.0" stroke-linejoin="miter" stroke="rgb(0,0,0)"><path d="M 191.7074,10.9739 l -5.0000,-2.8868 v 5.7735 Z"/></g><g stroke-linecap="butt" fill="rgb(0,0,0)" stroke-miterlimit="10.0" stroke-width="0.0" fill-opacity="1.0" stroke-opacity="1.0" stroke-linejoin="miter" stroke="rgb(0,0,0)"></g><title>A</title></g><g><g stroke-linecap="butt" fill="rgb(0,0,0)" stroke-miterlimit="10.0" stroke-width="0.5" fill-opacity="0.0" stroke-opacity="1.0" stroke-linejoin="miter" stroke="rgb(0,0,0)"><path d="M 166.7074,10.9739 l -8.8388,16.1612 "/></g><g stroke-linecap="butt" fill="rgb(0,0,0)" stroke-miterlimit="10.0" stroke-width="0.0" fill-opacity="1.0" stroke-opacity="1.0" stroke-linejoin="miter" stroke="rgb(0,0,0)"></g><g stroke-linecap="butt" fill="rgb(0,0,0)" stroke-miterlimit="10.0" stroke-width="0.0" fill-opacity="1.0" stroke-opacity="1.0" stroke-linejoin="miter" stroke="rgb(0,0,0)"></g><g stroke-linecap="butt" fill="rgb(0,0,0)" stroke-miterlimit="10.0" stroke-width="0.0" fill-opacity="1.0" stroke-opacity="1.0" stroke-linejoin="miter" stroke="rgb(0,0,0)"></g><g stroke-linecap="butt" fill="rgb(0,0,0)" stroke-miterlimit="10.0" stroke-width="0.0" fill-opacity="1.0" stroke-opacity="1.0" stroke-linejoin="miter" stroke="rgb(0,0,0)"></g><title>A</title></g><g stroke-linecap="butt" fill="rgb(0,0,0)" stroke-miterlimit="10.0" stroke-width="0.0" fill-opacity="1.0" stroke-opacity="1.0" stroke-linejoin="miter" stroke="rgb(0,0,0)"><path d="M 196.6621,41.7397 ZM 206.4014,39.8932 c 0.7676,1.0554 1.0681,1.2310 1.8284 1.2853c 0.1086,0.1086 0.1267,0.4888 0.0181 0.5974c -0.5431,-0.0181 -1.1405,-0.0362 -1.8465 -0.0362c -0.7241,-0.0000 -1.3939,0.0181 -2.0637 0.0362c -0.1086,-0.1086 -0.1086,-0.4888 0.0000 -0.5974c 1.0138,-0.0543 0.9377,-0.2516 0.4254 -0.9812l -2.2357,-3.1825 c -0.1014,-0.1448 -0.1810,-0.1991 -0.2534 -0.1991c -0.0543,-0.0000 -0.1684,0.1086 -0.2715 0.2534l -2.3896,3.3490 c -0.4381,0.6155 -0.0959,0.7060 0.7060 0.7603c 0.1086,0.1086 0.1086,0.4888 0.0000 0.5974c -0.7241,-0.0181 -1.4844,-0.0362 -1.9008 -0.0362c -0.4164,-0.0000 -1.0862,0.0181 -1.6293 0.0362c -0.1086,-0.1086 -0.1086,-0.4888 0.0000 -0.5974c 0.8092,-0.0778 1.3885,-0.2915 2.0094 -1.1224l 2.6792,-3.5844 c 0.1068,-0.1430 0.1810,-0.3077 0.1810 -0.4164c 0.0000,-0.1810 -0.1050,-0.3313 -0.2534 -0.5431l -2.5760,-3.6749 c -0.7458,-1.0626 -1.0807,-1.1586 -1.8411 -1.2129c -0.1086,-0.1086 -0.1267,-0.4888 -0.0181 -0.5974c 0.5431,0.0181 1.1405,0.0362 1.8465 0.0362c 0.7241,-0.0000 1.3939,-0.0181 2.0637 -0.0362c 0.1086,0.1086 0.1086,0.4888 0.0000 0.5974c -1.0138,0.0543 -0.9359,0.2571 -0.4254 0.9812l 2.0004,2.9652 c 0.0869,0.1267 0.1629,0.1991 0.2172 0.1991c 0.0724,-0.0000 0.1810,-0.0634 0.2896 -0.2172l 2.2266,-3.1680 c 0.4254,-0.6046 0.0959,-0.7060 -0.7060 -0.7603c -0.1086,-0.1086 -0.1086,-0.4888 0.0000 -0.5974c 0.7241,0.0181 1.4844,0.0362 1.9008 0.0362c 0.4164,-0.0000 1.0862,-0.0181 1.6293 -0.0362c 0.1086,0.1086 0.1086,0.4888 0.0000 0.5974c -0.8092,0.0778 -1.3812,0.3096 -2.0094 1.1224l -2.4801,3.2042 c -0.1647,0.2136 -0.1810,0.3802 -0.1810 0.5431c 0.0000,0.1810 0.1122,0.3548 0.2896 0.5974ZM 213.1357,41.7397 ZM 218.2226,41.9207 c -2.2448,-0.0000 -4.0731,-1.8284 -4.0731 -4.0550c 0.0000,-2.2266 1.8465,-4.0731 4.0731 -4.0731c 2.2448,-0.0000 4.1093,1.8465 4.1093 4.0731c 0.0000,2.2448 -1.8646,4.0550 -4.1093 4.0550ZM 218.2226,41.9207 ZM 218.6751,34.5293 v 2.9924 h 2.8440 c -0.1503,-1.5514 -1.3143,-2.7878 -2.8440 -2.9924ZM 218.6751,34.5293 ZM 218.6751,41.1839 c 1.5116,-0.2046 2.6828,-1.4156 2.8421 -2.9562h -2.8421 v 2.9562 ZM 218.6751,41.1839 ZM 217.8605,41.1948 v -2.9671 h -2.8965 c 0.1593,1.5587 1.3342,2.8005 2.8965 2.9671ZM 217.8605,41.1948 ZM 217.8605,34.5185 c -1.5695,0.1702 -2.7462,1.4337 -2.8983 3.0033h 2.8983 v -3.0033 ZM 227.8714,41.7397 ZM 233.9720,39.5311 c 0.0000,1.5025 0.3077,1.5930 1.7560 1.6474c 0.1086,0.1086 0.1086,0.4888 0.0000 0.5974c -0.9051,-0.0181 -1.8157,-0.0362 -2.5163 -0.0362c -0.6988,-0.0000 -1.6474,0.0181 -2.5344 0.0362c -0.1086,-0.1086 -0.1086,-0.4888 0.0000 -0.5974c 1.4482,-0.0543 1.7560,-0.1448 1.7560 -1.6474v -2.2991 c 0.0000,-0.6698 -0.0634,-0.8599 -0.3802 -1.3939l -2.3769,-4.0007 c -0.6245,-1.0518 -0.9359,-1.1586 -1.6962 -1.2129c -0.1086,-0.1086 -0.1267,-0.4888 -0.0181 -0.5974c 0.5431,0.0181 1.1405,0.0362 1.8465 0.0362c 0.7241,-0.0000 1.4120,-0.0181 2.0637 -0.0362c 0.1086,0.1086 0.1086,0.4888 0.0000 0.5974c -1.0138,0.0543 -1.0862,0.2281 -0.6481 0.9993l 2.0999,3.7075 c 0.1629,0.2878 0.2498,0.3114 0.3946 0.0362l 2.0058,-3.7835 c 0.3874,-0.7314 0.0996,-0.9051 -0.7024 -0.9594c -0.1086,-0.1086 -0.1086,-0.4888 0.0000 -0.5974c 0.5793,0.0181 1.2310,0.0362 1.6474 0.0362c 0.4164,-0.0000 0.9957,-0.0181 1.5025 -0.0362c 0.1086,0.1086 0.1086,0.4888 0.0000 0.5974c -0.8092,0.0778 -1.2129,0.2408 -1.7198 1.1586l -2.1633,3.9102 c -0.2969,0.5358 -0.3168,0.8418 -0.3168 1.3812v 2.4566 Z"/></g><g stroke-linecap="butt" fill="rgb(0,0,0)" stroke-miterlimit="10.0" stroke-width="0.0" fill-opacity="1.0" stroke-opacity="1.0" stroke-linejoin="miter" stroke="rgb(0,0,0)"><path d="M 196.6621,16.9117 ZM 201.4231,11.7886 h 3.2042 l -1.7017,-4.9240 h -0.1086 l -1.8501,4.6832 c -0.0688,0.1865 0.0579,0.2408 0.4562 0.2408ZM 201.4231,11.7886 ZM 199.4680,15.4815 c -0.2824,0.7440 0.5684,0.8219 1.2491 0.8689c 0.1086,0.1086 0.1086,0.4888 0.0000 0.5974c -0.6698,-0.0181 -1.5749,-0.0362 -2.3172 -0.0362c -0.5485,-0.0000 -1.1405,0.0181 -1.6112 0.0362c -0.1086,-0.1086 -0.1086,-0.4888 0.0000 -0.5974c 0.7875,-0.0543 1.3396,-0.1629 1.8103 -1.2853l 4.1093,-9.7031 c 0.2353,-0.0000 0.7241,-0.1991 0.9957 -0.3621l 3.7292,10.3548 c 0.3150,0.8726 0.9269,0.9323 1.6293 0.9957c 0.1086,0.1086 0.1086,0.4888 0.0000 0.5974c -0.6336,-0.0181 -1.3215,-0.0362 -2.0637 -0.0362c -0.7060,-0.0000 -1.7017,0.0181 -2.3715 0.0362c -0.1086,-0.1086 -0.1086,-0.4888 0.0000 -0.5974c 0.8617,-0.0615 1.5532,-0.1177 1.3396 -0.7422l -1.0500,-3.0594 h -3.8197 c -0.4345,-0.0000 -0.5431,0.0724 -0.6336 0.3077Z"/></g><g stroke-linecap="butt" fill="rgb(0,0,0)" stroke-miterlimit="10.0" stroke-width="0.0" fill-opacity="1.0" stroke-opacity="1.0" stroke-linejoin="miter" stroke="rgb(0,0,0)"><path d="M 4.2035,40.5358 ZM 5.0000,35.9739 c 0.0000,-3.3671 1.6836,-6.3903 3.8378 -8.2368c 0.2064,0.0145 0.3186,0.1394 0.3802 0.3259c -0.5793,0.6517 -2.7154,3.1499 -2.7154 7.9109c 0.0000,4.7610 2.1180,7.2592 2.7154 7.9471c -0.0543,0.1448 -0.1991,0.2715 -0.3802 0.3077c -3.7654,-3.2585 -3.8378,-7.4403 -3.8378 -8.2549ZM 9.5981,40.5358 ZM 14.3592,35.4127 h 3.2042 l -1.7017,-4.9240 h -0.1086 l -1.8501,4.6832 c -0.0688,0.1865 0.0579,0.2408 0.4562 0.2408ZM 14.3592,35.4127 ZM 12.4041,39.1057 c -0.2824,0.7440 0.5684,0.8219 1.2491 0.8689c 0.1086,0.1086 0.1086,0.4888 0.0000 0.5974c -0.6698,-0.0181 -1.5749,-0.0362 -2.3172 -0.0362c -0.5485,-0.0000 -1.1405,0.0181 -1.6112 0.0362c -0.1086,-0.1086 -0.1086,-0.4888 0.0000 -0.5974c 0.7875,-0.0543 1.3396,-0.1629 1.8103 -1.2853l 4.1093,-9.7031 c 0.2353,-0.0000 0.7241,-0.1991 0.9957 -0.3621l 3.7292,10.3548 c 0.3150,0.8726 0.9269,0.9323 1.6293 0.9957c 0.1086,0.1086 0.1086,0.4888 0.0000 0.5974c -0.6336,-0.0181 -1.3215,-0.0362 -2.0637 -0.0362c -0.7060,-0.0000 -1.7017,0.0181 -2.3715 0.0362c -0.1086,-0.1086 -0.1086,-0.4888 0.0000 -0.5974c 0.8617,-0.0615 1.5532,-0.1177 1.3396 -0.7422l -1.0500,-3.0594 h -3.8197 c -0.4345,-0.0000 -0.5431,0.0724 -0.6336 0.3077ZM 26.7053,40.5358 ZM 29.0043,36.9515 c -0.5069,-0.0000 -0.9776,-0.4707 -0.9776 -0.9776c 0.0000,-0.5069 0.4707,-0.9776 0.9776 -0.9776c 0.5069,-0.0000 0.9776,0.4707 0.9776 0.9776c 0.0000,0.5069 -0.4707,0.9776 -0.9776 0.9776ZM 35.8110,40.5358 ZM 45.5503,38.6894 c 0.7676,1.0554 1.0681,1.2310 1.8284 1.2853c 0.1086,0.1086 0.1267,0.4888 0.0181 0.5974c -0.5431,-0.0181 -1.1405,-0.0362 -1.8465 -0.0362c -0.7241,-0.0000 -1.3939,0.0181 -2.0637 0.0362c -0.1086,-0.1086 -0.1086,-0.4888 0.0000 -0.5974c 1.0138,-0.0543 0.9377,-0.2516 0.4254 -0.9812l -2.2357,-3.1825 c -0.1014,-0.1448 -0.1810,-0.1991 -0.2534 -0.1991c -0.0543,-0.0000 -0.1684,0.1086 -0.2715 0.2534l -2.3896,3.3490 c -0.4381,0.6155 -0.0959,0.7060 0.7060 0.7603c 0.1086,0.1086 0.1086,0.4888 0.0000 0.5974c -0.7241,-0.0181 -1.4844,-0.0362 -1.9008 -0.0362c -0.4164,-0.0000 -1.0862,0.0181 -1.6293 0.0362c -0.1086,-0.1086 -0.1086,-0.4888 0.0000 -0.5974c 0.8092,-0.0778 1.3885,-0.2915 2.0094 -1.1224l 2.6792,-3.5844 c 0.1068,-0.1430 0.1810,-0.3077 0.1810 -0.4164c 0.0000,-0.1810 -0.1050,-0.3313 -0.2534 -0.5431l -2.5760,-3.6749 c -0.7458,-1.0626 -1.0807,-1.1586 -1.8411 -1.2129c -0.1086,-0.1086 -0.1267,-0.4888 -0.0181 -0.5974c 0.5431,0.0181 1.1405,0.0362 1.8465 0.0362c 0.7241,-0.0000 1.3939,-0.0181 2.0637 -0.0362c 0.1086,0.1086 0.1086,0.4888 0.0000 0.5974c -1.0138,0.0543 -0.9359,0.2571 -0.4254 0.9812l 2.0004,2.9652 c 0.0869,0.1267 0.1629,0.1991 0.2172 0.1991c 0.0724,-0.0000 0.1810,-0.0634 0.2896 -0.2172l 2.2266,-3.1680 c 0.4254,-0.6046 0.0959,-0.7060 -0.7060 -0.7603c -0.1086,-0.1086 -0.1086,-0.4888 0.0000 -0.5974c 0.7241,0.0181 1.4844,0.0362 1.9008 0.0362c 0.4164,-0.0000 1.0862,-0.0181 1.6293 -0.0362c 0.1086,0.1086 0.1086,0.4888 0.0000 0.5974c -0.8092,0.0778 -1.3812,0.3096 -2.0094 1.1224l -2.4801,3.2042 c -0.1647,0.2136 -0.1810,0.3802 -0.1810 0.5431c 0.0000,0.1810 0.1122,0.3548 0.2896 0.5974ZM 47.7589,40.5358 ZM 52.3570,35.9739 c 0.0000,3.3671 -1.6836,6.3903 -3.8378 8.2368c -0.2064,-0.0145 -0.3186,-0.1394 -0.3802 -0.3259c 0.5793,-0.6517 2.7154,-3.1499 2.7154 -7.9109c 0.0000,-4.7610 -2.1180,-7.2592 -2.7154 -7.9471c 0.0543,-0.1448 0.1991,-0.2715 0.3802 -0.3077c 3.7654,3.2585 3.8378,7.4403 3.8378 8.2549ZM 57.6792,40.5358 ZM 62.7661,40.7169 c -2.2448,-0.0000 -4.0731,-1.8284 -4.0731 -4.0550c 0.0000,-2.2266 1.8465,-4.0731 4.0731 -4.0731c 2.2448,-0.0000 4.1093,1.8465 4.1093 4.0731c 0.0000,2.2448 -1.8646,4.0550 -4.1093 4.0550ZM 62.7661,40.7169 ZM 63.2187,33.3255 v 2.9924 h 2.8440 c -0.1503,-1.5514 -1.3143,-2.7878 -2.8440 -2.9924ZM 63.2187,33.3255 ZM 63.2187,39.9801 c 1.5116,-0.2046 2.6828,-1.4156 2.8421 -2.9562h -2.8421 v 2.9562 ZM 63.2187,39.9801 ZM 62.4041,39.9909 v -2.9671 h -2.8965 c 0.1593,1.5587 1.3342,2.8005 2.8965 2.9671ZM 62.4041,39.9909 ZM 62.4041,33.3146 c -1.5695,0.1702 -2.7462,1.4337 -2.8983 3.0033h 2.8983 v -3.0033 ZM 72.4149,40.5358 ZM 73.2114,35.9739 c 0.0000,-3.3671 1.6836,-6.3903 3.8378 -8.2368c 0.2064,0.0145 0.3186,0.1394 0.3802 0.3259c -0.5793,0.6517 -2.7154,3.1499 -2.7154 7.9109c 0.0000,4.7610 2.1180,7.2592 2.7154 7.9471c -0.0543,0.1448 -0.1991,0.2715 -0.3802 0.3077c -3.7654,-3.2585 -3.8378,-7.4403 -3.8378 -8.2549ZM 77.8096,40.5358 ZM 82.5706,35.4127 h 3.2042 l -1.7017,-4.9240 h -0.1086 l -1.8501,4.6832 c -0.0688,0.1865 0.0579,0.2408 0.4562 0.2408ZM 82.5706,35.4127 ZM 80.6155,39.1057 c -0.2824,0.7440 0.5684,0.8219 1.2491 0.8689c 0.1086,0.1086 0.1086,0.4888 0.0000 0.5974c -0.6698,-0.0181 -1.5749,-0.0362 -2.3172 -0.0362c -0.5485,-0.0000 -1.1405,0.0181 -1.6112 0.0362c -0.1086,-0.1086 -0.1086,-0.4888 0.0000 -0.5974c 0.7875,-0.0543 1.3396,-0.1629 1.8103 -1.2853l 4.1093,-9.7031 c 0.2353,-0.0000 0.7241,-0.1991 0.9957 -0.3621l 3.7292,10.3548 c 0.3150,0.8726 0.9269,0.9323 1.6293 0.9957c 0.1086,0.1086 0.1086,0.4888 0.0000 0.5974c -0.6336,-0.0181 -1.3215,-0.0362 -2.0637 -0.0362c -0.7060,-0.0000 -1.7017,0.0181 -2.3715 0.0362c -0.1086,-0.1086 -0.1086,-0.4888 0.0000 -0.5974c 0.8617,-0.0615 1.5532,-0.1177 1.3396 -0.7422l -1.0500,-3.0594 h -3.8197 c -0.4345,-0.0000 -0.5431,0.0724 -0.6336 0.3077ZM 94.9167,40.5358 ZM 97.2158,36.9515 c -0.5069,-0.0000 -0.9776,-0.4707 -0.9776 -0.9776c 0.0000,-0.5069 0.4707,-0.9776 0.9776 -0.9776c 0.5069,-0.0000 0.9776,0.4707 0.9776 0.9776c 0.0000,0.5069 -0.4707,0.9776 -0.9776 0.9776ZM 104.0224,40.5358 ZM 110.1231,38.3273 c 0.0000,1.5025 0.3077,1.5930 1.7560 1.6474c 0.1086,0.1086 0.1086,0.4888 0.0000 0.5974c -0.9051,-0.0181 -1.8157,-0.0362 -2.5163 -0.0362c -0.6988,-0.0000 -1.6474,0.0181 -2.5344 0.0362c -0.1086,-0.1086 -0.1086,-0.4888 0.0000 -0.5974c 1.4482,-0.0543 1.7560,-0.1448 1.7560 -1.6474v -2.2991 c 0.0000,-0.6698 -0.0634,-0.8599 -0.3802 -1.3939l -2.3769,-4.0007 c -0.6245,-1.0518 -0.9359,-1.1586 -1.6962 -1.2129c -0.1086,-0.1086 -0.1267,-0.4888 -0.0181 -0.5974c 0.5431,0.0181 1.1405,0.0362 1.8465 0.0362c 0.7241,-0.0000 1.4120,-0.0181 2.0637 -0.0362c 0.1086,0.1086 0.1086,0.4888 0.0000 0.5974c -1.0138,0.0543 -1.0862,0.2281 -0.6481 0.9993l 2.0999,3.7075 c 0.1629,0.2878 0.2498,0.3114 0.3946 0.0362l 2.0058,-3.7835 c 0.3874,-0.7314 0.0996,-0.9051 -0.7024 -0.9594c -0.1086,-0.1086 -0.1086,-0.4888 0.0000 -0.5974c 0.5793,0.0181 1.2310,0.0362 1.6474 0.0362c 0.4164,-0.0000 0.9957,-0.0181 1.5025 -0.0362c 0.1086,0.1086 0.1086,0.4888 0.0000 0.5974c -0.8092,0.0778 -1.2129,0.2408 -1.7198 1.1586l -2.1633,3.9102 c -0.2969,0.5358 -0.3168,0.8418 -0.3168 1.3812v 2.4566 ZM 114.4316,40.5358 ZM 119.0297,35.9739 c 0.0000,3.3671 -1.6836,6.3903 -3.8378 8.2368c -0.2064,-0.0145 -0.3186,-0.1394 -0.3802 -0.3259c 0.5793,-0.6517 2.7154,-3.1499 2.7154 -7.9109c 0.0000,-4.7610 -2.1180,-7.2592 -2.7154 -7.9471c 0.0543,-0.1448 0.1991,-0.2715 0.3802 -0.3077c 3.7654,3.2585 3.8378,7.4403 3.8378 8.2549Z"/></g></svg>