<?xml version="1.0" encoding="UTF-8"?>
<!DOCTYPE svg PUBLIC "-//W3C//DTD SVG 1.1//EN"
    "http://www.w3.org/Graphics/SVG/1.1/DTD/svg11.dtd"><svg xmlns="http://www.w3.org/2000/svg" viewBox="0.0 0.0 525.4154599927588 26.238233164373643" height="26.2382" font-size="1" stroke-opacity="1" width="525.4155" xmlns:xlink="http://www.w3.org/1999/xlink" stroke="rgb(0,0,0)" version="1.1"><defs></defs><g><g stroke-linecap="butt" fill="rgb(0,0,0)" stroke-miterlimit="10.0" stroke-width="0.5" fill-opacity="0.0" stroke-opacity="1.0" stroke-linejoin="miter" stroke="rgb(0,0,0)"><path d="M 288.1481,13.1191 h 20.0000 "/></g><g stroke-linecap="butt" fill="rgb(0,0,0)" stroke-miterlimit="10.0" stroke-width="0.0" fill-opacity="1.0" stroke-opacity="1.0" stroke-linejoin="miter" stroke="rgb(0,0,0)"></g><g stroke-linecap="butt" fill="rgb(0,0,0)" stroke-miterlimit="10.0" stroke-width="0.0" fill-opacity="1.0" stroke-opacity="1.0" stroke-linejoin="miter" stroke="rgb(0,0,0)"></g><g stroke-linecap="butt" fill="rgb(0,0,0)" stroke-miterlimit="10.0" stroke-width="0.0" fill-opacity="1.0" stroke-opacity="1.0" stroke-linejoin="miter" stroke="rgb(0,0,0)"><path d="M 313.1481,13.1191 l -5.0000,-2.8868 v 5.7735 Z"/></g><g stroke-linecap="butt" fill="rgb(0,0,0)" stroke-miterlimit="10.0" stroke-width="0.0" fill-opacity="1.0" stroke-opacity="1.0" stroke-linejoin="miter" stroke="rgb(0,0,0)"></g><title>Iron Plate[3] at Destination</title></g><g stroke-linecap="butt" fill="rgb(255,255,255)" stroke-miterlimit="10.0" stroke-width="1.0" fill-opacity="1.0" stroke-opacity="1.0" stroke-linejoin="miter" stroke="rgb(0,0,0)"><path d="M 288.1481,24.5456 l -0.0000,-22.8530 h -87.5344 l -0.0000,22.8530 Z"/></g><g stroke-linecap="butt" fill="rgb(0,0,0)" stroke-miterlimit="10.0" stroke-width="0.0" fill-opacity="1.0" stroke-opacity="1.0" stroke-linejoin="miter" stroke="rgb(0,0,0)"><path d="M 205.3331,19.3284 ZM 217.3298,17.2285 l -0.4652,-7.5670 h -0.0362 l -4.0731,9.5764 c -0.0724,0.1448 -0.1448,0.2715 -0.2534 0.2715c -0.1086,-0.0000 -0.2209,-0.1430 -0.2715 -0.2715l -3.7473,-9.3954 h -0.0362 l -0.6879,7.2592 c -0.0978,1.0192 0.0000,1.5749 1.1948 1.6655c 0.1086,0.1086 0.1086,0.4888 0.0000 0.5974c -0.5431,-0.0181 -1.2672,-0.0362 -1.7017 -0.0362c -0.4345,-0.0000 -1.0138,0.0181 -1.5568 0.0362c -0.1086,-0.1086 -0.1086,-0.4888 0.0000 -0.5974c 1.0319,-0.0905 1.2491,-0.5449 1.3559 -1.6293l 0.7259,-7.4584 c 0.1267,-1.3577 0.0181,-1.3939 -1.2310 -1.4663c -0.1086,-0.1086 -0.1086,-0.4888 0.0000 -0.5974l 2.6249,0.0362 l 3.7111,9.1962 c 0.0561,0.1376 0.1086,0.2353 0.1448 0.2353c 0.0362,-0.0000 0.0905,-0.0724 0.1629 -0.2534l 3.8378,-9.1781 l 2.3715,-0.0362 c 0.1086,0.1086 0.1086,0.4888 0.0000 0.5974c -1.2310,0.0724 -1.3215,0.3259 -1.2437 1.3034l 0.5395,7.6213 c 0.1050,1.4989 0.1611,1.5749 1.3921 1.6293c 0.1086,0.1086 0.1086,0.4888 0.0000 0.5974c -0.6010,-0.0181 -1.4301,-0.0362 -1.9732 -0.0362c -0.5431,-0.0000 -1.2672,0.0181 -1.9370 0.0362c -0.1086,-0.1086 -0.1086,-0.4888 0.0000 -0.5974c 1.1767,-0.0543 1.2437,-0.0724 1.1531 -1.5387ZM 220.5214,19.3284 ZM 221.2636,15.6173 c 0.0000,-1.1441 0.3440,-2.1977 1.0011 -2.9689c 0.6626,-0.7784 1.6455,-1.2672 2.8367 -1.2672c 2.7697,-0.0000 3.8016,2.1904 3.8016 4.0731c 0.0000,1.1097 -0.3675,2.2484 -1.1785 3.0413c -0.6173,0.6028 -1.4935,1.0138 -2.6593 1.0138c -2.5706,-0.0000 -3.8016,-2.0456 -3.8016 -3.8921ZM 221.2636,15.6173 ZM 224.8298,12.0148 c -1.6293,-0.0000 -2.0094,1.6112 -2.0094 3.1861c 0.0000,1.3939 0.6155,3.6749 2.4982 3.6749c 0.8508,-0.0000 2.0275,-0.5612 2.0275 -2.8421c 0.0000,-2.6068 -0.9594,-4.0188 -2.5163 -4.0188ZM 229.5185,19.3284 ZM 235.4019,12.1235 c -0.1086,-0.1086 -0.1086,-0.4888 0.0000 -0.5974c 0.4526,0.0181 1.0681,0.0362 1.6655 0.0362c 0.4707,-0.0000 0.9051,-0.0181 1.2672 -0.0362c 0.1086,0.1086 0.1086,0.4888 0.0000 0.5974c -1.0138,0.0905 -1.2111,0.5449 -1.5496 1.3396l -2.4149,5.6662 c -0.1285,0.3005 -0.2534,0.4164 -0.4345 0.4164c -0.2353,-0.0000 -0.3440,-0.1086 -0.4526 -0.3802l -2.3099,-5.7205 c -0.3693,-0.9160 -0.4960,-1.2075 -1.4555 -1.3215c -0.1086,-0.1086 -0.1086,-0.4888 0.0000 -0.5974c 0.5431,0.0181 1.0862,0.0362 1.6836 0.0362c 0.5974,-0.0000 1.2310,-0.0181 1.8284 -0.0362c 0.1086,0.1086 0.1086,0.4888 0.0000 0.5974c -0.9649,0.1267 -0.8870,0.3440 -0.5630 1.2129l 1.3052,3.4938 c 0.2824,0.7567 0.3765,0.7694 0.6698 0.0543l 1.4609,-3.5482 c 0.3783,-0.9196 0.2770,-1.1405 -0.7006 -1.2129ZM 238.3707,19.3284 ZM 240.6155,14.2234 l 3.2766,-0.0543 c 0.1991,-0.0036 0.2715,-0.0905 0.2715 -0.2534c 0.0000,-1.5206 -0.8146,-1.9008 -1.5025 -1.9008c -0.4345,-0.0000 -1.7017,0.1629 -2.0456 2.2085ZM 240.6155,14.2234 ZM 245.3584,17.6448 c 0.2172,0.0181 0.3259,0.1086 0.3802 0.2896c -0.7241,0.9413 -1.7017,1.5749 -3.0775 1.5749c -1.3034,-0.0000 -2.1542,-0.4345 -2.7697 -1.1586c -0.5974,-0.6879 -0.8508,-1.6655 -0.8508 -2.6792c 0.0000,-2.7516 2.0456,-4.2542 3.6206 -4.2542c 2.5163,-0.0000 3.0594,1.6293 3.0594 3.1499c 0.0000,0.1991 -0.1267,0.3077 -0.3440 0.3077l -4.8154,-0.0362 c 0.0000,1.0500 0.2172,1.8827 0.5793 2.4801c 0.5612,0.9232 1.3215,1.3034 1.9732 1.3034c 1.0500,-0.0000 1.5749,-0.2896 2.2448 -0.9776ZM 250.9884,19.3284 ZM 259.1709,17.1198 c 0.0000,1.5025 0.2534,1.5749 1.2672 1.6474c 0.1086,0.1086 0.1086,0.4888 0.0000 0.5974c -0.5793,-0.0181 -1.1948,-0.0362 -1.9732 -0.0362c -0.7060,-0.0000 -1.2491,0.0181 -1.7922 0.0362c -0.1086,-0.1086 -0.1086,-0.4888 0.0000 -0.5974c 0.9051,-0.0543 1.0681,-0.1448 1.0681 -1.6474v -7.9833 c 0.0000,-0.1575 0.0127,-0.3566 0.0181 -0.4526c -0.2172,-0.0724 -0.3983,-0.2534 -0.5069 -0.4888c -0.2353,-0.5974 -0.8870,-0.8870 -1.4301 -0.8870c -0.5974,-0.0000 -1.7379,0.6155 -1.7379 3.4033v 0.8508 h 1.9913 c 0.0905,-0.0000 0.1448,0.0362 0.1448 0.1086v 0.3621 c 0.0000,0.1629 -0.2534,0.2353 -0.4164 0.2353h -1.6836 v 4.8516 c 0.0000,1.5025 0.2353,1.5568 1.2491 1.6474c 0.1086,0.1086 0.1086,0.4888 0.0000 0.5974c -0.6336,-0.0181 -1.2980,-0.0362 -1.9551 -0.0362c -0.6209,-0.0000 -1.2853,0.0181 -1.9008 0.0362c -0.1086,-0.1086 -0.1086,-0.4888 0.0000 -0.5974c 0.9776,-0.0724 1.1767,-0.1448 1.1767 -1.6474v -4.8516 h -1.2129 c -0.0724,-0.0000 -0.0905,-0.0181 -0.0905 -0.1086v -0.2353 c 0.0000,-0.1448 0.0905,-0.3621 0.4164 -0.3621h 0.9232 v -0.5431 c 0.0000,-3.0051 1.8646,-4.3266 3.3852 -4.3266c 0.6336,-0.0000 1.4663,0.1448 1.8646 0.4164c 0.2951,-0.0724 0.7368,-0.2715 0.9776 -0.4164c 0.1629,-0.0000 0.2353,0.0543 0.2353 0.1810c 0.0000,-0.0000 -0.0181,0.7241 -0.0181 1.9008v 8.3454 ZM 260.7639,19.3284 ZM 261.5062,15.6173 c 0.0000,-1.1441 0.3440,-2.1977 1.0011 -2.9689c 0.6626,-0.7784 1.6455,-1.2672 2.8367 -1.2672c 2.7697,-0.0000 3.8016,2.1904 3.8016 4.0731c 0.0000,1.1097 -0.3675,2.2484 -1.1785 3.0413c -0.6173,0.6028 -1.4935,1.0138 -2.6593 1.0138c -2.5706,-0.0000 -3.8016,-2.0456 -3.8016 -3.8921ZM 261.5062,15.6173 ZM 265.0724,12.0148 c -1.6293,-0.0000 -2.0094,1.6112 -2.0094 3.1861c 0.0000,1.3939 0.6155,3.6749 2.4982 3.6749c 0.8508,-0.0000 2.0275,-0.5612 2.0275 -2.8421c 0.0000,-2.6068 -0.9594,-4.0188 -2.5163 -4.0188ZM 269.7610,19.3284 ZM 273.4359,12.1235 c -0.8689,0.0543 -0.8870,0.3440 -0.5449 1.2129l 1.4482,3.7292 c 0.2335,0.5883 0.2734,0.5612 0.5087 -0.0362l 1.2672,-3.2042 l -0.1159,-0.2896 c -0.3240,-0.8110 -0.5358,-1.3306 -1.3867 -1.4120c -0.1086,-0.1086 -0.1086,-0.4888 0.0000 -0.5974c 0.5431,0.0181 1.1405,0.0362 1.5930 0.0362c 0.5431,-0.0000 1.2672,-0.0181 1.8103 -0.0362c 0.1086,0.1086 0.1086,0.4888 0.0000 0.5974c -0.9594,0.0724 -0.9957,0.2534 -0.6608 1.1043l 1.5623,3.9645 c 0.1484,0.3765 0.2209,0.3802 0.4019 -0.0724l 1.5134,-3.7654 c 0.2552,-0.6354 0.4417,-1.1586 -0.9160 -1.2310c -0.1086,-0.1086 -0.1086,-0.4888 0.0000 -0.5974c 0.5431,0.0181 1.3034,0.0362 1.8465 0.0362c 0.5431,-0.0000 0.9413,-0.0181 1.3034 -0.0362c 0.1086,0.1086 0.1086,0.4888 0.0000 0.5974c -0.9232,0.0543 -1.2310,0.5630 -1.5279 1.3034l -2.3642,5.7386 c -0.1086,0.2715 -0.2534,0.3802 -0.4164 0.3802c -0.1810,-0.0000 -0.3259,-0.1086 -0.4345 -0.3621l -1.8646,-4.4895 l -1.8284,4.4533 c -0.1267,0.2896 -0.2715,0.3983 -0.4345 0.3983c -0.1810,-0.0000 -0.3259,-0.1086 -0.4345 -0.3621l -2.3697,-5.8472 c -0.3820,-0.9413 -0.5793,-1.1260 -1.4319 -1.2129c -0.1086,-0.1086 -0.1086,-0.4888 0.0000 -0.5974c 0.4743,0.0181 0.9594,0.0362 1.6474 0.0362c 0.6517,-0.0000 1.2853,-0.0181 1.8284 -0.0362c 0.1086,0.1086 0.1086,0.4888 0.0000 0.5974Z"/></g><g><g stroke-linecap="butt" fill="rgb(0,0,0)" stroke-miterlimit="10.0" stroke-width="0.5" fill-opacity="0.0" stroke-opacity="1.0" stroke-linejoin="miter" stroke="rgb(0,0,0)"><path d="M 175.6137,13.1191 h 20.0000 "/></g><g stroke-linecap="butt" fill="rgb(0,0,0)" stroke-miterlimit="10.0" stroke-width="0.0" fill-opacity="1.0" stroke-opacity="1.0" stroke-linejoin="miter" stroke="rgb(0,0,0)"></g><g stroke-linecap="butt" fill="rgb(0,0,0)" stroke-miterlimit="10.0" stroke-width="0.0" fill-opacity="1.0" stroke-opacity="1.0" stroke-linejoin="miter" stroke="rgb(0,0,0)"></g><g stroke-linecap="butt" fill="rgb(0,0,0)" stroke-miterlimit="10.0" stroke-width="0.0" fill-opacity="1.0" stroke-opacity="1.0" stroke-linejoin="miter" stroke="rgb(0,0,0)"><path d="M 200.6137,13.1191 l -5.0000,-2.8868 v 5.7735 Z"/></g><g stroke-linecap="butt" fill="rgb(0,0,0)" stroke-miterlimit="10.0" stroke-width="0.0" fill-opacity="1.0" stroke-opacity="1.0" stroke-linejoin="miter" stroke="rgb(0,0,0)"></g><title>Iron Plate[3] at Source</title></g><g stroke-linecap="butt" fill="rgb(0,0,0)" stroke-miterlimit="10.0" stroke-width="0.0" fill-opacity="1.0" stroke-opacity="1.0" stroke-linejoin="miter" stroke="rgb(0,0,0)"><path d="M 317.8856,17.7444 ZM 321.3432,15.5358 c 0.0000,1.5025 0.3077,1.5930 1.5749 1.6474c 0.1086,0.1086 0.1086,0.4888 0.0000 0.5974c -0.8146,-0.0181 -1.6908,-0.0362 -2.3353 -0.0362c -0.6571,-0.0000 -1.5387,0.0181 -2.3534 0.0362c -0.1086,-0.1086 -0.1086,-0.4888 0.0000 -0.5974c 1.2672,-0.0543 1.5749,-0.1448 1.5749 -1.6474v -7.2592 c 0.0000,-1.5025 -0.3077,-1.5930 -1.5749 -1.6474c -0.1086,-0.1086 -0.1086,-0.4888 0.0000 -0.5974c 0.8508,0.0181 1.7288,0.0362 2.3353 0.0362c 0.6970,-0.0000 1.5568,-0.0181 2.3534 -0.0362c 0.1086,0.1086 0.1086,0.4888 0.0000 0.5974c -1.2672,0.0543 -1.5749,0.1448 -1.5749 1.6474v 7.2592 ZM 323.2621,17.7444 ZM 326.4482,11.2636 c 0.0036,0.0905 0.0905,0.2353 0.1991 0.0362c 0.4164,-0.7060 1.1586,-1.5025 2.0094 -1.5025c 0.7603,-0.0000 1.0862,0.5232 1.0862 0.8689c 0.0000,0.4526 -0.4164,0.9051 -0.8508 0.9051c -0.3150,-0.0000 -0.5177,-0.2408 -0.6553 -0.4218c -0.1412,-0.1865 -0.3041,-0.2299 -0.4671 -0.2299c -0.2172,-0.0000 -0.6336,0.5974 -0.8327 0.8870c -0.2172,0.3259 -0.4345,0.7422 -0.4345 1.2129v 2.5163 c 0.0000,1.5025 0.2172,1.5568 1.4844 1.6474c 0.1086,0.1086 0.1086,0.4888 0.0000 0.5974c -0.6336,-0.0181 -1.4663,-0.0362 -2.1904 -0.0362c -0.7241,-0.0000 -1.4301,0.0181 -2.0637 0.0362c -0.1086,-0.1086 -0.1086,-0.4888 0.0000 -0.5974c 1.1224,-0.0724 1.3396,-0.1448 1.3396 -1.6474v -3.5301 c 0.0000,-1.0500 -0.1991,-1.1405 -1.1767 -1.2310c -0.0362,-0.1086 -0.0724,-0.3983 -0.0362 -0.5069c 1.2491,-0.1629 1.7198,-0.3259 2.2266 -0.5250c 0.1448,-0.0000 0.1792,0.0615 0.2172 0.1448c 0.0851,0.1865 0.1140,0.6517 0.1448 1.3758ZM 329.8516,17.7444 ZM 330.5938,14.0333 c 0.0000,-1.1441 0.3440,-2.1977 1.0011 -2.9689c 0.6626,-0.7784 1.6455,-1.2672 2.8367 -1.2672c 2.7697,-0.0000 3.8016,2.1904 3.8016 4.0731c 0.0000,1.1097 -0.3675,2.2484 -1.1785 3.0413c -0.6173,0.6028 -1.4935,1.0138 -2.6593 1.0138c -2.5706,-0.0000 -3.8016,-2.0456 -3.8016 -3.8921ZM 330.5938,14.0333 ZM 334.1600,10.4308 c -1.6293,-0.0000 -2.0094,1.6112 -2.0094 3.1861c 0.0000,1.3939 0.6155,3.6749 2.4982 3.6749c 0.8508,-0.0000 2.0275,-0.5612 2.0275 -2.8421c 0.0000,-2.6068 -0.9594,-4.0188 -2.5163 -4.0188ZM 338.9754,17.7444 ZM 342.3063,11.2636 c 1.0735,-1.2310 2.0818,-1.4663 2.9689 -1.4663c 0.6336,-0.0000 1.1948,0.2172 1.5025 0.6155c 0.4164,0.5612 0.4888,1.4301 0.4888 2.4258v 2.6973 c 0.0000,1.4844 0.1991,1.5568 1.2129 1.6474c 0.0905,0.1086 0.0905,0.4888 0.0000 0.5974c -0.5431,-0.0181 -1.1948,-0.0362 -1.9189 -0.0362c -0.7241,-0.0000 -1.3034,0.0181 -1.8465 0.0362c -0.0905,-0.1086 -0.0905,-0.4888 0.0000 -0.5974c 0.9413,-0.0905 1.1224,-0.1629 1.1224 -1.6474v -2.7516 c 0.0000,-0.5431 -0.0362,-1.0319 -0.2172 -1.3939c -0.2172,-0.4164 -0.5974,-0.6517 -0.9594 -0.6517c -0.7060,-0.0000 -1.5206,0.3983 -2.2085 1.0681c -0.1448,0.1629 -0.3077,0.3802 -0.3077 0.7603v 2.9689 c 0.0000,1.4844 0.1810,1.5568 1.1043 1.6474c 0.1086,0.1086 0.1086,0.4888 0.0000 0.5974c -0.5431,-0.0181 -1.0862,-0.0362 -1.8103 -0.0362c -0.7241,-0.0000 -1.4482,0.0181 -1.9913 0.0362c -0.1086,-0.1086 -0.1086,-0.4888 0.0000 -0.5974c 1.0862,-0.0905 1.2672,-0.1629 1.2672 -1.6474v -3.5301 c 0.0000,-1.0500 -0.1991,-1.1405 -1.1767 -1.2310c -0.0362,-0.1086 -0.0724,-0.3983 -0.0362 -0.5069c 1.2491,-0.1629 1.7198,-0.3259 2.2266 -0.5250c 0.1448,-0.0000 0.1792,0.0615 0.2172 0.1448c 0.0851,0.1865 0.1267,0.8870 0.1448 1.3758c 0.0054,0.1702 0.1068,0.1267 0.2172 -0.0000ZM 353.3128,17.7444 ZM 356.7343,7.7154 v 4.2180 c 0.1991,0.0543 0.9232,0.0905 1.3758 0.0905c 1.7560,-0.0000 2.6973,-0.7965 2.6973 -2.7516c 0.0000,-2.2991 -1.2491,-2.7154 -2.4982 -2.7154c -1.3034,-0.0000 -1.5749,0.6336 -1.5749 1.1586ZM 356.7343,7.7154 ZM 355.1955,8.2766 c 0.0000,-1.5025 -0.3077,-1.5930 -1.5749 -1.6474c -0.1086,-0.1086 -0.1086,-0.4888 0.0000 -0.5974c 0.7241,0.0181 1.6709,0.0362 2.3353 0.0362c 0.7241,-0.0000 1.7867,-0.1267 2.4801 -0.1267c 3.3490,-0.0000 4.0550,1.9370 4.0550 3.0051c 0.0000,1.5387 -0.9957,3.6930 -4.2904 3.6930c -0.6336,-0.0000 -1.0681,-0.0543 -1.4663 -0.1810v 3.0775 c 0.0000,1.5025 0.4345,1.5749 1.8465 1.6474c 0.1086,0.1086 0.1086,0.4888 0.0000 0.5974c -0.9051,-0.0181 -1.9660,-0.0362 -2.6068 -0.0362c -0.6463,-0.0000 -1.5387,0.0181 -2.3534 0.0362c -0.1086,-0.1086 -0.1086,-0.4888 0.0000 -0.5974c 1.2672,-0.0543 1.5749,-0.1448 1.5749 -1.6474v -7.2592 ZM 363.3237,17.7444 ZM 365.0434,15.5358 v -7.9109 c 0.0000,-1.3577 -0.1086,-1.4120 -1.1586 -1.4844c -0.1086,-0.1086 -0.1448,-0.3983 -0.1086 -0.5431c 0.7241,-0.0543 2.0818,-0.3077 2.5344 -0.4888c 0.1629,-0.0000 0.2353,0.0543 0.2353 0.1810c 0.0000,-0.0000 -0.0724,0.7241 -0.0724 1.9008v 8.3454 c 0.0000,1.5025 0.1991,1.5930 1.3034 1.6474c 0.1086,0.1086 0.1086,0.4888 0.0000 0.5974c -0.5974,-0.0181 -1.2853,-0.0362 -2.0094 -0.0362c -0.7241,-0.0000 -1.3939,0.0181 -2.0275 0.0362c -0.1086,-0.1086 -0.1086,-0.4888 0.0000 -0.5974c 1.1043,-0.0543 1.3034,-0.1448 1.3034 -1.6474ZM 368.1028,17.7444 ZM 373.4070,13.5264 l -1.4301,0.3802 c -1.3396,0.3440 -1.7198,1.1767 -1.7198 1.9913c 0.0000,0.5612 0.3983,1.2853 1.3034 1.2853c 0.5069,-0.0000 1.1224,-0.4164 1.5930 -0.7965c 0.1448,-0.1086 0.2534,-0.2353 0.2534 -0.4707v -2.3896 ZM 373.4070,13.5264 ZM 373.4070,16.8755 h -0.0362 l -0.3621,0.2896 c -0.7965,0.6155 -1.3432,0.7603 -1.9732 0.7603c -1.2672,-0.0000 -2.2810,-0.4707 -2.2810 -1.9551c 0.0000,-1.2310 1.2491,-2.1904 2.9870 -2.6249l 1.5568,-0.3802 c 0.0543,-0.0181 0.1086,-0.0905 0.1086 -0.2172c 0.0000,-2.0456 -0.8508,-2.3534 -1.4663 -2.3534c -0.6879,-0.0000 -1.4482,0.1991 -1.4482 0.7603c 0.0000,0.1991 0.0181,0.3077 0.0362 0.3621c 0.0362,0.0724 0.0543,0.1991 0.0543 0.3259c 0.0000,0.2353 -0.3259,0.6155 -0.8508 0.6155c -0.4164,-0.0000 -0.6336,-0.2172 -0.6336 -0.6517c 0.0000,-1.0319 1.5025,-2.0094 2.9870 -2.0094c 1.3215,-0.0000 2.7335,0.4888 2.7335 3.0594v 2.6611 c 0.0000,0.8327 0.0181,1.5387 0.5431 1.5387c 0.2299,-0.0000 0.5340,-0.1774 0.6698 -0.2896c 0.2046,0.1140 0.2770,0.2661 0.3077 0.4888c -0.3747,0.3621 -1.0264,0.6698 -1.7198 0.6698c -0.9124,-0.0000 -1.1043,-0.4888 -1.2129 -1.0500ZM 376.3758,17.7444 ZM 377.1542,9.9783 l 0.8327,-0.0018 c 0.0000,-2.0076 -0.0543,-1.8881 -0.0543 -2.0981c 0.0000,-0.1249 0.1810,-0.1865 0.3983 -0.2480c 0.2263,-0.0634 0.4109,-0.1412 0.6155 -0.2552c 0.1684,-0.0923 0.3222,-0.1629 0.4037 -0.1629c 0.0851,-0.0000 0.1394,0.0434 0.1394 0.1593c 0.0000,-0.0000 -0.0724,0.7241 -0.0724 1.9008v 0.7060 h 2.1723 c 0.0905,-0.0000 0.1448,0.0362 0.1448 0.1086v 0.3621 c 0.0000,0.1629 -0.2534,0.2353 -0.4345 0.2353h -1.8827 v 4.5800 c 0.0000,1.1224 0.1086,1.6655 0.5974 1.6655c 0.4707,-0.0000 1.0138,-0.1448 1.4844 -0.5069c 0.1810,0.0181 0.2896,0.1213 0.3259 0.3077c -0.7060,0.7965 -1.6112,1.1948 -2.4439 1.1948c -0.8327,-0.0000 -1.3939,-0.5069 -1.3939 -1.7922v -5.4490 h -1.0681 c -0.0724,-0.0000 -0.0905,-0.0181 -0.0905 -0.1086v -0.2353 c 0.0000,-0.1448 0.0724,-0.3621 0.3259 -0.3621ZM 382.0963,17.7444 ZM 384.3411,12.6394 l 3.2766,-0.0543 c 0.1991,-0.0036 0.2715,-0.0905 0.2715 -0.2534c 0.0000,-1.5206 -0.8146,-1.9008 -1.5025 -1.9008c -0.4345,-0.0000 -1.7017,0.1629 -2.0456 2.2085ZM 384.3411,12.6394 ZM 389.0840,16.0608 c 0.2172,0.0181 0.3259,0.1086 0.3802 0.2896c -0.7241,0.9413 -1.7017,1.5749 -3.0775 1.5749c -1.3034,-0.0000 -2.1542,-0.4345 -2.7697 -1.1586c -0.5974,-0.6879 -0.8508,-1.6655 -0.8508 -2.6792c 0.0000,-2.7516 2.0456,-4.2542 3.6206 -4.2542c 2.5163,-0.0000 3.0594,1.6293 3.0594 3.1499c 0.0000,0.1991 -0.1267,0.3077 -0.3440 0.3077l -4.8154,-0.0362 c 0.0000,1.0500 0.2172,1.8827 0.5793 2.4801c 0.5612,0.9232 1.3215,1.3034 1.9732 1.3034c 1.0500,-0.0000 1.5749,-0.2896 2.2448 -0.9776ZM 390.1883,17.7444 ZM 392.1434,21.2382 v -16.2201 h 3.8378 c 0.1086,0.1086 0.1086,0.4345 0.0000 0.5431c -2.4801,0.1810 -2.6249,0.4526 -2.6249 2.0275v 11.0608 c 0.0000,1.5749 0.1267,1.8465 2.6249 2.0456c 0.1086,0.1086 0.1086,0.4345 0.0000 0.5431h -3.8378 ZM 396.6329,17.7444 ZM 400.5250,7.3353 c -0.4707,-0.0000 -1.7198,0.2172 -1.7198 1.3758c 0.0000,0.3440 -0.0724,0.9413 -0.7060 0.9413c -0.4345,-0.0000 -0.6155,-0.3621 -0.6155 -0.6155c 0.0000,-0.5974 0.7603,-2.3353 3.4214 -2.3353c 0.9468,-0.0000 1.5786,0.3059 1.9732 0.7060c 0.4399,0.4453 0.5666,0.8888 0.5666 1.4319c 0.0000,0.9540 -0.4164,1.7071 -1.9062 2.4059l 0.0181,0.0362 c 1.0681,0.1810 2.5525,0.8870 2.5525 2.8602c 0.0000,2.3896 -1.9189,3.7835 -4.0731 3.7835c -1.0862,-0.0000 -2.6068,-0.4888 -2.6068 -1.2129c 0.0000,-0.2896 0.3802,-0.6336 0.7603 -0.6336c 0.3621,-0.0000 0.5974,0.2172 0.7784 0.4707c 0.2172,0.3259 0.3802,0.7422 1.3034 0.7422c 0.6336,-0.0000 2.2448,-0.4888 2.2448 -2.8965c 0.0000,-2.0456 -1.3396,-2.3353 -2.3715 -2.3353c -0.2353,-0.0000 -0.5612,-0.0000 -0.8689 0.0362l -0.0905,-0.5793 c 1.7940,-0.2552 2.8440,-1.6383 2.8440 -2.5471c 0.0000,-1.1640 -0.7223,-1.6347 -1.5043 -1.6347ZM 405.0507,17.7444 ZM 409.5402,5.0000 v 16.2201 h -3.8378 c -0.1086,-0.1086 -0.1086,-0.4345 0.0000 -0.5431c 2.4801,-0.1810 2.6249,-0.4526 2.6249 -2.0275v -11.0608 c 0.0000,-1.5749 -0.1267,-1.8465 -2.6249 -2.0456c -0.1086,-0.1086 -0.1086,-0.4345 0.0000 -0.5431h 3.8378 ZM 416.0210,17.7444 ZM 421.3251,13.5264 l -1.4301,0.3802 c -1.3396,0.3440 -1.7198,1.1767 -1.7198 1.9913c 0.0000,0.5612 0.3983,1.2853 1.3034 1.2853c 0.5069,-0.0000 1.1224,-0.4164 1.5930 -0.7965c 0.1448,-0.1086 0.2534,-0.2353 0.2534 -0.4707v -2.3896 ZM 421.3251,13.5264 ZM 421.3251,16.8755 h -0.0362 l -0.3621,0.2896 c -0.7965,0.6155 -1.3432,0.7603 -1.9732 0.7603c -1.2672,-0.0000 -2.2810,-0.4707 -2.2810 -1.9551c 0.0000,-1.2310 1.2491,-2.1904 2.9870 -2.6249l 1.5568,-0.3802 c 0.0543,-0.0181 0.1086,-0.0905 0.1086 -0.2172c 0.0000,-2.0456 -0.8508,-2.3534 -1.4663 -2.3534c -0.6879,-0.0000 -1.4482,0.1991 -1.4482 0.7603c 0.0000,0.1991 0.0181,0.3077 0.0362 0.3621c 0.0362,0.0724 0.0543,0.1991 0.0543 0.3259c 0.0000,0.2353 -0.3259,0.6155 -0.8508 0.6155c -0.4164,-0.0000 -0.6336,-0.2172 -0.6336 -0.6517c 0.0000,-1.0319 1.5025,-2.0094 2.9870 -2.0094c 1.3215,-0.0000 2.7335,0.4888 2.7335 3.0594v 2.6611 c 0.0000,0.8327 0.0181,1.5387 0.5431 1.5387c 0.2299,-0.0000 0.5340,-0.1774 0.6698 -0.2896c 0.2046,0.1140 0.2770,0.2661 0.3077 0.4888c -0.3747,0.3621 -1.0264,0.6698 -1.7198 0.6698c -0.9124,-0.0000 -1.1043,-0.4888 -1.2129 -1.0500ZM 424.2940,17.7444 ZM 425.0724,9.9783 l 0.8327,-0.0018 c 0.0000,-2.0076 -0.0543,-1.8881 -0.0543 -2.0981c 0.0000,-0.1249 0.1810,-0.1865 0.3983 -0.2480c 0.2263,-0.0634 0.4109,-0.1412 0.6155 -0.2552c 0.1684,-0.0923 0.3222,-0.1629 0.4037 -0.1629c 0.0851,-0.0000 0.1394,0.0434 0.1394 0.1593c 0.0000,-0.0000 -0.0724,0.7241 -0.0724 1.9008v 0.7060 h 2.1723 c 0.0905,-0.0000 0.1448,0.0362 0.1448 0.1086v 0.3621 c 0.0000,0.1629 -0.2534,0.2353 -0.4345 0.2353h -1.8827 v 4.5800 c 0.0000,1.1224 0.1086,1.6655 0.5974 1.6655c 0.4707,-0.0000 1.0138,-0.1448 1.4844 -0.5069c 0.1810,0.0181 0.2896,0.1213 0.3259 0.3077c -0.7060,0.7965 -1.6112,1.1948 -2.4439 1.1948c -0.8327,-0.0000 -1.3939,-0.5069 -1.3939 -1.7922v -5.4490 h -1.0681 c -0.0724,-0.0000 -0.0905,-0.0181 -0.0905 -0.1086v -0.2353 c 0.0000,-0.1448 0.0724,-0.3621 0.3259 -0.3621ZM 434.5402,17.7444 ZM 437.9978,16.2238 c 0.0000,0.5793 0.1991,0.9413 1.9732 0.9413c 2.5525,-0.0000 4.7429,-0.9051 4.7429 -4.5619c 0.0000,-2.7878 -1.2853,-5.9558 -5.1955 -5.9558c -0.8870,-0.0000 -1.5206,0.2534 -1.5206 0.8870v 8.6894 ZM 437.9978,16.2238 ZM 437.2194,6.0681 c 0.7060,-0.0000 1.7017,-0.0362 2.9870 -0.0362c 3.4757,-0.0000 6.2455,2.7697 6.2455 6.1369c 0.0000,4.4533 -3.3671,5.6119 -5.9196 5.6119c -1.8646,-0.0000 -2.6249,-0.0362 -3.2947 -0.0362c -0.6825,-0.0000 -1.6474,0.0181 -2.3534 0.0362c -0.1086,-0.1086 -0.1086,-0.4888 0.0000 -0.5974c 1.2672,-0.0543 1.5749,-0.1448 1.5749 -1.6474v -7.2592 c 0.0000,-1.5025 -0.3077,-1.5930 -1.5749 -1.6474c -0.1086,-0.1086 -0.1086,-0.4888 0.0000 -0.5974c 0.7241,0.0181 1.6890,0.0362 2.3353 0.0362ZM 447.2303,17.7444 ZM 449.4750,12.6394 l 3.2766,-0.0543 c 0.1991,-0.0036 0.2715,-0.0905 0.2715 -0.2534c 0.0000,-1.5206 -0.8146,-1.9008 -1.5025 -1.9008c -0.4345,-0.0000 -1.7017,0.1629 -2.0456 2.2085ZM 449.4750,12.6394 ZM 454.2180,16.0608 c 0.2172,0.0181 0.3259,0.1086 0.3802 0.2896c -0.7241,0.9413 -1.7017,1.5749 -3.0775 1.5749c -1.3034,-0.0000 -2.1542,-0.4345 -2.7697 -1.1586c -0.5974,-0.6879 -0.8508,-1.6655 -0.8508 -2.6792c 0.0000,-2.7516 2.0456,-4.2542 3.6206 -4.2542c 2.5163,-0.0000 3.0594,1.6293 3.0594 3.1499c 0.0000,0.1991 -0.1267,0.3077 -0.3440 0.3077l -4.8154,-0.0362 c 0.0000,1.0500 0.2172,1.8827 0.5793 2.4801c 0.5612,0.9232 1.3215,1.3034 1.9732 1.3034c 1.0500,-0.0000 1.5749,-0.2896 2.2448 -0.9776ZM 455.3222,17.7444 ZM 456.1912,15.2462 c 0.1086,-0.1086 0.4526,-0.1267 0.5612 -0.0181c 0.1086,0.4526 0.3077,1.2491 0.7060 1.6655c 0.1865,0.1937 0.5793,0.4345 1.2853 0.4345c 0.6698,-0.0000 1.5387,-0.3802 1.5387 -1.2672c 0.0000,-0.7784 -0.3440,-1.1586 -1.8465 -1.7741c -1.3939,-0.5793 -1.9913,-1.1405 -1.9913 -2.4620c 0.0000,-1.1586 1.2129,-2.0275 2.5525 -2.0275c 0.9413,-0.0000 1.8103,0.2534 2.3715 0.3440c -0.0181,0.5974 -0.0543,1.2672 -0.1086 1.9189c -0.1086,0.1086 -0.4707,0.1267 -0.5793 0.0181c -0.2353,-1.5387 -1.2853,-1.6836 -1.6836 -1.6836c -0.6155,-0.0000 -1.2672,0.4164 -1.2672 1.1586c 0.0000,0.9957 0.7205,1.2762 1.8103 1.6799c 1.2310,0.4562 2.1180,1.1749 2.1180 2.4113c 0.0000,1.7922 -1.8646,2.2810 -2.8783 2.2810c -0.6698,-0.0000 -1.1586,-0.0724 -1.6474 -0.1991c -0.1267,-0.0362 -0.2353,-0.0362 -0.3621 -0.0362c -0.0905,-0.0000 -0.2715,0.0181 -0.4526 0.0543c 0.0000,-0.7603 -0.0543,-1.6112 -0.1267 -2.4982ZM 462.3823,17.7444 ZM 463.1608,9.9783 l 0.8327,-0.0018 c 0.0000,-2.0076 -0.0543,-1.8881 -0.0543 -2.0981c 0.0000,-0.1249 0.1810,-0.1865 0.3983 -0.2480c 0.2263,-0.0634 0.4109,-0.1412 0.6155 -0.2552c 0.1684,-0.0923 0.3222,-0.1629 0.4037 -0.1629c 0.0851,-0.0000 0.1394,0.0434 0.1394 0.1593c 0.0000,-0.0000 -0.0724,0.7241 -0.0724 1.9008v 0.7060 h 2.1723 c 0.0905,-0.0000 0.1448,0.0362 0.1448 0.1086v 0.3621 c 0.0000,0.1629 -0.2534,0.2353 -0.4345 0.2353h -1.8827 v 4.5800 c 0.0000,1.1224 0.1086,1.6655 0.5974 1.6655c 0.4707,-0.0000 1.0138,-0.1448 1.4844 -0.5069c 0.1810,0.0181 0.2896,0.1213 0.3259 0.3077c -0.7060,0.7965 -1.6112,1.1948 -2.4439 1.1948c -0.8327,-0.0000 -1.3939,-0.5069 -1.3939 -1.7922v -5.4490 h -1.0681 c -0.0724,-0.0000 -0.0905,-0.0181 -0.0905 -0.1086v -0.2353 c 0.0000,-0.1448 0.0724,-0.3621 0.3259 -0.3621ZM 468.1028,17.7444 ZM 469.7321,6.9008 c 0.0000,-0.4345 0.5069,-0.8689 0.9413 -0.8689c 0.4888,-0.0000 0.8689,0.5069 0.8689 0.9413c 0.0000,0.3820 -0.4345,0.8689 -0.9413 0.8689c -0.4345,-0.0000 -0.8689,-0.4707 -0.8689 -0.9413ZM 469.7321,6.9008 ZM 471.3794,15.5358 c 0.0000,1.5025 0.1991,1.5749 1.3034 1.6474c 0.1086,0.1086 0.1086,0.4888 0.0000 0.5974c -0.5974,-0.0181 -1.2853,-0.0362 -2.0094 -0.0362c -0.7241,-0.0000 -1.4301,0.0181 -2.0275 0.0362c -0.1086,-0.1086 -0.1086,-0.4888 0.0000 -0.5974c 1.1043,-0.0905 1.3034,-0.1448 1.3034 -1.6474v -3.5301 c 0.0000,-1.0319 -0.1901,-1.1387 -1.1767 -1.2310c -0.0362,-0.1086 -0.0724,-0.3983 -0.0362 -0.5069c 1.2491,-0.1629 1.9642,-0.3259 2.4801 -0.5250c 0.1448,-0.0000 0.2353,0.0543 0.2353 0.1267c 0.0000,-0.0000 -0.0724,1.1586 -0.0724 2.0583v 3.6079 ZM 473.0087,17.7444 ZM 476.3396,11.2636 c 1.0735,-1.2310 2.0818,-1.4663 2.9689 -1.4663c 0.6336,-0.0000 1.1948,0.2172 1.5025 0.6155c 0.4164,0.5612 0.4888,1.4301 0.4888 2.4258v 2.6973 c 0.0000,1.4844 0.1991,1.5568 1.2129 1.6474c 0.0905,0.1086 0.0905,0.4888 0.0000 0.5974c -0.5431,-0.0181 -1.1948,-0.0362 -1.9189 -0.0362c -0.7241,-0.0000 -1.3034,0.0181 -1.8465 0.0362c -0.0905,-0.1086 -0.0905,-0.4888 0.0000 -0.5974c 0.9413,-0.0905 1.1224,-0.1629 1.1224 -1.6474v -2.7516 c 0.0000,-0.5431 -0.0362,-1.0319 -0.2172 -1.3939c -0.2172,-0.4164 -0.5974,-0.6517 -0.9594 -0.6517c -0.7060,-0.0000 -1.5206,0.3983 -2.2085 1.0681c -0.1448,0.1629 -0.3077,0.3802 -0.3077 0.7603v 2.9689 c 0.0000,1.4844 0.1810,1.5568 1.1043 1.6474c 0.1086,0.1086 0.1086,0.4888 0.0000 0.5974c -0.5431,-0.0181 -1.0862,-0.0362 -1.8103 -0.0362c -0.7241,-0.0000 -1.4482,0.0181 -1.9913 0.0362c -0.1086,-0.1086 -0.1086,-0.4888 0.0000 -0.5974c 1.0862,-0.0905 1.2672,-0.1629 1.2672 -1.6474v -3.5301 c 0.0000,-1.0500 -0.1991,-1.1405 -1.1767 -1.2310c -0.0362,-0.1086 -0.0724,-0.3983 -0.0362 -0.5069c 1.2491,-0.1629 1.7198,-0.3259 2.2266 -0.5250c 0.1448,-0.0000 0.1792,0.0615 0.2172 0.1448c 0.0851,0.1865 0.1267,0.8870 0.1448 1.3758c 0.0054,0.1702 0.1068,0.1267 0.2172 -0.0000ZM 482.8204,17.7444 ZM 488.1245,13.5264 l -1.4301,0.3802 c -1.3396,0.3440 -1.7198,1.1767 -1.7198 1.9913c 0.0000,0.5612 0.3983,1.2853 1.3034 1.2853c 0.5069,-0.0000 1.1224,-0.4164 1.5930 -0.7965c 0.1448,-0.1086 0.2534,-0.2353 0.2534 -0.4707v -2.3896 ZM 488.1245,13.5264 ZM 488.1245,16.8755 h -0.0362 l -0.3621,0.2896 c -0.7965,0.6155 -1.3432,0.7603 -1.9732 0.7603c -1.2672,-0.0000 -2.2810,-0.4707 -2.2810 -1.9551c 0.0000,-1.2310 1.2491,-2.1904 2.9870 -2.6249l 1.5568,-0.3802 c 0.0543,-0.0181 0.1086,-0.0905 0.1086 -0.2172c 0.0000,-2.0456 -0.8508,-2.3534 -1.4663 -2.3534c -0.6879,-0.0000 -1.4482,0.1991 -1.4482 0.7603c 0.0000,0.1991 0.0181,0.3077 0.0362 0.3621c 0.0362,0.0724 0.0543,0.1991 0.0543 0.3259c 0.0000,0.2353 -0.3259,0.6155 -0.8508 0.6155c -0.4164,-0.0000 -0.6336,-0.2172 -0.6336 -0.6517c 0.0000,-1.0319 1.5025,-2.0094 2.9870 -2.0094c 1.3215,-0.0000 2.7335,0.4888 2.7335 3.0594v 2.6611 c 0.0000,0.8327 0.0181,1.5387 0.5431 1.5387c 0.2299,-0.0000 0.5340,-0.1774 0.6698 -0.2896c 0.2046,0.1140 0.2770,0.2661 0.3077 0.4888c -0.3747,0.3621 -1.0264,0.6698 -1.7198 0.6698c -0.9124,-0.0000 -1.1043,-0.4888 -1.2129 -1.0500ZM 491.0934,17.7444 ZM 491.8718,9.9783 l 0.8327,-0.0018 c 0.0000,-2.0076 -0.0543,-1.8881 -0.0543 -2.0981c 0.0000,-0.1249 0.1810,-0.1865 0.3983 -0.2480c 0.2263,-0.0634 0.4109,-0.1412 0.6155 -0.2552c 0.1684,-0.0923 0.3222,-0.1629 0.4037 -0.1629c 0.0851,-0.0000 0.1394,0.0434 0.1394 0.1593c 0.0000,-0.0000 -0.0724,0.7241 -0.0724 1.9008v 0.7060 h 2.1723 c 0.0905,-0.0000 0.1448,0.0362 0.1448 0.1086v 0.3621 c 0.0000,0.1629 -0.2534,0.2353 -0.4345 0.2353h -1.8827 v 4.5800 c 0.0000,1.1224 0.1086,1.6655 0.5974 1.6655c 0.4707,-0.0000 1.0138,-0.1448 1.4844 -0.5069c 0.1810,0.0181 0.2896,0.1213 0.3259 0.3077c -0.7060,0.7965 -1.6112,1.1948 -2.4439 1.1948c -0.8327,-0.0000 -1.3939,-0.5069 -1.3939 -1.7922v -5.4490 h -1.0681 c -0.0724,-0.0000 -0.0905,-0.0181 -0.0905 -0.1086v -0.2353 c 0.0000,-0.1448 0.0724,-0.3621 0.3259 -0.3621ZM 496.8139,17.7444 ZM 498.4432,6.9008 c 0.0000,-0.4345 0.5069,-0.8689 0.9413 -0.8689c 0.4888,-0.0000 0.8689,0.5069 0.8689 0.9413c 0.0000,0.3820 -0.4345,0.8689 -0.9413 0.8689c -0.4345,-0.0000 -0.8689,-0.4707 -0.8689 -0.9413ZM 498.4432,6.9008 ZM 500.0905,15.5358 c 0.0000,1.5025 0.1991,1.5749 1.3034 1.6474c 0.1086,0.1086 0.1086,0.4888 0.0000 0.5974c -0.5974,-0.0181 -1.2853,-0.0362 -2.0094 -0.0362c -0.7241,-0.0000 -1.4301,0.0181 -2.0275 0.0362c -0.1086,-0.1086 -0.1086,-0.4888 0.0000 -0.5974c 1.1043,-0.0905 1.3034,-0.1448 1.3034 -1.6474v -3.5301 c 0.0000,-1.0319 -0.1901,-1.1387 -1.1767 -1.2310c -0.0362,-0.1086 -0.0724,-0.3983 -0.0362 -0.5069c 1.2491,-0.1629 1.9642,-0.3259 2.4801 -0.5250c 0.1448,-0.0000 0.2353,0.0543 0.2353 0.1267c 0.0000,-0.0000 -0.0724,1.1586 -0.0724 2.0583v 3.6079 ZM 501.7198,17.7444 ZM 502.4620,14.0333 c 0.0000,-1.1441 0.3440,-2.1977 1.0011 -2.9689c 0.6626,-0.7784 1.6455,-1.2672 2.8367 -1.2672c 2.7697,-0.0000 3.8016,2.1904 3.8016 4.0731c 0.0000,1.1097 -0.3675,2.2484 -1.1785 3.0413c -0.6173,0.6028 -1.4935,1.0138 -2.6593 1.0138c -2.5706,-0.0000 -3.8016,-2.0456 -3.8016 -3.8921ZM 502.4620,14.0333 ZM 506.0282,10.4308 c -1.6293,-0.0000 -2.0094,1.6112 -2.0094 3.1861c 0.0000,1.3939 0.6155,3.6749 2.4982 3.6749c 0.8508,-0.0000 2.0275,-0.5612 2.0275 -2.8421c 0.0000,-2.6068 -0.9594,-4.0188 -2.5163 -4.0188ZM 510.8436,17.7444 ZM 514.1745,11.2636 c 1.0735,-1.2310 2.0818,-1.4663 2.9689 -1.4663c 0.6336,-0.0000 1.1948,0.2172 1.5025 0.6155c 0.4164,0.5612 0.4888,1.4301 0.4888 2.4258v 2.6973 c 0.0000,1.4844 0.1991,1.5568 1.2129 1.6474c 0.0905,0.1086 0.0905,0.4888 0.0000 0.5974c -0.5431,-0.0181 -1.1948,-0.0362 -1.9189 -0.0362c -0.7241,-0.0000 -1.3034,0.0181 -1.8465 0.0362c -0.0905,-0.1086 -0.0905,-0.4888 0.0000 -0.5974c 0.9413,-0.0905 1.1224,-0.1629 1.1224 -1.6474v -2.7516 c 0.0000,-0.5431 -0.0362,-1.0319 -0.2172 -1.3939c -0.2172,-0.4164 -0.5974,-0.6517 -0.9594 -0.6517c -0.7060,-0.0000 -1.5206,0.3983 -2.2085 1.0681c -0.1448,0.1629 -0.3077,0.3802 -0.3077 0.7603v 2.9689 c 0.0000,1.4844 0.1810,1.5568 1.1043 1.6474c 0.1086,0.1086 0.1086,0.4888 0.0000 0.5974c -0.5431,-0.0181 -1.0862,-0.0362 -1.8103 -0.0362c -0.7241,-0.0000 -1.4482,0.0181 -1.9913 0.0362c -0.1086,-0.1086 -0.1086,-0.4888 0.0000 -0.5974c 1.0862,-0.0905 1.2672,-0.1629 1.2672 -1.6474v -3.5301 c 0.0000,-1.0500 -0.1991,-1.1405 -1.1767 -1.2310c -0.0362,-0.1086 -0.0724,-0.3983 -0.0362 -0.5069c 1.2491,-0.1629 1.7198,-0.3259 2.2266 -0.5250c 0.1448,-0.0000 0.1792,0.0615 0.2172 0.1448c 0.0851,0.1865 0.1267,0.8870 0.1448 1.3758c 0.0054,0.1702 0.1068,0.1267 0.2172 -0.0000Z"/></g><g stroke-linecap="butt" fill="rgb(0,0,0)" stroke-miterlimit="10.0" stroke-width="0.0" fill-opacity="1.0" stroke-opacity="1.0" stroke-linejoin="miter" stroke="rgb(0,0,0)"><path d="M 4.7375,17.7444 ZM 8.1951,15.5358 c 0.0000,1.5025 0.3077,1.5930 1.5749 1.6474c 0.1086,0.1086 0.1086,0.4888 0.0000 0.5974c -0.8146,-0.0181 -1.6908,-0.0362 -2.3353 -0.0362c -0.6571,-0.0000 -1.5387,0.0181 -2.3534 0.0362c -0.1086,-0.1086 -0.1086,-0.4888 0.0000 -0.5974c 1.2672,-0.0543 1.5749,-0.1448 1.5749 -1.6474v -7.2592 c 0.0000,-1.5025 -0.3077,-1.5930 -1.5749 -1.6474c -0.1086,-0.1086 -0.1086,-0.4888 0.0000 -0.5974c 0.8508,0.0181 1.7288,0.0362 2.3353 0.0362c 0.6970,-0.0000 1.5568,-0.0181 2.3534 -0.0362c 0.1086,0.1086 0.1086,0.4888 0.0000 0.5974c -1.2672,0.0543 -1.5749,0.1448 -1.5749 1.6474v 7.2592 ZM 10.1140,17.7444 ZM 13.3001,11.2636 c 0.0036,0.0905 0.0905,0.2353 0.1991 0.0362c 0.4164,-0.7060 1.1586,-1.5025 2.0094 -1.5025c 0.7603,-0.0000 1.0862,0.5232 1.0862 0.8689c 0.0000,0.4526 -0.4164,0.9051 -0.8508 0.9051c -0.3150,-0.0000 -0.5177,-0.2408 -0.6553 -0.4218c -0.1412,-0.1865 -0.3041,-0.2299 -0.4671 -0.2299c -0.2172,-0.0000 -0.6336,0.5974 -0.8327 0.8870c -0.2172,0.3259 -0.4345,0.7422 -0.4345 1.2129v 2.5163 c 0.0000,1.5025 0.2172,1.5568 1.4844 1.6474c 0.1086,0.1086 0.1086,0.4888 0.0000 0.5974c -0.6336,-0.0181 -1.4663,-0.0362 -2.1904 -0.0362c -0.7241,-0.0000 -1.4301,0.0181 -2.0637 0.0362c -0.1086,-0.1086 -0.1086,-0.4888 0.0000 -0.5974c 1.1224,-0.0724 1.3396,-0.1448 1.3396 -1.6474v -3.5301 c 0.0000,-1.0500 -0.1991,-1.1405 -1.1767 -1.2310c -0.0362,-0.1086 -0.0724,-0.3983 -0.0362 -0.5069c 1.2491,-0.1629 1.7198,-0.3259 2.2266 -0.5250c 0.1448,-0.0000 0.1792,0.0615 0.2172 0.1448c 0.0851,0.1865 0.1140,0.6517 0.1448 1.3758ZM 16.7035,17.7444 ZM 17.4457,14.0333 c 0.0000,-1.1441 0.3440,-2.1977 1.0011 -2.9689c 0.6626,-0.7784 1.6455,-1.2672 2.8367 -1.2672c 2.7697,-0.0000 3.8016,2.1904 3.8016 4.0731c 0.0000,1.1097 -0.3675,2.2484 -1.1785 3.0413c -0.6173,0.6028 -1.4935,1.0138 -2.6593 1.0138c -2.5706,-0.0000 -3.8016,-2.0456 -3.8016 -3.8921ZM 17.4457,14.0333 ZM 21.0119,10.4308 c -1.6293,-0.0000 -2.0094,1.6112 -2.0094 3.1861c 0.0000,1.3939 0.6155,3.6749 2.4982 3.6749c 0.8508,-0.0000 2.0275,-0.5612 2.0275 -2.8421c 0.0000,-2.6068 -0.9594,-4.0188 -2.5163 -4.0188ZM 25.8273,17.7444 ZM 29.1582,11.2636 c 1.0735,-1.2310 2.0818,-1.4663 2.9689 -1.4663c 0.6336,-0.0000 1.1948,0.2172 1.5025 0.6155c 0.4164,0.5612 0.4888,1.4301 0.4888 2.4258v 2.6973 c 0.0000,1.4844 0.1991,1.5568 1.2129 1.6474c 0.0905,0.1086 0.0905,0.4888 0.0000 0.5974c -0.5431,-0.0181 -1.1948,-0.0362 -1.9189 -0.0362c -0.7241,-0.0000 -1.3034,0.0181 -1.8465 0.0362c -0.0905,-0.1086 -0.0905,-0.4888 0.0000 -0.5974c 0.9413,-0.0905 1.1224,-0.1629 1.1224 -1.6474v -2.7516 c 0.0000,-0.5431 -0.0362,-1.0319 -0.2172 -1.3939c -0.2172,-0.4164 -0.5974,-0.6517 -0.9594 -0.6517c -0.7060,-0.0000 -1.5206,0.3983 -2.2085 1.0681c -0.1448,0.1629 -0.3077,0.3802 -0.3077 0.7603v 2.9689 c 0.0000,1.4844 0.1810,1.5568 1.1043 1.6474c 0.1086,0.1086 0.1086,0.4888 0.0000 0.5974c -0.5431,-0.0181 -1.0862,-0.0362 -1.8103 -0.0362c -0.7241,-0.0000 -1.4482,0.0181 -1.9913 0.0362c -0.1086,-0.1086 -0.1086,-0.4888 0.0000 -0.5974c 1.0862,-0.0905 1.2672,-0.1629 1.2672 -1.6474v -3.5301 c 0.0000,-1.0500 -0.1991,-1.1405 -1.1767 -1.2310c -0.0362,-0.1086 -0.0724,-0.3983 -0.0362 -0.5069c 1.2491,-0.1629 1.7198,-0.3259 2.2266 -0.5250c 0.1448,-0.0000 0.1792,0.0615 0.2172 0.1448c 0.0851,0.1865 0.1267,0.8870 0.1448 1.3758c 0.0054,0.1702 0.1068,0.1267 0.2172 -0.0000ZM 40.1647,17.7444 ZM 43.5862,7.7154 v 4.2180 c 0.1991,0.0543 0.9232,0.0905 1.3758 0.0905c 1.7560,-0.0000 2.6973,-0.7965 2.6973 -2.7516c 0.0000,-2.2991 -1.2491,-2.7154 -2.4982 -2.7154c -1.3034,-0.0000 -1.5749,0.6336 -1.5749 1.1586ZM 43.5862,7.7154 ZM 42.0474,8.2766 c 0.0000,-1.5025 -0.3077,-1.5930 -1.5749 -1.6474c -0.1086,-0.1086 -0.1086,-0.4888 0.0000 -0.5974c 0.7241,0.0181 1.6709,0.0362 2.3353 0.0362c 0.7241,-0.0000 1.7867,-0.1267 2.4801 -0.1267c 3.3490,-0.0000 4.0550,1.9370 4.0550 3.0051c 0.0000,1.5387 -0.9957,3.6930 -4.2904 3.6930c -0.6336,-0.0000 -1.0681,-0.0543 -1.4663 -0.1810v 3.0775 c 0.0000,1.5025 0.4345,1.5749 1.8465 1.6474c 0.1086,0.1086 0.1086,0.4888 0.0000 0.5974c -0.9051,-0.0181 -1.9660,-0.0362 -2.6068 -0.0362c -0.6463,-0.0000 -1.5387,0.0181 -2.3534 0.0362c -0.1086,-0.1086 -0.1086,-0.4888 0.0000 -0.5974c 1.2672,-0.0543 1.5749,-0.1448 1.5749 -1.6474v -7.2592 ZM 50.1756,17.7444 ZM 51.8954,15.5358 v -7.9109 c 0.0000,-1.3577 -0.1086,-1.4120 -1.1586 -1.4844c -0.1086,-0.1086 -0.1448,-0.3983 -0.1086 -0.5431c 0.7241,-0.0543 2.0818,-0.3077 2.5344 -0.4888c 0.1629,-0.0000 0.2353,0.0543 0.2353 0.1810c 0.0000,-0.0000 -0.0724,0.7241 -0.0724 1.9008v 8.3454 c 0.0000,1.5025 0.1991,1.5930 1.3034 1.6474c 0.1086,0.1086 0.1086,0.4888 0.0000 0.5974c -0.5974,-0.0181 -1.2853,-0.0362 -2.0094 -0.0362c -0.7241,-0.0000 -1.3939,0.0181 -2.0275 0.0362c -0.1086,-0.1086 -0.1086,-0.4888 0.0000 -0.5974c 1.1043,-0.0543 1.3034,-0.1448 1.3034 -1.6474ZM 54.9547,17.7444 ZM 60.2589,13.5264 l -1.4301,0.3802 c -1.3396,0.3440 -1.7198,1.1767 -1.7198 1.9913c 0.0000,0.5612 0.3983,1.2853 1.3034 1.2853c 0.5069,-0.0000 1.1224,-0.4164 1.5930 -0.7965c 0.1448,-0.1086 0.2534,-0.2353 0.2534 -0.4707v -2.3896 ZM 60.2589,13.5264 ZM 60.2589,16.8755 h -0.0362 l -0.3621,0.2896 c -0.7965,0.6155 -1.3432,0.7603 -1.9732 0.7603c -1.2672,-0.0000 -2.2810,-0.4707 -2.2810 -1.9551c 0.0000,-1.2310 1.2491,-2.1904 2.9870 -2.6249l 1.5568,-0.3802 c 0.0543,-0.0181 0.1086,-0.0905 0.1086 -0.2172c 0.0000,-2.0456 -0.8508,-2.3534 -1.4663 -2.3534c -0.6879,-0.0000 -1.4482,0.1991 -1.4482 0.7603c 0.0000,0.1991 0.0181,0.3077 0.0362 0.3621c 0.0362,0.0724 0.0543,0.1991 0.0543 0.3259c 0.0000,0.2353 -0.3259,0.6155 -0.8508 0.6155c -0.4164,-0.0000 -0.6336,-0.2172 -0.6336 -0.6517c 0.0000,-1.0319 1.5025,-2.0094 2.9870 -2.0094c 1.3215,-0.0000 2.7335,0.4888 2.7335 3.0594v 2.6611 c 0.0000,0.8327 0.0181,1.5387 0.5431 1.5387c 0.2299,-0.0000 0.5340,-0.1774 0.6698 -0.2896c 0.2046,0.1140 0.2770,0.2661 0.3077 0.4888c -0.3747,0.3621 -1.0264,0.6698 -1.7198 0.6698c -0.9124,-0.0000 -1.1043,-0.4888 -1.2129 -1.0500ZM 63.2277,17.7444 ZM 64.0062,9.9783 l 0.8327,-0.0018 c 0.0000,-2.0076 -0.0543,-1.8881 -0.0543 -2.0981c 0.0000,-0.1249 0.1810,-0.1865 0.3983 -0.2480c 0.2263,-0.0634 0.4109,-0.1412 0.6155 -0.2552c 0.1684,-0.0923 0.3222,-0.1629 0.4037 -0.1629c 0.0851,-0.0000 0.1394,0.0434 0.1394 0.1593c 0.0000,-0.0000 -0.0724,0.7241 -0.0724 1.9008v 0.7060 h 2.1723 c 0.0905,-0.0000 0.1448,0.0362 0.1448 0.1086v 0.3621 c 0.0000,0.1629 -0.2534,0.2353 -0.4345 0.2353h -1.8827 v 4.5800 c 0.0000,1.1224 0.1086,1.6655 0.5974 1.6655c 0.4707,-0.0000 1.0138,-0.1448 1.4844 -0.5069c 0.1810,0.0181 0.2896,0.1213 0.3259 0.3077c -0.7060,0.7965 -1.6112,1.1948 -2.4439 1.1948c -0.8327,-0.0000 -1.3939,-0.5069 -1.3939 -1.7922v -5.4490 h -1.0681 c -0.0724,-0.0000 -0.0905,-0.0181 -0.0905 -0.1086v -0.2353 c 0.0000,-0.1448 0.0724,-0.3621 0.3259 -0.3621ZM 68.9482,17.7444 ZM 71.1930,12.6394 l 3.2766,-0.0543 c 0.1991,-0.0036 0.2715,-0.0905 0.2715 -0.2534c 0.0000,-1.5206 -0.8146,-1.9008 -1.5025 -1.9008c -0.4345,-0.0000 -1.7017,0.1629 -2.0456 2.2085ZM 71.1930,12.6394 ZM 75.9359,16.0608 c 0.2172,0.0181 0.3259,0.1086 0.3802 0.2896c -0.7241,0.9413 -1.7017,1.5749 -3.0775 1.5749c -1.3034,-0.0000 -2.1542,-0.4345 -2.7697 -1.1586c -0.5974,-0.6879 -0.8508,-1.6655 -0.8508 -2.6792c 0.0000,-2.7516 2.0456,-4.2542 3.6206 -4.2542c 2.5163,-0.0000 3.0594,1.6293 3.0594 3.1499c 0.0000,0.1991 -0.1267,0.3077 -0.3440 0.3077l -4.8154,-0.0362 c 0.0000,1.0500 0.2172,1.8827 0.5793 2.4801c 0.5612,0.9232 1.3215,1.3034 1.9732 1.3034c 1.0500,-0.0000 1.5749,-0.2896 2.2448 -0.9776ZM 77.0402,17.7444 ZM 78.9953,21.2382 v -16.2201 h 3.8378 c 0.1086,0.1086 0.1086,0.4345 0.0000 0.5431c -2.4801,0.1810 -2.6249,0.4526 -2.6249 2.0275v 11.0608 c 0.0000,1.5749 0.1267,1.8465 2.6249 2.0456c 0.1086,0.1086 0.1086,0.4345 0.0000 0.5431h -3.8378 ZM 83.4848,17.7444 ZM 87.3769,7.3353 c -0.4707,-0.0000 -1.7198,0.2172 -1.7198 1.3758c 0.0000,0.3440 -0.0724,0.9413 -0.7060 0.9413c -0.4345,-0.0000 -0.6155,-0.3621 -0.6155 -0.6155c 0.0000,-0.5974 0.7603,-2.3353 3.4214 -2.3353c 0.9468,-0.0000 1.5786,0.3059 1.9732 0.7060c 0.4399,0.4453 0.5666,0.8888 0.5666 1.4319c 0.0000,0.9540 -0.4164,1.7071 -1.9062 2.4059l 0.0181,0.0362 c 1.0681,0.1810 2.5525,0.8870 2.5525 2.8602c 0.0000,2.3896 -1.9189,3.7835 -4.0731 3.7835c -1.0862,-0.0000 -2.6068,-0.4888 -2.6068 -1.2129c 0.0000,-0.2896 0.3802,-0.6336 0.7603 -0.6336c 0.3621,-0.0000 0.5974,0.2172 0.7784 0.4707c 0.2172,0.3259 0.3802,0.7422 1.3034 0.7422c 0.6336,-0.0000 2.2448,-0.4888 2.2448 -2.8965c 0.0000,-2.0456 -1.3396,-2.3353 -2.3715 -2.3353c -0.2353,-0.0000 -0.5612,-0.0000 -0.8689 0.0362l -0.0905,-0.5793 c 1.7940,-0.2552 2.8440,-1.6383 2.8440 -2.5471c 0.0000,-1.1640 -0.7223,-1.6347 -1.5043 -1.6347ZM 91.9026,17.7444 ZM 96.3921,5.0000 v 16.2201 h -3.8378 c -0.1086,-0.1086 -0.1086,-0.4345 0.0000 -0.5431c 2.4801,-0.1810 2.6249,-0.4526 2.6249 -2.0275v -11.0608 c 0.0000,-1.5749 -0.1267,-1.8465 -2.6249 -2.0456c -0.1086,-0.1086 -0.1086,-0.4345 0.0000 -0.5431h 3.8378 ZM 102.8729,17.7444 ZM 108.1770,13.5264 l -1.4301,0.3802 c -1.3396,0.3440 -1.7198,1.1767 -1.7198 1.9913c 0.0000,0.5612 0.3983,1.2853 1.3034 1.2853c 0.5069,-0.0000 1.1224,-0.4164 1.5930 -0.7965c 0.1448,-0.1086 0.2534,-0.2353 0.2534 -0.4707v -2.3896 ZM 108.1770,13.5264 ZM 108.1770,16.8755 h -0.0362 l -0.3621,0.2896 c -0.7965,0.6155 -1.3432,0.7603 -1.9732 0.7603c -1.2672,-0.0000 -2.2810,-0.4707 -2.2810 -1.9551c 0.0000,-1.2310 1.2491,-2.1904 2.9870 -2.6249l 1.5568,-0.3802 c 0.0543,-0.0181 0.1086,-0.0905 0.1086 -0.2172c 0.0000,-2.0456 -0.8508,-2.3534 -1.4663 -2.3534c -0.6879,-0.0000 -1.4482,0.1991 -1.4482 0.7603c 0.0000,0.1991 0.0181,0.3077 0.0362 0.3621c 0.0362,0.0724 0.0543,0.1991 0.0543 0.3259c 0.0000,0.2353 -0.3259,0.6155 -0.8508 0.6155c -0.4164,-0.0000 -0.6336,-0.2172 -0.6336 -0.6517c 0.0000,-1.0319 1.5025,-2.0094 2.9870 -2.0094c 1.3215,-0.0000 2.7335,0.4888 2.7335 3.0594v 2.6611 c 0.0000,0.8327 0.0181,1.5387 0.5431 1.5387c 0.2299,-0.0000 0.5340,-0.1774 0.6698 -0.2896c 0.2046,0.1140 0.2770,0.2661 0.3077 0.4888c -0.3747,0.3621 -1.0264,0.6698 -1.7198 0.6698c -0.9124,-0.0000 -1.1043,-0.4888 -1.2129 -1.0500ZM 111.1459,17.7444 ZM 111.9243,9.9783 l 0.8327,-0.0018 c 0.0000,-2.0076 -0.0543,-1.8881 -0.0543 -2.0981c 0.0000,-0.1249 0.1810,-0.1865 0.3983 -0.2480c 0.2263,-0.0634 0.4109,-0.1412 0.6155 -0.2552c 0.1684,-0.0923 0.3222,-0.1629 0.4037 -0.1629c 0.0851,-0.0000 0.1394,0.0434 0.1394 0.1593c 0.0000,-0.0000 -0.0724,0.7241 -0.0724 1.9008v 0.7060 h 2.1723 c 0.0905,-0.0000 0.1448,0.0362 0.1448 0.1086v 0.3621 c 0.0000,0.1629 -0.2534,0.2353 -0.4345 0.2353h -1.8827 v 4.5800 c 0.0000,1.1224 0.1086,1.6655 0.5974 1.6655c 0.4707,-0.0000 1.0138,-0.1448 1.4844 -0.5069c 0.1810,0.0181 0.2896,0.1213 0.3259 0.3077c -0.7060,0.7965 -1.6112,1.1948 -2.4439 1.1948c -0.8327,-0.0000 -1.3939,-0.5069 -1.3939 -1.7922v -5.4490 h -1.0681 c -0.0724,-0.0000 -0.0905,-0.0181 -0.0905 -0.1086v -0.2353 c 0.0000,-0.1448 0.0724,-0.3621 0.3259 -0.3621ZM 121.3921,17.7444 ZM 128.5355,6.3215 c 0.1883,0.9594 0.2607,1.4663 0.3240 2.3353c -0.1629,0.1267 -0.3983,0.1412 -0.5883 0.1086c -0.3621,-1.1948 -0.9232,-2.3172 -2.6810 -2.3172c -1.0663,-0.0000 -1.9823,1.0138 -1.9823 2.0275c 0.0000,1.5224 1.8085,2.2067 2.8802 2.6086c 1.4917,0.5594 2.9417,1.4030 2.9417 3.3291c 0.0000,1.1513 -0.6608,2.2665 -1.7017 2.9182c -0.6300,0.3928 -1.4102,0.5938 -2.2339 0.5938c -1.6057,-0.0000 -2.1108,-0.4164 -3.2513 -0.4164c -0.2172,-0.8870 -0.2896,-1.3577 -0.3621 -2.7516c 0.1738,-0.0923 0.3657,-0.1267 0.5883 -0.0543c 0.3983,1.8012 1.4862,2.5706 3.1770 2.5706c 1.4446,-0.0000 2.2629,-0.7603 2.2629 -2.2266c 0.0000,-1.7705 -1.3342,-2.2791 -2.4348 -2.6973c -1.5930,-0.6064 -3.1589,-1.4772 -3.1589 -3.3852c 0.0000,-1.9189 1.6112,-3.1318 3.4468 -3.1318c 1.7668,-0.0000 1.7270,0.3440 2.7734 0.4888ZM 130.1720,17.7444 ZM 130.9142,14.0333 c 0.0000,-1.1441 0.3440,-2.1977 1.0011 -2.9689c 0.6626,-0.7784 1.6455,-1.2672 2.8367 -1.2672c 2.7697,-0.0000 3.8016,2.1904 3.8016 4.0731c 0.0000,1.1097 -0.3675,2.2484 -1.1785 3.0413c -0.6173,0.6028 -1.4935,1.0138 -2.6593 1.0138c -2.5706,-0.0000 -3.8016,-2.0456 -3.8016 -3.8921ZM 130.9142,14.0333 ZM 134.4804,10.4308 c -1.6293,-0.0000 -2.0094,1.6112 -2.0094 3.1861c 0.0000,1.3939 0.6155,3.6749 2.4982 3.6749c 0.8508,-0.0000 2.0275,-0.5612 2.0275 -2.8421c 0.0000,-2.6068 -0.9594,-4.0188 -2.5163 -4.0188ZM 139.2958,17.7444 ZM 143.2241,17.9254 c -1.7922,-0.0000 -2.3353,-1.2129 -2.3353 -2.4620v -3.4757 c 0.0000,-1.1767 -0.2534,-1.3758 -1.1224 -1.4482c -0.1086,-0.1086 -0.1086,-0.4888 0.0000 -0.5974c 0.6155,0.0181 1.2672,0.0362 1.8465 0.0362c 0.2715,-0.0000 0.5431,-0.0181 0.6336 -0.0362c 0.0905,-0.0000 0.1448,0.0543 0.1448 0.1086c 0.0000,-0.0000 -0.0724,1.3215 -0.0724 1.8646v 3.2947 c 0.0000,1.6112 0.9051,1.8646 1.4482 1.8646c 0.4526,-0.0000 1.1405,-0.2896 1.8103 -0.8689c 0.2534,-0.2172 0.2896,-0.3621 0.2896 -0.7060v -3.4938 c 0.0000,-1.1948 -0.2353,-1.4120 -1.1224 -1.4663c -0.1086,-0.1086 -0.1086,-0.4888 0.0000 -0.5974c 0.6155,0.0181 1.2672,0.0362 1.8465 0.0362c 0.2715,-0.0000 0.5431,-0.0181 0.6336 -0.0362c 0.0905,-0.0000 0.1448,0.0543 0.1448 0.1086c 0.0000,-0.0000 -0.0724,1.3215 -0.0724 1.8646v 3.4757 c 0.0000,0.8870 0.1629,1.2310 1.3215 1.3215c 0.1086,0.1086 0.1086,0.3802 0.0000 0.4888c -1.1043,0.1267 -1.7379,0.3983 -2.1361 0.7241c -0.1177,0.0453 -0.1991,0.0543 -0.3440 -0.0000c 0.0000,-0.0000 -0.1539,-0.6064 -0.1991 -1.0681c -0.0127,-0.1267 -0.1810,-0.0905 -0.2715 -0.0181c -0.8870,0.7241 -1.7379,1.0862 -2.4439 1.0862ZM 148.9084,17.7444 ZM 152.0945,11.2636 c 0.0036,0.0905 0.0905,0.2353 0.1991 0.0362c 0.4164,-0.7060 1.1586,-1.5025 2.0094 -1.5025c 0.7603,-0.0000 1.0862,0.5232 1.0862 0.8689c 0.0000,0.4526 -0.4164,0.9051 -0.8508 0.9051c -0.3150,-0.0000 -0.5177,-0.2408 -0.6553 -0.4218c -0.1412,-0.1865 -0.3041,-0.2299 -0.4671 -0.2299c -0.2172,-0.0000 -0.6336,0.5974 -0.8327 0.8870c -0.2172,0.3259 -0.4345,0.7422 -0.4345 1.2129v 2.5163 c 0.0000,1.5025 0.2172,1.5568 1.4844 1.6474c 0.1086,0.1086 0.1086,0.4888 0.0000 0.5974c -0.6336,-0.0181 -1.4663,-0.0362 -2.1904 -0.0362c -0.7241,-0.0000 -1.4301,0.0181 -2.0637 0.0362c -0.1086,-0.1086 -0.1086,-0.4888 0.0000 -0.5974c 1.1224,-0.0724 1.3396,-0.1448 1.3396 -1.6474v -3.5301 c 0.0000,-1.0500 -0.1991,-1.1405 -1.1767 -1.2310c -0.0362,-0.1086 -0.0724,-0.3983 -0.0362 -0.5069c 1.2491,-0.1629 1.7198,-0.3259 2.2266 -0.5250c 0.1448,-0.0000 0.1792,0.0615 0.2172 0.1448c 0.0851,0.1865 0.1140,0.6517 0.1448 1.3758ZM 155.4978,17.7444 ZM 162.7028,16.0970 c -0.9051,1.4844 -1.8646,1.8284 -2.9508 1.8284c -2.2810,-0.0000 -3.5844,-1.6112 -3.5844 -3.9464c 0.0000,-2.5706 1.9189,-4.1818 3.7111 -4.1818c 1.7379,-0.0000 2.7697,0.7241 2.7697 1.7198c 0.0000,0.5612 -0.5069,0.7965 -0.8870 0.7965c -0.3802,-0.0000 -0.6336,-0.1629 -0.6879 -0.6517c -0.0724,-0.6336 -0.2172,-1.2672 -1.2853 -1.2672c -1.1948,-0.0000 -2.0637,1.1948 -2.0637 3.1861c 0.0000,2.1180 1.1043,3.4576 2.4258 3.4576c 0.7784,-0.0000 1.5568,-0.3983 2.1723 -1.1948c 0.1629,0.0181 0.3077,0.0905 0.3802 0.2534ZM 163.2458,17.7444 ZM 165.4906,12.6394 l 3.2766,-0.0543 c 0.1991,-0.0036 0.2715,-0.0905 0.2715 -0.2534c 0.0000,-1.5206 -0.8146,-1.9008 -1.5025 -1.9008c -0.4345,-0.0000 -1.7017,0.1629 -2.0456 2.2085ZM 165.4906,12.6394 ZM 170.2335,16.0608 c 0.2172,0.0181 0.3259,0.1086 0.3802 0.2896c -0.7241,0.9413 -1.7017,1.5749 -3.0775 1.5749c -1.3034,-0.0000 -2.1542,-0.4345 -2.7697 -1.1586c -0.5974,-0.6879 -0.8508,-1.6655 -0.8508 -2.6792c 0.0000,-2.7516 2.0456,-4.2542 3.6206 -4.2542c 2.5163,-0.0000 3.0594,1.6293 3.0594 3.1499c 0.0000,0.1991 -0.1267,0.3077 -0.3440 0.3077l -4.8154,-0.0362 c 0.0000,1.0500 0.2172,1.8827 0.5793 2.4801c 0.5612,0.9232 1.3215,1.3034 1.9732 1.3034c 1.0500,-0.0000 1.5749,-0.2896 2.2448 -0.9776Z"/></g></svg>