<?xml version="1.0" encoding="UTF-8"?>
<!DOCTYPE svg PUBLIC "-//W3C//DTD SVG 1.1//EN"
    "http://www.w3.org/Graphics/SVG/1.1/DTD/svg11.dtd"><svg xmlns="http://www.w3.org/2000/svg" viewBox="0.0 0.0 865.7487719995042 137.5" height="137.5000" font-size="1" stroke-opacity="1" width="865.7488" xmlns:xlink="http://www.w3.org/1999/xlink" stroke="rgb(0,0,0)" version="1.1"><defs></defs><g><g stroke-linecap="butt" fill="rgb(0,0,0)" stroke-miterlimit="10.0" stroke-width="0.5" fill-opacity="0.0" stroke-opacity="1.0" stroke-linejoin="miter" stroke="rgb(0,0,0)"><path d="M 695.9551,81.2500 h 20.0000 "/></g><g stroke-linecap="butt" fill="rgb(0,0,0)" stroke-miterlimit="10.0" stroke-width="0.0" fill-opacity="1.0" stroke-opacity="1.0" stroke-linejoin="miter" stroke="rgb(0,0,0)"></g><g stroke-linecap="butt" fill="rgb(0,0,0)" stroke-miterlimit="10.0" stroke-width="0.0" fill-opacity="1.0" stroke-opacity="1.0" stroke-linejoin="miter" stroke="rgb(0,0,0)"></g><g stroke-linecap="butt" fill="rgb(0,0,0)" stroke-miterlimit="10.0" stroke-width="0.0" fill-opacity="1.0" stroke-opacity="1.0" stroke-linejoin="miter" stroke="rgb(0,0,0)"><path d="M 720.9551,81.2500 l -5.0000,-2.8868 v 5.7735 Z"/></g><g stroke-linecap="butt" fill="rgb(0,0,0)" stroke-miterlimit="10.0" stroke-width="0.0" fill-opacity="1.0" stroke-opacity="1.0" stroke-linejoin="miter" stroke="rgb(0,0,0)"></g><title>Cut Shape ⊕ Scrap</title></g><g><g stroke-linecap="butt" fill="rgb(0,0,0)" stroke-miterlimit="10.0" stroke-width="0.5" fill-opacity="0.0" stroke-opacity="1.0" stroke-linejoin="miter" stroke="rgb(0,0,0)"><path d="M 695.9551,56.2500 h 20.0000 "/></g><g stroke-linecap="butt" fill="rgb(0,0,0)" stroke-miterlimit="10.0" stroke-width="0.0" fill-opacity="1.0" stroke-opacity="1.0" stroke-linejoin="miter" stroke="rgb(0,0,0)"></g><g stroke-linecap="butt" fill="rgb(0,0,0)" stroke-miterlimit="10.0" stroke-width="0.0" fill-opacity="1.0" stroke-opacity="1.0" stroke-linejoin="miter" stroke="rgb(0,0,0)"></g><g stroke-linecap="butt" fill="rgb(0,0,0)" stroke-miterlimit="10.0" stroke-width="0.0" fill-opacity="1.0" stroke-opacity="1.0" stroke-linejoin="miter" stroke="rgb(0,0,0)"><path d="M 720.9551,56.2500 l -5.0000,-2.8868 v 5.7735 Z"/></g><g stroke-linecap="butt" fill="rgb(0,0,0)" stroke-miterlimit="10.0" stroke-width="0.0" fill-opacity="1.0" stroke-opacity="1.0" stroke-linejoin="miter" stroke="rgb(0,0,0)"></g><title>Cutter</title></g><g stroke-linecap="butt" fill="rgb(255,255,255)" stroke-miterlimit="10.0" stroke-width="1.0" fill-opacity="1.0" stroke-opacity="1.0" stroke-linejoin="miter" stroke="rgb(0,0,0)"><path d="M 695.9551,56.2500 l -21.6506,12.5000 l 21.6506,12.5000 Z"/></g><g><g stroke-linecap="butt" fill="rgb(0,0,0)" stroke-miterlimit="10.0" stroke-width="0.5" fill-opacity="0.0" stroke-opacity="1.0" stroke-linejoin="miter" stroke="rgb(0,0,0)"><path d="M 624.3045,106.2500 h 20.0000 "/></g><g stroke-linecap="butt" fill="rgb(0,0,0)" stroke-miterlimit="10.0" stroke-width="0.0" fill-opacity="1.0" stroke-opacity="1.0" stroke-linejoin="miter" stroke="rgb(0,0,0)"></g><g stroke-linecap="butt" fill="rgb(0,0,0)" stroke-miterlimit="10.0" stroke-width="0.0" fill-opacity="1.0" stroke-opacity="1.0" stroke-linejoin="miter" stroke="rgb(0,0,0)"></g><g stroke-linecap="butt" fill="rgb(0,0,0)" stroke-miterlimit="10.0" stroke-width="0.0" fill-opacity="1.0" stroke-opacity="1.0" stroke-linejoin="miter" stroke="rgb(0,0,0)"><path d="M 649.3045,106.2500 l -5.0000,-2.8868 v 5.7735 Z"/></g><g stroke-linecap="butt" fill="rgb(0,0,0)" stroke-miterlimit="10.0" stroke-width="0.0" fill-opacity="1.0" stroke-opacity="1.0" stroke-linejoin="miter" stroke="rgb(0,0,0)"></g><title>Cut Shape ⊕ Scrap</title></g><g><g stroke-linecap="butt" fill="rgb(0,0,0)" stroke-miterlimit="10.0" stroke-width="0.5" fill-opacity="0.0" stroke-opacity="1.0" stroke-linejoin="miter" stroke="rgb(0,0,0)"><path d="M 624.3045,81.2500 h 20.0000 "/></g><g stroke-linecap="butt" fill="rgb(0,0,0)" stroke-miterlimit="10.0" stroke-width="0.0" fill-opacity="1.0" stroke-opacity="1.0" stroke-linejoin="miter" stroke="rgb(0,0,0)"></g><g stroke-linecap="butt" fill="rgb(0,0,0)" stroke-miterlimit="10.0" stroke-width="0.0" fill-opacity="1.0" stroke-opacity="1.0" stroke-linejoin="miter" stroke="rgb(0,0,0)"></g><g stroke-linecap="butt" fill="rgb(0,0,0)" stroke-miterlimit="10.0" stroke-width="0.0" fill-opacity="1.0" stroke-opacity="1.0" stroke-linejoin="miter" stroke="rgb(0,0,0)"><path d="M 649.3045,81.2500 l -5.0000,-2.8868 v 5.7735 Z"/></g><g stroke-linecap="butt" fill="rgb(0,0,0)" stroke-miterlimit="10.0" stroke-width="0.0" fill-opacity="1.0" stroke-opacity="1.0" stroke-linejoin="miter" stroke="rgb(0,0,0)"></g><title>Cutter</title></g><g stroke-linecap="butt" fill="rgb(255,255,255)" stroke-miterlimit="10.0" stroke-width="1.0" fill-opacity="1.0" stroke-opacity="1.0" stroke-linejoin="miter" stroke="rgb(0,0,0)"><path d="M 624.3045,81.2500 l -21.6506,12.5000 l 21.6506,12.5000 Z"/></g><g><g stroke-linecap="butt" fill="rgb(0,0,0)" stroke-miterlimit="10.0" stroke-width="0.5" fill-opacity="0.0" stroke-opacity="1.0" stroke-linejoin="miter" stroke="rgb(0,0,0)"><path d="M 552.6539,131.2500 h 20.0000 "/></g><g stroke-linecap="butt" fill="rgb(0,0,0)" stroke-miterlimit="10.0" stroke-width="0.0" fill-opacity="1.0" stroke-opacity="1.0" stroke-linejoin="miter" stroke="rgb(0,0,0)"></g><g stroke-linecap="butt" fill="rgb(0,0,0)" stroke-miterlimit="10.0" stroke-width="0.0" fill-opacity="1.0" stroke-opacity="1.0" stroke-linejoin="miter" stroke="rgb(0,0,0)"></g><g stroke-linecap="butt" fill="rgb(0,0,0)" stroke-miterlimit="10.0" stroke-width="0.0" fill-opacity="1.0" stroke-opacity="1.0" stroke-linejoin="miter" stroke="rgb(0,0,0)"><path d="M 577.6539,131.2500 l -5.0000,-2.8868 v 5.7735 Z"/></g><g stroke-linecap="butt" fill="rgb(0,0,0)" stroke-miterlimit="10.0" stroke-width="0.0" fill-opacity="1.0" stroke-opacity="1.0" stroke-linejoin="miter" stroke="rgb(0,0,0)"></g><title>Cut Shape ⊕ Scrap</title></g><g><g stroke-linecap="butt" fill="rgb(0,0,0)" stroke-miterlimit="10.0" stroke-width="0.5" fill-opacity="0.0" stroke-opacity="1.0" stroke-linejoin="miter" stroke="rgb(0,0,0)"><path d="M 552.6539,106.2500 h 20.0000 "/></g><g stroke-linecap="butt" fill="rgb(0,0,0)" stroke-miterlimit="10.0" stroke-width="0.0" fill-opacity="1.0" stroke-opacity="1.0" stroke-linejoin="miter" stroke="rgb(0,0,0)"></g><g stroke-linecap="butt" fill="rgb(0,0,0)" stroke-miterlimit="10.0" stroke-width="0.0" fill-opacity="1.0" stroke-opacity="1.0" stroke-linejoin="miter" stroke="rgb(0,0,0)"></g><g stroke-linecap="butt" fill="rgb(0,0,0)" stroke-miterlimit="10.0" stroke-width="0.0" fill-opacity="1.0" stroke-opacity="1.0" stroke-linejoin="miter" stroke="rgb(0,0,0)"><path d="M 577.6539,106.2500 l -5.0000,-2.8868 v 5.7735 Z"/></g><g stroke-linecap="butt" fill="rgb(0,0,0)" stroke-miterlimit="10.0" stroke-width="0.0" fill-opacity="1.0" stroke-opacity="1.0" stroke-linejoin="miter" stroke="rgb(0,0,0)"></g><title>Cutter</title></g><g stroke-linecap="butt" fill="rgb(255,255,255)" stroke-miterlimit="10.0" stroke-width="1.0" fill-opacity="1.0" stroke-opacity="1.0" stroke-linejoin="miter" stroke="rgb(0,0,0)"><path d="M 552.6539,137.5000 l -0.0000,-37.5000 h -32.0130 l -0.0000,37.5000 Z"/></g><g stroke-linecap="butt" fill="rgb(0,0,0)" stroke-miterlimit="10.0" stroke-width="0.0" fill-opacity="1.0" stroke-opacity="1.0" stroke-linejoin="miter" stroke="rgb(0,0,0)"><path d="M 525.3965,124.6063 ZM 530.5196,118.7591 h -1.6836 v 3.6387 c 0.0000,1.5025 0.3077,1.5930 1.5749 1.6474c 0.1086,0.1086 0.1086,0.4888 0.0000 0.5974c -0.6336,-0.0181 -1.5206,-0.0362 -2.3353 -0.0362c -0.8146,-0.0000 -1.7198,0.0181 -2.3534 0.0362c -0.1086,-0.1086 -0.1086,-0.4888 0.0000 -0.5974c 1.2672,-0.0543 1.5749,-0.1448 1.5749 -1.6474v -7.2592 c 0.0000,-1.5025 -0.3077,-1.5930 -1.5749 -1.6474c -0.1086,-0.1086 -0.1086,-0.4888 0.0000 -0.5974c 0.7241,0.0181 1.7560,0.0362 2.3353 0.0362h 4.6217 c 0.4471,-0.0000 0.5340,-0.0109 0.8508 -0.0724c 0.0434,-0.0000 0.0652,0.0127 0.0724 0.0543c 0.0253,0.1376 0.2987,1.8827 0.3928 2.6249c -0.1448,0.0543 -0.3440,0.0905 -0.5612 0.0905c -0.3983,-1.2491 -0.8508,-1.9732 -2.7697 -1.9732h -0.8146 c -0.7965,-0.0000 -1.0138,0.1810 -1.0138 1.1586v 3.2585 h 1.6836 c 1.5387,-0.0000 1.5930,-0.2353 1.6474 -1.2310c 0.1086,-0.1086 0.4888,-0.1086 0.5974 -0.0000c -0.0181,0.4707 -0.0362,0.9504 -0.0362 1.5568c 0.0000,0.6209 0.0181,1.1405 0.0362 1.5930c -0.1086,0.1086 -0.4888,0.1086 -0.5974 -0.0000c -0.0543,-0.8146 -0.1086,-1.2310 -1.6474 -1.2310ZM 534.1763,124.6063 ZM 535.8056,113.7627 c 0.0000,-0.4345 0.5069,-0.8689 0.9413 -0.8689c 0.4888,-0.0000 0.8689,0.5069 0.8689 0.9413c 0.0000,0.3820 -0.4345,0.8689 -0.9413 0.8689c -0.4345,-0.0000 -0.8689,-0.4707 -0.8689 -0.9413ZM 535.8056,113.7627 ZM 537.4529,122.3977 c 0.0000,1.5025 0.1991,1.5749 1.3034 1.6474c 0.1086,0.1086 0.1086,0.4888 0.0000 0.5974c -0.5974,-0.0181 -1.2853,-0.0362 -2.0094 -0.0362c -0.7241,-0.0000 -1.4301,0.0181 -2.0275 0.0362c -0.1086,-0.1086 -0.1086,-0.4888 0.0000 -0.5974c 1.1043,-0.0905 1.3034,-0.1448 1.3034 -1.6474v -3.5301 c 0.0000,-1.0319 -0.1901,-1.1387 -1.1767 -1.2310c -0.0362,-0.1086 -0.0724,-0.3983 -0.0362 -0.5069c 1.2491,-0.1629 1.9642,-0.3259 2.4801 -0.5250c 0.1448,-0.0000 0.2353,0.0543 0.2353 0.1267c 0.0000,-0.0000 -0.0724,1.1586 -0.0724 2.0583v 3.6079 ZM 539.0822,124.6063 ZM 542.3769,118.1255 l 1.1043,1.6293 c 0.1376,0.2028 0.2136,0.2172 0.3440 0.0362l 1.1767,-1.6474 c 0.4381,-0.6137 0.2299,-0.6698 -0.4345 -0.7422c -0.1086,-0.1086 -0.1086,-0.4888 0.0000 -0.5974c 0.4707,0.0181 0.9776,0.0362 1.5206 0.0362c 0.5431,-0.0000 0.9594,-0.0181 1.3215 -0.0362c 0.1086,0.1086 0.1086,0.4888 0.0000 0.5974c -0.6608,0.0543 -1.0862,0.1448 -1.7560 0.9957l -1.5206,1.9370 c -0.0851,0.1086 -0.0760,0.1647 0.0000 0.2715l 1.6293,2.2991 c 0.7295,1.0301 0.9902,1.0862 1.8103 1.1405c 0.1086,0.1086 0.1086,0.4888 0.0000 0.5974c -0.4345,-0.0181 -0.9232,-0.0362 -1.6112 -0.0362c -0.6517,-0.0000 -1.2491,0.0181 -1.7922 0.0362c -0.1086,-0.1086 -0.1086,-0.4888 0.0000 -0.5974c 0.5739,-0.0597 0.8653,-0.0923 0.2353 -0.9594l -1.0500,-1.4482 c -0.1140,-0.1557 -0.1756,-0.1792 -0.3259 0.0362l -1.1405,1.6474 c -0.4073,0.5883 -0.2534,0.6571 0.3983 0.7241c 0.1086,0.1086 0.1086,0.4888 0.0000 0.5974c -0.4707,-0.0181 -0.9776,-0.0362 -1.5206 -0.0362c -0.5431,-0.0000 -0.9413,0.0181 -1.3034 0.0362c -0.1086,-0.1086 -0.1086,-0.4888 0.0000 -0.5974c 0.6336,-0.0362 1.0391,-0.0923 1.7560 -1.0138l 1.5206,-1.9551 c 0.0652,-0.0833 0.0706,-0.1412 -0.0181 -0.2715l -1.5749,-2.2991 c -0.5069,-0.7422 -1.0138,-1.0500 -1.6293 -1.1043c -0.1086,-0.1086 -0.1086,-0.4888 0.0000 -0.5974c 0.4707,0.0181 1.0138,0.0362 1.5568 0.0362c 0.5431,-0.0000 1.3396,-0.0181 1.8284 -0.0362c 0.1086,0.1086 0.1086,0.4888 0.0000 0.5974c -0.8092,0.0851 -0.9395,0.1122 -0.5250 0.7241Z"/></g><g><g stroke-linecap="butt" fill="rgb(0,0,0)" stroke-miterlimit="10.0" stroke-width="0.5" fill-opacity="0.0" stroke-opacity="1.0" stroke-linejoin="miter" stroke="rgb(0,0,0)"><path d="M 495.6408,118.7500 h 20.0000 "/></g><g stroke-linecap="butt" fill="rgb(0,0,0)" stroke-miterlimit="10.0" stroke-width="0.0" fill-opacity="1.0" stroke-opacity="1.0" stroke-linejoin="miter" stroke="rgb(0,0,0)"></g><g stroke-linecap="butt" fill="rgb(0,0,0)" stroke-miterlimit="10.0" stroke-width="0.0" fill-opacity="1.0" stroke-opacity="1.0" stroke-linejoin="miter" stroke="rgb(0,0,0)"></g><g stroke-linecap="butt" fill="rgb(0,0,0)" stroke-miterlimit="10.0" stroke-width="0.0" fill-opacity="1.0" stroke-opacity="1.0" stroke-linejoin="miter" stroke="rgb(0,0,0)"><path d="M 520.6408,118.7500 l -5.0000,-2.8868 v 5.7735 Z"/></g><g stroke-linecap="butt" fill="rgb(0,0,0)" stroke-miterlimit="10.0" stroke-width="0.0" fill-opacity="1.0" stroke-opacity="1.0" stroke-linejoin="miter" stroke="rgb(0,0,0)"></g><title>Cutter Blocked</title></g><g><g stroke-linecap="butt" fill="rgb(0,0,0)" stroke-miterlimit="10.0" stroke-width="0.5" fill-opacity="0.0" stroke-opacity="1.0" stroke-linejoin="miter" stroke="rgb(0,0,0)"><path d="M 495.6408,50.0000 h 41.0065 "/></g><g stroke-linecap="butt" fill="rgb(0,0,0)" stroke-miterlimit="10.0" stroke-width="0.0" fill-opacity="1.0" stroke-opacity="1.0" stroke-linejoin="miter" stroke="rgb(0,0,0)"></g><g stroke-linecap="butt" fill="rgb(0,0,0)" stroke-miterlimit="10.0" stroke-width="0.0" fill-opacity="1.0" stroke-opacity="1.0" stroke-linejoin="miter" stroke="rgb(0,0,0)"></g><g stroke-linecap="butt" fill="rgb(0,0,0)" stroke-miterlimit="10.0" stroke-width="0.0" fill-opacity="1.0" stroke-opacity="1.0" stroke-linejoin="miter" stroke="rgb(0,0,0)"></g><g stroke-linecap="butt" fill="rgb(0,0,0)" stroke-miterlimit="10.0" stroke-width="0.0" fill-opacity="1.0" stroke-opacity="1.0" stroke-linejoin="miter" stroke="rgb(0,0,0)"></g><title>Cutter</title></g><g><g stroke-linecap="butt" fill="rgb(0,0,0)" stroke-miterlimit="10.0" stroke-width="0.5" fill-opacity="0.0" stroke-opacity="1.0" stroke-linejoin="miter" stroke="rgb(0,0,0)"><path d="M 495.6408,75.0000 h 41.0065 "/></g><g stroke-linecap="butt" fill="rgb(0,0,0)" stroke-miterlimit="10.0" stroke-width="0.0" fill-opacity="1.0" stroke-opacity="1.0" stroke-linejoin="miter" stroke="rgb(0,0,0)"></g><g stroke-linecap="butt" fill="rgb(0,0,0)" stroke-miterlimit="10.0" stroke-width="0.0" fill-opacity="1.0" stroke-opacity="1.0" stroke-linejoin="miter" stroke="rgb(0,0,0)"></g><g stroke-linecap="butt" fill="rgb(0,0,0)" stroke-miterlimit="10.0" stroke-width="0.0" fill-opacity="1.0" stroke-opacity="1.0" stroke-linejoin="miter" stroke="rgb(0,0,0)"></g><g stroke-linecap="butt" fill="rgb(0,0,0)" stroke-miterlimit="10.0" stroke-width="0.0" fill-opacity="1.0" stroke-opacity="1.0" stroke-linejoin="miter" stroke="rgb(0,0,0)"></g><title>Cut Shape ⊕ Scrap</title></g><g><g stroke-linecap="butt" fill="rgb(0,0,0)" stroke-miterlimit="10.0" stroke-width="0.5" fill-opacity="0.0" stroke-opacity="1.0" stroke-linejoin="miter" stroke="rgb(0,0,0)"><path d="M 536.6474,50.0000 h 41.0065 "/></g><g stroke-linecap="butt" fill="rgb(0,0,0)" stroke-miterlimit="10.0" stroke-width="0.0" fill-opacity="1.0" stroke-opacity="1.0" stroke-linejoin="miter" stroke="rgb(0,0,0)"></g><g stroke-linecap="butt" fill="rgb(0,0,0)" stroke-miterlimit="10.0" stroke-width="0.0" fill-opacity="1.0" stroke-opacity="1.0" stroke-linejoin="miter" stroke="rgb(0,0,0)"></g><g stroke-linecap="butt" fill="rgb(0,0,0)" stroke-miterlimit="10.0" stroke-width="0.0" fill-opacity="1.0" stroke-opacity="1.0" stroke-linejoin="miter" stroke="rgb(0,0,0)"></g><g stroke-linecap="butt" fill="rgb(0,0,0)" stroke-miterlimit="10.0" stroke-width="0.0" fill-opacity="1.0" stroke-opacity="1.0" stroke-linejoin="miter" stroke="rgb(0,0,0)"></g><title>Cutter</title></g><g><g stroke-linecap="butt" fill="rgb(0,0,0)" stroke-miterlimit="10.0" stroke-width="0.5" fill-opacity="0.0" stroke-opacity="1.0" stroke-linejoin="miter" stroke="rgb(0,0,0)"><path d="M 536.6474,75.0000 h 41.0065 "/></g><g stroke-linecap="butt" fill="rgb(0,0,0)" stroke-miterlimit="10.0" stroke-width="0.0" fill-opacity="1.0" stroke-opacity="1.0" stroke-linejoin="miter" stroke="rgb(0,0,0)"></g><g stroke-linecap="butt" fill="rgb(0,0,0)" stroke-miterlimit="10.0" stroke-width="0.0" fill-opacity="1.0" stroke-opacity="1.0" stroke-linejoin="miter" stroke="rgb(0,0,0)"></g><g stroke-linecap="butt" fill="rgb(0,0,0)" stroke-miterlimit="10.0" stroke-width="0.0" fill-opacity="1.0" stroke-opacity="1.0" stroke-linejoin="miter" stroke="rgb(0,0,0)"></g><g stroke-linecap="butt" fill="rgb(0,0,0)" stroke-miterlimit="10.0" stroke-width="0.0" fill-opacity="1.0" stroke-opacity="1.0" stroke-linejoin="miter" stroke="rgb(0,0,0)"></g><title>Cut Shape ⊕ Scrap</title></g><g stroke-linecap="butt" fill="rgb(255,255,255)" stroke-miterlimit="10.0" stroke-width="1.0" fill-opacity="1.0" stroke-opacity="1.0" stroke-linejoin="miter" stroke="rgb(0,0,0)"><path d="M 470.6408,93.7500 c 0.0000,-6.9036 -5.5964,-12.5000 -12.5000 -12.5000c -6.9036,-0.0000 -12.5000,5.5964 -12.5000 12.5000c -0.0000,6.9036 5.5964,12.5000 12.5000 12.5000c 6.9036,0.0000 12.5000,-5.5964 12.5000 -12.5000Z"/></g><g stroke-linecap="butt" fill="rgb(0,0,0)" stroke-miterlimit="10.0" stroke-width="1.0" fill-opacity="0.0" stroke-opacity="1.0" stroke-linejoin="miter" stroke="rgb(0,0,0)"><path d="M 458.1408,81.2500 v 25.0000 "/></g><g stroke-linecap="butt" fill="rgb(0,0,0)" stroke-miterlimit="10.0" stroke-width="1.0" fill-opacity="0.0" stroke-opacity="1.0" stroke-linejoin="miter" stroke="rgb(0,0,0)"><path d="M 445.6408,93.7500 h 25.0000 "/></g><g><g stroke-linecap="butt" fill="rgb(0,0,0)" stroke-miterlimit="10.0" stroke-width="0.5" fill-opacity="0.0" stroke-opacity="1.0" stroke-linejoin="miter" stroke="rgb(0,0,0)"><path d="M 577.6539,131.2500 l 34.1506,-32.2169 "/></g><g stroke-linecap="butt" fill="rgb(0,0,0)" stroke-miterlimit="10.0" stroke-width="0.0" fill-opacity="1.0" stroke-opacity="1.0" stroke-linejoin="miter" stroke="rgb(0,0,0)"></g><g stroke-linecap="butt" fill="rgb(0,0,0)" stroke-miterlimit="10.0" stroke-width="0.0" fill-opacity="1.0" stroke-opacity="1.0" stroke-linejoin="miter" stroke="rgb(0,0,0)"></g><g stroke-linecap="butt" fill="rgb(0,0,0)" stroke-miterlimit="10.0" stroke-width="0.0" fill-opacity="1.0" stroke-opacity="1.0" stroke-linejoin="miter" stroke="rgb(0,0,0)"></g><g stroke-linecap="butt" fill="rgb(0,0,0)" stroke-miterlimit="10.0" stroke-width="0.0" fill-opacity="1.0" stroke-opacity="1.0" stroke-linejoin="miter" stroke="rgb(0,0,0)"></g><title>Cut Shape ⊕ Scrap</title></g><g><g stroke-linecap="butt" fill="rgb(0,0,0)" stroke-miterlimit="10.0" stroke-width="0.5" fill-opacity="0.0" stroke-opacity="1.0" stroke-linejoin="miter" stroke="rgb(0,0,0)"><path d="M 577.6539,106.2500 l 34.1506,-7.2169 "/></g><g stroke-linecap="butt" fill="rgb(0,0,0)" stroke-miterlimit="10.0" stroke-width="0.0" fill-opacity="1.0" stroke-opacity="1.0" stroke-linejoin="miter" stroke="rgb(0,0,0)"></g><g stroke-linecap="butt" fill="rgb(0,0,0)" stroke-miterlimit="10.0" stroke-width="0.0" fill-opacity="1.0" stroke-opacity="1.0" stroke-linejoin="miter" stroke="rgb(0,0,0)"></g><g stroke-linecap="butt" fill="rgb(0,0,0)" stroke-miterlimit="10.0" stroke-width="0.0" fill-opacity="1.0" stroke-opacity="1.0" stroke-linejoin="miter" stroke="rgb(0,0,0)"></g><g stroke-linecap="butt" fill="rgb(0,0,0)" stroke-miterlimit="10.0" stroke-width="0.0" fill-opacity="1.0" stroke-opacity="1.0" stroke-linejoin="miter" stroke="rgb(0,0,0)"></g><title>Cutter</title></g><g><g stroke-linecap="butt" fill="rgb(0,0,0)" stroke-miterlimit="10.0" stroke-width="0.5" fill-opacity="0.0" stroke-opacity="1.0" stroke-linejoin="miter" stroke="rgb(0,0,0)"><path d="M 577.6539,75.0000 l 34.1506,13.4669 "/></g><g stroke-linecap="butt" fill="rgb(0,0,0)" stroke-miterlimit="10.0" stroke-width="0.0" fill-opacity="1.0" stroke-opacity="1.0" stroke-linejoin="miter" stroke="rgb(0,0,0)"></g><g stroke-linecap="butt" fill="rgb(0,0,0)" stroke-miterlimit="10.0" stroke-width="0.0" fill-opacity="1.0" stroke-opacity="1.0" stroke-linejoin="miter" stroke="rgb(0,0,0)"></g><g stroke-linecap="butt" fill="rgb(0,0,0)" stroke-miterlimit="10.0" stroke-width="0.0" fill-opacity="1.0" stroke-opacity="1.0" stroke-linejoin="miter" stroke="rgb(0,0,0)"></g><g stroke-linecap="butt" fill="rgb(0,0,0)" stroke-miterlimit="10.0" stroke-width="0.0" fill-opacity="1.0" stroke-opacity="1.0" stroke-linejoin="miter" stroke="rgb(0,0,0)"></g><title>Cut Shape ⊕ Scrap</title></g><g><g stroke-linecap="butt" fill="rgb(0,0,0)" stroke-miterlimit="10.0" stroke-width="0.5" fill-opacity="0.0" stroke-opacity="1.0" stroke-linejoin="miter" stroke="rgb(0,0,0)"><path d="M 577.6539,50.0000 l 34.1506,38.4669 "/></g><g stroke-linecap="butt" fill="rgb(0,0,0)" stroke-miterlimit="10.0" stroke-width="0.0" fill-opacity="1.0" stroke-opacity="1.0" stroke-linejoin="miter" stroke="rgb(0,0,0)"></g><g stroke-linecap="butt" fill="rgb(0,0,0)" stroke-miterlimit="10.0" stroke-width="0.0" fill-opacity="1.0" stroke-opacity="1.0" stroke-linejoin="miter" stroke="rgb(0,0,0)"></g><g stroke-linecap="butt" fill="rgb(0,0,0)" stroke-miterlimit="10.0" stroke-width="0.0" fill-opacity="1.0" stroke-opacity="1.0" stroke-linejoin="miter" stroke="rgb(0,0,0)"></g><g stroke-linecap="butt" fill="rgb(0,0,0)" stroke-miterlimit="10.0" stroke-width="0.0" fill-opacity="1.0" stroke-opacity="1.0" stroke-linejoin="miter" stroke="rgb(0,0,0)"></g><title>Cutter</title></g><g><g stroke-linecap="butt" fill="rgb(0,0,0)" stroke-miterlimit="10.0" stroke-width="0.5" fill-opacity="0.0" stroke-opacity="1.0" stroke-linejoin="miter" stroke="rgb(0,0,0)"><path d="M 495.6408,118.7500 l -37.5000,-12.5000 "/></g><g stroke-linecap="butt" fill="rgb(0,0,0)" stroke-miterlimit="10.0" stroke-width="0.0" fill-opacity="1.0" stroke-opacity="1.0" stroke-linejoin="miter" stroke="rgb(0,0,0)"></g><g stroke-linecap="butt" fill="rgb(0,0,0)" stroke-miterlimit="10.0" stroke-width="0.0" fill-opacity="1.0" stroke-opacity="1.0" stroke-linejoin="miter" stroke="rgb(0,0,0)"></g><g stroke-linecap="butt" fill="rgb(0,0,0)" stroke-miterlimit="10.0" stroke-width="0.0" fill-opacity="1.0" stroke-opacity="1.0" stroke-linejoin="miter" stroke="rgb(0,0,0)"></g><g stroke-linecap="butt" fill="rgb(0,0,0)" stroke-miterlimit="10.0" stroke-width="0.0" fill-opacity="1.0" stroke-opacity="1.0" stroke-linejoin="miter" stroke="rgb(0,0,0)"></g><title>Cutter Blocked</title></g><g><g stroke-linecap="butt" fill="rgb(0,0,0)" stroke-miterlimit="10.0" stroke-width="0.5" fill-opacity="0.0" stroke-opacity="1.0" stroke-linejoin="miter" stroke="rgb(0,0,0)"><path d="M 495.6408,75.0000 l -37.5000,6.2500 "/></g><g stroke-linecap="butt" fill="rgb(0,0,0)" stroke-miterlimit="10.0" stroke-width="0.0" fill-opacity="1.0" stroke-opacity="1.0" stroke-linejoin="miter" stroke="rgb(0,0,0)"></g><g stroke-linecap="butt" fill="rgb(0,0,0)" stroke-miterlimit="10.0" stroke-width="0.0" fill-opacity="1.0" stroke-opacity="1.0" stroke-linejoin="miter" stroke="rgb(0,0,0)"></g><g stroke-linecap="butt" fill="rgb(0,0,0)" stroke-miterlimit="10.0" stroke-width="0.0" fill-opacity="1.0" stroke-opacity="1.0" stroke-linejoin="miter" stroke="rgb(0,0,0)"></g><g stroke-linecap="butt" fill="rgb(0,0,0)" stroke-miterlimit="10.0" stroke-width="0.0" fill-opacity="1.0" stroke-opacity="1.0" stroke-linejoin="miter" stroke="rgb(0,0,0)"></g><title>Cut Shape ⊕ Scrap</title></g><g><g stroke-linecap="butt" fill="rgb(0,0,0)" stroke-miterlimit="10.0" stroke-width="0.5" fill-opacity="0.0" stroke-opacity="1.0" stroke-linejoin="miter" stroke="rgb(0,0,0)"><path d="M 495.6408,50.0000 l -37.5000,31.2500 "/></g><g stroke-linecap="butt" fill="rgb(0,0,0)" stroke-miterlimit="10.0" stroke-width="0.0" fill-opacity="1.0" stroke-opacity="1.0" stroke-linejoin="miter" stroke="rgb(0,0,0)"></g><g stroke-linecap="butt" fill="rgb(0,0,0)" stroke-miterlimit="10.0" stroke-width="0.0" fill-opacity="1.0" stroke-opacity="1.0" stroke-linejoin="miter" stroke="rgb(0,0,0)"></g><g stroke-linecap="butt" fill="rgb(0,0,0)" stroke-miterlimit="10.0" stroke-width="0.0" fill-opacity="1.0" stroke-opacity="1.0" stroke-linejoin="miter" stroke="rgb(0,0,0)"></g><g stroke-linecap="butt" fill="rgb(0,0,0)" stroke-miterlimit="10.0" stroke-width="0.0" fill-opacity="1.0" stroke-opacity="1.0" stroke-linejoin="miter" stroke="rgb(0,0,0)"></g><title>Cutter</title></g><g><g stroke-linecap="butt" fill="rgb(0,0,0)" stroke-miterlimit="10.0" stroke-width="0.5" fill-opacity="0.0" stroke-opacity="1.0" stroke-linejoin="miter" stroke="rgb(0,0,0)"><path d="M 420.6408,93.7500 h 20.0000 "/></g><g stroke-linecap="butt" fill="rgb(0,0,0)" stroke-miterlimit="10.0" stroke-width="0.0" fill-opacity="1.0" stroke-opacity="1.0" stroke-linejoin="miter" stroke="rgb(0,0,0)"></g><g stroke-linecap="butt" fill="rgb(0,0,0)" stroke-miterlimit="10.0" stroke-width="0.0" fill-opacity="1.0" stroke-opacity="1.0" stroke-linejoin="miter" stroke="rgb(0,0,0)"></g><g stroke-linecap="butt" fill="rgb(0,0,0)" stroke-miterlimit="10.0" stroke-width="0.0" fill-opacity="1.0" stroke-opacity="1.0" stroke-linejoin="miter" stroke="rgb(0,0,0)"><path d="M 445.6408,93.7500 l -5.0000,-2.8868 v 5.7735 Z"/></g><g stroke-linecap="butt" fill="rgb(0,0,0)" stroke-miterlimit="10.0" stroke-width="0.0" fill-opacity="1.0" stroke-opacity="1.0" stroke-linejoin="miter" stroke="rgb(0,0,0)"></g><title>(Cutter ∙ (Cut Shape ⊕ Scrap)) ⊕ Cutter Blocked</title></g><g><g stroke-linecap="butt" fill="rgb(0,0,0)" stroke-miterlimit="10.0" stroke-width="0.5" fill-opacity="0.0" stroke-opacity="1.0" stroke-linejoin="miter" stroke="rgb(0,0,0)"><path d="M 370.6408,93.7500 h 20.0000 "/></g><g stroke-linecap="butt" fill="rgb(0,0,0)" stroke-miterlimit="10.0" stroke-width="0.0" fill-opacity="1.0" stroke-opacity="1.0" stroke-linejoin="miter" stroke="rgb(0,0,0)"></g><g stroke-linecap="butt" fill="rgb(0,0,0)" stroke-miterlimit="10.0" stroke-width="0.0" fill-opacity="1.0" stroke-opacity="1.0" stroke-linejoin="miter" stroke="rgb(0,0,0)"></g><g stroke-linecap="butt" fill="rgb(0,0,0)" stroke-miterlimit="10.0" stroke-width="0.0" fill-opacity="1.0" stroke-opacity="1.0" stroke-linejoin="miter" stroke="rgb(0,0,0)"><path d="M 395.6408,93.7500 l -5.0000,-2.8868 v 5.7735 Z"/></g><g stroke-linecap="butt" fill="rgb(0,0,0)" stroke-miterlimit="10.0" stroke-width="0.0" fill-opacity="1.0" stroke-opacity="1.0" stroke-linejoin="miter" stroke="rgb(0,0,0)"></g><title>(Cutter ∙ (Cut Shape ⊕ Scrap)) ⊕ Cutter Blocked</title></g><g stroke-linecap="butt" fill="rgb(255,255,255)" stroke-miterlimit="10.0" stroke-width="1.0" fill-opacity="1.0" stroke-opacity="1.0" stroke-linejoin="miter" stroke="rgb(0,0,0)"><path d="M 370.6408,105.1765 l -0.0000,-22.8530 h -71.5677 l -0.0000,22.8530 Z"/></g><g stroke-linecap="butt" fill="rgb(0,0,0)" stroke-miterlimit="10.0" stroke-width="0.0" fill-opacity="1.0" stroke-opacity="1.0" stroke-linejoin="miter" stroke="rgb(0,0,0)"><path d="M 303.9736,99.9593 ZM 307.0873,90.4915 v 4.6524 c 0.0000,1.1767 0.0362,2.5525 0.9232 3.4033c 0.5449,0.5232 1.2853,0.8508 2.1542 0.8508c 3.0594,-0.0000 3.3309,-2.4258 3.3309 -4.4533v -4.4533 c 0.0000,-1.4663 -0.3077,-1.5206 -1.6655 -1.6474c -0.1086,-0.1086 -0.1086,-0.4888 0.0000 -0.5974c 0.8327,0.0181 1.7107,0.0362 2.0999 0.0362c 0.4200,-0.0000 1.1586,-0.0181 1.8465 -0.0362c 0.1086,0.1086 0.1086,0.4888 0.0000 0.5974c -1.0862,0.1267 -1.3939,0.1937 -1.3939 1.6474v 4.1274 c 0.0000,3.2223 -0.8870,5.5214 -4.5981 5.5214c -1.8555,-0.0000 -4.2361,-0.7060 -4.2361 -4.3990v -5.2498 c 0.0000,-1.5025 -0.3077,-1.5930 -1.3939 -1.6474c -0.1086,-0.1086 -0.1086,-0.4888 0.0000 -0.5974c 0.7060,0.0181 1.4482,0.0362 2.1542 0.0362c 0.7133,-0.0000 1.5930,-0.0181 2.4439 -0.0362c 0.1086,0.1086 0.1086,0.4888 0.0000 0.5974c -1.3939,0.0543 -1.6655,0.1448 -1.6655 1.6474ZM 315.9395,99.9593 ZM 319.2705,93.4785 c 1.0735,-1.2310 2.0818,-1.4663 2.9689 -1.4663c 0.6336,-0.0000 1.1948,0.2172 1.5025 0.6155c 0.4164,0.5612 0.4888,1.4301 0.4888 2.4258v 2.6973 c 0.0000,1.4844 0.1991,1.5568 1.2129 1.6474c 0.0905,0.1086 0.0905,0.4888 0.0000 0.5974c -0.5431,-0.0181 -1.1948,-0.0362 -1.9189 -0.0362c -0.7241,-0.0000 -1.3034,0.0181 -1.8465 0.0362c -0.0905,-0.1086 -0.0905,-0.4888 0.0000 -0.5974c 0.9413,-0.0905 1.1224,-0.1629 1.1224 -1.6474v -2.7516 c 0.0000,-0.5431 -0.0362,-1.0319 -0.2172 -1.3939c -0.2172,-0.4164 -0.5974,-0.6517 -0.9594 -0.6517c -0.7060,-0.0000 -1.5206,0.3983 -2.2085 1.0681c -0.1448,0.1629 -0.3077,0.3802 -0.3077 0.7603v 2.9689 c 0.0000,1.4844 0.1810,1.5568 1.1043 1.6474c 0.1086,0.1086 0.1086,0.4888 0.0000 0.5974c -0.5431,-0.0181 -1.0862,-0.0362 -1.8103 -0.0362c -0.7241,-0.0000 -1.4482,0.0181 -1.9913 0.0362c -0.1086,-0.1086 -0.1086,-0.4888 0.0000 -0.5974c 1.0862,-0.0905 1.2672,-0.1629 1.2672 -1.6474v -3.5301 c 0.0000,-1.0500 -0.1991,-1.1405 -1.1767 -1.2310c -0.0362,-0.1086 -0.0724,-0.3983 -0.0362 -0.5069c 1.2491,-0.1629 1.7198,-0.3259 2.2266 -0.5250c 0.1448,-0.0000 0.1792,0.0615 0.2172 0.1448c 0.0851,0.1865 0.1267,0.8870 0.1448 1.3758c 0.0054,0.1702 0.1068,0.1267 0.2172 -0.0000ZM 325.7513,99.9593 ZM 328.9012,93.3879 c -0.2335,0.2064 -0.3077,0.3802 -0.3077 0.7603v 4.5257 c 0.3621,0.4526 0.7422,0.8508 1.3034 0.8508c 1.7198,-0.0000 2.5525,-1.5568 2.5525 -3.6206c 0.0000,-1.7560 -0.9051,-3.0956 -2.0094 -3.0956c -0.5250,-0.0000 -1.0681,0.1629 -1.5387 0.5793ZM 328.9012,93.3879 ZM 328.7744,92.8268 c 0.5612,-0.5069 1.2509,-0.8146 2.0275 -0.8146c 1.5749,-0.0000 3.2042,1.3577 3.2042 3.5663c 0.0000,2.8783 -2.1542,4.5619 -4.0007 4.5619c -0.6390,-0.0000 -1.1785,-0.0996 -1.5930 -0.4490c -0.1991,-0.1665 -0.3077,-0.1665 -0.4942 0.0507c -0.1394,0.1611 -0.3186,0.3295 -0.4290 0.4345c -0.2172,-0.0000 -0.3077,-0.0724 -0.3983 -0.2172c 0.0543,-0.2534 0.0724,-0.5793 0.0724 -1.2853v -8.8342 c 0.0000,-1.5206 -0.2172,-1.4301 -1.1586 -1.4844c -0.1086,-0.1086 -0.1448,-0.3983 -0.1086 -0.5431c 0.7241,-0.0543 2.0818,-0.3077 2.5344 -0.4888c 0.1629,-0.0000 0.2353,0.0543 0.2353 0.1810c 0.0000,-0.0000 -0.0724,0.7241 -0.0724 1.9008v 3.3309 c 0.0000,0.1629 0.0670,0.1937 0.1810 0.0905ZM 334.6760,99.9593 ZM 336.3957,97.7507 v -7.9109 c 0.0000,-1.3577 -0.1086,-1.4120 -1.1586 -1.4844c -0.1086,-0.1086 -0.1448,-0.3983 -0.1086 -0.5431c 0.7241,-0.0543 2.0818,-0.3077 2.5344 -0.4888c 0.1629,-0.0000 0.2353,0.0543 0.2353 0.1810c 0.0000,-0.0000 -0.0724,0.7241 -0.0724 1.9008v 8.3454 c 0.0000,1.5025 0.1991,1.5930 1.3034 1.6474c 0.1086,0.1086 0.1086,0.4888 0.0000 0.5974c -0.5974,-0.0181 -1.2853,-0.0362 -2.0094 -0.0362c -0.7241,-0.0000 -1.3939,0.0181 -2.0275 0.0362c -0.1086,-0.1086 -0.1086,-0.4888 0.0000 -0.5974c 1.1043,-0.0543 1.3034,-0.1448 1.3034 -1.6474ZM 339.4551,99.9593 ZM 340.1973,96.2482 c 0.0000,-1.1441 0.3440,-2.1977 1.0011 -2.9689c 0.6626,-0.7784 1.6455,-1.2672 2.8367 -1.2672c 2.7697,-0.0000 3.8016,2.1904 3.8016 4.0731c 0.0000,1.1097 -0.3675,2.2484 -1.1785 3.0413c -0.6173,0.6028 -1.4935,1.0138 -2.6593 1.0138c -2.5706,-0.0000 -3.8016,-2.0456 -3.8016 -3.8921ZM 340.1973,96.2482 ZM 343.7636,92.6457 c -1.6293,-0.0000 -2.0094,1.6112 -2.0094 3.1861c 0.0000,1.3939 0.6155,3.6749 2.4982 3.6749c 0.8508,-0.0000 2.0275,-0.5612 2.0275 -2.8421c 0.0000,-2.6068 -0.9594,-4.0188 -2.5163 -4.0188ZM 348.7056,99.9593 ZM 355.9106,98.3119 c -0.9051,1.4844 -1.8646,1.8284 -2.9508 1.8284c -2.2810,-0.0000 -3.5844,-1.6112 -3.5844 -3.9464c 0.0000,-2.5706 1.9189,-4.1818 3.7111 -4.1818c 1.7379,-0.0000 2.7697,0.7241 2.7697 1.7198c 0.0000,0.5612 -0.5069,0.7965 -0.8870 0.7965c -0.3802,-0.0000 -0.6336,-0.1629 -0.6879 -0.6517c -0.0724,-0.6336 -0.2172,-1.2672 -1.2853 -1.2672c -1.1948,-0.0000 -2.0637,1.1948 -2.0637 3.1861c 0.0000,2.1180 1.1043,3.4576 2.4258 3.4576c 0.7784,-0.0000 1.5568,-0.3983 2.1723 -1.1948c 0.1629,0.0181 0.3077,0.0905 0.3802 0.2534ZM 356.4537,99.9593 ZM 358.0105,97.7507 v -7.9109 c 0.0000,-1.5206 -0.2172,-1.4301 -1.1586 -1.4844c -0.1086,-0.1086 -0.1448,-0.3983 -0.1086 -0.5431c 0.7241,-0.0543 2.0818,-0.3077 2.5344 -0.4888c 0.1629,-0.0000 0.2353,0.0543 0.2353 0.1810c 0.0000,-0.0000 -0.0724,0.7241 -0.0724 1.9008v 6.3143 c 0.3421,-0.0471 0.8291,-0.2607 1.2310 -0.5576c 0.4652,-0.3440 1.0319,-0.9594 1.4482 -1.4844c 0.1684,-0.2118 0.5974,-0.8508 -0.4164 -0.9232c -0.1086,-0.1086 -0.1086,-0.4888 0.0000 -0.5974c 0.4164,0.0181 1.0862,0.0362 1.7741 0.0362c 0.6517,-0.0000 1.1586,-0.0181 1.5749 -0.0362c 0.1086,0.1086 0.1086,0.4888 0.0000 0.5974c -0.7241,0.0724 -1.3577,0.2172 -1.9008 0.7965l -1.5930,1.6474 c -0.0724,0.0724 -0.0724,0.1086 -0.0724 0.1810c 0.0000,0.0905 0.0615,0.1720 0.1267 0.2534l 2.3896,3.0051 c 0.4833,0.6083 0.9413,0.6879 1.5568 0.7603c 0.1086,0.1086 0.1086,0.4888 0.0000 0.5974c -0.3621,-0.0181 -0.9232,-0.0362 -1.4844 -0.0362c -0.3621,-0.0000 -0.7603,0.0181 -1.1224 0.0362c -0.0543,-0.0000 -0.0670,-0.0362 -0.0724 -0.0905c -0.0235,-0.2118 -0.2281,-0.5521 -0.7603 -1.2672l -1.3215,-1.7741 c -0.2154,-0.2896 -0.3802,-0.4526 -0.5793 -0.5883c -0.1756,-0.0615 -0.4308,-0.0887 -0.7784 -0.0978v 1.5731 c 0.0000,1.5025 0.1991,1.5749 0.9413 1.6474c 0.1086,0.1086 0.1086,0.4888 0.0000 0.5974c -0.4164,-0.0181 -1.0138,-0.0362 -1.6474 -0.0362c -0.7241,-0.0000 -1.3396,0.0181 -1.9370 0.0362c -0.1086,-0.1086 -0.1086,-0.4888 0.0000 -0.5974c 1.0138,-0.0724 1.2129,-0.1448 1.2129 -1.6474Z"/></g><g><g stroke-linecap="butt" fill="rgb(0,0,0)" stroke-miterlimit="10.0" stroke-width="0.5" fill-opacity="0.0" stroke-opacity="1.0" stroke-linejoin="miter" stroke="rgb(0,0,0)"><path d="M 274.0731,93.7500 h 20.0000 "/></g><g stroke-linecap="butt" fill="rgb(0,0,0)" stroke-miterlimit="10.0" stroke-width="0.0" fill-opacity="1.0" stroke-opacity="1.0" stroke-linejoin="miter" stroke="rgb(0,0,0)"></g><g stroke-linecap="butt" fill="rgb(0,0,0)" stroke-miterlimit="10.0" stroke-width="0.0" fill-opacity="1.0" stroke-opacity="1.0" stroke-linejoin="miter" stroke="rgb(0,0,0)"></g><g stroke-linecap="butt" fill="rgb(0,0,0)" stroke-miterlimit="10.0" stroke-width="0.0" fill-opacity="1.0" stroke-opacity="1.0" stroke-linejoin="miter" stroke="rgb(0,0,0)"><path d="M 299.0731,93.7500 l -5.0000,-2.8868 v 5.7735 Z"/></g><g stroke-linecap="butt" fill="rgb(0,0,0)" stroke-miterlimit="10.0" stroke-width="0.0" fill-opacity="1.0" stroke-opacity="1.0" stroke-linejoin="miter" stroke="rgb(0,0,0)"></g><title>Cutter Blocked</title></g><g><g stroke-linecap="butt" fill="rgb(0,0,0)" stroke-miterlimit="10.0" stroke-width="0.5" fill-opacity="0.0" stroke-opacity="1.0" stroke-linejoin="miter" stroke="rgb(0,0,0)"><path d="M 395.6408,93.7500 h 25.0000 "/></g><g stroke-linecap="butt" fill="rgb(0,0,0)" stroke-miterlimit="10.0" stroke-width="0.0" fill-opacity="1.0" stroke-opacity="1.0" stroke-linejoin="miter" stroke="rgb(0,0,0)"></g><g stroke-linecap="butt" fill="rgb(0,0,0)" stroke-miterlimit="10.0" stroke-width="0.0" fill-opacity="1.0" stroke-opacity="1.0" stroke-linejoin="miter" stroke="rgb(0,0,0)"></g><g stroke-linecap="butt" fill="rgb(0,0,0)" stroke-miterlimit="10.0" stroke-width="0.0" fill-opacity="1.0" stroke-opacity="1.0" stroke-linejoin="miter" stroke="rgb(0,0,0)"></g><g stroke-linecap="butt" fill="rgb(0,0,0)" stroke-miterlimit="10.0" stroke-width="0.0" fill-opacity="1.0" stroke-opacity="1.0" stroke-linejoin="miter" stroke="rgb(0,0,0)"></g><title>(Cutter ∙ (Cut Shape ⊕ Scrap)) ⊕ Cutter Blocked</title></g><g><g stroke-linecap="butt" fill="rgb(0,0,0)" stroke-miterlimit="10.0" stroke-width="0.5" fill-opacity="0.0" stroke-opacity="1.0" stroke-linejoin="miter" stroke="rgb(0,0,0)"><path d="M 274.0731,0.0000 h 187.6157 "/></g><g stroke-linecap="butt" fill="rgb(0,0,0)" stroke-miterlimit="10.0" stroke-width="0.0" fill-opacity="1.0" stroke-opacity="1.0" stroke-linejoin="miter" stroke="rgb(0,0,0)"></g><g stroke-linecap="butt" fill="rgb(0,0,0)" stroke-miterlimit="10.0" stroke-width="0.0" fill-opacity="1.0" stroke-opacity="1.0" stroke-linejoin="miter" stroke="rgb(0,0,0)"></g><g stroke-linecap="butt" fill="rgb(0,0,0)" stroke-miterlimit="10.0" stroke-width="0.0" fill-opacity="1.0" stroke-opacity="1.0" stroke-linejoin="miter" stroke="rgb(0,0,0)"></g><g stroke-linecap="butt" fill="rgb(0,0,0)" stroke-miterlimit="10.0" stroke-width="0.0" fill-opacity="1.0" stroke-opacity="1.0" stroke-linejoin="miter" stroke="rgb(0,0,0)"></g><title>Cutter</title></g><g><g stroke-linecap="butt" fill="rgb(0,0,0)" stroke-miterlimit="10.0" stroke-width="0.5" fill-opacity="0.0" stroke-opacity="1.0" stroke-linejoin="miter" stroke="rgb(0,0,0)"><path d="M 274.0731,25.0000 h 187.6157 "/></g><g stroke-linecap="butt" fill="rgb(0,0,0)" stroke-miterlimit="10.0" stroke-width="0.0" fill-opacity="1.0" stroke-opacity="1.0" stroke-linejoin="miter" stroke="rgb(0,0,0)"></g><g stroke-linecap="butt" fill="rgb(0,0,0)" stroke-miterlimit="10.0" stroke-width="0.0" fill-opacity="1.0" stroke-opacity="1.0" stroke-linejoin="miter" stroke="rgb(0,0,0)"></g><g stroke-linecap="butt" fill="rgb(0,0,0)" stroke-miterlimit="10.0" stroke-width="0.0" fill-opacity="1.0" stroke-opacity="1.0" stroke-linejoin="miter" stroke="rgb(0,0,0)"></g><g stroke-linecap="butt" fill="rgb(0,0,0)" stroke-miterlimit="10.0" stroke-width="0.0" fill-opacity="1.0" stroke-opacity="1.0" stroke-linejoin="miter" stroke="rgb(0,0,0)"></g><title>Cut Shape ⊕ Scrap</title></g><g><g stroke-linecap="butt" fill="rgb(0,0,0)" stroke-miterlimit="10.0" stroke-width="0.5" fill-opacity="0.0" stroke-opacity="1.0" stroke-linejoin="miter" stroke="rgb(0,0,0)"><path d="M 461.6888,0.0000 h 187.6157 "/></g><g stroke-linecap="butt" fill="rgb(0,0,0)" stroke-miterlimit="10.0" stroke-width="0.0" fill-opacity="1.0" stroke-opacity="1.0" stroke-linejoin="miter" stroke="rgb(0,0,0)"></g><g stroke-linecap="butt" fill="rgb(0,0,0)" stroke-miterlimit="10.0" stroke-width="0.0" fill-opacity="1.0" stroke-opacity="1.0" stroke-linejoin="miter" stroke="rgb(0,0,0)"></g><g stroke-linecap="butt" fill="rgb(0,0,0)" stroke-miterlimit="10.0" stroke-width="0.0" fill-opacity="1.0" stroke-opacity="1.0" stroke-linejoin="miter" stroke="rgb(0,0,0)"></g><g stroke-linecap="butt" fill="rgb(0,0,0)" stroke-miterlimit="10.0" stroke-width="0.0" fill-opacity="1.0" stroke-opacity="1.0" stroke-linejoin="miter" stroke="rgb(0,0,0)"></g><title>Cutter</title></g><g><g stroke-linecap="butt" fill="rgb(0,0,0)" stroke-miterlimit="10.0" stroke-width="0.5" fill-opacity="0.0" stroke-opacity="1.0" stroke-linejoin="miter" stroke="rgb(0,0,0)"><path d="M 461.6888,25.0000 h 187.6157 "/></g><g stroke-linecap="butt" fill="rgb(0,0,0)" stroke-miterlimit="10.0" stroke-width="0.0" fill-opacity="1.0" stroke-opacity="1.0" stroke-linejoin="miter" stroke="rgb(0,0,0)"></g><g stroke-linecap="butt" fill="rgb(0,0,0)" stroke-miterlimit="10.0" stroke-width="0.0" fill-opacity="1.0" stroke-opacity="1.0" stroke-linejoin="miter" stroke="rgb(0,0,0)"></g><g stroke-linecap="butt" fill="rgb(0,0,0)" stroke-miterlimit="10.0" stroke-width="0.0" fill-opacity="1.0" stroke-opacity="1.0" stroke-linejoin="miter" stroke="rgb(0,0,0)"></g><g stroke-linecap="butt" fill="rgb(0,0,0)" stroke-miterlimit="10.0" stroke-width="0.0" fill-opacity="1.0" stroke-opacity="1.0" stroke-linejoin="miter" stroke="rgb(0,0,0)"></g><title>Cut Shape ⊕ Scrap</title></g><g stroke-linecap="butt" fill="rgb(255,255,255)" stroke-miterlimit="10.0" stroke-width="1.0" fill-opacity="1.0" stroke-opacity="1.0" stroke-linejoin="miter" stroke="rgb(0,0,0)"><path d="M 249.0731,68.7500 c 0.0000,-6.9036 -5.5964,-12.5000 -12.5000 -12.5000c -6.9036,-0.0000 -12.5000,5.5964 -12.5000 12.5000c -0.0000,6.9036 5.5964,12.5000 12.5000 12.5000c 6.9036,0.0000 12.5000,-5.5964 12.5000 -12.5000Z"/></g><g stroke-linecap="butt" fill="rgb(0,0,0)" stroke-miterlimit="10.0" stroke-width="1.0" fill-opacity="0.0" stroke-opacity="1.0" stroke-linejoin="miter" stroke="rgb(0,0,0)"><path d="M 236.5731,56.2500 v 25.0000 "/></g><g stroke-linecap="butt" fill="rgb(0,0,0)" stroke-miterlimit="10.0" stroke-width="1.0" fill-opacity="0.0" stroke-opacity="1.0" stroke-linejoin="miter" stroke="rgb(0,0,0)"><path d="M 224.0731,68.7500 h 25.0000 "/></g><g><g stroke-linecap="butt" fill="rgb(0,0,0)" stroke-miterlimit="10.0" stroke-width="0.5" fill-opacity="0.0" stroke-opacity="1.0" stroke-linejoin="miter" stroke="rgb(0,0,0)"><path d="M 649.3045,106.2500 l 34.1506,-32.2169 "/></g><g stroke-linecap="butt" fill="rgb(0,0,0)" stroke-miterlimit="10.0" stroke-width="0.0" fill-opacity="1.0" stroke-opacity="1.0" stroke-linejoin="miter" stroke="rgb(0,0,0)"></g><g stroke-linecap="butt" fill="rgb(0,0,0)" stroke-miterlimit="10.0" stroke-width="0.0" fill-opacity="1.0" stroke-opacity="1.0" stroke-linejoin="miter" stroke="rgb(0,0,0)"></g><g stroke-linecap="butt" fill="rgb(0,0,0)" stroke-miterlimit="10.0" stroke-width="0.0" fill-opacity="1.0" stroke-opacity="1.0" stroke-linejoin="miter" stroke="rgb(0,0,0)"></g><g stroke-linecap="butt" fill="rgb(0,0,0)" stroke-miterlimit="10.0" stroke-width="0.0" fill-opacity="1.0" stroke-opacity="1.0" stroke-linejoin="miter" stroke="rgb(0,0,0)"></g><title>Cut Shape ⊕ Scrap</title></g><g><g stroke-linecap="butt" fill="rgb(0,0,0)" stroke-miterlimit="10.0" stroke-width="0.5" fill-opacity="0.0" stroke-opacity="1.0" stroke-linejoin="miter" stroke="rgb(0,0,0)"><path d="M 649.3045,81.2500 l 34.1506,-7.2169 "/></g><g stroke-linecap="butt" fill="rgb(0,0,0)" stroke-miterlimit="10.0" stroke-width="0.0" fill-opacity="1.0" stroke-opacity="1.0" stroke-linejoin="miter" stroke="rgb(0,0,0)"></g><g stroke-linecap="butt" fill="rgb(0,0,0)" stroke-miterlimit="10.0" stroke-width="0.0" fill-opacity="1.0" stroke-opacity="1.0" stroke-linejoin="miter" stroke="rgb(0,0,0)"></g><g stroke-linecap="butt" fill="rgb(0,0,0)" stroke-miterlimit="10.0" stroke-width="0.0" fill-opacity="1.0" stroke-opacity="1.0" stroke-linejoin="miter" stroke="rgb(0,0,0)"></g><g stroke-linecap="butt" fill="rgb(0,0,0)" stroke-miterlimit="10.0" stroke-width="0.0" fill-opacity="1.0" stroke-opacity="1.0" stroke-linejoin="miter" stroke="rgb(0,0,0)"></g><title>Cutter</title></g><g><g stroke-linecap="butt" fill="rgb(0,0,0)" stroke-miterlimit="10.0" stroke-width="0.5" fill-opacity="0.0" stroke-opacity="1.0" stroke-linejoin="miter" stroke="rgb(0,0,0)"><path d="M 649.3045,25.0000 l 34.1506,38.4669 "/></g><g stroke-linecap="butt" fill="rgb(0,0,0)" stroke-miterlimit="10.0" stroke-width="0.0" fill-opacity="1.0" stroke-opacity="1.0" stroke-linejoin="miter" stroke="rgb(0,0,0)"></g><g stroke-linecap="butt" fill="rgb(0,0,0)" stroke-miterlimit="10.0" stroke-width="0.0" fill-opacity="1.0" stroke-opacity="1.0" stroke-linejoin="miter" stroke="rgb(0,0,0)"></g><g stroke-linecap="butt" fill="rgb(0,0,0)" stroke-miterlimit="10.0" stroke-width="0.0" fill-opacity="1.0" stroke-opacity="1.0" stroke-linejoin="miter" stroke="rgb(0,0,0)"></g><g stroke-linecap="butt" fill="rgb(0,0,0)" stroke-miterlimit="10.0" stroke-width="0.0" fill-opacity="1.0" stroke-opacity="1.0" stroke-linejoin="miter" stroke="rgb(0,0,0)"></g><title>Cut Shape ⊕ Scrap</title></g><g><g stroke-linecap="butt" fill="rgb(0,0,0)" stroke-miterlimit="10.0" stroke-width="0.5" fill-opacity="0.0" stroke-opacity="1.0" stroke-linejoin="miter" stroke="rgb(0,0,0)"><path d="M 649.3045,0.0000 l 34.1506,63.4669 "/></g><g stroke-linecap="butt" fill="rgb(0,0,0)" stroke-miterlimit="10.0" stroke-width="0.0" fill-opacity="1.0" stroke-opacity="1.0" stroke-linejoin="miter" stroke="rgb(0,0,0)"></g><g stroke-linecap="butt" fill="rgb(0,0,0)" stroke-miterlimit="10.0" stroke-width="0.0" fill-opacity="1.0" stroke-opacity="1.0" stroke-linejoin="miter" stroke="rgb(0,0,0)"></g><g stroke-linecap="butt" fill="rgb(0,0,0)" stroke-miterlimit="10.0" stroke-width="0.0" fill-opacity="1.0" stroke-opacity="1.0" stroke-linejoin="miter" stroke="rgb(0,0,0)"></g><g stroke-linecap="butt" fill="rgb(0,0,0)" stroke-miterlimit="10.0" stroke-width="0.0" fill-opacity="1.0" stroke-opacity="1.0" stroke-linejoin="miter" stroke="rgb(0,0,0)"></g><title>Cutter</title></g><g><g stroke-linecap="butt" fill="rgb(0,0,0)" stroke-miterlimit="10.0" stroke-width="0.5" fill-opacity="0.0" stroke-opacity="1.0" stroke-linejoin="miter" stroke="rgb(0,0,0)"><path d="M 274.0731,93.7500 l -37.5000,-12.5000 "/></g><g stroke-linecap="butt" fill="rgb(0,0,0)" stroke-miterlimit="10.0" stroke-width="0.0" fill-opacity="1.0" stroke-opacity="1.0" stroke-linejoin="miter" stroke="rgb(0,0,0)"></g><g stroke-linecap="butt" fill="rgb(0,0,0)" stroke-miterlimit="10.0" stroke-width="0.0" fill-opacity="1.0" stroke-opacity="1.0" stroke-linejoin="miter" stroke="rgb(0,0,0)"></g><g stroke-linecap="butt" fill="rgb(0,0,0)" stroke-miterlimit="10.0" stroke-width="0.0" fill-opacity="1.0" stroke-opacity="1.0" stroke-linejoin="miter" stroke="rgb(0,0,0)"></g><g stroke-linecap="butt" fill="rgb(0,0,0)" stroke-miterlimit="10.0" stroke-width="0.0" fill-opacity="1.0" stroke-opacity="1.0" stroke-linejoin="miter" stroke="rgb(0,0,0)"></g><title>Cutter Blocked</title></g><g><g stroke-linecap="butt" fill="rgb(0,0,0)" stroke-miterlimit="10.0" stroke-width="0.5" fill-opacity="0.0" stroke-opacity="1.0" stroke-linejoin="miter" stroke="rgb(0,0,0)"><path d="M 274.0731,25.0000 l -37.5000,31.2500 "/></g><g stroke-linecap="butt" fill="rgb(0,0,0)" stroke-miterlimit="10.0" stroke-width="0.0" fill-opacity="1.0" stroke-opacity="1.0" stroke-linejoin="miter" stroke="rgb(0,0,0)"></g><g stroke-linecap="butt" fill="rgb(0,0,0)" stroke-miterlimit="10.0" stroke-width="0.0" fill-opacity="1.0" stroke-opacity="1.0" stroke-linejoin="miter" stroke="rgb(0,0,0)"></g><g stroke-linecap="butt" fill="rgb(0,0,0)" stroke-miterlimit="10.0" stroke-width="0.0" fill-opacity="1.0" stroke-opacity="1.0" stroke-linejoin="miter" stroke="rgb(0,0,0)"></g><g stroke-linecap="butt" fill="rgb(0,0,0)" stroke-miterlimit="10.0" stroke-width="0.0" fill-opacity="1.0" stroke-opacity="1.0" stroke-linejoin="miter" stroke="rgb(0,0,0)"></g><title>Cut Shape ⊕ Scrap</title></g><g><g stroke-linecap="butt" fill="rgb(0,0,0)" stroke-miterlimit="10.0" stroke-width="0.5" fill-opacity="0.0" stroke-opacity="1.0" stroke-linejoin="miter" stroke="rgb(0,0,0)"><path d="M 274.0731,0.0000 l -37.5000,56.2500 "/></g><g stroke-linecap="butt" fill="rgb(0,0,0)" stroke-miterlimit="10.0" stroke-width="0.0" fill-opacity="1.0" stroke-opacity="1.0" stroke-linejoin="miter" stroke="rgb(0,0,0)"></g><g stroke-linecap="butt" fill="rgb(0,0,0)" stroke-miterlimit="10.0" stroke-width="0.0" fill-opacity="1.0" stroke-opacity="1.0" stroke-linejoin="miter" stroke="rgb(0,0,0)"></g><g stroke-linecap="butt" fill="rgb(0,0,0)" stroke-miterlimit="10.0" stroke-width="0.0" fill-opacity="1.0" stroke-opacity="1.0" stroke-linejoin="miter" stroke="rgb(0,0,0)"></g><g stroke-linecap="butt" fill="rgb(0,0,0)" stroke-miterlimit="10.0" stroke-width="0.0" fill-opacity="1.0" stroke-opacity="1.0" stroke-linejoin="miter" stroke="rgb(0,0,0)"></g><title>Cutter</title></g><g><g stroke-linecap="butt" fill="rgb(0,0,0)" stroke-miterlimit="10.0" stroke-width="0.5" fill-opacity="0.0" stroke-opacity="1.0" stroke-linejoin="miter" stroke="rgb(0,0,0)"><path d="M 199.0731,68.7500 h 20.0000 "/></g><g stroke-linecap="butt" fill="rgb(0,0,0)" stroke-miterlimit="10.0" stroke-width="0.0" fill-opacity="1.0" stroke-opacity="1.0" stroke-linejoin="miter" stroke="rgb(0,0,0)"></g><g stroke-linecap="butt" fill="rgb(0,0,0)" stroke-miterlimit="10.0" stroke-width="0.0" fill-opacity="1.0" stroke-opacity="1.0" stroke-linejoin="miter" stroke="rgb(0,0,0)"></g><g stroke-linecap="butt" fill="rgb(0,0,0)" stroke-miterlimit="10.0" stroke-width="0.0" fill-opacity="1.0" stroke-opacity="1.0" stroke-linejoin="miter" stroke="rgb(0,0,0)"><path d="M 224.0731,68.7500 l -5.0000,-2.8868 v 5.7735 Z"/></g><g stroke-linecap="butt" fill="rgb(0,0,0)" stroke-miterlimit="10.0" stroke-width="0.0" fill-opacity="1.0" stroke-opacity="1.0" stroke-linejoin="miter" stroke="rgb(0,0,0)"></g><title>(Cutter ∙ (Cut Shape ⊕ Scrap)) ⊕ Cutter Blocked</title></g><g><g stroke-linecap="butt" fill="rgb(0,0,0)" stroke-miterlimit="10.0" stroke-width="0.5" fill-opacity="0.0" stroke-opacity="1.0" stroke-linejoin="miter" stroke="rgb(0,0,0)"><path d="M 149.0731,68.7500 h 20.0000 "/></g><g stroke-linecap="butt" fill="rgb(0,0,0)" stroke-miterlimit="10.0" stroke-width="0.0" fill-opacity="1.0" stroke-opacity="1.0" stroke-linejoin="miter" stroke="rgb(0,0,0)"></g><g stroke-linecap="butt" fill="rgb(0,0,0)" stroke-miterlimit="10.0" stroke-width="0.0" fill-opacity="1.0" stroke-opacity="1.0" stroke-linejoin="miter" stroke="rgb(0,0,0)"></g><g stroke-linecap="butt" fill="rgb(0,0,0)" stroke-miterlimit="10.0" stroke-width="0.0" fill-opacity="1.0" stroke-opacity="1.0" stroke-linejoin="miter" stroke="rgb(0,0,0)"><path d="M 174.0731,68.7500 l -5.0000,-2.8868 v 5.7735 Z"/></g><g stroke-linecap="butt" fill="rgb(0,0,0)" stroke-miterlimit="10.0" stroke-width="0.0" fill-opacity="1.0" stroke-opacity="1.0" stroke-linejoin="miter" stroke="rgb(0,0,0)"></g><title>(Cutter ∙ (Cut Shape ⊕ Scrap)) ⊕ Cutter Blocked</title></g><g stroke-linecap="butt" fill="rgb(255,255,255)" stroke-miterlimit="10.0" stroke-width="1.0" fill-opacity="1.0" stroke-opacity="1.0" stroke-linejoin="miter" stroke="rgb(0,0,0)"><path d="M 149.0731,87.5000 l -0.0000,-37.5000 h -67.7480 l -0.0000,37.5000 Z"/></g><g stroke-linecap="butt" fill="rgb(0,0,0)" stroke-miterlimit="10.0" stroke-width="0.0" fill-opacity="1.0" stroke-opacity="1.0" stroke-linejoin="miter" stroke="rgb(0,0,0)"><path d="M 85.6553,72.5878 ZM 91.6474,61.3278 c -1.7922,-0.0000 -3.5844,1.5387 -3.5844 5.3403c 0.0000,3.4757 2.0818,5.4490 4.2904 5.4490c 2.0637,-0.0000 3.6206,-1.9008 3.6206 -5.1412c 0.0000,-3.6568 -1.9370,-5.6481 -4.3266 -5.6481ZM 91.6474,61.3278 ZM 97.7118,66.6320 c 0.0000,1.5206 -0.3983,2.8295 -1.1188 3.8559c -0.9938,1.4175 -2.5959,2.2810 -4.6017 2.2810c -3.0775,-0.0000 -5.6662,-2.2266 -5.6662 -5.7929c 0.0000,-3.5101 2.0510,-6.2998 5.5576 -6.2998c 3.2404,-0.0000 5.8291,2.2085 5.8291 5.9558ZM 98.3635,72.5878 ZM 101.5315,66.5958 c -0.2100,0.2589 -0.2896,0.4164 -0.2896 0.7965v 3.2947 c 0.0000,0.6535 0.0706,0.7585 0.4345 1.0844c 0.3259,0.2915 0.9594,0.3820 1.2853 0.3820c 2.0275,-0.0000 2.5525,-1.8465 2.5525 -3.3309c 0.0000,-2.0456 -0.9957,-3.3490 -2.1542 -3.3490c -0.5286,-0.0000 -1.3577,0.5431 -1.8284 1.1224ZM 101.5315,66.5958 ZM 101.1875,65.9260 c 0.0091,0.1738 0.0978,0.1865 0.1991 0.0724c 0.7151,-0.8056 1.6383,-1.3577 2.4801 -1.3577c 1.8465,-0.0000 3.2042,1.7741 3.2042 3.6930c 0.0000,1.4663 -0.4888,2.5887 -1.3396 3.4214c -0.7422,0.7060 -1.6474,1.0138 -2.6611 1.0138c -0.5720,-0.0000 -1.1314,-0.1014 -1.5749 -0.2806c -0.1846,-0.0760 -0.2534,-0.0996 -0.2534 0.1358v 1.9551 c 0.0000,1.5025 0.1991,1.5749 1.4844 1.6474c 0.1086,0.1086 0.1086,0.4888 0.0000 0.5974c -0.5974,-0.0181 -1.4663,-0.0362 -2.1904 -0.0362c -0.7241,-0.0000 -1.3939,0.0181 -2.0275 0.0362c -0.1086,-0.1086 -0.1086,-0.4888 0.0000 -0.5974c 1.1043,-0.0543 1.3034,-0.1448 1.3034 -1.6474v -7.7299 c 0.0000,-1.0500 -0.1991,-1.1405 -1.1767 -1.2310c -0.0362,-0.1086 -0.0724,-0.3983 -0.0362 -0.5069c 1.2491,-0.1629 1.7198,-0.3259 2.2266 -0.5250c 0.1448,-0.0000 0.1792,0.0615 0.2172 0.1448c 0.0851,0.1865 0.1177,0.6517 0.1448 1.1948ZM 107.8856,72.5878 ZM 110.1303,67.4828 l 3.2766,-0.0543 c 0.1991,-0.0036 0.2715,-0.0905 0.2715 -0.2534c 0.0000,-1.5206 -0.8146,-1.9008 -1.5025 -1.9008c -0.4345,-0.0000 -1.7017,0.1629 -2.0456 2.2085ZM 110.1303,67.4828 ZM 114.8733,70.9042 c 0.2172,0.0181 0.3259,0.1086 0.3802 0.2896c -0.7241,0.9413 -1.7017,1.5749 -3.0775 1.5749c -1.3034,-0.0000 -2.1542,-0.4345 -2.7697 -1.1586c -0.5974,-0.6879 -0.8508,-1.6655 -0.8508 -2.6792c 0.0000,-2.7516 2.0456,-4.2542 3.6206 -4.2542c 2.5163,-0.0000 3.0594,1.6293 3.0594 3.1499c 0.0000,0.1991 -0.1267,0.3077 -0.3440 0.3077l -4.8154,-0.0362 c 0.0000,1.0500 0.2172,1.8827 0.5793 2.4801c 0.5612,0.9232 1.3215,1.3034 1.9732 1.3034c 1.0500,-0.0000 1.5749,-0.2896 2.2448 -0.9776ZM 115.9776,72.5878 ZM 119.1636,66.1070 c 0.0036,0.0905 0.0905,0.2353 0.1991 0.0362c 0.4164,-0.7060 1.1586,-1.5025 2.0094 -1.5025c 0.7603,-0.0000 1.0862,0.5232 1.0862 0.8689c 0.0000,0.4526 -0.4164,0.9051 -0.8508 0.9051c -0.3150,-0.0000 -0.5177,-0.2408 -0.6553 -0.4218c -0.1412,-0.1865 -0.3041,-0.2299 -0.4671 -0.2299c -0.2172,-0.0000 -0.6336,0.5974 -0.8327 0.8870c -0.2172,0.3259 -0.4345,0.7422 -0.4345 1.2129v 2.5163 c 0.0000,1.5025 0.2172,1.5568 1.4844 1.6474c 0.1086,0.1086 0.1086,0.4888 0.0000 0.5974c -0.6336,-0.0181 -1.4663,-0.0362 -2.1904 -0.0362c -0.7241,-0.0000 -1.4301,0.0181 -2.0637 0.0362c -0.1086,-0.1086 -0.1086,-0.4888 0.0000 -0.5974c 1.1224,-0.0724 1.3396,-0.1448 1.3396 -1.6474v -3.5301 c 0.0000,-1.0500 -0.1991,-1.1405 -1.1767 -1.2310c -0.0362,-0.1086 -0.0724,-0.3983 -0.0362 -0.5069c 1.2491,-0.1629 1.7198,-0.3259 2.2266 -0.5250c 0.1448,-0.0000 0.1792,0.0615 0.2172 0.1448c 0.0851,0.1865 0.1140,0.6517 0.1448 1.3758ZM 122.7118,72.5878 ZM 128.0159,68.3698 l -1.4301,0.3802 c -1.3396,0.3440 -1.7198,1.1767 -1.7198 1.9913c 0.0000,0.5612 0.3983,1.2853 1.3034 1.2853c 0.5069,-0.0000 1.1224,-0.4164 1.5930 -0.7965c 0.1448,-0.1086 0.2534,-0.2353 0.2534 -0.4707v -2.3896 ZM 128.0159,68.3698 ZM 128.0159,71.7189 h -0.0362 l -0.3621,0.2896 c -0.7965,0.6155 -1.3432,0.7603 -1.9732 0.7603c -1.2672,-0.0000 -2.2810,-0.4707 -2.2810 -1.9551c 0.0000,-1.2310 1.2491,-2.1904 2.9870 -2.6249l 1.5568,-0.3802 c 0.0543,-0.0181 0.1086,-0.0905 0.1086 -0.2172c 0.0000,-2.0456 -0.8508,-2.3534 -1.4663 -2.3534c -0.6879,-0.0000 -1.4482,0.1991 -1.4482 0.7603c 0.0000,0.1991 0.0181,0.3077 0.0362 0.3621c 0.0362,0.0724 0.0543,0.1991 0.0543 0.3259c 0.0000,0.2353 -0.3259,0.6155 -0.8508 0.6155c -0.4164,-0.0000 -0.6336,-0.2172 -0.6336 -0.6517c 0.0000,-1.0319 1.5025,-2.0094 2.9870 -2.0094c 1.3215,-0.0000 2.7335,0.4888 2.7335 3.0594v 2.6611 c 0.0000,0.8327 0.0181,1.5387 0.5431 1.5387c 0.2299,-0.0000 0.5340,-0.1774 0.6698 -0.2896c 0.2046,0.1140 0.2770,0.2661 0.3077 0.4888c -0.3747,0.3621 -1.0264,0.6698 -1.7198 0.6698c -0.9124,-0.0000 -1.1043,-0.4888 -1.2129 -1.0500ZM 130.9848,72.5878 ZM 131.7632,64.8217 l 0.8327,-0.0018 c 0.0000,-2.0076 -0.0543,-1.8881 -0.0543 -2.0981c 0.0000,-0.1249 0.1810,-0.1865 0.3983 -0.2480c 0.2263,-0.0634 0.4109,-0.1412 0.6155 -0.2552c 0.1684,-0.0923 0.3222,-0.1629 0.4037 -0.1629c 0.0851,-0.0000 0.1394,0.0434 0.1394 0.1593c 0.0000,-0.0000 -0.0724,0.7241 -0.0724 1.9008v 0.7060 h 2.1723 c 0.0905,-0.0000 0.1448,0.0362 0.1448 0.1086v 0.3621 c 0.0000,0.1629 -0.2534,0.2353 -0.4345 0.2353h -1.8827 v 4.5800 c 0.0000,1.1224 0.1086,1.6655 0.5974 1.6655c 0.4707,-0.0000 1.0138,-0.1448 1.4844 -0.5069c 0.1810,0.0181 0.2896,0.1213 0.3259 0.3077c -0.7060,0.7965 -1.6112,1.1948 -2.4439 1.1948c -0.8327,-0.0000 -1.3939,-0.5069 -1.3939 -1.7922v -5.4490 h -1.0681 c -0.0724,-0.0000 -0.0905,-0.0181 -0.0905 -0.1086v -0.2353 c 0.0000,-0.1448 0.0724,-0.3621 0.3259 -0.3621ZM 136.7053,72.5878 ZM 138.9500,67.4828 l 3.2766,-0.0543 c 0.1991,-0.0036 0.2715,-0.0905 0.2715 -0.2534c 0.0000,-1.5206 -0.8146,-1.9008 -1.5025 -1.9008c -0.4345,-0.0000 -1.7017,0.1629 -2.0456 2.2085ZM 138.9500,67.4828 ZM 143.6930,70.9042 c 0.2172,0.0181 0.3259,0.1086 0.3802 0.2896c -0.7241,0.9413 -1.7017,1.5749 -3.0775 1.5749c -1.3034,-0.0000 -2.1542,-0.4345 -2.7697 -1.1586c -0.5974,-0.6879 -0.8508,-1.6655 -0.8508 -2.6792c 0.0000,-2.7516 2.0456,-4.2542 3.6206 -4.2542c 2.5163,-0.0000 3.0594,1.6293 3.0594 3.1499c 0.0000,0.1991 -0.1267,0.3077 -0.3440 0.3077l -4.8154,-0.0362 c 0.0000,1.0500 0.2172,1.8827 0.5793 2.4801c 0.5612,0.9232 1.3215,1.3034 1.9732 1.3034c 1.0500,-0.0000 1.5749,-0.2896 2.2448 -0.9776Z"/></g><g><g stroke-linecap="butt" fill="rgb(0,0,0)" stroke-miterlimit="10.0" stroke-width="0.5" fill-opacity="0.0" stroke-opacity="1.0" stroke-linejoin="miter" stroke="rgb(0,0,0)"><path d="M 56.3251,81.2500 h 20.0000 "/></g><g stroke-linecap="butt" fill="rgb(0,0,0)" stroke-miterlimit="10.0" stroke-width="0.0" fill-opacity="1.0" stroke-opacity="1.0" stroke-linejoin="miter" stroke="rgb(0,0,0)"></g><g stroke-linecap="butt" fill="rgb(0,0,0)" stroke-miterlimit="10.0" stroke-width="0.0" fill-opacity="1.0" stroke-opacity="1.0" stroke-linejoin="miter" stroke="rgb(0,0,0)"></g><g stroke-linecap="butt" fill="rgb(0,0,0)" stroke-miterlimit="10.0" stroke-width="0.0" fill-opacity="1.0" stroke-opacity="1.0" stroke-linejoin="miter" stroke="rgb(0,0,0)"><path d="M 81.3251,81.2500 l -5.0000,-2.8868 v 5.7735 Z"/></g><g stroke-linecap="butt" fill="rgb(0,0,0)" stroke-miterlimit="10.0" stroke-width="0.0" fill-opacity="1.0" stroke-opacity="1.0" stroke-linejoin="miter" stroke="rgb(0,0,0)"></g><title>Plate</title></g><g><g stroke-linecap="butt" fill="rgb(0,0,0)" stroke-miterlimit="10.0" stroke-width="0.5" fill-opacity="0.0" stroke-opacity="1.0" stroke-linejoin="miter" stroke="rgb(0,0,0)"><path d="M 56.3251,56.2500 h 20.0000 "/></g><g stroke-linecap="butt" fill="rgb(0,0,0)" stroke-miterlimit="10.0" stroke-width="0.0" fill-opacity="1.0" stroke-opacity="1.0" stroke-linejoin="miter" stroke="rgb(0,0,0)"></g><g stroke-linecap="butt" fill="rgb(0,0,0)" stroke-miterlimit="10.0" stroke-width="0.0" fill-opacity="1.0" stroke-opacity="1.0" stroke-linejoin="miter" stroke="rgb(0,0,0)"></g><g stroke-linecap="butt" fill="rgb(0,0,0)" stroke-miterlimit="10.0" stroke-width="0.0" fill-opacity="1.0" stroke-opacity="1.0" stroke-linejoin="miter" stroke="rgb(0,0,0)"><path d="M 81.3251,56.2500 l -5.0000,-2.8868 v 5.7735 Z"/></g><g stroke-linecap="butt" fill="rgb(0,0,0)" stroke-miterlimit="10.0" stroke-width="0.0" fill-opacity="1.0" stroke-opacity="1.0" stroke-linejoin="miter" stroke="rgb(0,0,0)"></g><title>Cutter</title></g><g><g stroke-linecap="butt" fill="rgb(0,0,0)" stroke-miterlimit="10.0" stroke-width="0.5" fill-opacity="0.0" stroke-opacity="1.0" stroke-linejoin="miter" stroke="rgb(0,0,0)"><path d="M 174.0731,68.7500 h 25.0000 "/></g><g stroke-linecap="butt" fill="rgb(0,0,0)" stroke-miterlimit="10.0" stroke-width="0.0" fill-opacity="1.0" stroke-opacity="1.0" stroke-linejoin="miter" stroke="rgb(0,0,0)"></g><g stroke-linecap="butt" fill="rgb(0,0,0)" stroke-miterlimit="10.0" stroke-width="0.0" fill-opacity="1.0" stroke-opacity="1.0" stroke-linejoin="miter" stroke="rgb(0,0,0)"></g><g stroke-linecap="butt" fill="rgb(0,0,0)" stroke-miterlimit="10.0" stroke-width="0.0" fill-opacity="1.0" stroke-opacity="1.0" stroke-linejoin="miter" stroke="rgb(0,0,0)"></g><g stroke-linecap="butt" fill="rgb(0,0,0)" stroke-miterlimit="10.0" stroke-width="0.0" fill-opacity="1.0" stroke-opacity="1.0" stroke-linejoin="miter" stroke="rgb(0,0,0)"></g><title>(Cutter ∙ (Cut Shape ⊕ Scrap)) ⊕ Cutter Blocked</title></g><g stroke-linecap="butt" fill="rgb(0,0,0)" stroke-miterlimit="10.0" stroke-width="0.0" fill-opacity="1.0" stroke-opacity="1.0" stroke-linejoin="miter" stroke="rgb(0,0,0)"><path d="M 725.2853,85.4499 ZM 731.7480,85.6309 c -3.8921,-0.0000 -5.7929,-2.6466 -5.7929 -5.7929c 0.0000,-1.8881 0.7169,-3.6604 1.9189 -4.7610c 1.0681,-0.9776 2.3534,-1.5387 3.8921 -1.5387c 2.2266,-0.0000 3.0413,0.7241 3.9645 0.8146c 0.1810,0.9957 0.3077,1.8646 0.3983 2.8059c -0.2046,0.1086 -0.3802,0.1629 -0.5974 0.0905c -0.4707,-1.5568 -1.4663,-3.0413 -3.9645 -3.0413c -0.9413,-0.0000 -1.9913,0.5069 -2.8892 1.6112c -0.6608,0.8128 -1.0753,2.1126 -1.0753 3.6749c 0.0000,2.6430 1.6908,5.3946 4.1274 5.3946c 1.6836,-0.0000 2.9146,-0.5612 4.1999 -1.9732c 0.1991,-0.0000 0.3259,0.1086 0.4164 0.2715c -1.2310,1.6112 -2.8421,2.4439 -4.5981 2.4439ZM 736.9798,85.4499 ZM 740.9081,85.6309 c -1.7922,-0.0000 -2.3353,-1.2129 -2.3353 -2.4620v -3.4757 c 0.0000,-1.1767 -0.2534,-1.3758 -1.1224 -1.4482c -0.1086,-0.1086 -0.1086,-0.4888 0.0000 -0.5974c 0.6155,0.0181 1.2672,0.0362 1.8465 0.0362c 0.2715,-0.0000 0.5431,-0.0181 0.6336 -0.0362c 0.0905,-0.0000 0.1448,0.0543 0.1448 0.1086c 0.0000,-0.0000 -0.0724,1.3215 -0.0724 1.8646v 3.2947 c 0.0000,1.6112 0.9051,1.8646 1.4482 1.8646c 0.4526,-0.0000 1.1405,-0.2896 1.8103 -0.8689c 0.2534,-0.2172 0.2896,-0.3621 0.2896 -0.7060v -3.4938 c 0.0000,-1.1948 -0.2353,-1.4120 -1.1224 -1.4663c -0.1086,-0.1086 -0.1086,-0.4888 0.0000 -0.5974c 0.6155,0.0181 1.2672,0.0362 1.8465 0.0362c 0.2715,-0.0000 0.5431,-0.0181 0.6336 -0.0362c 0.0905,-0.0000 0.1448,0.0543 0.1448 0.1086c 0.0000,-0.0000 -0.0724,1.3215 -0.0724 1.8646v 3.4757 c 0.0000,0.8870 0.1629,1.2310 1.3215 1.3215c 0.1086,0.1086 0.1086,0.3802 0.0000 0.4888c -1.1043,0.1267 -1.7379,0.3983 -2.1361 0.7241c -0.1177,0.0453 -0.1991,0.0543 -0.3440 -0.0000c 0.0000,-0.0000 -0.1539,-0.6064 -0.1991 -1.0681c -0.0127,-0.1267 -0.1810,-0.0905 -0.2715 -0.0181c -0.8870,0.7241 -1.7379,1.0862 -2.4439 1.0862ZM 746.5924,85.4499 ZM 747.3708,77.6837 l 0.8327,-0.0018 c 0.0000,-2.0076 -0.0543,-1.8881 -0.0543 -2.0981c 0.0000,-0.1249 0.1810,-0.1865 0.3983 -0.2480c 0.2263,-0.0634 0.4109,-0.1412 0.6155 -0.2552c 0.1684,-0.0923 0.3222,-0.1629 0.4037 -0.1629c 0.0851,-0.0000 0.1394,0.0434 0.1394 0.1593c 0.0000,-0.0000 -0.0724,0.7241 -0.0724 1.9008v 0.7060 h 2.1723 c 0.0905,-0.0000 0.1448,0.0362 0.1448 0.1086v 0.3621 c 0.0000,0.1629 -0.2534,0.2353 -0.4345 0.2353h -1.8827 v 4.5800 c 0.0000,1.1224 0.1086,1.6655 0.5974 1.6655c 0.4707,-0.0000 1.0138,-0.1448 1.4844 -0.5069c 0.1810,0.0181 0.2896,0.1213 0.3259 0.3077c -0.7060,0.7965 -1.6112,1.1948 -2.4439 1.1948c -0.8327,-0.0000 -1.3939,-0.5069 -1.3939 -1.7922v -5.4490 h -1.0681 c -0.0724,-0.0000 -0.0905,-0.0181 -0.0905 -0.1086v -0.2353 c 0.0000,-0.1448 0.0724,-0.3621 0.3259 -0.3621ZM 756.8386,85.4499 ZM 763.9819,74.0270 c 0.1883,0.9594 0.2607,1.4663 0.3240 2.3353c -0.1629,0.1267 -0.3983,0.1412 -0.5883 0.1086c -0.3621,-1.1948 -0.9232,-2.3172 -2.6810 -2.3172c -1.0663,-0.0000 -1.9823,1.0138 -1.9823 2.0275c 0.0000,1.5224 1.8085,2.2067 2.8802 2.6086c 1.4917,0.5594 2.9417,1.4030 2.9417 3.3291c 0.0000,1.1513 -0.6608,2.2665 -1.7017 2.9182c -0.6300,0.3928 -1.4102,0.5938 -2.2339 0.5938c -1.6057,-0.0000 -2.1108,-0.4164 -3.2513 -0.4164c -0.2172,-0.8870 -0.2896,-1.3577 -0.3621 -2.7516c 0.1738,-0.0923 0.3657,-0.1267 0.5883 -0.0543c 0.3983,1.8012 1.4862,2.5706 3.1770 2.5706c 1.4446,-0.0000 2.2629,-0.7603 2.2629 -2.2266c 0.0000,-1.7705 -1.3342,-2.2791 -2.4348 -2.6973c -1.5930,-0.6064 -3.1589,-1.4772 -3.1589 -3.3852c 0.0000,-1.9189 1.6112,-3.1318 3.4468 -3.1318c 1.7668,-0.0000 1.7270,0.3440 2.7734 0.4888ZM 765.6184,85.4499 ZM 768.6416,80.2743 v 2.9671 c 0.0000,1.5025 0.1629,1.5749 1.0825 1.6474c 0.1086,0.1086 0.1086,0.4888 0.0000 0.5974c -0.5069,-0.0181 -1.1007,-0.0362 -1.7886 -0.0362c -0.7241,-0.0000 -1.3903,0.0181 -1.9877 0.0362c -0.1086,-0.1086 -0.1086,-0.4888 0.0000 -0.5974c 1.0500,-0.0724 1.2636,-0.1448 1.2636 -1.6474v -7.9109 c 0.0000,-1.5206 -0.2172,-1.4301 -1.1586 -1.4844c -0.1086,-0.1086 -0.1448,-0.3983 -0.1086 -0.5431c 0.7241,-0.0543 2.0818,-0.3077 2.5344 -0.4888c 0.1629,-0.0000 0.2353,0.0543 0.2353 0.1810c 0.0000,-0.0000 -0.0724,0.7241 -0.0724 1.9008l -0.0145,4.0731 c 0.0000,0.2534 0.1159,0.0688 0.1774 -0.0000c 1.1043,-1.2310 2.1886,-1.4663 3.0775 -1.4663c 0.6336,-0.0000 1.1984,0.2172 1.5025 0.6155c 0.4218,0.5521 0.4888,1.4301 0.4888 2.4258v 2.6973 c 0.0000,1.4844 0.1991,1.5568 1.2129 1.6474c 0.0905,0.1086 0.0905,0.4888 0.0000 0.5974c -0.5974,-0.0181 -1.1948,-0.0362 -1.9189 -0.0362c -0.7241,-0.0000 -1.3396,0.0181 -1.8465 0.0362c -0.0905,-0.1086 -0.0905,-0.4888 0.0000 -0.5974c 0.9413,-0.0905 1.1224,-0.1629 1.1224 -1.6474v -2.7516 c 0.0000,-0.5431 -0.0362,-1.0355 -0.2172 -1.3939c -0.2100,-0.4146 -0.5902,-0.6517 -0.9594 -0.6517c -0.7133,-0.0000 -1.6293,0.3928 -2.3172 1.0681c -0.1448,0.1575 -0.3077,0.3802 -0.3077 0.7621ZM 775.3578,85.4499 ZM 780.6619,81.2319 l -1.4301,0.3802 c -1.3396,0.3440 -1.7198,1.1767 -1.7198 1.9913c 0.0000,0.5612 0.3983,1.2853 1.3034 1.2853c 0.5069,-0.0000 1.1224,-0.4164 1.5930 -0.7965c 0.1448,-0.1086 0.2534,-0.2353 0.2534 -0.4707v -2.3896 ZM 780.6619,81.2319 ZM 780.6619,84.5809 h -0.0362 l -0.3621,0.2896 c -0.7965,0.6155 -1.3432,0.7603 -1.9732 0.7603c -1.2672,-0.0000 -2.2810,-0.4707 -2.2810 -1.9551c 0.0000,-1.2310 1.2491,-2.1904 2.9870 -2.6249l 1.5568,-0.3802 c 0.0543,-0.0181 0.1086,-0.0905 0.1086 -0.2172c 0.0000,-2.0456 -0.8508,-2.3534 -1.4663 -2.3534c -0.6879,-0.0000 -1.4482,0.1991 -1.4482 0.7603c 0.0000,0.1991 0.0181,0.3077 0.0362 0.3621c 0.0362,0.0724 0.0543,0.1991 0.0543 0.3259c 0.0000,0.2353 -0.3259,0.6155 -0.8508 0.6155c -0.4164,-0.0000 -0.6336,-0.2172 -0.6336 -0.6517c 0.0000,-1.0319 1.5025,-2.0094 2.9870 -2.0094c 1.3215,-0.0000 2.7335,0.4888 2.7335 3.0594v 2.6611 c 0.0000,0.8327 0.0181,1.5387 0.5431 1.5387c 0.2299,-0.0000 0.5340,-0.1774 0.6698 -0.2896c 0.2046,0.1140 0.2770,0.2661 0.3077 0.4888c -0.3747,0.3621 -1.0264,0.6698 -1.7198 0.6698c -0.9124,-0.0000 -1.1043,-0.4888 -1.2129 -1.0500ZM 783.6307,85.4499 ZM 786.7987,79.4578 c -0.2100,0.2589 -0.2896,0.4164 -0.2896 0.7965v 3.2947 c 0.0000,0.6535 0.0706,0.7585 0.4345 1.0844c 0.3259,0.2915 0.9594,0.3820 1.2853 0.3820c 2.0275,-0.0000 2.5525,-1.8465 2.5525 -3.3309c 0.0000,-2.0456 -0.9957,-3.3490 -2.1542 -3.3490c -0.5286,-0.0000 -1.3577,0.5431 -1.8284 1.1224ZM 786.7987,79.4578 ZM 786.4548,78.7880 c 0.0091,0.1738 0.0978,0.1865 0.1991 0.0724c 0.7151,-0.8056 1.6383,-1.3577 2.4801 -1.3577c 1.8465,-0.0000 3.2042,1.7741 3.2042 3.6930c 0.0000,1.4663 -0.4888,2.5887 -1.3396 3.4214c -0.7422,0.7060 -1.6474,1.0138 -2.6611 1.0138c -0.5720,-0.0000 -1.1314,-0.1014 -1.5749 -0.2806c -0.1846,-0.0760 -0.2534,-0.0996 -0.2534 0.1358v 1.9551 c 0.0000,1.5025 0.1991,1.5749 1.4844 1.6474c 0.1086,0.1086 0.1086,0.4888 0.0000 0.5974c -0.5974,-0.0181 -1.4663,-0.0362 -2.1904 -0.0362c -0.7241,-0.0000 -1.3939,0.0181 -2.0275 0.0362c -0.1086,-0.1086 -0.1086,-0.4888 0.0000 -0.5974c 1.1043,-0.0543 1.3034,-0.1448 1.3034 -1.6474v -7.7299 c 0.0000,-1.0500 -0.1991,-1.1405 -1.1767 -1.2310c -0.0362,-0.1086 -0.0724,-0.3983 -0.0362 -0.5069c 1.2491,-0.1629 1.7198,-0.3259 2.2266 -0.5250c 0.1448,-0.0000 0.1792,0.0615 0.2172 0.1448c 0.0851,0.1865 0.1177,0.6517 0.1448 1.1948ZM 793.1528,85.4499 ZM 795.3976,80.3449 l 3.2766,-0.0543 c 0.1991,-0.0036 0.2715,-0.0905 0.2715 -0.2534c 0.0000,-1.5206 -0.8146,-1.9008 -1.5025 -1.9008c -0.4345,-0.0000 -1.7017,0.1629 -2.0456 2.2085ZM 795.3976,80.3449 ZM 800.1405,83.7663 c 0.2172,0.0181 0.3259,0.1086 0.3802 0.2896c -0.7241,0.9413 -1.7017,1.5749 -3.0775 1.5749c -1.3034,-0.0000 -2.1542,-0.4345 -2.7697 -1.1586c -0.5974,-0.6879 -0.8508,-1.6655 -0.8508 -2.6792c 0.0000,-2.7516 2.0456,-4.2542 3.6206 -4.2542c 2.5163,-0.0000 3.0594,1.6293 3.0594 3.1499c 0.0000,0.1991 -0.1267,0.3077 -0.3440 0.3077l -4.8154,-0.0362 c 0.0000,1.0500 0.2172,1.8827 0.5793 2.4801c 0.5612,0.9232 1.3215,1.3034 1.9732 1.3034c 1.0500,-0.0000 1.5749,-0.2896 2.2448 -0.9776ZM 805.7705,85.4499 ZM 810.8574,85.6309 c -2.2448,-0.0000 -4.0731,-1.8284 -4.0731 -4.0550c 0.0000,-2.2266 1.8465,-4.0731 4.0731 -4.0731c 2.2448,-0.0000 4.1093,1.8465 4.1093 4.0731c 0.0000,2.2448 -1.8646,4.0550 -4.1093 4.0550ZM 810.8574,85.6309 ZM 811.3100,78.2395 v 2.9924 h 2.8440 c -0.1503,-1.5514 -1.3143,-2.7878 -2.8440 -2.9924ZM 811.3100,78.2395 ZM 811.3100,84.8941 c 1.5116,-0.2046 2.6828,-1.4156 2.8421 -2.9562h -2.8421 v 2.9562 ZM 811.3100,84.8941 ZM 810.4953,84.9050 v -2.9671 h -2.8965 c 0.1593,1.5587 1.3342,2.8005 2.8965 2.9671ZM 810.4953,84.9050 ZM 810.4953,78.2286 c -1.5695,0.1702 -2.7462,1.4337 -2.8983 3.0033h 2.8983 v -3.0033 ZM 820.5062,85.4499 ZM 827.6496,74.0270 c 0.1883,0.9594 0.2607,1.4663 0.3240 2.3353c -0.1629,0.1267 -0.3983,0.1412 -0.5883 0.1086c -0.3621,-1.1948 -0.9232,-2.3172 -2.6810 -2.3172c -1.0663,-0.0000 -1.9823,1.0138 -1.9823 2.0275c 0.0000,1.5224 1.8085,2.2067 2.8802 2.6086c 1.4917,0.5594 2.9417,1.4030 2.9417 3.3291c 0.0000,1.1513 -0.6608,2.2665 -1.7017 2.9182c -0.6300,0.3928 -1.4102,0.5938 -2.2339 0.5938c -1.6057,-0.0000 -2.1108,-0.4164 -3.2513 -0.4164c -0.2172,-0.8870 -0.2896,-1.3577 -0.3621 -2.7516c 0.1738,-0.0923 0.3657,-0.1267 0.5883 -0.0543c 0.3983,1.8012 1.4862,2.5706 3.1770 2.5706c 1.4446,-0.0000 2.2629,-0.7603 2.2629 -2.2266c 0.0000,-1.7705 -1.3342,-2.2791 -2.4348 -2.6973c -1.5930,-0.6064 -3.1589,-1.4772 -3.1589 -3.3852c 0.0000,-1.9189 1.6112,-3.1318 3.4468 -3.1318c 1.7668,-0.0000 1.7270,0.3440 2.7734 0.4888ZM 829.2861,85.4499 ZM 836.4910,83.8025 c -0.9051,1.4844 -1.8646,1.8284 -2.9508 1.8284c -2.2810,-0.0000 -3.5844,-1.6112 -3.5844 -3.9464c 0.0000,-2.5706 1.9189,-4.1818 3.7111 -4.1818c 1.7379,-0.0000 2.7697,0.7241 2.7697 1.7198c 0.0000,0.5612 -0.5069,0.7965 -0.8870 0.7965c -0.3802,-0.0000 -0.6336,-0.1629 -0.6879 -0.6517c -0.0724,-0.6336 -0.2172,-1.2672 -1.2853 -1.2672c -1.1948,-0.0000 -2.0637,1.1948 -2.0637 3.1861c 0.0000,2.1180 1.1043,3.4576 2.4258 3.4576c 0.7784,-0.0000 1.5568,-0.3983 2.1723 -1.1948c 0.1629,0.0181 0.3077,0.0905 0.3802 0.2534ZM 837.0341,85.4499 ZM 840.2202,78.9690 c 0.0036,0.0905 0.0905,0.2353 0.1991 0.0362c 0.4164,-0.7060 1.1586,-1.5025 2.0094 -1.5025c 0.7603,-0.0000 1.0862,0.5232 1.0862 0.8689c 0.0000,0.4526 -0.4164,0.9051 -0.8508 0.9051c -0.3150,-0.0000 -0.5177,-0.2408 -0.6553 -0.4218c -0.1412,-0.1865 -0.3041,-0.2299 -0.4671 -0.2299c -0.2172,-0.0000 -0.6336,0.5974 -0.8327 0.8870c -0.2172,0.3259 -0.4345,0.7422 -0.4345 1.2129v 2.5163 c 0.0000,1.5025 0.2172,1.5568 1.4844 1.6474c 0.1086,0.1086 0.1086,0.4888 0.0000 0.5974c -0.6336,-0.0181 -1.4663,-0.0362 -2.1904 -0.0362c -0.7241,-0.0000 -1.4301,0.0181 -2.0637 0.0362c -0.1086,-0.1086 -0.1086,-0.4888 0.0000 -0.5974c 1.1224,-0.0724 1.3396,-0.1448 1.3396 -1.6474v -3.5301 c 0.0000,-1.0500 -0.1991,-1.1405 -1.1767 -1.2310c -0.0362,-0.1086 -0.0724,-0.3983 -0.0362 -0.5069c 1.2491,-0.1629 1.7198,-0.3259 2.2266 -0.5250c 0.1448,-0.0000 0.1792,0.0615 0.2172 0.1448c 0.0851,0.1865 0.1140,0.6517 0.1448 1.3758ZM 843.7683,85.4499 ZM 849.0725,81.2319 l -1.4301,0.3802 c -1.3396,0.3440 -1.7198,1.1767 -1.7198 1.9913c 0.0000,0.5612 0.3983,1.2853 1.3034 1.2853c 0.5069,-0.0000 1.1224,-0.4164 1.5930 -0.7965c 0.1448,-0.1086 0.2534,-0.2353 0.2534 -0.4707v -2.3896 ZM 849.0725,81.2319 ZM 849.0725,84.5809 h -0.0362 l -0.3621,0.2896 c -0.7965,0.6155 -1.3432,0.7603 -1.9732 0.7603c -1.2672,-0.0000 -2.2810,-0.4707 -2.2810 -1.9551c 0.0000,-1.2310 1.2491,-2.1904 2.9870 -2.6249l 1.5568,-0.3802 c 0.0543,-0.0181 0.1086,-0.0905 0.1086 -0.2172c 0.0000,-2.0456 -0.8508,-2.3534 -1.4663 -2.3534c -0.6879,-0.0000 -1.4482,0.1991 -1.4482 0.7603c 0.0000,0.1991 0.0181,0.3077 0.0362 0.3621c 0.0362,0.0724 0.0543,0.1991 0.0543 0.3259c 0.0000,0.2353 -0.3259,0.6155 -0.8508 0.6155c -0.4164,-0.0000 -0.6336,-0.2172 -0.6336 -0.6517c 0.0000,-1.0319 1.5025,-2.0094 2.9870 -2.0094c 1.3215,-0.0000 2.7335,0.4888 2.7335 3.0594v 2.6611 c 0.0000,0.8327 0.0181,1.5387 0.5431 1.5387c 0.2299,-0.0000 0.5340,-0.1774 0.6698 -0.2896c 0.2046,0.1140 0.2770,0.2661 0.3077 0.4888c -0.3747,0.3621 -1.0264,0.6698 -1.7198 0.6698c -0.9124,-0.0000 -1.1043,-0.4888 -1.2129 -1.0500ZM 852.0413,85.4499 ZM 855.2093,79.4578 c -0.2100,0.2589 -0.2896,0.4164 -0.2896 0.7965v 3.2947 c 0.0000,0.6535 0.0706,0.7585 0.4345 1.0844c 0.3259,0.2915 0.9594,0.3820 1.2853 0.3820c 2.0275,-0.0000 2.5525,-1.8465 2.5525 -3.3309c 0.0000,-2.0456 -0.9957,-3.3490 -2.1542 -3.3490c -0.5286,-0.0000 -1.3577,0.5431 -1.8284 1.1224ZM 855.2093,79.4578 ZM 854.8654,78.7880 c 0.0091,0.1738 0.0978,0.1865 0.1991 0.0724c 0.7151,-0.8056 1.6383,-1.3577 2.4801 -1.3577c 1.8465,-0.0000 3.2042,1.7741 3.2042 3.6930c 0.0000,1.4663 -0.4888,2.5887 -1.3396 3.4214c -0.7422,0.7060 -1.6474,1.0138 -2.6611 1.0138c -0.5720,-0.0000 -1.1314,-0.1014 -1.5749 -0.2806c -0.1846,-0.0760 -0.2534,-0.0996 -0.2534 0.1358v 1.9551 c 0.0000,1.5025 0.1991,1.5749 1.4844 1.6474c 0.1086,0.1086 0.1086,0.4888 0.0000 0.5974c -0.5974,-0.0181 -1.4663,-0.0362 -2.1904 -0.0362c -0.7241,-0.0000 -1.3939,0.0181 -2.0275 0.0362c -0.1086,-0.1086 -0.1086,-0.4888 0.0000 -0.5974c 1.1043,-0.0543 1.3034,-0.1448 1.3034 -1.6474v -7.7299 c 0.0000,-1.0500 -0.1991,-1.1405 -1.1767 -1.2310c -0.0362,-0.1086 -0.0724,-0.3983 -0.0362 -0.5069c 1.2491,-0.1629 1.7198,-0.3259 2.2266 -0.5250c 0.1448,-0.0000 0.1792,0.0615 0.2172 0.1448c 0.0851,0.1865 0.1177,0.6517 0.1448 1.1948Z"/></g><g stroke-linecap="butt" fill="rgb(0,0,0)" stroke-miterlimit="10.0" stroke-width="0.0" fill-opacity="1.0" stroke-opacity="1.0" stroke-linejoin="miter" stroke="rgb(0,0,0)"><path d="M 725.2853,62.0966 ZM 731.7480,62.2776 c -3.8921,-0.0000 -5.7929,-2.6466 -5.7929 -5.7929c 0.0000,-1.8881 0.7169,-3.6604 1.9189 -4.7610c 1.0681,-0.9776 2.3534,-1.5387 3.8921 -1.5387c 2.2266,-0.0000 3.0413,0.7241 3.9645 0.8146c 0.1810,0.9957 0.3077,1.8646 0.3983 2.8059c -0.2046,0.1086 -0.3802,0.1629 -0.5974 0.0905c -0.4707,-1.5568 -1.4663,-3.0413 -3.9645 -3.0413c -0.9413,-0.0000 -1.9913,0.5069 -2.8892 1.6112c -0.6608,0.8128 -1.0753,2.1126 -1.0753 3.6749c 0.0000,2.6430 1.6908,5.3946 4.1274 5.3946c 1.6836,-0.0000 2.9146,-0.5612 4.1999 -1.9732c 0.1991,-0.0000 0.3259,0.1086 0.4164 0.2715c -1.2310,1.6112 -2.8421,2.4439 -4.5981 2.4439ZM 736.9798,62.0966 ZM 740.9081,62.2776 c -1.7922,-0.0000 -2.3353,-1.2129 -2.3353 -2.4620v -3.4757 c 0.0000,-1.1767 -0.2534,-1.3758 -1.1224 -1.4482c -0.1086,-0.1086 -0.1086,-0.4888 0.0000 -0.5974c 0.6155,0.0181 1.2672,0.0362 1.8465 0.0362c 0.2715,-0.0000 0.5431,-0.0181 0.6336 -0.0362c 0.0905,-0.0000 0.1448,0.0543 0.1448 0.1086c 0.0000,-0.0000 -0.0724,1.3215 -0.0724 1.8646v 3.2947 c 0.0000,1.6112 0.9051,1.8646 1.4482 1.8646c 0.4526,-0.0000 1.1405,-0.2896 1.8103 -0.8689c 0.2534,-0.2172 0.2896,-0.3621 0.2896 -0.7060v -3.4938 c 0.0000,-1.1948 -0.2353,-1.4120 -1.1224 -1.4663c -0.1086,-0.1086 -0.1086,-0.4888 0.0000 -0.5974c 0.6155,0.0181 1.2672,0.0362 1.8465 0.0362c 0.2715,-0.0000 0.5431,-0.0181 0.6336 -0.0362c 0.0905,-0.0000 0.1448,0.0543 0.1448 0.1086c 0.0000,-0.0000 -0.0724,1.3215 -0.0724 1.8646v 3.4757 c 0.0000,0.8870 0.1629,1.2310 1.3215 1.3215c 0.1086,0.1086 0.1086,0.3802 0.0000 0.4888c -1.1043,0.1267 -1.7379,0.3983 -2.1361 0.7241c -0.1177,0.0453 -0.1991,0.0543 -0.3440 -0.0000c 0.0000,-0.0000 -0.1539,-0.6064 -0.1991 -1.0681c -0.0127,-0.1267 -0.1810,-0.0905 -0.2715 -0.0181c -0.8870,0.7241 -1.7379,1.0862 -2.4439 1.0862ZM 746.5924,62.0966 ZM 748.2216,55.0365 h -1.0681 c -0.0724,-0.0000 -0.0905,-0.0181 -0.0905 -0.1086v -0.2353 c 0.0000,-0.1448 0.0724,-0.3621 0.3259 -0.3621l 0.8327,-0.0018 c 0.0000,-1.5007 0.0018,-1.4862 -0.0362 -1.8990c -0.0109,-0.1267 0.1448,-0.1629 0.2534 -0.2299l 1.0500,-0.4761 c 0.1629,-0.0000 0.2353,0.0543 0.2353 0.1810c 0.0000,-0.0000 -0.0724,0.7241 -0.0724 1.9008v 0.5250 c 1.9098,-0.0000 3.0558,0.0018 3.8197 -0.0018c 0.0000,-1.5007 0.0018,-1.6673 -0.0362 -2.0800c -0.0109,-0.1267 0.1448,-0.1629 0.2534 -0.2299l 1.0500,-0.4761 c 0.1629,-0.0000 0.2353,0.0543 0.2353 0.1810c 0.0000,-0.0000 -0.0724,0.7241 -0.0724 1.9008v 0.7060 h 2.1723 c 0.0905,-0.0000 0.1448,0.0362 0.1448 0.1086v 0.3621 c 0.0000,0.1629 -0.2534,0.2353 -0.4345 0.2353h -1.8827 v 4.5800 c 0.0000,1.1224 0.1086,1.6655 0.5974 1.6655c 0.4707,-0.0000 1.0138,-0.1448 1.4844 -0.5069c 0.1810,0.0181 0.2896,0.1213 0.3259 0.3077c -0.7060,0.7965 -1.6112,1.1948 -2.4439 1.1948c -0.8327,-0.0000 -1.3939,-0.5069 -1.3939 -1.7922v -5.4490 h -3.8197 v 4.5800 c 0.0000,1.1224 0.1086,1.6655 0.5974 1.6655c 0.5069,-0.0000 1.0138,-0.2715 1.2853 -0.5069c 0.1629,0.0181 0.2408,0.0978 0.2896 0.2715c -0.4707,0.7060 -1.3034,1.2310 -2.2085 1.2310c -0.8508,-0.0000 -1.3939,-0.5069 -1.3939 -1.7922v -5.4490 ZM 757.7075,62.0966 ZM 759.9522,56.9916 l 3.2766,-0.0543 c 0.1991,-0.0036 0.2715,-0.0905 0.2715 -0.2534c 0.0000,-1.5206 -0.8146,-1.9008 -1.5025 -1.9008c -0.4345,-0.0000 -1.7017,0.1629 -2.0456 2.2085ZM 759.9522,56.9916 ZM 764.6952,60.4130 c 0.2172,0.0181 0.3259,0.1086 0.3802 0.2896c -0.7241,0.9413 -1.7017,1.5749 -3.0775 1.5749c -1.3034,-0.0000 -2.1542,-0.4345 -2.7697 -1.1586c -0.5974,-0.6879 -0.8508,-1.6655 -0.8508 -2.6792c 0.0000,-2.7516 2.0456,-4.2542 3.6206 -4.2542c 2.5163,-0.0000 3.0594,1.6293 3.0594 3.1499c 0.0000,0.1991 -0.1267,0.3077 -0.3440 0.3077l -4.8154,-0.0362 c 0.0000,1.0500 0.2172,1.8827 0.5793 2.4801c 0.5612,0.9232 1.3215,1.3034 1.9732 1.3034c 1.0500,-0.0000 1.5749,-0.2896 2.2448 -0.9776ZM 765.7995,62.0966 ZM 768.9856,55.6158 c 0.0036,0.0905 0.0905,0.2353 0.1991 0.0362c 0.4164,-0.7060 1.1586,-1.5025 2.0094 -1.5025c 0.7603,-0.0000 1.0862,0.5232 1.0862 0.8689c 0.0000,0.4526 -0.4164,0.9051 -0.8508 0.9051c -0.3150,-0.0000 -0.5177,-0.2408 -0.6553 -0.4218c -0.1412,-0.1865 -0.3041,-0.2299 -0.4671 -0.2299c -0.2172,-0.0000 -0.6336,0.5974 -0.8327 0.8870c -0.2172,0.3259 -0.4345,0.7422 -0.4345 1.2129v 2.5163 c 0.0000,1.5025 0.2172,1.5568 1.4844 1.6474c 0.1086,0.1086 0.1086,0.4888 0.0000 0.5974c -0.6336,-0.0181 -1.4663,-0.0362 -2.1904 -0.0362c -0.7241,-0.0000 -1.4301,0.0181 -2.0637 0.0362c -0.1086,-0.1086 -0.1086,-0.4888 0.0000 -0.5974c 1.1224,-0.0724 1.3396,-0.1448 1.3396 -1.6474v -3.5301 c 0.0000,-1.0500 -0.1991,-1.1405 -1.1767 -1.2310c -0.0362,-0.1086 -0.0724,-0.3983 -0.0362 -0.5069c 1.2491,-0.1629 1.7198,-0.3259 2.2266 -0.5250c 0.1448,-0.0000 0.1792,0.0615 0.2172 0.1448c 0.0851,0.1865 0.1140,0.6517 0.1448 1.3758Z"/></g><g stroke-linecap="butt" fill="rgb(0,0,0)" stroke-miterlimit="10.0" stroke-width="0.0" fill-opacity="1.0" stroke-opacity="1.0" stroke-linejoin="miter" stroke="rgb(0,0,0)"><path d="M 15.1738,87.4774 ZM 18.5952,77.4484 v 4.2180 c 0.1991,0.0543 0.9232,0.0905 1.3758 0.0905c 1.7560,-0.0000 2.6973,-0.7965 2.6973 -2.7516c 0.0000,-2.2991 -1.2491,-2.7154 -2.4982 -2.7154c -1.3034,-0.0000 -1.5749,0.6336 -1.5749 1.1586ZM 18.5952,77.4484 ZM 17.0565,78.0096 c 0.0000,-1.5025 -0.3077,-1.5930 -1.5749 -1.6474c -0.1086,-0.1086 -0.1086,-0.4888 0.0000 -0.5974c 0.7241,0.0181 1.6709,0.0362 2.3353 0.0362c 0.7241,-0.0000 1.7867,-0.1267 2.4801 -0.1267c 3.3490,-0.0000 4.0550,1.9370 4.0550 3.0051c 0.0000,1.5387 -0.9957,3.6930 -4.2904 3.6930c -0.6336,-0.0000 -1.0681,-0.0543 -1.4663 -0.1810v 3.0775 c 0.0000,1.5025 0.4345,1.5749 1.8465 1.6474c 0.1086,0.1086 0.1086,0.4888 0.0000 0.5974c -0.9051,-0.0181 -1.9660,-0.0362 -2.6068 -0.0362c -0.6463,-0.0000 -1.5387,0.0181 -2.3534 0.0362c -0.1086,-0.1086 -0.1086,-0.4888 0.0000 -0.5974c 1.2672,-0.0543 1.5749,-0.1448 1.5749 -1.6474v -7.2592 ZM 25.1846,87.4774 ZM 26.9044,85.2688 v -7.9109 c 0.0000,-1.3577 -0.1086,-1.4120 -1.1586 -1.4844c -0.1086,-0.1086 -0.1448,-0.3983 -0.1086 -0.5431c 0.7241,-0.0543 2.0818,-0.3077 2.5344 -0.4888c 0.1629,-0.0000 0.2353,0.0543 0.2353 0.1810c 0.0000,-0.0000 -0.0724,0.7241 -0.0724 1.9008v 8.3454 c 0.0000,1.5025 0.1991,1.5930 1.3034 1.6474c 0.1086,0.1086 0.1086,0.4888 0.0000 0.5974c -0.5974,-0.0181 -1.2853,-0.0362 -2.0094 -0.0362c -0.7241,-0.0000 -1.3939,0.0181 -2.0275 0.0362c -0.1086,-0.1086 -0.1086,-0.4888 0.0000 -0.5974c 1.1043,-0.0543 1.3034,-0.1448 1.3034 -1.6474ZM 29.9638,87.4774 ZM 35.2679,83.2594 l -1.4301,0.3802 c -1.3396,0.3440 -1.7198,1.1767 -1.7198 1.9913c 0.0000,0.5612 0.3983,1.2853 1.3034 1.2853c 0.5069,-0.0000 1.1224,-0.4164 1.5930 -0.7965c 0.1448,-0.1086 0.2534,-0.2353 0.2534 -0.4707v -2.3896 ZM 35.2679,83.2594 ZM 35.2679,86.6084 h -0.0362 l -0.3621,0.2896 c -0.7965,0.6155 -1.3432,0.7603 -1.9732 0.7603c -1.2672,-0.0000 -2.2810,-0.4707 -2.2810 -1.9551c 0.0000,-1.2310 1.2491,-2.1904 2.9870 -2.6249l 1.5568,-0.3802 c 0.0543,-0.0181 0.1086,-0.0905 0.1086 -0.2172c 0.0000,-2.0456 -0.8508,-2.3534 -1.4663 -2.3534c -0.6879,-0.0000 -1.4482,0.1991 -1.4482 0.7603c 0.0000,0.1991 0.0181,0.3077 0.0362 0.3621c 0.0362,0.0724 0.0543,0.1991 0.0543 0.3259c 0.0000,0.2353 -0.3259,0.6155 -0.8508 0.6155c -0.4164,-0.0000 -0.6336,-0.2172 -0.6336 -0.6517c 0.0000,-1.0319 1.5025,-2.0094 2.9870 -2.0094c 1.3215,-0.0000 2.7335,0.4888 2.7335 3.0594v 2.6611 c 0.0000,0.8327 0.0181,1.5387 0.5431 1.5387c 0.2299,-0.0000 0.5340,-0.1774 0.6698 -0.2896c 0.2046,0.1140 0.2770,0.2661 0.3077 0.4888c -0.3747,0.3621 -1.0264,0.6698 -1.7198 0.6698c -0.9124,-0.0000 -1.1043,-0.4888 -1.2129 -1.0500ZM 38.2368,87.4774 ZM 39.0152,79.7113 l 0.8327,-0.0018 c 0.0000,-2.0076 -0.0543,-1.8881 -0.0543 -2.0981c 0.0000,-0.1249 0.1810,-0.1865 0.3983 -0.2480c 0.2263,-0.0634 0.4109,-0.1412 0.6155 -0.2552c 0.1684,-0.0923 0.3222,-0.1629 0.4037 -0.1629c 0.0851,-0.0000 0.1394,0.0434 0.1394 0.1593c 0.0000,-0.0000 -0.0724,0.7241 -0.0724 1.9008v 0.7060 h 2.1723 c 0.0905,-0.0000 0.1448,0.0362 0.1448 0.1086v 0.3621 c 0.0000,0.1629 -0.2534,0.2353 -0.4345 0.2353h -1.8827 v 4.5800 c 0.0000,1.1224 0.1086,1.6655 0.5974 1.6655c 0.4707,-0.0000 1.0138,-0.1448 1.4844 -0.5069c 0.1810,0.0181 0.2896,0.1213 0.3259 0.3077c -0.7060,0.7965 -1.6112,1.1948 -2.4439 1.1948c -0.8327,-0.0000 -1.3939,-0.5069 -1.3939 -1.7922v -5.4490 h -1.0681 c -0.0724,-0.0000 -0.0905,-0.0181 -0.0905 -0.1086v -0.2353 c 0.0000,-0.1448 0.0724,-0.3621 0.3259 -0.3621ZM 43.9573,87.4774 ZM 46.2020,82.3724 l 3.2766,-0.0543 c 0.1991,-0.0036 0.2715,-0.0905 0.2715 -0.2534c 0.0000,-1.5206 -0.8146,-1.9008 -1.5025 -1.9008c -0.4345,-0.0000 -1.7017,0.1629 -2.0456 2.2085ZM 46.2020,82.3724 ZM 50.9450,85.7938 c 0.2172,0.0181 0.3259,0.1086 0.3802 0.2896c -0.7241,0.9413 -1.7017,1.5749 -3.0775 1.5749c -1.3034,-0.0000 -2.1542,-0.4345 -2.7697 -1.1586c -0.5974,-0.6879 -0.8508,-1.6655 -0.8508 -2.6792c 0.0000,-2.7516 2.0456,-4.2542 3.6206 -4.2542c 2.5163,-0.0000 3.0594,1.6293 3.0594 3.1499c 0.0000,0.1991 -0.1267,0.3077 -0.3440 0.3077l -4.8154,-0.0362 c 0.0000,1.0500 0.2172,1.8827 0.5793 2.4801c 0.5612,0.9232 1.3215,1.3034 1.9732 1.3034c 1.0500,-0.0000 1.5749,-0.2896 2.2448 -0.9776Z"/></g><g stroke-linecap="butt" fill="rgb(0,0,0)" stroke-miterlimit="10.0" stroke-width="0.0" fill-opacity="1.0" stroke-opacity="1.0" stroke-linejoin="miter" stroke="rgb(0,0,0)"><path d="M 4.3302,62.0966 ZM 10.7929,62.2776 c -3.8921,-0.0000 -5.7929,-2.6466 -5.7929 -5.7929c 0.0000,-1.8881 0.7169,-3.6604 1.9189 -4.7610c 1.0681,-0.9776 2.3534,-1.5387 3.8921 -1.5387c 2.2266,-0.0000 3.0413,0.7241 3.9645 0.8146c 0.1810,0.9957 0.3077,1.8646 0.3983 2.8059c -0.2046,0.1086 -0.3802,0.1629 -0.5974 0.0905c -0.4707,-1.5568 -1.4663,-3.0413 -3.9645 -3.0413c -0.9413,-0.0000 -1.9913,0.5069 -2.8892 1.6112c -0.6608,0.8128 -1.0753,2.1126 -1.0753 3.6749c 0.0000,2.6430 1.6908,5.3946 4.1274 5.3946c 1.6836,-0.0000 2.9146,-0.5612 4.1999 -1.9732c 0.1991,-0.0000 0.3259,0.1086 0.4164 0.2715c -1.2310,1.6112 -2.8421,2.4439 -4.5981 2.4439ZM 16.0246,62.0966 ZM 19.9529,62.2776 c -1.7922,-0.0000 -2.3353,-1.2129 -2.3353 -2.4620v -3.4757 c 0.0000,-1.1767 -0.2534,-1.3758 -1.1224 -1.4482c -0.1086,-0.1086 -0.1086,-0.4888 0.0000 -0.5974c 0.6155,0.0181 1.2672,0.0362 1.8465 0.0362c 0.2715,-0.0000 0.5431,-0.0181 0.6336 -0.0362c 0.0905,-0.0000 0.1448,0.0543 0.1448 0.1086c 0.0000,-0.0000 -0.0724,1.3215 -0.0724 1.8646v 3.2947 c 0.0000,1.6112 0.9051,1.8646 1.4482 1.8646c 0.4526,-0.0000 1.1405,-0.2896 1.8103 -0.8689c 0.2534,-0.2172 0.2896,-0.3621 0.2896 -0.7060v -3.4938 c 0.0000,-1.1948 -0.2353,-1.4120 -1.1224 -1.4663c -0.1086,-0.1086 -0.1086,-0.4888 0.0000 -0.5974c 0.6155,0.0181 1.2672,0.0362 1.8465 0.0362c 0.2715,-0.0000 0.5431,-0.0181 0.6336 -0.0362c 0.0905,-0.0000 0.1448,0.0543 0.1448 0.1086c 0.0000,-0.0000 -0.0724,1.3215 -0.0724 1.8646v 3.4757 c 0.0000,0.8870 0.1629,1.2310 1.3215 1.3215c 0.1086,0.1086 0.1086,0.3802 0.0000 0.4888c -1.1043,0.1267 -1.7379,0.3983 -2.1361 0.7241c -0.1177,0.0453 -0.1991,0.0543 -0.3440 -0.0000c 0.0000,-0.0000 -0.1539,-0.6064 -0.1991 -1.0681c -0.0127,-0.1267 -0.1810,-0.0905 -0.2715 -0.0181c -0.8870,0.7241 -1.7379,1.0862 -2.4439 1.0862ZM 25.6372,62.0966 ZM 27.2665,55.0365 h -1.0681 c -0.0724,-0.0000 -0.0905,-0.0181 -0.0905 -0.1086v -0.2353 c 0.0000,-0.1448 0.0724,-0.3621 0.3259 -0.3621l 0.8327,-0.0018 c 0.0000,-1.5007 0.0018,-1.4862 -0.0362 -1.8990c -0.0109,-0.1267 0.1448,-0.1629 0.2534 -0.2299l 1.0500,-0.4761 c 0.1629,-0.0000 0.2353,0.0543 0.2353 0.1810c 0.0000,-0.0000 -0.0724,0.7241 -0.0724 1.9008v 0.5250 c 1.9098,-0.0000 3.0558,0.0018 3.8197 -0.0018c 0.0000,-1.5007 0.0018,-1.6673 -0.0362 -2.0800c -0.0109,-0.1267 0.1448,-0.1629 0.2534 -0.2299l 1.0500,-0.4761 c 0.1629,-0.0000 0.2353,0.0543 0.2353 0.1810c 0.0000,-0.0000 -0.0724,0.7241 -0.0724 1.9008v 0.7060 h 2.1723 c 0.0905,-0.0000 0.1448,0.0362 0.1448 0.1086v 0.3621 c 0.0000,0.1629 -0.2534,0.2353 -0.4345 0.2353h -1.8827 v 4.5800 c 0.0000,1.1224 0.1086,1.6655 0.5974 1.6655c 0.4707,-0.0000 1.0138,-0.1448 1.4844 -0.5069c 0.1810,0.0181 0.2896,0.1213 0.3259 0.3077c -0.7060,0.7965 -1.6112,1.1948 -2.4439 1.1948c -0.8327,-0.0000 -1.3939,-0.5069 -1.3939 -1.7922v -5.4490 h -3.8197 v 4.5800 c 0.0000,1.1224 0.1086,1.6655 0.5974 1.6655c 0.5069,-0.0000 1.0138,-0.2715 1.2853 -0.5069c 0.1629,0.0181 0.2408,0.0978 0.2896 0.2715c -0.4707,0.7060 -1.3034,1.2310 -2.2085 1.2310c -0.8508,-0.0000 -1.3939,-0.5069 -1.3939 -1.7922v -5.4490 ZM 36.7524,62.0966 ZM 38.9971,56.9916 l 3.2766,-0.0543 c 0.1991,-0.0036 0.2715,-0.0905 0.2715 -0.2534c 0.0000,-1.5206 -0.8146,-1.9008 -1.5025 -1.9008c -0.4345,-0.0000 -1.7017,0.1629 -2.0456 2.2085ZM 38.9971,56.9916 ZM 43.7400,60.4130 c 0.2172,0.0181 0.3259,0.1086 0.3802 0.2896c -0.7241,0.9413 -1.7017,1.5749 -3.0775 1.5749c -1.3034,-0.0000 -2.1542,-0.4345 -2.7697 -1.1586c -0.5974,-0.6879 -0.8508,-1.6655 -0.8508 -2.6792c 0.0000,-2.7516 2.0456,-4.2542 3.6206 -4.2542c 2.5163,-0.0000 3.0594,1.6293 3.0594 3.1499c 0.0000,0.1991 -0.1267,0.3077 -0.3440 0.3077l -4.8154,-0.0362 c 0.0000,1.0500 0.2172,1.8827 0.5793 2.4801c 0.5612,0.9232 1.3215,1.3034 1.9732 1.3034c 1.0500,-0.0000 1.5749,-0.2896 2.2448 -0.9776ZM 44.8443,62.0966 ZM 48.0304,55.6158 c 0.0036,0.0905 0.0905,0.2353 0.1991 0.0362c 0.4164,-0.7060 1.1586,-1.5025 2.0094 -1.5025c 0.7603,-0.0000 1.0862,0.5232 1.0862 0.8689c 0.0000,0.4526 -0.4164,0.9051 -0.8508 0.9051c -0.3150,-0.0000 -0.5177,-0.2408 -0.6553 -0.4218c -0.1412,-0.1865 -0.3041,-0.2299 -0.4671 -0.2299c -0.2172,-0.0000 -0.6336,0.5974 -0.8327 0.8870c -0.2172,0.3259 -0.4345,0.7422 -0.4345 1.2129v 2.5163 c 0.0000,1.5025 0.2172,1.5568 1.4844 1.6474c 0.1086,0.1086 0.1086,0.4888 0.0000 0.5974c -0.6336,-0.0181 -1.4663,-0.0362 -2.1904 -0.0362c -0.7241,-0.0000 -1.4301,0.0181 -2.0637 0.0362c -0.1086,-0.1086 -0.1086,-0.4888 0.0000 -0.5974c 1.1224,-0.0724 1.3396,-0.1448 1.3396 -1.6474v -3.5301 c 0.0000,-1.0500 -0.1991,-1.1405 -1.1767 -1.2310c -0.0362,-0.1086 -0.0724,-0.3983 -0.0362 -0.5069c 1.2491,-0.1629 1.7198,-0.3259 2.2266 -0.5250c 0.1448,-0.0000 0.1792,0.0615 0.2172 0.1448c 0.0851,0.1865 0.1140,0.6517 0.1448 1.3758Z"/></g></svg>