<?xml version="1.0" encoding="UTF-8"?>
<!DOCTYPE svg PUBLIC "-//W3C//DTD SVG 1.1//EN"
    "http://www.w3.org/Graphics/SVG/1.1/DTD/svg11.dtd"><svg xmlns="http://www.w3.org/2000/svg" viewBox="0.0 0.0 243.50832729905866 174.31028240405504" height="174.3103" font-size="1" stroke-opacity="1" width="243.5083" xmlns:xlink="http://www.w3.org/1999/xlink" stroke="rgb(0,0,0)" version="1.1"><defs></defs><g stroke-linecap="butt" fill="rgb(0,0,0)" stroke-miterlimit="10.0" stroke-width="0.5" fill-opacity="0.0" stroke-opacity="1.0" stroke-linejoin="miter" stroke="rgb(0,0,0)"><path d="M 120.1068,13.9084 l 88.3852,74.4008 "/></g><g stroke-linecap="butt" fill="rgb(0,0,0)" stroke-miterlimit="10.0" stroke-width="0.0" fill-opacity="1.0" stroke-opacity="1.0" stroke-linejoin="miter" stroke="rgb(0,0,0)"></g><g stroke-linecap="butt" fill="rgb(0,0,0)" stroke-miterlimit="10.0" stroke-width="0.0" fill-opacity="1.0" stroke-opacity="1.0" stroke-linejoin="miter" stroke="rgb(0,0,0)"></g><g stroke-linecap="butt" fill="rgb(0,0,0)" stroke-miterlimit="10.0" stroke-width="0.0" fill-opacity="1.0" stroke-opacity="1.0" stroke-linejoin="miter" stroke="rgb(0,0,0)"></g><g stroke-linecap="butt" fill="rgb(0,0,0)" stroke-miterlimit="10.0" stroke-width="0.0" fill-opacity="1.0" stroke-opacity="1.0" stroke-linejoin="miter" stroke="rgb(0,0,0)"></g><g stroke-linecap="butt" fill="rgb(0,0,0)" stroke-miterlimit="10.0" stroke-width="0.5" fill-opacity="0.0" stroke-opacity="1.0" stroke-linejoin="miter" stroke="rgb(0,0,0)"><path d="M 120.1068,13.9084 l -1.6474,74.4008 "/></g><g stroke-linecap="butt" fill="rgb(0,0,0)" stroke-miterlimit="10.0" stroke-width="0.0" fill-opacity="1.0" stroke-opacity="1.0" stroke-linejoin="miter" stroke="rgb(0,0,0)"></g><g stroke-linecap="butt" fill="rgb(0,0,0)" stroke-miterlimit="10.0" stroke-width="0.0" fill-opacity="1.0" stroke-opacity="1.0" stroke-linejoin="miter" stroke="rgb(0,0,0)"></g><g stroke-linecap="butt" fill="rgb(0,0,0)" stroke-miterlimit="10.0" stroke-width="0.0" fill-opacity="1.0" stroke-opacity="1.0" stroke-linejoin="miter" stroke="rgb(0,0,0)"></g><g stroke-linecap="butt" fill="rgb(0,0,0)" stroke-miterlimit="10.0" stroke-width="0.0" fill-opacity="1.0" stroke-opacity="1.0" stroke-linejoin="miter" stroke="rgb(0,0,0)"></g><g stroke-linecap="butt" fill="rgb(0,0,0)" stroke-miterlimit="10.0" stroke-width="0.5" fill-opacity="0.0" stroke-opacity="1.0" stroke-linejoin="miter" stroke="rgb(0,0,0)"><path d="M 120.1068,13.9084 l -88.3852,74.4008 "/></g><g stroke-linecap="butt" fill="rgb(0,0,0)" stroke-miterlimit="10.0" stroke-width="0.0" fill-opacity="1.0" stroke-opacity="1.0" stroke-linejoin="miter" stroke="rgb(0,0,0)"></g><g stroke-linecap="butt" fill="rgb(0,0,0)" stroke-miterlimit="10.0" stroke-width="0.0" fill-opacity="1.0" stroke-opacity="1.0" stroke-linejoin="miter" stroke="rgb(0,0,0)"></g><g stroke-linecap="butt" fill="rgb(0,0,0)" stroke-miterlimit="10.0" stroke-width="0.0" fill-opacity="1.0" stroke-opacity="1.0" stroke-linejoin="miter" stroke="rgb(0,0,0)"></g><g stroke-linecap="butt" fill="rgb(0,0,0)" stroke-miterlimit="10.0" stroke-width="0.0" fill-opacity="1.0" stroke-opacity="1.0" stroke-linejoin="miter" stroke="rgb(0,0,0)"></g><g stroke-linecap="butt" fill="rgb(255,255,255)" stroke-miterlimit="10.0" stroke-width="1.0" fill-opacity="1.0" stroke-opacity="1.0" stroke-linejoin="miter" stroke="rgb(0,0,0)"><path d="M 241.0083,99.7176 l -0.0000,-22.8168 h -65.0326 l -0.0000,22.8168 Z"/></g><g stroke-linecap="butt" fill="rgb(0,0,0)" stroke-miterlimit="10.0" stroke-width="0.0" fill-opacity="1.0" stroke-opacity="1.0" stroke-linejoin="miter" stroke="rgb(0,0,0)"><path d="M 180.7495,94.5366 ZM 184.1709,84.5076 v 4.2180 c 0.1991,0.0543 0.9232,0.0905 1.3758 0.0905c 1.7560,-0.0000 2.6973,-0.7965 2.6973 -2.7516c 0.0000,-2.2991 -1.2491,-2.7154 -2.4982 -2.7154c -1.3034,-0.0000 -1.5749,0.6336 -1.5749 1.1586ZM 184.1709,84.5076 ZM 182.6322,85.0688 c 0.0000,-1.5025 -0.3077,-1.5930 -1.5749 -1.6474c -0.1086,-0.1086 -0.1086,-0.4888 0.0000 -0.5974c 0.7241,0.0181 1.6709,0.0362 2.3353 0.0362c 0.7241,-0.0000 1.7867,-0.1267 2.4801 -0.1267c 3.3490,-0.0000 4.0550,1.9370 4.0550 3.0051c 0.0000,1.5387 -0.9957,3.6930 -4.2904 3.6930c -0.6336,-0.0000 -1.0681,-0.0543 -1.4663 -0.1810v 3.0775 c 0.0000,1.5025 0.4345,1.5749 1.8465 1.6474c 0.1086,0.1086 0.1086,0.4888 0.0000 0.5974c -0.9051,-0.0181 -1.9660,-0.0362 -2.6068 -0.0362c -0.6463,-0.0000 -1.5387,0.0181 -2.3534 0.0362c -0.1086,-0.1086 -0.1086,-0.4888 0.0000 -0.5974c 1.2672,-0.0543 1.5749,-0.1448 1.5749 -1.6474v -7.2592 ZM 190.5431,94.5366 ZM 195.8472,90.3186 l -1.4301,0.3802 c -1.3396,0.3440 -1.7198,1.1767 -1.7198 1.9913c 0.0000,0.5612 0.3983,1.2853 1.3034 1.2853c 0.5069,-0.0000 1.1224,-0.4164 1.5930 -0.7965c 0.1448,-0.1086 0.2534,-0.2353 0.2534 -0.4707v -2.3896 ZM 195.8472,90.3186 ZM 195.8472,93.6676 h -0.0362 l -0.3621,0.2896 c -0.7965,0.6155 -1.3432,0.7603 -1.9732 0.7603c -1.2672,-0.0000 -2.2810,-0.4707 -2.2810 -1.9551c 0.0000,-1.2310 1.2491,-2.1904 2.9870 -2.6249l 1.5568,-0.3802 c 0.0543,-0.0181 0.1086,-0.0905 0.1086 -0.2172c 0.0000,-2.0456 -0.8508,-2.3534 -1.4663 -2.3534c -0.6879,-0.0000 -1.4482,0.1991 -1.4482 0.7603c 0.0000,0.1991 0.0181,0.3077 0.0362 0.3621c 0.0362,0.0724 0.0543,0.1991 0.0543 0.3259c 0.0000,0.2353 -0.3259,0.6155 -0.8508 0.6155c -0.4164,-0.0000 -0.6336,-0.2172 -0.6336 -0.6517c 0.0000,-1.0319 1.5025,-2.0094 2.9870 -2.0094c 1.3215,-0.0000 2.7335,0.4888 2.7335 3.0594v 2.6611 c 0.0000,0.8327 0.0181,1.5387 0.5431 1.5387c 0.2299,-0.0000 0.5340,-0.1774 0.6698 -0.2896c 0.2046,0.1140 0.2770,0.2661 0.3077 0.4888c -0.3747,0.3621 -1.0264,0.6698 -1.7198 0.6698c -0.9124,-0.0000 -1.1043,-0.4888 -1.2129 -1.0500ZM 198.8161,94.5366 ZM 202.0022,88.0558 c 0.0036,0.0905 0.0905,0.2353 0.1991 0.0362c 0.4164,-0.7060 1.1586,-1.5025 2.0094 -1.5025c 0.7603,-0.0000 1.0862,0.5232 1.0862 0.8689c 0.0000,0.4526 -0.4164,0.9051 -0.8508 0.9051c -0.3150,-0.0000 -0.5177,-0.2408 -0.6553 -0.4218c -0.1412,-0.1865 -0.3041,-0.2299 -0.4671 -0.2299c -0.2172,-0.0000 -0.6336,0.5974 -0.8327 0.8870c -0.2172,0.3259 -0.4345,0.7422 -0.4345 1.2129v 2.5163 c 0.0000,1.5025 0.2172,1.5568 1.4844 1.6474c 0.1086,0.1086 0.1086,0.4888 0.0000 0.5974c -0.6336,-0.0181 -1.4663,-0.0362 -2.1904 -0.0362c -0.7241,-0.0000 -1.4301,0.0181 -2.0637 0.0362c -0.1086,-0.1086 -0.1086,-0.4888 0.0000 -0.5974c 1.1224,-0.0724 1.3396,-0.1448 1.3396 -1.6474v -3.5301 c 0.0000,-1.0500 -0.1991,-1.1405 -1.1767 -1.2310c -0.0362,-0.1086 -0.0724,-0.3983 -0.0362 -0.5069c 1.2491,-0.1629 1.7198,-0.3259 2.2266 -0.5250c 0.1448,-0.0000 0.1792,0.0615 0.2172 0.1448c 0.0851,0.1865 0.1140,0.6517 0.1448 1.3758ZM 205.5503,94.5366 ZM 210.8545,90.3186 l -1.4301,0.3802 c -1.3396,0.3440 -1.7198,1.1767 -1.7198 1.9913c 0.0000,0.5612 0.3983,1.2853 1.3034 1.2853c 0.5069,-0.0000 1.1224,-0.4164 1.5930 -0.7965c 0.1448,-0.1086 0.2534,-0.2353 0.2534 -0.4707v -2.3896 ZM 210.8545,90.3186 ZM 210.8545,93.6676 h -0.0362 l -0.3621,0.2896 c -0.7965,0.6155 -1.3432,0.7603 -1.9732 0.7603c -1.2672,-0.0000 -2.2810,-0.4707 -2.2810 -1.9551c 0.0000,-1.2310 1.2491,-2.1904 2.9870 -2.6249l 1.5568,-0.3802 c 0.0543,-0.0181 0.1086,-0.0905 0.1086 -0.2172c 0.0000,-2.0456 -0.8508,-2.3534 -1.4663 -2.3534c -0.6879,-0.0000 -1.4482,0.1991 -1.4482 0.7603c 0.0000,0.1991 0.0181,0.3077 0.0362 0.3621c 0.0362,0.0724 0.0543,0.1991 0.0543 0.3259c 0.0000,0.2353 -0.3259,0.6155 -0.8508 0.6155c -0.4164,-0.0000 -0.6336,-0.2172 -0.6336 -0.6517c 0.0000,-1.0319 1.5025,-2.0094 2.9870 -2.0094c 1.3215,-0.0000 2.7335,0.4888 2.7335 3.0594v 2.6611 c 0.0000,0.8327 0.0181,1.5387 0.5431 1.5387c 0.2299,-0.0000 0.5340,-0.1774 0.6698 -0.2896c 0.2046,0.1140 0.2770,0.2661 0.3077 0.4888c -0.3747,0.3621 -1.0264,0.6698 -1.7198 0.6698c -0.9124,-0.0000 -1.1043,-0.4888 -1.2129 -1.0500ZM 213.8233,94.5366 ZM 215.5431,92.3280 v -7.9109 c 0.0000,-1.3577 -0.1086,-1.4120 -1.1586 -1.4844c -0.1086,-0.1086 -0.1448,-0.3983 -0.1086 -0.5431c 0.7241,-0.0543 2.0818,-0.3077 2.5344 -0.4888c 0.1629,-0.0000 0.2353,0.0543 0.2353 0.1810c 0.0000,-0.0000 -0.0724,0.7241 -0.0724 1.9008v 8.3454 c 0.0000,1.5025 0.1991,1.5930 1.3034 1.6474c 0.1086,0.1086 0.1086,0.4888 0.0000 0.5974c -0.5974,-0.0181 -1.2853,-0.0362 -2.0094 -0.0362c -0.7241,-0.0000 -1.3939,0.0181 -2.0275 0.0362c -0.1086,-0.1086 -0.1086,-0.4888 0.0000 -0.5974c 1.1043,-0.0543 1.3034,-0.1448 1.3034 -1.6474ZM 218.6025,94.5366 ZM 220.3222,92.3280 v -7.9109 c 0.0000,-1.3577 -0.1086,-1.4120 -1.1586 -1.4844c -0.1086,-0.1086 -0.1448,-0.3983 -0.1086 -0.5431c 0.7241,-0.0543 2.0818,-0.3077 2.5344 -0.4888c 0.1629,-0.0000 0.2353,0.0543 0.2353 0.1810c 0.0000,-0.0000 -0.0724,0.7241 -0.0724 1.9008v 8.3454 c 0.0000,1.5025 0.1991,1.5930 1.3034 1.6474c 0.1086,0.1086 0.1086,0.4888 0.0000 0.5974c -0.5974,-0.0181 -1.2853,-0.0362 -2.0094 -0.0362c -0.7241,-0.0000 -1.3939,0.0181 -2.0275 0.0362c -0.1086,-0.1086 -0.1086,-0.4888 0.0000 -0.5974c 1.1043,-0.0543 1.3034,-0.1448 1.3034 -1.6474ZM 223.3816,94.5366 ZM 225.6264,89.4316 l 3.2766,-0.0543 c 0.1991,-0.0036 0.2715,-0.0905 0.2715 -0.2534c 0.0000,-1.5206 -0.8146,-1.9008 -1.5025 -1.9008c -0.4345,-0.0000 -1.7017,0.1629 -2.0456 2.2085ZM 225.6264,89.4316 ZM 230.3693,92.8530 c 0.2172,0.0181 0.3259,0.1086 0.3802 0.2896c -0.7241,0.9413 -1.7017,1.5749 -3.0775 1.5749c -1.3034,-0.0000 -2.1542,-0.4345 -2.7697 -1.1586c -0.5974,-0.6879 -0.8508,-1.6655 -0.8508 -2.6792c 0.0000,-2.7516 2.0456,-4.2542 3.6206 -4.2542c 2.5163,-0.0000 3.0594,1.6293 3.0594 3.1499c 0.0000,0.1991 -0.1267,0.3077 -0.3440 0.3077l -4.8154,-0.0362 c 0.0000,1.0500 0.2172,1.8827 0.5793 2.4801c 0.5612,0.9232 1.3215,1.3034 1.9732 1.3034c 1.0500,-0.0000 1.5749,-0.2896 2.2448 -0.9776ZM 231.4736,94.5366 ZM 233.1933,92.3280 v -7.9109 c 0.0000,-1.3577 -0.1086,-1.4120 -1.1586 -1.4844c -0.1086,-0.1086 -0.1448,-0.3983 -0.1086 -0.5431c 0.7241,-0.0543 2.0818,-0.3077 2.5344 -0.4888c 0.1629,-0.0000 0.2353,0.0543 0.2353 0.1810c 0.0000,-0.0000 -0.0724,0.7241 -0.0724 1.9008v 8.3454 c 0.0000,1.5025 0.1991,1.5930 1.3034 1.6474c 0.1086,0.1086 0.1086,0.4888 0.0000 0.5974c -0.5974,-0.0181 -1.2853,-0.0362 -2.0094 -0.0362c -0.7241,-0.0000 -1.3939,0.0181 -2.0275 0.0362c -0.1086,-0.1086 -0.1086,-0.4888 0.0000 -0.5974c 1.1043,-0.0543 1.3034,-0.1448 1.3034 -1.6474Z"/></g><g stroke-linecap="butt" fill="rgb(0,0,0)" stroke-miterlimit="10.0" stroke-width="0.5" fill-opacity="0.0" stroke-opacity="1.0" stroke-linejoin="miter" stroke="rgb(0,0,0)"><path d="M 118.4594,88.3092 l 0.0000,72.4547 "/></g><g stroke-linecap="butt" fill="rgb(0,0,0)" stroke-miterlimit="10.0" stroke-width="0.0" fill-opacity="1.0" stroke-opacity="1.0" stroke-linejoin="miter" stroke="rgb(0,0,0)"></g><g stroke-linecap="butt" fill="rgb(0,0,0)" stroke-miterlimit="10.0" stroke-width="0.0" fill-opacity="1.0" stroke-opacity="1.0" stroke-linejoin="miter" stroke="rgb(0,0,0)"></g><g stroke-linecap="butt" fill="rgb(0,0,0)" stroke-miterlimit="10.0" stroke-width="0.0" fill-opacity="1.0" stroke-opacity="1.0" stroke-linejoin="miter" stroke="rgb(0,0,0)"></g><g stroke-linecap="butt" fill="rgb(0,0,0)" stroke-miterlimit="10.0" stroke-width="0.0" fill-opacity="1.0" stroke-opacity="1.0" stroke-linejoin="miter" stroke="rgb(0,0,0)"></g><g stroke-linecap="butt" fill="rgb(255,255,255)" stroke-miterlimit="10.0" stroke-width="1.0" fill-opacity="1.0" stroke-opacity="1.0" stroke-linejoin="miter" stroke="rgb(0,0,0)"><path d="M 147.7670,171.8103 l -0.0000,-22.0927 h -58.6151 l -0.0000,22.0927 Z"/></g><g stroke-linecap="butt" fill="rgb(0,0,0)" stroke-miterlimit="10.0" stroke-width="0.0" fill-opacity="1.0" stroke-opacity="1.0" stroke-linejoin="miter" stroke="rgb(0,0,0)"><path d="M 93.9256,166.6293 ZM 98.8496,155.4417 c -1.2853,-0.0000 -1.5025,0.6336 -1.5025 1.1586v 4.1455 h 0.8689 c 1.7560,-0.0000 3.0413,-0.5069 3.0413 -2.7697c 0.0000,-2.1361 -1.3034,-2.5344 -2.4077 -2.5344ZM 98.8496,155.4417 ZM 97.3470,164.4207 c 0.0000,1.5025 0.3077,1.5930 1.5749 1.6474c 0.1086,0.1086 0.1086,0.4888 0.0000 0.5974c -0.7965,-0.0181 -1.6546,-0.0362 -2.3353 -0.0362c -0.6970,-0.0000 -1.5387,0.0181 -2.3534 0.0362c -0.1086,-0.1086 -0.1086,-0.4888 0.0000 -0.5974c 1.2672,-0.0543 1.5749,-0.1448 1.5749 -1.6474v -7.2592 c 0.0000,-1.5025 -0.3077,-1.5930 -1.5749 -1.6474c -0.1086,-0.1086 -0.1086,-0.4888 0.0000 -0.5974c 0.8508,0.0181 1.7017,0.0362 2.3353 0.0362c 0.6517,-0.0000 1.4120,-0.1267 2.2629 -0.1267c 1.1405,-0.0000 2.2629,0.0543 3.1318 0.8689c 0.6517,0.6155 0.9594,1.3577 0.9594 2.2629c 0.0000,1.9008 -1.6293,2.8421 -2.4077 3.0956l 2.2810,3.8016 c 0.4707,0.7857 0.9232,1.3939 1.7379 1.3939c 0.0724,0.1448 0.0815,0.3096 0.0181 0.4345c -0.1810,0.0905 -0.4888,0.1267 -0.7603 0.1267c -1.0862,-0.0000 -1.8700,-0.7676 -2.3896 -1.6112l -1.9370,-3.1499 c -0.2589,-0.4218 -0.5974,-0.6879 -2.1180 -0.6879v 3.0594 ZM 104.5520,166.6293 ZM 106.7967,161.5243 l 3.2766,-0.0543 c 0.1991,-0.0036 0.2715,-0.0905 0.2715 -0.2534c 0.0000,-1.5206 -0.8146,-1.9008 -1.5025 -1.9008c -0.4345,-0.0000 -1.7017,0.1629 -2.0456 2.2085ZM 106.7967,161.5243 ZM 111.5396,164.9457 c 0.2172,0.0181 0.3259,0.1086 0.3802 0.2896c -0.7241,0.9413 -1.7017,1.5749 -3.0775 1.5749c -1.3034,-0.0000 -2.1542,-0.4345 -2.7697 -1.1586c -0.5974,-0.6879 -0.8508,-1.6655 -0.8508 -2.6792c 0.0000,-2.7516 2.0456,-4.2542 3.6206 -4.2542c 2.5163,-0.0000 3.0594,1.6293 3.0594 3.1499c 0.0000,0.1991 -0.1267,0.3077 -0.3440 0.3077l -4.8154,-0.0362 c 0.0000,1.0500 0.2172,1.8827 0.5793 2.4801c 0.5612,0.9232 1.3215,1.3034 1.9732 1.3034c 1.0500,-0.0000 1.5749,-0.2896 2.2448 -0.9776ZM 112.6439,166.6293 ZM 113.5129,164.1311 c 0.1086,-0.1086 0.4526,-0.1267 0.5612 -0.0181c 0.1086,0.4526 0.3077,1.2491 0.7060 1.6655c 0.1865,0.1937 0.5793,0.4345 1.2853 0.4345c 0.6698,-0.0000 1.5387,-0.3802 1.5387 -1.2672c 0.0000,-0.7784 -0.3440,-1.1586 -1.8465 -1.7741c -1.3939,-0.5793 -1.9913,-1.1405 -1.9913 -2.4620c 0.0000,-1.1586 1.2129,-2.0275 2.5525 -2.0275c 0.9413,-0.0000 1.8103,0.2534 2.3715 0.3440c -0.0181,0.5974 -0.0543,1.2672 -0.1086 1.9189c -0.1086,0.1086 -0.4707,0.1267 -0.5793 0.0181c -0.2353,-1.5387 -1.2853,-1.6836 -1.6836 -1.6836c -0.6155,-0.0000 -1.2672,0.4164 -1.2672 1.1586c 0.0000,0.9957 0.7205,1.2762 1.8103 1.6799c 1.2310,0.4562 2.1180,1.1749 2.1180 2.4113c 0.0000,1.7922 -1.8646,2.2810 -2.8783 2.2810c -0.6698,-0.0000 -1.1586,-0.0724 -1.6474 -0.1991c -0.1267,-0.0362 -0.2353,-0.0362 -0.3621 -0.0362c -0.0905,-0.0000 -0.2715,0.0181 -0.4526 0.0543c 0.0000,-0.7603 -0.0543,-1.6112 -0.1267 -2.4982ZM 124.2297,166.6293 ZM 125.6598,158.9175 c 0.0000,-0.0000 -0.4707,-2.8783 -0.4707 -3.0413c 0.0000,-0.3983 0.3802,-0.9051 0.9232 -0.9051c 0.4707,-0.0000 0.6336,0.3077 0.6336 0.5974c 0.0000,0.2896 -0.5974,3.2766 -0.5974 3.2766ZM 127.6693,166.6293 ZM 132.4303,161.5062 h 3.2042 l -1.7017,-4.9240 h -0.1086 l -1.8501,4.6832 c -0.0688,0.1865 0.0579,0.2408 0.4562 0.2408ZM 132.4303,161.5062 ZM 130.4752,165.1991 c -0.2824,0.7440 0.5684,0.8219 1.2491 0.8689c 0.1086,0.1086 0.1086,0.4888 0.0000 0.5974c -0.6698,-0.0181 -1.5749,-0.0362 -2.3172 -0.0362c -0.5485,-0.0000 -1.1405,0.0181 -1.6112 0.0362c -0.1086,-0.1086 -0.1086,-0.4888 0.0000 -0.5974c 0.7875,-0.0543 1.3396,-0.1629 1.8103 -1.2853l 4.1093,-9.7031 c 0.2353,-0.0000 0.7241,-0.1991 0.9957 -0.3621l 3.7292,10.3548 c 0.3150,0.8726 0.9269,0.9323 1.6293 0.9957c 0.1086,0.1086 0.1086,0.4888 0.0000 0.5974c -0.6336,-0.0181 -1.3215,-0.0362 -2.0637 -0.0362c -0.7060,-0.0000 -1.7017,0.0181 -2.3715 0.0362c -0.1086,-0.1086 -0.1086,-0.4888 0.0000 -0.5974c 0.8617,-0.0615 1.5532,-0.1177 1.3396 -0.7422l -1.0500,-3.0594 h -3.8197 c -0.4345,-0.0000 -0.5431,0.0724 -0.6336 0.3077ZM 140.2507,166.6293 ZM 141.6808,158.9175 c 0.0000,-0.0000 -0.4707,-2.8783 -0.4707 -3.0413c 0.0000,-0.3983 0.3802,-0.9051 0.9232 -0.9051c 0.4707,-0.0000 0.6336,0.3077 0.6336 0.5974c 0.0000,0.2896 -0.5974,3.2766 -0.5974 3.2766Z"/></g><g stroke-linecap="butt" fill="rgb(255,255,255)" stroke-miterlimit="10.0" stroke-width="1.0" fill-opacity="1.0" stroke-opacity="1.0" stroke-linejoin="miter" stroke="rgb(0,0,0)"><path d="M 150.9757,99.7176 l -0.0000,-22.8168 h -65.0326 l -0.0000,22.8168 Z"/></g><g stroke-linecap="butt" fill="rgb(0,0,0)" stroke-miterlimit="10.0" stroke-width="0.0" fill-opacity="1.0" stroke-opacity="1.0" stroke-linejoin="miter" stroke="rgb(0,0,0)"><path d="M 90.7169,94.5366 ZM 94.1383,84.5076 v 4.2180 c 0.1991,0.0543 0.9232,0.0905 1.3758 0.0905c 1.7560,-0.0000 2.6973,-0.7965 2.6973 -2.7516c 0.0000,-2.2991 -1.2491,-2.7154 -2.4982 -2.7154c -1.3034,-0.0000 -1.5749,0.6336 -1.5749 1.1586ZM 94.1383,84.5076 ZM 92.5996,85.0688 c 0.0000,-1.5025 -0.3077,-1.5930 -1.5749 -1.6474c -0.1086,-0.1086 -0.1086,-0.4888 0.0000 -0.5974c 0.7241,0.0181 1.6709,0.0362 2.3353 0.0362c 0.7241,-0.0000 1.7867,-0.1267 2.4801 -0.1267c 3.3490,-0.0000 4.0550,1.9370 4.0550 3.0051c 0.0000,1.5387 -0.9957,3.6930 -4.2904 3.6930c -0.6336,-0.0000 -1.0681,-0.0543 -1.4663 -0.1810v 3.0775 c 0.0000,1.5025 0.4345,1.5749 1.8465 1.6474c 0.1086,0.1086 0.1086,0.4888 0.0000 0.5974c -0.9051,-0.0181 -1.9660,-0.0362 -2.6068 -0.0362c -0.6463,-0.0000 -1.5387,0.0181 -2.3534 0.0362c -0.1086,-0.1086 -0.1086,-0.4888 0.0000 -0.5974c 1.2672,-0.0543 1.5749,-0.1448 1.5749 -1.6474v -7.2592 ZM 100.5105,94.5366 ZM 105.8146,90.3186 l -1.4301,0.3802 c -1.3396,0.3440 -1.7198,1.1767 -1.7198 1.9913c 0.0000,0.5612 0.3983,1.2853 1.3034 1.2853c 0.5069,-0.0000 1.1224,-0.4164 1.5930 -0.7965c 0.1448,-0.1086 0.2534,-0.2353 0.2534 -0.4707v -2.3896 ZM 105.8146,90.3186 ZM 105.8146,93.6676 h -0.0362 l -0.3621,0.2896 c -0.7965,0.6155 -1.3432,0.7603 -1.9732 0.7603c -1.2672,-0.0000 -2.2810,-0.4707 -2.2810 -1.9551c 0.0000,-1.2310 1.2491,-2.1904 2.9870 -2.6249l 1.5568,-0.3802 c 0.0543,-0.0181 0.1086,-0.0905 0.1086 -0.2172c 0.0000,-2.0456 -0.8508,-2.3534 -1.4663 -2.3534c -0.6879,-0.0000 -1.4482,0.1991 -1.4482 0.7603c 0.0000,0.1991 0.0181,0.3077 0.0362 0.3621c 0.0362,0.0724 0.0543,0.1991 0.0543 0.3259c 0.0000,0.2353 -0.3259,0.6155 -0.8508 0.6155c -0.4164,-0.0000 -0.6336,-0.2172 -0.6336 -0.6517c 0.0000,-1.0319 1.5025,-2.0094 2.9870 -2.0094c 1.3215,-0.0000 2.7335,0.4888 2.7335 3.0594v 2.6611 c 0.0000,0.8327 0.0181,1.5387 0.5431 1.5387c 0.2299,-0.0000 0.5340,-0.1774 0.6698 -0.2896c 0.2046,0.1140 0.2770,0.2661 0.3077 0.4888c -0.3747,0.3621 -1.0264,0.6698 -1.7198 0.6698c -0.9124,-0.0000 -1.1043,-0.4888 -1.2129 -1.0500ZM 108.7835,94.5366 ZM 111.9696,88.0558 c 0.0036,0.0905 0.0905,0.2353 0.1991 0.0362c 0.4164,-0.7060 1.1586,-1.5025 2.0094 -1.5025c 0.7603,-0.0000 1.0862,0.5232 1.0862 0.8689c 0.0000,0.4526 -0.4164,0.9051 -0.8508 0.9051c -0.3150,-0.0000 -0.5177,-0.2408 -0.6553 -0.4218c -0.1412,-0.1865 -0.3041,-0.2299 -0.4671 -0.2299c -0.2172,-0.0000 -0.6336,0.5974 -0.8327 0.8870c -0.2172,0.3259 -0.4345,0.7422 -0.4345 1.2129v 2.5163 c 0.0000,1.5025 0.2172,1.5568 1.4844 1.6474c 0.1086,0.1086 0.1086,0.4888 0.0000 0.5974c -0.6336,-0.0181 -1.4663,-0.0362 -2.1904 -0.0362c -0.7241,-0.0000 -1.4301,0.0181 -2.0637 0.0362c -0.1086,-0.1086 -0.1086,-0.4888 0.0000 -0.5974c 1.1224,-0.0724 1.3396,-0.1448 1.3396 -1.6474v -3.5301 c 0.0000,-1.0500 -0.1991,-1.1405 -1.1767 -1.2310c -0.0362,-0.1086 -0.0724,-0.3983 -0.0362 -0.5069c 1.2491,-0.1629 1.7198,-0.3259 2.2266 -0.5250c 0.1448,-0.0000 0.1792,0.0615 0.2172 0.1448c 0.0851,0.1865 0.1140,0.6517 0.1448 1.3758ZM 115.5177,94.5366 ZM 120.8219,90.3186 l -1.4301,0.3802 c -1.3396,0.3440 -1.7198,1.1767 -1.7198 1.9913c 0.0000,0.5612 0.3983,1.2853 1.3034 1.2853c 0.5069,-0.0000 1.1224,-0.4164 1.5930 -0.7965c 0.1448,-0.1086 0.2534,-0.2353 0.2534 -0.4707v -2.3896 ZM 120.8219,90.3186 ZM 120.8219,93.6676 h -0.0362 l -0.3621,0.2896 c -0.7965,0.6155 -1.3432,0.7603 -1.9732 0.7603c -1.2672,-0.0000 -2.2810,-0.4707 -2.2810 -1.9551c 0.0000,-1.2310 1.2491,-2.1904 2.9870 -2.6249l 1.5568,-0.3802 c 0.0543,-0.0181 0.1086,-0.0905 0.1086 -0.2172c 0.0000,-2.0456 -0.8508,-2.3534 -1.4663 -2.3534c -0.6879,-0.0000 -1.4482,0.1991 -1.4482 0.7603c 0.0000,0.1991 0.0181,0.3077 0.0362 0.3621c 0.0362,0.0724 0.0543,0.1991 0.0543 0.3259c 0.0000,0.2353 -0.3259,0.6155 -0.8508 0.6155c -0.4164,-0.0000 -0.6336,-0.2172 -0.6336 -0.6517c 0.0000,-1.0319 1.5025,-2.0094 2.9870 -2.0094c 1.3215,-0.0000 2.7335,0.4888 2.7335 3.0594v 2.6611 c 0.0000,0.8327 0.0181,1.5387 0.5431 1.5387c 0.2299,-0.0000 0.5340,-0.1774 0.6698 -0.2896c 0.2046,0.1140 0.2770,0.2661 0.3077 0.4888c -0.3747,0.3621 -1.0264,0.6698 -1.7198 0.6698c -0.9124,-0.0000 -1.1043,-0.4888 -1.2129 -1.0500ZM 123.7907,94.5366 ZM 125.5105,92.3280 v -7.9109 c 0.0000,-1.3577 -0.1086,-1.4120 -1.1586 -1.4844c -0.1086,-0.1086 -0.1448,-0.3983 -0.1086 -0.5431c 0.7241,-0.0543 2.0818,-0.3077 2.5344 -0.4888c 0.1629,-0.0000 0.2353,0.0543 0.2353 0.1810c 0.0000,-0.0000 -0.0724,0.7241 -0.0724 1.9008v 8.3454 c 0.0000,1.5025 0.1991,1.5930 1.3034 1.6474c 0.1086,0.1086 0.1086,0.4888 0.0000 0.5974c -0.5974,-0.0181 -1.2853,-0.0362 -2.0094 -0.0362c -0.7241,-0.0000 -1.3939,0.0181 -2.0275 0.0362c -0.1086,-0.1086 -0.1086,-0.4888 0.0000 -0.5974c 1.1043,-0.0543 1.3034,-0.1448 1.3034 -1.6474ZM 128.5699,94.5366 ZM 130.2896,92.3280 v -7.9109 c 0.0000,-1.3577 -0.1086,-1.4120 -1.1586 -1.4844c -0.1086,-0.1086 -0.1448,-0.3983 -0.1086 -0.5431c 0.7241,-0.0543 2.0818,-0.3077 2.5344 -0.4888c 0.1629,-0.0000 0.2353,0.0543 0.2353 0.1810c 0.0000,-0.0000 -0.0724,0.7241 -0.0724 1.9008v 8.3454 c 0.0000,1.5025 0.1991,1.5930 1.3034 1.6474c 0.1086,0.1086 0.1086,0.4888 0.0000 0.5974c -0.5974,-0.0181 -1.2853,-0.0362 -2.0094 -0.0362c -0.7241,-0.0000 -1.3939,0.0181 -2.0275 0.0362c -0.1086,-0.1086 -0.1086,-0.4888 0.0000 -0.5974c 1.1043,-0.0543 1.3034,-0.1448 1.3034 -1.6474ZM 133.3490,94.5366 ZM 135.5938,89.4316 l 3.2766,-0.0543 c 0.1991,-0.0036 0.2715,-0.0905 0.2715 -0.2534c 0.0000,-1.5206 -0.8146,-1.9008 -1.5025 -1.9008c -0.4345,-0.0000 -1.7017,0.1629 -2.0456 2.2085ZM 135.5938,89.4316 ZM 140.3367,92.8530 c 0.2172,0.0181 0.3259,0.1086 0.3802 0.2896c -0.7241,0.9413 -1.7017,1.5749 -3.0775 1.5749c -1.3034,-0.0000 -2.1542,-0.4345 -2.7697 -1.1586c -0.5974,-0.6879 -0.8508,-1.6655 -0.8508 -2.6792c 0.0000,-2.7516 2.0456,-4.2542 3.6206 -4.2542c 2.5163,-0.0000 3.0594,1.6293 3.0594 3.1499c 0.0000,0.1991 -0.1267,0.3077 -0.3440 0.3077l -4.8154,-0.0362 c 0.0000,1.0500 0.2172,1.8827 0.5793 2.4801c 0.5612,0.9232 1.3215,1.3034 1.9732 1.3034c 1.0500,-0.0000 1.5749,-0.2896 2.2448 -0.9776ZM 141.4410,94.5366 ZM 143.1608,92.3280 v -7.9109 c 0.0000,-1.3577 -0.1086,-1.4120 -1.1586 -1.4844c -0.1086,-0.1086 -0.1448,-0.3983 -0.1086 -0.5431c 0.7241,-0.0543 2.0818,-0.3077 2.5344 -0.4888c 0.1629,-0.0000 0.2353,0.0543 0.2353 0.1810c 0.0000,-0.0000 -0.0724,0.7241 -0.0724 1.9008v 8.3454 c 0.0000,1.5025 0.1991,1.5930 1.3034 1.6474c 0.1086,0.1086 0.1086,0.4888 0.0000 0.5974c -0.5974,-0.0181 -1.2853,-0.0362 -2.0094 -0.0362c -0.7241,-0.0000 -1.3939,0.0181 -2.0275 0.0362c -0.1086,-0.1086 -0.1086,-0.4888 0.0000 -0.5974c 1.1043,-0.0543 1.3034,-0.1448 1.3034 -1.6474Z"/></g><g stroke-linecap="butt" fill="rgb(255,255,255)" stroke-miterlimit="10.0" stroke-width="1.0" fill-opacity="1.0" stroke-opacity="1.0" stroke-linejoin="miter" stroke="rgb(0,0,0)"><path d="M 60.9432,101.3016 l -0.0000,-25.9848 h -58.4432 l -0.0000,25.9848 Z"/></g><g stroke-linecap="butt" fill="rgb(0,0,0)" stroke-miterlimit="10.0" stroke-width="0.0" fill-opacity="1.0" stroke-opacity="1.0" stroke-linejoin="miter" stroke="rgb(0,0,0)"><path d="M 7.2556,92.0655 ZM 12.3425,85.5304 c 1.5387,-0.0000 1.5930,-0.2353 1.6474 -1.2310c 0.1086,-0.1086 0.4888,-0.1086 0.5974 -0.0000c -0.0181,0.4345 -0.0362,1.0500 -0.0362 1.5568c 0.0000,0.6209 0.0181,1.1224 0.0362 1.5930c -0.1086,0.1086 -0.4888,0.1086 -0.5974 -0.0000c -0.0543,-0.8146 -0.1086,-1.2310 -1.6474 -1.2310h -1.6474 v 4.0007 c 0.0000,0.8508 0.2534,1.1405 1.0138 1.1405h 2.0999 c 1.3758,-0.0000 2.0094,-1.0681 2.3715 -2.3715c 0.2371,-0.0579 0.4453,-0.0163 0.6336 0.0905c -0.1448,0.9232 -0.4164,2.1180 -0.6698 3.0232c 0.0000,-0.0000 -1.4482,-0.0362 -2.3172 -0.0362h -3.8921 c -0.5974,-0.0000 -1.6836,0.0181 -2.3534 0.0362c -0.1086,-0.1086 -0.1086,-0.4888 0.0000 -0.5974c 1.2672,-0.0543 1.5749,-0.1448 1.5749 -1.6474v -7.2592 c 0.0000,-1.5025 -0.3077,-1.5930 -1.5749 -1.6474c -0.1086,-0.1086 -0.1086,-0.4888 0.0000 -0.5974c 0.7241,0.0181 1.7831,0.0362 2.3353 0.0362h 4.6162 c 0.4345,-0.0000 0.5793,-0.0181 0.8870 -0.0724c 0.0543,-0.0000 0.0724,0.0181 0.0724 0.0543c 0.0362,0.1448 0.3077,1.8827 0.3983 2.6249c -0.1774,0.0851 -0.3729,0.1231 -0.5974 0.0905c -0.3983,-1.2491 -0.6879,-1.9732 -2.0456 -1.9732h -1.3577 c -0.9776,-0.0000 -1.1948,0.3621 -1.1948 1.1586v 3.2585 h 1.6474 ZM 17.3389,92.0655 ZM 20.4164,85.5847 c 0.0091,0.2172 0.1340,0.0923 0.2172 -0.0000c 0.7549,-0.8436 1.7017,-1.4663 2.7516 -1.4663c 0.9413,-0.0000 1.6383,0.5865 1.8103 1.3287c 0.0362,0.1557 0.1448,0.0652 0.1991 0.0072c 0.9432,-0.9957 2.0601,-1.3360 2.9870 -1.3360c 1.5930,-0.0000 1.8646,1.2672 1.8646 2.8783v 2.8602 c 0.0000,1.4844 0.1629,1.5749 1.1586 1.6474c 0.0905,0.1086 0.0905,0.4888 0.0000 0.5974c -0.5069,-0.0181 -1.1405,-0.0362 -1.8646 -0.0362c -0.7241,-0.0000 -1.3939,0.0181 -1.8465 0.0362c -0.0905,-0.1086 -0.0905,-0.4888 0.0000 -0.5974c 0.9413,-0.0724 1.1224,-0.1629 1.1224 -1.6474v -3.1861 c 0.0000,-1.2129 -0.3983,-1.6112 -1.0862 -1.6112c -0.7060,-0.0000 -1.5206,0.2353 -2.3896 1.1948c 0.0181,0.2172 0.0181,0.4707 0.0181 0.7241v 2.8783 c 0.0000,1.4844 0.1629,1.5749 1.0681 1.6474c 0.0905,0.1086 0.0905,0.4888 0.0000 0.5974c -0.4526,-0.0181 -1.0500,-0.0362 -1.7741 -0.0362c -0.7241,-0.0000 -1.3939,0.0181 -1.8465 0.0362c -0.0905,-0.1086 -0.0905,-0.4888 0.0000 -0.5974c 0.9776,-0.0724 1.1224,-0.1629 1.1224 -1.6474v -3.1499 c 0.0000,-1.2129 -0.5069,-1.6474 -1.1948 -1.6474c -0.5594,-0.0000 -1.2382,0.3675 -1.9551 1.0681c -0.1448,0.1575 -0.3077,0.3802 -0.3077 0.7603v 2.9689 c 0.0000,1.4844 0.1991,1.5568 1.1188 1.6474c 0.1086,0.1086 0.1086,0.4888 0.0000 0.5974c -0.5431,-0.0181 -1.1007,-0.0362 -1.8248 -0.0362c -0.7241,-0.0000 -1.4120,0.0181 -1.9551 0.0362c -0.1086,-0.1086 -0.1086,-0.4888 0.0000 -0.5974c 0.9957,-0.0724 1.2310,-0.1629 1.2310 -1.6474v -3.5301 c 0.0000,-1.0500 -0.1991,-1.1405 -1.1767 -1.2310c -0.0362,-0.1086 -0.0724,-0.3983 -0.0362 -0.5069c 1.2491,-0.1629 1.7198,-0.3259 2.2266 -0.5250c 0.1448,-0.0000 0.1792,0.0615 0.2172 0.1448c 0.0851,0.1865 0.1213,0.8382 0.1448 1.3758ZM 31.6401,92.0655 ZM 34.8081,86.0735 c -0.2100,0.2589 -0.2896,0.4164 -0.2896 0.7965v 3.2947 c 0.0000,0.6535 0.0706,0.7585 0.4345 1.0844c 0.3259,0.2915 0.9594,0.3820 1.2853 0.3820c 2.0275,-0.0000 2.5525,-1.8465 2.5525 -3.3309c 0.0000,-2.0456 -0.9957,-3.3490 -2.1542 -3.3490c -0.5286,-0.0000 -1.3577,0.5431 -1.8284 1.1224ZM 34.8081,86.0735 ZM 34.4642,85.4037 c 0.0091,0.1738 0.0978,0.1865 0.1991 0.0724c 0.7151,-0.8056 1.6383,-1.3577 2.4801 -1.3577c 1.8465,-0.0000 3.2042,1.7741 3.2042 3.6930c 0.0000,1.4663 -0.4888,2.5887 -1.3396 3.4214c -0.7422,0.7060 -1.6474,1.0138 -2.6611 1.0138c -0.5720,-0.0000 -1.1314,-0.1014 -1.5749 -0.2806c -0.1846,-0.0760 -0.2534,-0.0996 -0.2534 0.1358v 1.9551 c 0.0000,1.5025 0.1991,1.5749 1.4844 1.6474c 0.1086,0.1086 0.1086,0.4888 0.0000 0.5974c -0.5974,-0.0181 -1.4663,-0.0362 -2.1904 -0.0362c -0.7241,-0.0000 -1.3939,0.0181 -2.0275 0.0362c -0.1086,-0.1086 -0.1086,-0.4888 0.0000 -0.5974c 1.1043,-0.0543 1.3034,-0.1448 1.3034 -1.6474v -7.7299 c 0.0000,-1.0500 -0.1991,-1.1405 -1.1767 -1.2310c -0.0362,-0.1086 -0.0724,-0.3983 -0.0362 -0.5069c 1.2491,-0.1629 1.7198,-0.3259 2.2266 -0.5250c 0.1448,-0.0000 0.1792,0.0615 0.2172 0.1448c 0.0851,0.1865 0.1177,0.6517 0.1448 1.1948ZM 41.0355,92.0655 ZM 41.8139,84.2994 l 0.8327,-0.0018 c 0.0000,-2.0076 -0.0543,-1.8881 -0.0543 -2.0981c 0.0000,-0.1249 0.1810,-0.1865 0.3983 -0.2480c 0.2263,-0.0634 0.4109,-0.1412 0.6155 -0.2552c 0.1684,-0.0923 0.3222,-0.1629 0.4037 -0.1629c 0.0851,-0.0000 0.1394,0.0434 0.1394 0.1593c 0.0000,-0.0000 -0.0724,0.7241 -0.0724 1.9008v 0.7060 h 2.1723 c 0.0905,-0.0000 0.1448,0.0362 0.1448 0.1086v 0.3621 c 0.0000,0.1629 -0.2534,0.2353 -0.4345 0.2353h -1.8827 v 4.5800 c 0.0000,1.1224 0.1086,1.6655 0.5974 1.6655c 0.4707,-0.0000 1.0138,-0.1448 1.4844 -0.5069c 0.1810,0.0181 0.2896,0.1213 0.3259 0.3077c -0.7060,0.7965 -1.6112,1.1948 -2.4439 1.1948c -0.8327,-0.0000 -1.3939,-0.5069 -1.3939 -1.7922v -5.4490 h -1.0681 c -0.0724,-0.0000 -0.0905,-0.0181 -0.0905 -0.1086v -0.2353 c 0.0000,-0.1448 0.0724,-0.3621 0.3259 -0.3621ZM 46.7560,92.0655 ZM 50.4490,94.9620 c -0.6517,1.1586 -1.3758,1.3034 -1.7560 1.3034c -0.4888,-0.0000 -0.8508,-0.2896 -0.8508 -0.6698c 0.0000,-0.2353 0.2715,-0.7784 0.7965 -0.7784c 0.1991,-0.0000 0.2715,0.0543 0.5250 0.0543c 0.4526,-0.0000 0.7060,-0.1629 0.9051 -0.5250c 0.2715,-0.5612 0.4906,-1.0608 0.7060 -1.6655c 0.1810,-0.5069 -0.0959,-1.3378 -0.2534 -1.7017l -2.0474,-4.7610 c -0.4743,-1.1043 -0.7096,-1.2672 -1.4283 -1.3577c -0.1086,-0.1086 -0.1086,-0.4888 0.0000 -0.5974c 0.3621,0.0181 0.8508,0.0362 1.4663 0.0362c 0.6517,-0.0000 1.3758,-0.0181 2.0456 -0.0362c 0.1086,0.1086 0.1086,0.4888 0.0000 0.5974c -1.0138,0.0778 -0.9196,0.4127 -0.5938 1.1767l 1.6057,3.7654 c 0.1539,0.3584 0.3059,0.3096 0.4327 0.0181l 1.7958,-4.1455 c 0.2896,-0.6517 -0.2969,-0.7603 -0.8689 -0.8146c -0.1086,-0.1086 -0.1086,-0.4888 0.0000 -0.5974c 0.5431,0.0181 1.1043,0.0362 1.6474 0.0362c 0.5069,-0.0000 0.9232,-0.0181 1.2853 -0.0362c 0.1086,0.1086 0.1086,0.4888 0.0000 0.5974c -0.8508,0.1032 -1.1097,0.3928 -1.4663 1.1586c -0.9450,2.0348 -1.7560,3.8921 -3.2042 7.3860c -0.2227,0.5358 -0.4598,1.0536 -0.7422 1.5568Z"/></g><g stroke-linecap="butt" fill="rgb(255,255,255)" stroke-miterlimit="10.0" stroke-width="1.0" fill-opacity="1.0" stroke-opacity="1.0" stroke-linejoin="miter" stroke="rgb(0,0,0)"><path d="M 152.6231,25.3168 l -0.0000,-22.8168 h -65.0326 l -0.0000,22.8168 Z"/></g><g stroke-linecap="butt" fill="rgb(0,0,0)" stroke-miterlimit="10.0" stroke-width="0.0" fill-opacity="1.0" stroke-opacity="1.0" stroke-linejoin="miter" stroke="rgb(0,0,0)"><path d="M 92.3642,20.1358 ZM 95.7857,10.1068 v 4.2180 c 0.1991,0.0543 0.9232,0.0905 1.3758 0.0905c 1.7560,-0.0000 2.6973,-0.7965 2.6973 -2.7516c 0.0000,-2.2991 -1.2491,-2.7154 -2.4982 -2.7154c -1.3034,-0.0000 -1.5749,0.6336 -1.5749 1.1586ZM 95.7857,10.1068 ZM 94.2469,10.6680 c 0.0000,-1.5025 -0.3077,-1.5930 -1.5749 -1.6474c -0.1086,-0.1086 -0.1086,-0.4888 0.0000 -0.5974c 0.7241,0.0181 1.6709,0.0362 2.3353 0.0362c 0.7241,-0.0000 1.7867,-0.1267 2.4801 -0.1267c 3.3490,-0.0000 4.0550,1.9370 4.0550 3.0051c 0.0000,1.5387 -0.9957,3.6930 -4.2904 3.6930c -0.6336,-0.0000 -1.0681,-0.0543 -1.4663 -0.1810v 3.0775 c 0.0000,1.5025 0.4345,1.5749 1.8465 1.6474c 0.1086,0.1086 0.1086,0.4888 0.0000 0.5974c -0.9051,-0.0181 -1.9660,-0.0362 -2.6068 -0.0362c -0.6463,-0.0000 -1.5387,0.0181 -2.3534 0.0362c -0.1086,-0.1086 -0.1086,-0.4888 0.0000 -0.5974c 1.2672,-0.0543 1.5749,-0.1448 1.5749 -1.6474v -7.2592 ZM 102.1579,20.1358 ZM 107.4620,15.9178 l -1.4301,0.3802 c -1.3396,0.3440 -1.7198,1.1767 -1.7198 1.9913c 0.0000,0.5612 0.3983,1.2853 1.3034 1.2853c 0.5069,-0.0000 1.1224,-0.4164 1.5930 -0.7965c 0.1448,-0.1086 0.2534,-0.2353 0.2534 -0.4707v -2.3896 ZM 107.4620,15.9178 ZM 107.4620,19.2668 h -0.0362 l -0.3621,0.2896 c -0.7965,0.6155 -1.3432,0.7603 -1.9732 0.7603c -1.2672,-0.0000 -2.2810,-0.4707 -2.2810 -1.9551c 0.0000,-1.2310 1.2491,-2.1904 2.9870 -2.6249l 1.5568,-0.3802 c 0.0543,-0.0181 0.1086,-0.0905 0.1086 -0.2172c 0.0000,-2.0456 -0.8508,-2.3534 -1.4663 -2.3534c -0.6879,-0.0000 -1.4482,0.1991 -1.4482 0.7603c 0.0000,0.1991 0.0181,0.3077 0.0362 0.3621c 0.0362,0.0724 0.0543,0.1991 0.0543 0.3259c 0.0000,0.2353 -0.3259,0.6155 -0.8508 0.6155c -0.4164,-0.0000 -0.6336,-0.2172 -0.6336 -0.6517c 0.0000,-1.0319 1.5025,-2.0094 2.9870 -2.0094c 1.3215,-0.0000 2.7335,0.4888 2.7335 3.0594v 2.6611 c 0.0000,0.8327 0.0181,1.5387 0.5431 1.5387c 0.2299,-0.0000 0.5340,-0.1774 0.6698 -0.2896c 0.2046,0.1140 0.2770,0.2661 0.3077 0.4888c -0.3747,0.3621 -1.0264,0.6698 -1.7198 0.6698c -0.9124,-0.0000 -1.1043,-0.4888 -1.2129 -1.0500ZM 110.4308,20.1358 ZM 113.6169,13.6550 c 0.0036,0.0905 0.0905,0.2353 0.1991 0.0362c 0.4164,-0.7060 1.1586,-1.5025 2.0094 -1.5025c 0.7603,-0.0000 1.0862,0.5232 1.0862 0.8689c 0.0000,0.4526 -0.4164,0.9051 -0.8508 0.9051c -0.3150,-0.0000 -0.5177,-0.2408 -0.6553 -0.4218c -0.1412,-0.1865 -0.3041,-0.2299 -0.4671 -0.2299c -0.2172,-0.0000 -0.6336,0.5974 -0.8327 0.8870c -0.2172,0.3259 -0.4345,0.7422 -0.4345 1.2129v 2.5163 c 0.0000,1.5025 0.2172,1.5568 1.4844 1.6474c 0.1086,0.1086 0.1086,0.4888 0.0000 0.5974c -0.6336,-0.0181 -1.4663,-0.0362 -2.1904 -0.0362c -0.7241,-0.0000 -1.4301,0.0181 -2.0637 0.0362c -0.1086,-0.1086 -0.1086,-0.4888 0.0000 -0.5974c 1.1224,-0.0724 1.3396,-0.1448 1.3396 -1.6474v -3.5301 c 0.0000,-1.0500 -0.1991,-1.1405 -1.1767 -1.2310c -0.0362,-0.1086 -0.0724,-0.3983 -0.0362 -0.5069c 1.2491,-0.1629 1.7198,-0.3259 2.2266 -0.5250c 0.1448,-0.0000 0.1792,0.0615 0.2172 0.1448c 0.0851,0.1865 0.1140,0.6517 0.1448 1.3758ZM 117.1651,20.1358 ZM 122.4692,15.9178 l -1.4301,0.3802 c -1.3396,0.3440 -1.7198,1.1767 -1.7198 1.9913c 0.0000,0.5612 0.3983,1.2853 1.3034 1.2853c 0.5069,-0.0000 1.1224,-0.4164 1.5930 -0.7965c 0.1448,-0.1086 0.2534,-0.2353 0.2534 -0.4707v -2.3896 ZM 122.4692,15.9178 ZM 122.4692,19.2668 h -0.0362 l -0.3621,0.2896 c -0.7965,0.6155 -1.3432,0.7603 -1.9732 0.7603c -1.2672,-0.0000 -2.2810,-0.4707 -2.2810 -1.9551c 0.0000,-1.2310 1.2491,-2.1904 2.9870 -2.6249l 1.5568,-0.3802 c 0.0543,-0.0181 0.1086,-0.0905 0.1086 -0.2172c 0.0000,-2.0456 -0.8508,-2.3534 -1.4663 -2.3534c -0.6879,-0.0000 -1.4482,0.1991 -1.4482 0.7603c 0.0000,0.1991 0.0181,0.3077 0.0362 0.3621c 0.0362,0.0724 0.0543,0.1991 0.0543 0.3259c 0.0000,0.2353 -0.3259,0.6155 -0.8508 0.6155c -0.4164,-0.0000 -0.6336,-0.2172 -0.6336 -0.6517c 0.0000,-1.0319 1.5025,-2.0094 2.9870 -2.0094c 1.3215,-0.0000 2.7335,0.4888 2.7335 3.0594v 2.6611 c 0.0000,0.8327 0.0181,1.5387 0.5431 1.5387c 0.2299,-0.0000 0.5340,-0.1774 0.6698 -0.2896c 0.2046,0.1140 0.2770,0.2661 0.3077 0.4888c -0.3747,0.3621 -1.0264,0.6698 -1.7198 0.6698c -0.9124,-0.0000 -1.1043,-0.4888 -1.2129 -1.0500ZM 125.4381,20.1358 ZM 127.1579,17.9272 v -7.9109 c 0.0000,-1.3577 -0.1086,-1.4120 -1.1586 -1.4844c -0.1086,-0.1086 -0.1448,-0.3983 -0.1086 -0.5431c 0.7241,-0.0543 2.0818,-0.3077 2.5344 -0.4888c 0.1629,-0.0000 0.2353,0.0543 0.2353 0.1810c 0.0000,-0.0000 -0.0724,0.7241 -0.0724 1.9008v 8.3454 c 0.0000,1.5025 0.1991,1.5930 1.3034 1.6474c 0.1086,0.1086 0.1086,0.4888 0.0000 0.5974c -0.5974,-0.0181 -1.2853,-0.0362 -2.0094 -0.0362c -0.7241,-0.0000 -1.3939,0.0181 -2.0275 0.0362c -0.1086,-0.1086 -0.1086,-0.4888 0.0000 -0.5974c 1.1043,-0.0543 1.3034,-0.1448 1.3034 -1.6474ZM 130.2172,20.1358 ZM 131.9370,17.9272 v -7.9109 c 0.0000,-1.3577 -0.1086,-1.4120 -1.1586 -1.4844c -0.1086,-0.1086 -0.1448,-0.3983 -0.1086 -0.5431c 0.7241,-0.0543 2.0818,-0.3077 2.5344 -0.4888c 0.1629,-0.0000 0.2353,0.0543 0.2353 0.1810c 0.0000,-0.0000 -0.0724,0.7241 -0.0724 1.9008v 8.3454 c 0.0000,1.5025 0.1991,1.5930 1.3034 1.6474c 0.1086,0.1086 0.1086,0.4888 0.0000 0.5974c -0.5974,-0.0181 -1.2853,-0.0362 -2.0094 -0.0362c -0.7241,-0.0000 -1.3939,0.0181 -2.0275 0.0362c -0.1086,-0.1086 -0.1086,-0.4888 0.0000 -0.5974c 1.1043,-0.0543 1.3034,-0.1448 1.3034 -1.6474ZM 134.9964,20.1358 ZM 137.2411,15.0308 l 3.2766,-0.0543 c 0.1991,-0.0036 0.2715,-0.0905 0.2715 -0.2534c 0.0000,-1.5206 -0.8146,-1.9008 -1.5025 -1.9008c -0.4345,-0.0000 -1.7017,0.1629 -2.0456 2.2085ZM 137.2411,15.0308 ZM 141.9841,18.4522 c 0.2172,0.0181 0.3259,0.1086 0.3802 0.2896c -0.7241,0.9413 -1.7017,1.5749 -3.0775 1.5749c -1.3034,-0.0000 -2.1542,-0.4345 -2.7697 -1.1586c -0.5974,-0.6879 -0.8508,-1.6655 -0.8508 -2.6792c 0.0000,-2.7516 2.0456,-4.2542 3.6206 -4.2542c 2.5163,-0.0000 3.0594,1.6293 3.0594 3.1499c 0.0000,0.1991 -0.1267,0.3077 -0.3440 0.3077l -4.8154,-0.0362 c 0.0000,1.0500 0.2172,1.8827 0.5793 2.4801c 0.5612,0.9232 1.3215,1.3034 1.9732 1.3034c 1.0500,-0.0000 1.5749,-0.2896 2.2448 -0.9776ZM 143.0883,20.1358 ZM 144.8081,17.9272 v -7.9109 c 0.0000,-1.3577 -0.1086,-1.4120 -1.1586 -1.4844c -0.1086,-0.1086 -0.1448,-0.3983 -0.1086 -0.5431c 0.7241,-0.0543 2.0818,-0.3077 2.5344 -0.4888c 0.1629,-0.0000 0.2353,0.0543 0.2353 0.1810c 0.0000,-0.0000 -0.0724,0.7241 -0.0724 1.9008v 8.3454 c 0.0000,1.5025 0.1991,1.5930 1.3034 1.6474c 0.1086,0.1086 0.1086,0.4888 0.0000 0.5974c -0.5974,-0.0181 -1.2853,-0.0362 -2.0094 -0.0362c -0.7241,-0.0000 -1.3939,0.0181 -2.0275 0.0362c -0.1086,-0.1086 -0.1086,-0.4888 0.0000 -0.5974c 1.1043,-0.0543 1.3034,-0.1448 1.3034 -1.6474Z"/></g></svg>